G04 #@! TF.GenerationSoftware,KiCad,Pcbnew,(5.1.5)-3*
G04 #@! TF.CreationDate,2020-08-22T08:16:36+03:00*
G04 #@! TF.ProjectId,C5W LED series,43355720-4c45-4442-9073-65726965732e,rev?*
G04 #@! TF.SameCoordinates,Original*
G04 #@! TF.FileFunction,Legend,Top*
G04 #@! TF.FilePolarity,Positive*
%FSLAX46Y46*%
G04 Gerber Fmt 4.6, Leading zero omitted, Abs format (unit mm)*
G04 Created by KiCad (PCBNEW (5.1.5)-3) date 2020-08-22 08:16:36*
%MOMM*%
%LPD*%
G04 APERTURE LIST*
%ADD10C,0.150000*%
%ADD11C,0.400000*%
%ADD12C,0.120000*%
G04 APERTURE END LIST*
D10*
X213752380Y-98609523D02*
X214752380Y-98371428D01*
X214038095Y-98180952D01*
X214752380Y-97990476D01*
X213752380Y-97752380D01*
X213752380Y-97466666D02*
X214752380Y-97228571D01*
X214038095Y-97038095D01*
X214752380Y-96847619D01*
X213752380Y-96609523D01*
X213752380Y-96323809D02*
X214752380Y-96085714D01*
X214038095Y-95895238D01*
X214752380Y-95704761D01*
X213752380Y-95466666D01*
X214657142Y-95085714D02*
X214704761Y-95038095D01*
X214752380Y-95085714D01*
X214704761Y-95133333D01*
X214657142Y-95085714D01*
X214752380Y-95085714D01*
X213752380Y-94752380D02*
X214752380Y-94419047D01*
X213752380Y-94085714D01*
X213752380Y-93561904D02*
X213752380Y-93371428D01*
X213800000Y-93276190D01*
X213895238Y-93180952D01*
X214085714Y-93133333D01*
X214419047Y-93133333D01*
X214609523Y-93180952D01*
X214704761Y-93276190D01*
X214752380Y-93371428D01*
X214752380Y-93561904D01*
X214704761Y-93657142D01*
X214609523Y-93752380D01*
X214419047Y-93800000D01*
X214085714Y-93800000D01*
X213895238Y-93752380D01*
X213800000Y-93657142D01*
X213752380Y-93561904D01*
X214752380Y-92228571D02*
X214752380Y-92704761D01*
X213752380Y-92704761D01*
X213752380Y-92038095D02*
X213752380Y-91466666D01*
X214752380Y-91752380D02*
X213752380Y-91752380D01*
X214752380Y-90657142D02*
X214752380Y-91133333D01*
X213752380Y-91133333D01*
X213752380Y-90133333D02*
X213752380Y-89942857D01*
X213800000Y-89847619D01*
X213895238Y-89752380D01*
X214085714Y-89704761D01*
X214419047Y-89704761D01*
X214609523Y-89752380D01*
X214704761Y-89847619D01*
X214752380Y-89942857D01*
X214752380Y-90133333D01*
X214704761Y-90228571D01*
X214609523Y-90323809D01*
X214419047Y-90371428D01*
X214085714Y-90371428D01*
X213895238Y-90323809D01*
X213800000Y-90228571D01*
X213752380Y-90133333D01*
X213800000Y-88752380D02*
X213752380Y-88847619D01*
X213752380Y-88990476D01*
X213800000Y-89133333D01*
X213895238Y-89228571D01*
X213990476Y-89276190D01*
X214180952Y-89323809D01*
X214323809Y-89323809D01*
X214514285Y-89276190D01*
X214609523Y-89228571D01*
X214704761Y-89133333D01*
X214752380Y-88990476D01*
X214752380Y-88895238D01*
X214704761Y-88752380D01*
X214657142Y-88704761D01*
X214323809Y-88704761D01*
X214323809Y-88895238D01*
X214657142Y-88276190D02*
X214704761Y-88228571D01*
X214752380Y-88276190D01*
X214704761Y-88323809D01*
X214657142Y-88276190D01*
X214752380Y-88276190D01*
X214657142Y-87228571D02*
X214704761Y-87276190D01*
X214752380Y-87419047D01*
X214752380Y-87514285D01*
X214704761Y-87657142D01*
X214609523Y-87752380D01*
X214514285Y-87800000D01*
X214323809Y-87847619D01*
X214180952Y-87847619D01*
X213990476Y-87800000D01*
X213895238Y-87752380D01*
X213800000Y-87657142D01*
X213752380Y-87514285D01*
X213752380Y-87419047D01*
X213800000Y-87276190D01*
X213847619Y-87228571D01*
X213752380Y-86609523D02*
X213752380Y-86419047D01*
X213800000Y-86323809D01*
X213895238Y-86228571D01*
X214085714Y-86180952D01*
X214419047Y-86180952D01*
X214609523Y-86228571D01*
X214704761Y-86323809D01*
X214752380Y-86419047D01*
X214752380Y-86609523D01*
X214704761Y-86704761D01*
X214609523Y-86800000D01*
X214419047Y-86847619D01*
X214085714Y-86847619D01*
X213895238Y-86800000D01*
X213800000Y-86704761D01*
X213752380Y-86609523D01*
X214752380Y-85752380D02*
X213752380Y-85752380D01*
X214466666Y-85419047D01*
X213752380Y-85085714D01*
X214752380Y-85085714D01*
X124952380Y-98509523D02*
X125952380Y-98271428D01*
X125238095Y-98080952D01*
X125952380Y-97890476D01*
X124952380Y-97652380D01*
X124952380Y-97366666D02*
X125952380Y-97128571D01*
X125238095Y-96938095D01*
X125952380Y-96747619D01*
X124952380Y-96509523D01*
X124952380Y-96223809D02*
X125952380Y-95985714D01*
X125238095Y-95795238D01*
X125952380Y-95604761D01*
X124952380Y-95366666D01*
X125857142Y-94985714D02*
X125904761Y-94938095D01*
X125952380Y-94985714D01*
X125904761Y-95033333D01*
X125857142Y-94985714D01*
X125952380Y-94985714D01*
X124952380Y-94652380D02*
X125952380Y-94319047D01*
X124952380Y-93985714D01*
X124952380Y-93461904D02*
X124952380Y-93271428D01*
X125000000Y-93176190D01*
X125095238Y-93080952D01*
X125285714Y-93033333D01*
X125619047Y-93033333D01*
X125809523Y-93080952D01*
X125904761Y-93176190D01*
X125952380Y-93271428D01*
X125952380Y-93461904D01*
X125904761Y-93557142D01*
X125809523Y-93652380D01*
X125619047Y-93700000D01*
X125285714Y-93700000D01*
X125095238Y-93652380D01*
X125000000Y-93557142D01*
X124952380Y-93461904D01*
X125952380Y-92128571D02*
X125952380Y-92604761D01*
X124952380Y-92604761D01*
X124952380Y-91938095D02*
X124952380Y-91366666D01*
X125952380Y-91652380D02*
X124952380Y-91652380D01*
X125952380Y-90557142D02*
X125952380Y-91033333D01*
X124952380Y-91033333D01*
X124952380Y-90033333D02*
X124952380Y-89842857D01*
X125000000Y-89747619D01*
X125095238Y-89652380D01*
X125285714Y-89604761D01*
X125619047Y-89604761D01*
X125809523Y-89652380D01*
X125904761Y-89747619D01*
X125952380Y-89842857D01*
X125952380Y-90033333D01*
X125904761Y-90128571D01*
X125809523Y-90223809D01*
X125619047Y-90271428D01*
X125285714Y-90271428D01*
X125095238Y-90223809D01*
X125000000Y-90128571D01*
X124952380Y-90033333D01*
X125000000Y-88652380D02*
X124952380Y-88747619D01*
X124952380Y-88890476D01*
X125000000Y-89033333D01*
X125095238Y-89128571D01*
X125190476Y-89176190D01*
X125380952Y-89223809D01*
X125523809Y-89223809D01*
X125714285Y-89176190D01*
X125809523Y-89128571D01*
X125904761Y-89033333D01*
X125952380Y-88890476D01*
X125952380Y-88795238D01*
X125904761Y-88652380D01*
X125857142Y-88604761D01*
X125523809Y-88604761D01*
X125523809Y-88795238D01*
X125857142Y-88176190D02*
X125904761Y-88128571D01*
X125952380Y-88176190D01*
X125904761Y-88223809D01*
X125857142Y-88176190D01*
X125952380Y-88176190D01*
X125857142Y-87128571D02*
X125904761Y-87176190D01*
X125952380Y-87319047D01*
X125952380Y-87414285D01*
X125904761Y-87557142D01*
X125809523Y-87652380D01*
X125714285Y-87700000D01*
X125523809Y-87747619D01*
X125380952Y-87747619D01*
X125190476Y-87700000D01*
X125095238Y-87652380D01*
X125000000Y-87557142D01*
X124952380Y-87414285D01*
X124952380Y-87319047D01*
X125000000Y-87176190D01*
X125047619Y-87128571D01*
X124952380Y-86509523D02*
X124952380Y-86319047D01*
X125000000Y-86223809D01*
X125095238Y-86128571D01*
X125285714Y-86080952D01*
X125619047Y-86080952D01*
X125809523Y-86128571D01*
X125904761Y-86223809D01*
X125952380Y-86319047D01*
X125952380Y-86509523D01*
X125904761Y-86604761D01*
X125809523Y-86700000D01*
X125619047Y-86747619D01*
X125285714Y-86747619D01*
X125095238Y-86700000D01*
X125000000Y-86604761D01*
X124952380Y-86509523D01*
X125952380Y-85652380D02*
X124952380Y-85652380D01*
X125666666Y-85319047D01*
X124952380Y-84985714D01*
X125952380Y-84985714D01*
X155966666Y-52052380D02*
X155966666Y-51052380D01*
X156347619Y-51052380D01*
X156442857Y-51100000D01*
X156490476Y-51147619D01*
X156538095Y-51242857D01*
X156538095Y-51385714D01*
X156490476Y-51480952D01*
X156442857Y-51528571D01*
X156347619Y-51576190D01*
X155966666Y-51576190D01*
X156919047Y-51766666D02*
X157395238Y-51766666D01*
X156823809Y-52052380D02*
X157157142Y-51052380D01*
X157490476Y-52052380D01*
X157823809Y-52052380D02*
X157823809Y-51052380D01*
X158395238Y-52052380D01*
X158395238Y-51052380D01*
X158871428Y-51528571D02*
X159204761Y-51528571D01*
X159347619Y-52052380D02*
X158871428Y-52052380D01*
X158871428Y-51052380D01*
X159347619Y-51052380D01*
X160252380Y-52052380D02*
X159776190Y-52052380D01*
X159776190Y-51052380D01*
X161347619Y-52052380D02*
X161347619Y-51052380D01*
X161680952Y-51766666D01*
X162014285Y-51052380D01*
X162014285Y-52052380D01*
X162442857Y-51766666D02*
X162919047Y-51766666D01*
X162347619Y-52052380D02*
X162680952Y-51052380D01*
X163014285Y-52052380D01*
X163347619Y-52052380D02*
X163347619Y-51052380D01*
X163919047Y-52052380D01*
X163919047Y-51052380D01*
X164395238Y-51052380D02*
X164395238Y-51861904D01*
X164442857Y-51957142D01*
X164490476Y-52004761D01*
X164585714Y-52052380D01*
X164776190Y-52052380D01*
X164871428Y-52004761D01*
X164919047Y-51957142D01*
X164966666Y-51861904D01*
X164966666Y-51052380D01*
X165776190Y-51528571D02*
X165442857Y-51528571D01*
X165442857Y-52052380D02*
X165442857Y-51052380D01*
X165919047Y-51052380D01*
X166252380Y-51766666D02*
X166728571Y-51766666D01*
X166157142Y-52052380D02*
X166490476Y-51052380D01*
X166823809Y-52052380D01*
X167728571Y-51957142D02*
X167680952Y-52004761D01*
X167538095Y-52052380D01*
X167442857Y-52052380D01*
X167300000Y-52004761D01*
X167204761Y-51909523D01*
X167157142Y-51814285D01*
X167109523Y-51623809D01*
X167109523Y-51480952D01*
X167157142Y-51290476D01*
X167204761Y-51195238D01*
X167300000Y-51100000D01*
X167442857Y-51052380D01*
X167538095Y-51052380D01*
X167680952Y-51100000D01*
X167728571Y-51147619D01*
X168014285Y-51052380D02*
X168585714Y-51052380D01*
X168300000Y-52052380D02*
X168300000Y-51052380D01*
X168919047Y-51052380D02*
X168919047Y-51861904D01*
X168966666Y-51957142D01*
X169014285Y-52004761D01*
X169109523Y-52052380D01*
X169300000Y-52052380D01*
X169395238Y-52004761D01*
X169442857Y-51957142D01*
X169490476Y-51861904D01*
X169490476Y-51052380D01*
X170538095Y-52052380D02*
X170204761Y-51576190D01*
X169966666Y-52052380D02*
X169966666Y-51052380D01*
X170347619Y-51052380D01*
X170442857Y-51100000D01*
X170490476Y-51147619D01*
X170538095Y-51242857D01*
X170538095Y-51385714D01*
X170490476Y-51480952D01*
X170442857Y-51528571D01*
X170347619Y-51576190D01*
X169966666Y-51576190D01*
X170966666Y-51528571D02*
X171300000Y-51528571D01*
X171442857Y-52052380D02*
X170966666Y-52052380D01*
X170966666Y-51052380D01*
X171442857Y-51052380D01*
X171871428Y-52052380D02*
X171871428Y-51052380D01*
X172109523Y-51052380D01*
X172252380Y-51100000D01*
X172347619Y-51195238D01*
X172395238Y-51290476D01*
X172442857Y-51480952D01*
X172442857Y-51623809D01*
X172395238Y-51814285D01*
X172347619Y-51909523D01*
X172252380Y-52004761D01*
X172109523Y-52052380D01*
X171871428Y-52052380D01*
X173966666Y-51528571D02*
X174109523Y-51576190D01*
X174157142Y-51623809D01*
X174204761Y-51719047D01*
X174204761Y-51861904D01*
X174157142Y-51957142D01*
X174109523Y-52004761D01*
X174014285Y-52052380D01*
X173633333Y-52052380D01*
X173633333Y-51052380D01*
X173966666Y-51052380D01*
X174061904Y-51100000D01*
X174109523Y-51147619D01*
X174157142Y-51242857D01*
X174157142Y-51338095D01*
X174109523Y-51433333D01*
X174061904Y-51480952D01*
X173966666Y-51528571D01*
X173633333Y-51528571D01*
X174823809Y-51576190D02*
X174823809Y-52052380D01*
X174490476Y-51052380D02*
X174823809Y-51576190D01*
X175157142Y-51052380D01*
X176252380Y-52052380D02*
X176252380Y-51052380D01*
X176633333Y-51052380D01*
X176728571Y-51100000D01*
X176776190Y-51147619D01*
X176823809Y-51242857D01*
X176823809Y-51385714D01*
X176776190Y-51480952D01*
X176728571Y-51528571D01*
X176633333Y-51576190D01*
X176252380Y-51576190D01*
X177823809Y-51957142D02*
X177776190Y-52004761D01*
X177633333Y-52052380D01*
X177538095Y-52052380D01*
X177395238Y-52004761D01*
X177300000Y-51909523D01*
X177252380Y-51814285D01*
X177204761Y-51623809D01*
X177204761Y-51480952D01*
X177252380Y-51290476D01*
X177300000Y-51195238D01*
X177395238Y-51100000D01*
X177538095Y-51052380D01*
X177633333Y-51052380D01*
X177776190Y-51100000D01*
X177823809Y-51147619D01*
X178585714Y-51528571D02*
X178728571Y-51576190D01*
X178776190Y-51623809D01*
X178823809Y-51719047D01*
X178823809Y-51861904D01*
X178776190Y-51957142D01*
X178728571Y-52004761D01*
X178633333Y-52052380D01*
X178252380Y-52052380D01*
X178252380Y-51052380D01*
X178585714Y-51052380D01*
X178680952Y-51100000D01*
X178728571Y-51147619D01*
X178776190Y-51242857D01*
X178776190Y-51338095D01*
X178728571Y-51433333D01*
X178680952Y-51480952D01*
X178585714Y-51528571D01*
X178252380Y-51528571D01*
X179157142Y-51052380D02*
X179395238Y-52052380D01*
X179585714Y-51338095D01*
X179776190Y-52052380D01*
X180014285Y-51052380D01*
X180347619Y-51766666D02*
X180823809Y-51766666D01*
X180252380Y-52052380D02*
X180585714Y-51052380D01*
X180919047Y-52052380D01*
X181442857Y-51576190D02*
X181442857Y-52052380D01*
X181109523Y-51052380D02*
X181442857Y-51576190D01*
X181776190Y-51052380D01*
X187542857Y-51857142D02*
X187495238Y-51904761D01*
X187352380Y-51952380D01*
X187257142Y-51952380D01*
X187114285Y-51904761D01*
X187019047Y-51809523D01*
X186971428Y-51714285D01*
X186923809Y-51523809D01*
X186923809Y-51380952D01*
X186971428Y-51190476D01*
X187019047Y-51095238D01*
X187114285Y-51000000D01*
X187257142Y-50952380D01*
X187352380Y-50952380D01*
X187495238Y-51000000D01*
X187542857Y-51047619D01*
X188542857Y-51952380D02*
X188209523Y-51476190D01*
X187971428Y-51952380D02*
X187971428Y-50952380D01*
X188352380Y-50952380D01*
X188447619Y-51000000D01*
X188495238Y-51047619D01*
X188542857Y-51142857D01*
X188542857Y-51285714D01*
X188495238Y-51380952D01*
X188447619Y-51428571D01*
X188352380Y-51476190D01*
X187971428Y-51476190D01*
X188971428Y-51428571D02*
X189304761Y-51428571D01*
X189447619Y-51952380D02*
X188971428Y-51952380D01*
X188971428Y-50952380D01*
X189447619Y-50952380D01*
X189876190Y-51428571D02*
X190209523Y-51428571D01*
X190352380Y-51952380D02*
X189876190Y-51952380D01*
X189876190Y-50952380D01*
X190352380Y-50952380D01*
X191495238Y-51047619D02*
X191542857Y-51000000D01*
X191638095Y-50952380D01*
X191876190Y-50952380D01*
X191971428Y-51000000D01*
X192019047Y-51047619D01*
X192066666Y-51142857D01*
X192066666Y-51238095D01*
X192019047Y-51380952D01*
X191447619Y-51952380D01*
X192066666Y-51952380D01*
X192638095Y-51380952D02*
X192542857Y-51333333D01*
X192495238Y-51285714D01*
X192447619Y-51190476D01*
X192447619Y-51142857D01*
X192495238Y-51047619D01*
X192542857Y-51000000D01*
X192638095Y-50952380D01*
X192828571Y-50952380D01*
X192923809Y-51000000D01*
X192971428Y-51047619D01*
X193019047Y-51142857D01*
X193019047Y-51190476D01*
X192971428Y-51285714D01*
X192923809Y-51333333D01*
X192828571Y-51380952D01*
X192638095Y-51380952D01*
X192542857Y-51428571D01*
X192495238Y-51476190D01*
X192447619Y-51571428D01*
X192447619Y-51761904D01*
X192495238Y-51857142D01*
X192542857Y-51904761D01*
X192638095Y-51952380D01*
X192828571Y-51952380D01*
X192923809Y-51904761D01*
X192971428Y-51857142D01*
X193019047Y-51761904D01*
X193019047Y-51571428D01*
X192971428Y-51476190D01*
X192923809Y-51428571D01*
X192828571Y-51380952D01*
X193352380Y-50952380D02*
X193971428Y-50952380D01*
X193638095Y-51333333D01*
X193780952Y-51333333D01*
X193876190Y-51380952D01*
X193923809Y-51428571D01*
X193971428Y-51523809D01*
X193971428Y-51761904D01*
X193923809Y-51857142D01*
X193876190Y-51904761D01*
X193780952Y-51952380D01*
X193495238Y-51952380D01*
X193400000Y-51904761D01*
X193352380Y-51857142D01*
X194876190Y-50952380D02*
X194400000Y-50952380D01*
X194352380Y-51428571D01*
X194400000Y-51380952D01*
X194495238Y-51333333D01*
X194733333Y-51333333D01*
X194828571Y-51380952D01*
X194876190Y-51428571D01*
X194923809Y-51523809D01*
X194923809Y-51761904D01*
X194876190Y-51857142D01*
X194828571Y-51904761D01*
X194733333Y-51952380D01*
X194495238Y-51952380D01*
X194400000Y-51904761D01*
X194352380Y-51857142D01*
X196400000Y-50952380D02*
X196400000Y-51666666D01*
X196352380Y-51809523D01*
X196257142Y-51904761D01*
X196114285Y-51952380D01*
X196019047Y-51952380D01*
X197590476Y-51904761D02*
X197733333Y-51952380D01*
X197971428Y-51952380D01*
X198066666Y-51904761D01*
X198114285Y-51857142D01*
X198161904Y-51761904D01*
X198161904Y-51666666D01*
X198114285Y-51571428D01*
X198066666Y-51523809D01*
X197971428Y-51476190D01*
X197780952Y-51428571D01*
X197685714Y-51380952D01*
X197638095Y-51333333D01*
X197590476Y-51238095D01*
X197590476Y-51142857D01*
X197638095Y-51047619D01*
X197685714Y-51000000D01*
X197780952Y-50952380D01*
X198019047Y-50952380D01*
X198161904Y-51000000D01*
X198590476Y-51428571D02*
X198923809Y-51428571D01*
X199066666Y-51952380D02*
X198590476Y-51952380D01*
X198590476Y-50952380D01*
X199066666Y-50952380D01*
X200066666Y-51952380D02*
X199733333Y-51476190D01*
X199495238Y-51952380D02*
X199495238Y-50952380D01*
X199876190Y-50952380D01*
X199971428Y-51000000D01*
X200019047Y-51047619D01*
X200066666Y-51142857D01*
X200066666Y-51285714D01*
X200019047Y-51380952D01*
X199971428Y-51428571D01*
X199876190Y-51476190D01*
X199495238Y-51476190D01*
X200495238Y-51952380D02*
X200495238Y-50952380D01*
X200971428Y-51428571D02*
X201304761Y-51428571D01*
X201447619Y-51952380D02*
X200971428Y-51952380D01*
X200971428Y-50952380D01*
X201447619Y-50952380D01*
X201828571Y-51904761D02*
X201971428Y-51952380D01*
X202209523Y-51952380D01*
X202304761Y-51904761D01*
X202352380Y-51857142D01*
X202400000Y-51761904D01*
X202400000Y-51666666D01*
X202352380Y-51571428D01*
X202304761Y-51523809D01*
X202209523Y-51476190D01*
X202019047Y-51428571D01*
X201923809Y-51380952D01*
X201876190Y-51333333D01*
X201828571Y-51238095D01*
X201828571Y-51142857D01*
X201876190Y-51047619D01*
X201923809Y-51000000D01*
X202019047Y-50952380D01*
X202257142Y-50952380D01*
X202400000Y-51000000D01*
X204066666Y-51952380D02*
X203590476Y-51952380D01*
X203590476Y-50952380D01*
X204400000Y-51428571D02*
X204733333Y-51428571D01*
X204876190Y-51952380D02*
X204400000Y-51952380D01*
X204400000Y-50952380D01*
X204876190Y-50952380D01*
X205304761Y-51952380D02*
X205304761Y-50952380D01*
X205542857Y-50952380D01*
X205685714Y-51000000D01*
X205780952Y-51095238D01*
X205828571Y-51190476D01*
X205876190Y-51380952D01*
X205876190Y-51523809D01*
X205828571Y-51714285D01*
X205780952Y-51809523D01*
X205685714Y-51904761D01*
X205542857Y-51952380D01*
X205304761Y-51952380D01*
X132385714Y-52057142D02*
X132338095Y-52104761D01*
X132195238Y-52152380D01*
X132100000Y-52152380D01*
X131957142Y-52104761D01*
X131861904Y-52009523D01*
X131814285Y-51914285D01*
X131766666Y-51723809D01*
X131766666Y-51580952D01*
X131814285Y-51390476D01*
X131861904Y-51295238D01*
X131957142Y-51200000D01*
X132100000Y-51152380D01*
X132195238Y-51152380D01*
X132338095Y-51200000D01*
X132385714Y-51247619D01*
X133290476Y-51152380D02*
X132814285Y-51152380D01*
X132766666Y-51628571D01*
X132814285Y-51580952D01*
X132909523Y-51533333D01*
X133147619Y-51533333D01*
X133242857Y-51580952D01*
X133290476Y-51628571D01*
X133338095Y-51723809D01*
X133338095Y-51961904D01*
X133290476Y-52057142D01*
X133242857Y-52104761D01*
X133147619Y-52152380D01*
X132909523Y-52152380D01*
X132814285Y-52104761D01*
X132766666Y-52057142D01*
X133671428Y-51152380D02*
X133909523Y-52152380D01*
X134100000Y-51438095D01*
X134290476Y-52152380D01*
X134528571Y-51152380D01*
X136147619Y-52152380D02*
X135671428Y-52152380D01*
X135671428Y-51152380D01*
X136480952Y-51628571D02*
X136814285Y-51628571D01*
X136957142Y-52152380D02*
X136480952Y-52152380D01*
X136480952Y-51152380D01*
X136957142Y-51152380D01*
X137385714Y-52152380D02*
X137385714Y-51152380D01*
X137623809Y-51152380D01*
X137766666Y-51200000D01*
X137861904Y-51295238D01*
X137909523Y-51390476D01*
X137957142Y-51580952D01*
X137957142Y-51723809D01*
X137909523Y-51914285D01*
X137861904Y-52009523D01*
X137766666Y-52104761D01*
X137623809Y-52152380D01*
X137385714Y-52152380D01*
X139480952Y-51628571D02*
X139623809Y-51676190D01*
X139671428Y-51723809D01*
X139719047Y-51819047D01*
X139719047Y-51961904D01*
X139671428Y-52057142D01*
X139623809Y-52104761D01*
X139528571Y-52152380D01*
X139147619Y-52152380D01*
X139147619Y-51152380D01*
X139480952Y-51152380D01*
X139576190Y-51200000D01*
X139623809Y-51247619D01*
X139671428Y-51342857D01*
X139671428Y-51438095D01*
X139623809Y-51533333D01*
X139576190Y-51580952D01*
X139480952Y-51628571D01*
X139147619Y-51628571D01*
X140147619Y-51152380D02*
X140147619Y-51961904D01*
X140195238Y-52057142D01*
X140242857Y-52104761D01*
X140338095Y-52152380D01*
X140528571Y-52152380D01*
X140623809Y-52104761D01*
X140671428Y-52057142D01*
X140719047Y-51961904D01*
X140719047Y-51152380D01*
X141671428Y-52152380D02*
X141195238Y-52152380D01*
X141195238Y-51152380D01*
X142338095Y-51628571D02*
X142480952Y-51676190D01*
X142528571Y-51723809D01*
X142576190Y-51819047D01*
X142576190Y-51961904D01*
X142528571Y-52057142D01*
X142480952Y-52104761D01*
X142385714Y-52152380D01*
X142004761Y-52152380D01*
X142004761Y-51152380D01*
X142338095Y-51152380D01*
X142433333Y-51200000D01*
X142480952Y-51247619D01*
X142528571Y-51342857D01*
X142528571Y-51438095D01*
X142480952Y-51533333D01*
X142433333Y-51580952D01*
X142338095Y-51628571D01*
X142004761Y-51628571D01*
X144195238Y-51152380D02*
X144004761Y-51152380D01*
X143909523Y-51200000D01*
X143861904Y-51247619D01*
X143766666Y-51390476D01*
X143719047Y-51580952D01*
X143719047Y-51961904D01*
X143766666Y-52057142D01*
X143814285Y-52104761D01*
X143909523Y-52152380D01*
X144100000Y-52152380D01*
X144195238Y-52104761D01*
X144242857Y-52057142D01*
X144290476Y-51961904D01*
X144290476Y-51723809D01*
X144242857Y-51628571D01*
X144195238Y-51580952D01*
X144100000Y-51533333D01*
X143909523Y-51533333D01*
X143814285Y-51580952D01*
X143766666Y-51628571D01*
X143719047Y-51723809D01*
X144623809Y-52152380D02*
X145147619Y-51485714D01*
X144623809Y-51485714D02*
X145147619Y-52152380D01*
X145480952Y-51247619D02*
X145528571Y-51200000D01*
X145623809Y-51152380D01*
X145861904Y-51152380D01*
X145957142Y-51200000D01*
X146004761Y-51247619D01*
X146052380Y-51342857D01*
X146052380Y-51438095D01*
X146004761Y-51580952D01*
X145433333Y-52152380D01*
X146052380Y-52152380D01*
X147242857Y-52152380D02*
X147242857Y-51152380D01*
X147623809Y-51152380D01*
X147719047Y-51200000D01*
X147766666Y-51247619D01*
X147814285Y-51342857D01*
X147814285Y-51485714D01*
X147766666Y-51580952D01*
X147719047Y-51628571D01*
X147623809Y-51676190D01*
X147242857Y-51676190D01*
X148195238Y-51866666D02*
X148671428Y-51866666D01*
X148100000Y-52152380D02*
X148433333Y-51152380D01*
X148766666Y-52152380D01*
X149100000Y-52152380D02*
X149100000Y-51152380D01*
X149671428Y-52152380D01*
X149671428Y-51152380D01*
X150147619Y-51628571D02*
X150480952Y-51628571D01*
X150623809Y-52152380D02*
X150147619Y-52152380D01*
X150147619Y-51152380D01*
X150623809Y-51152380D01*
X151528571Y-52152380D02*
X151052380Y-52152380D01*
X151052380Y-51152380D01*
D11*
X201978571Y-121802380D02*
X201978571Y-119897619D01*
X202930952Y-120850000D02*
X201026190Y-120850000D01*
X201978571Y-99902380D02*
X201978571Y-97997619D01*
X161478571Y-121802380D02*
X161478571Y-119897619D01*
X162430952Y-120850000D02*
X160526190Y-120850000D01*
X161478571Y-99902380D02*
X161478571Y-97997619D01*
X174978571Y-99902380D02*
X174978571Y-97997619D01*
X174978571Y-121802380D02*
X174978571Y-119897619D01*
X175930952Y-120850000D02*
X174026190Y-120850000D01*
X147978571Y-99902380D02*
X147978571Y-97997619D01*
X147978571Y-121802380D02*
X147978571Y-119897619D01*
X148930952Y-120850000D02*
X147026190Y-120850000D01*
X188478571Y-99902380D02*
X188478571Y-97997619D01*
X188478571Y-121802380D02*
X188478571Y-119897619D01*
X189430952Y-120850000D02*
X187526190Y-120850000D01*
X134478571Y-121802380D02*
X134478571Y-119897619D01*
X135430952Y-120850000D02*
X133526190Y-120850000D01*
X134478571Y-99902380D02*
X134478571Y-97997619D01*
X201978571Y-63002380D02*
X201978571Y-61097619D01*
X201978571Y-84902380D02*
X201978571Y-82997619D01*
X202930952Y-83950000D02*
X201026190Y-83950000D01*
X188478571Y-63002380D02*
X188478571Y-61097619D01*
X188478571Y-84902380D02*
X188478571Y-82997619D01*
X189430952Y-83950000D02*
X187526190Y-83950000D01*
X174978571Y-84902380D02*
X174978571Y-82997619D01*
X175930952Y-83950000D02*
X174026190Y-83950000D01*
X174978571Y-63002380D02*
X174978571Y-61097619D01*
X161478571Y-63002380D02*
X161478571Y-61097619D01*
X161478571Y-84902380D02*
X161478571Y-82997619D01*
X162430952Y-83950000D02*
X160526190Y-83950000D01*
X147978571Y-84902380D02*
X147978571Y-82997619D01*
X148930952Y-83950000D02*
X147026190Y-83950000D01*
X147978571Y-63002380D02*
X147978571Y-61097619D01*
X134478571Y-63002380D02*
X134478571Y-61097619D01*
X134478571Y-84902380D02*
X134478571Y-82997619D01*
X135430952Y-83950000D02*
X133526190Y-83950000D01*
D12*
X204700000Y-98550000D02*
X204700000Y-95350000D01*
X202700000Y-95350000D02*
X202700000Y-98550000D01*
X202700000Y-95350000D02*
X204700000Y-95350000D01*
X151300000Y-111950000D02*
X148100000Y-111950000D01*
X148100000Y-115550000D02*
X148100000Y-111950000D01*
X151300000Y-115550000D02*
X151300000Y-111950000D01*
X205300000Y-111950000D02*
X202100000Y-111950000D01*
X202100000Y-115550000D02*
X202100000Y-111950000D01*
X205300000Y-115550000D02*
X205300000Y-111950000D01*
X164800000Y-115550000D02*
X164800000Y-111950000D01*
X161600000Y-115550000D02*
X161600000Y-111950000D01*
X164800000Y-111950000D02*
X161600000Y-111950000D01*
X150700000Y-98550000D02*
X150700000Y-95350000D01*
X148700000Y-95350000D02*
X148700000Y-98550000D01*
X148700000Y-95350000D02*
X150700000Y-95350000D01*
X151300000Y-103550000D02*
X148100000Y-103550000D01*
X148100000Y-107150000D02*
X148100000Y-103550000D01*
X151300000Y-107150000D02*
X151300000Y-103550000D01*
X205300000Y-103550000D02*
X202100000Y-103550000D01*
X202100000Y-107150000D02*
X202100000Y-103550000D01*
X205300000Y-107150000D02*
X205300000Y-103550000D01*
X191800000Y-107150000D02*
X191800000Y-103550000D01*
X188600000Y-107150000D02*
X188600000Y-103550000D01*
X191800000Y-103550000D02*
X188600000Y-103550000D01*
X164800000Y-107150000D02*
X164800000Y-103550000D01*
X161600000Y-107150000D02*
X161600000Y-103550000D01*
X164800000Y-103550000D02*
X161600000Y-103550000D01*
X191800000Y-115550000D02*
X191800000Y-111950000D01*
X188600000Y-115550000D02*
X188600000Y-111950000D01*
X191800000Y-111950000D02*
X188600000Y-111950000D01*
X178300000Y-111950000D02*
X175100000Y-111950000D01*
X175100000Y-115550000D02*
X175100000Y-111950000D01*
X178300000Y-115550000D02*
X178300000Y-111950000D01*
X162200000Y-95350000D02*
X164200000Y-95350000D01*
X162200000Y-95350000D02*
X162200000Y-98550000D01*
X164200000Y-98550000D02*
X164200000Y-95350000D01*
X178300000Y-103550000D02*
X175100000Y-103550000D01*
X175100000Y-107150000D02*
X175100000Y-103550000D01*
X178300000Y-107150000D02*
X178300000Y-103550000D01*
X189200000Y-95350000D02*
X191200000Y-95350000D01*
X189200000Y-95350000D02*
X189200000Y-98550000D01*
X191200000Y-98550000D02*
X191200000Y-95350000D01*
X177700000Y-98550000D02*
X177700000Y-95350000D01*
X175700000Y-95350000D02*
X175700000Y-98550000D01*
X175700000Y-95350000D02*
X177700000Y-95350000D01*
X137800000Y-115550000D02*
X137800000Y-111950000D01*
X134600000Y-115550000D02*
X134600000Y-111950000D01*
X137800000Y-111950000D02*
X134600000Y-111950000D01*
X137800000Y-107150000D02*
X137800000Y-103550000D01*
X134600000Y-107150000D02*
X134600000Y-103550000D01*
X137800000Y-103550000D02*
X134600000Y-103550000D01*
X135200000Y-95350000D02*
X137200000Y-95350000D01*
X135200000Y-95350000D02*
X135200000Y-98550000D01*
X137200000Y-98550000D02*
X137200000Y-95350000D01*
X205300000Y-70250000D02*
X205300000Y-66650000D01*
X202100000Y-70250000D02*
X202100000Y-66650000D01*
X205300000Y-66650000D02*
X202100000Y-66650000D01*
X205300000Y-78650000D02*
X205300000Y-75050000D01*
X202100000Y-78650000D02*
X202100000Y-75050000D01*
X205300000Y-75050000D02*
X202100000Y-75050000D01*
X202700000Y-58450000D02*
X204700000Y-58450000D01*
X202700000Y-58450000D02*
X202700000Y-61650000D01*
X204700000Y-61650000D02*
X204700000Y-58450000D01*
X191800000Y-75050000D02*
X188600000Y-75050000D01*
X188600000Y-78650000D02*
X188600000Y-75050000D01*
X191800000Y-78650000D02*
X191800000Y-75050000D01*
X191800000Y-66650000D02*
X188600000Y-66650000D01*
X188600000Y-70250000D02*
X188600000Y-66650000D01*
X191800000Y-70250000D02*
X191800000Y-66650000D01*
X191200000Y-61650000D02*
X191200000Y-58450000D01*
X189200000Y-58450000D02*
X189200000Y-61650000D01*
X189200000Y-58450000D02*
X191200000Y-58450000D01*
X178300000Y-78650000D02*
X178300000Y-75050000D01*
X175100000Y-78650000D02*
X175100000Y-75050000D01*
X178300000Y-75050000D02*
X175100000Y-75050000D01*
X178300000Y-70250000D02*
X178300000Y-66650000D01*
X175100000Y-70250000D02*
X175100000Y-66650000D01*
X178300000Y-66650000D02*
X175100000Y-66650000D01*
X175700000Y-58450000D02*
X177700000Y-58450000D01*
X175700000Y-58450000D02*
X175700000Y-61650000D01*
X177700000Y-61650000D02*
X177700000Y-58450000D01*
X164800000Y-75050000D02*
X161600000Y-75050000D01*
X161600000Y-78650000D02*
X161600000Y-75050000D01*
X164800000Y-78650000D02*
X164800000Y-75050000D01*
X164200000Y-61650000D02*
X164200000Y-58450000D01*
X162200000Y-58450000D02*
X162200000Y-61650000D01*
X162200000Y-58450000D02*
X164200000Y-58450000D01*
X164800000Y-66650000D02*
X161600000Y-66650000D01*
X161600000Y-70250000D02*
X161600000Y-66650000D01*
X164800000Y-70250000D02*
X164800000Y-66650000D01*
X151300000Y-78650000D02*
X151300000Y-75050000D01*
X148100000Y-78650000D02*
X148100000Y-75050000D01*
X151300000Y-75050000D02*
X148100000Y-75050000D01*
X151300000Y-70250000D02*
X151300000Y-66650000D01*
X148100000Y-70250000D02*
X148100000Y-66650000D01*
X151300000Y-66650000D02*
X148100000Y-66650000D01*
X148700000Y-58450000D02*
X150700000Y-58450000D01*
X148700000Y-58450000D02*
X148700000Y-61650000D01*
X150700000Y-61650000D02*
X150700000Y-58450000D01*
X137800000Y-66650000D02*
X134600000Y-66650000D01*
X134600000Y-70250000D02*
X134600000Y-66650000D01*
X137800000Y-70250000D02*
X137800000Y-66650000D01*
X137800000Y-75050000D02*
X134600000Y-75050000D01*
X134600000Y-78650000D02*
X134600000Y-75050000D01*
X137800000Y-78650000D02*
X137800000Y-75050000D01*
X137200000Y-61650000D02*
X137200000Y-58450000D01*
X135200000Y-58450000D02*
X135200000Y-61650000D01*
X135200000Y-58450000D02*
X137200000Y-58450000D01*
D10*
X205152380Y-98311904D02*
X205961904Y-98311904D01*
X206057142Y-98264285D01*
X206104761Y-98216666D01*
X206152380Y-98121428D01*
X206152380Y-97930952D01*
X206104761Y-97835714D01*
X206057142Y-97788095D01*
X205961904Y-97740476D01*
X205152380Y-97740476D01*
X206152380Y-96740476D02*
X206152380Y-97311904D01*
X206152380Y-97026190D02*
X205152380Y-97026190D01*
X205295238Y-97121428D01*
X205390476Y-97216666D01*
X205438095Y-97311904D01*
X151152380Y-98311904D02*
X151961904Y-98311904D01*
X152057142Y-98264285D01*
X152104761Y-98216666D01*
X152152380Y-98121428D01*
X152152380Y-97930952D01*
X152104761Y-97835714D01*
X152057142Y-97788095D01*
X151961904Y-97740476D01*
X151152380Y-97740476D01*
X152152380Y-96740476D02*
X152152380Y-97311904D01*
X152152380Y-97026190D02*
X151152380Y-97026190D01*
X151295238Y-97121428D01*
X151390476Y-97216666D01*
X151438095Y-97311904D01*
X164652380Y-98311904D02*
X165461904Y-98311904D01*
X165557142Y-98264285D01*
X165604761Y-98216666D01*
X165652380Y-98121428D01*
X165652380Y-97930952D01*
X165604761Y-97835714D01*
X165557142Y-97788095D01*
X165461904Y-97740476D01*
X164652380Y-97740476D01*
X165652380Y-96740476D02*
X165652380Y-97311904D01*
X165652380Y-97026190D02*
X164652380Y-97026190D01*
X164795238Y-97121428D01*
X164890476Y-97216666D01*
X164938095Y-97311904D01*
X191652380Y-98311904D02*
X192461904Y-98311904D01*
X192557142Y-98264285D01*
X192604761Y-98216666D01*
X192652380Y-98121428D01*
X192652380Y-97930952D01*
X192604761Y-97835714D01*
X192557142Y-97788095D01*
X192461904Y-97740476D01*
X191652380Y-97740476D01*
X192652380Y-96740476D02*
X192652380Y-97311904D01*
X192652380Y-97026190D02*
X191652380Y-97026190D01*
X191795238Y-97121428D01*
X191890476Y-97216666D01*
X191938095Y-97311904D01*
X178152380Y-98311904D02*
X178961904Y-98311904D01*
X179057142Y-98264285D01*
X179104761Y-98216666D01*
X179152380Y-98121428D01*
X179152380Y-97930952D01*
X179104761Y-97835714D01*
X179057142Y-97788095D01*
X178961904Y-97740476D01*
X178152380Y-97740476D01*
X179152380Y-96740476D02*
X179152380Y-97311904D01*
X179152380Y-97026190D02*
X178152380Y-97026190D01*
X178295238Y-97121428D01*
X178390476Y-97216666D01*
X178438095Y-97311904D01*
X137652380Y-98311904D02*
X138461904Y-98311904D01*
X138557142Y-98264285D01*
X138604761Y-98216666D01*
X138652380Y-98121428D01*
X138652380Y-97930952D01*
X138604761Y-97835714D01*
X138557142Y-97788095D01*
X138461904Y-97740476D01*
X137652380Y-97740476D01*
X138652380Y-96740476D02*
X138652380Y-97311904D01*
X138652380Y-97026190D02*
X137652380Y-97026190D01*
X137795238Y-97121428D01*
X137890476Y-97216666D01*
X137938095Y-97311904D01*
X205152380Y-61411904D02*
X205961904Y-61411904D01*
X206057142Y-61364285D01*
X206104761Y-61316666D01*
X206152380Y-61221428D01*
X206152380Y-61030952D01*
X206104761Y-60935714D01*
X206057142Y-60888095D01*
X205961904Y-60840476D01*
X205152380Y-60840476D01*
X206152380Y-59840476D02*
X206152380Y-60411904D01*
X206152380Y-60126190D02*
X205152380Y-60126190D01*
X205295238Y-60221428D01*
X205390476Y-60316666D01*
X205438095Y-60411904D01*
X191652380Y-61411904D02*
X192461904Y-61411904D01*
X192557142Y-61364285D01*
X192604761Y-61316666D01*
X192652380Y-61221428D01*
X192652380Y-61030952D01*
X192604761Y-60935714D01*
X192557142Y-60888095D01*
X192461904Y-60840476D01*
X191652380Y-60840476D01*
X192652380Y-59840476D02*
X192652380Y-60411904D01*
X192652380Y-60126190D02*
X191652380Y-60126190D01*
X191795238Y-60221428D01*
X191890476Y-60316666D01*
X191938095Y-60411904D01*
X178152380Y-61411904D02*
X178961904Y-61411904D01*
X179057142Y-61364285D01*
X179104761Y-61316666D01*
X179152380Y-61221428D01*
X179152380Y-61030952D01*
X179104761Y-60935714D01*
X179057142Y-60888095D01*
X178961904Y-60840476D01*
X178152380Y-60840476D01*
X179152380Y-59840476D02*
X179152380Y-60411904D01*
X179152380Y-60126190D02*
X178152380Y-60126190D01*
X178295238Y-60221428D01*
X178390476Y-60316666D01*
X178438095Y-60411904D01*
X164652380Y-61411904D02*
X165461904Y-61411904D01*
X165557142Y-61364285D01*
X165604761Y-61316666D01*
X165652380Y-61221428D01*
X165652380Y-61030952D01*
X165604761Y-60935714D01*
X165557142Y-60888095D01*
X165461904Y-60840476D01*
X164652380Y-60840476D01*
X165652380Y-59840476D02*
X165652380Y-60411904D01*
X165652380Y-60126190D02*
X164652380Y-60126190D01*
X164795238Y-60221428D01*
X164890476Y-60316666D01*
X164938095Y-60411904D01*
X151152380Y-61411904D02*
X151961904Y-61411904D01*
X152057142Y-61364285D01*
X152104761Y-61316666D01*
X152152380Y-61221428D01*
X152152380Y-61030952D01*
X152104761Y-60935714D01*
X152057142Y-60888095D01*
X151961904Y-60840476D01*
X151152380Y-60840476D01*
X152152380Y-59840476D02*
X152152380Y-60411904D01*
X152152380Y-60126190D02*
X151152380Y-60126190D01*
X151295238Y-60221428D01*
X151390476Y-60316666D01*
X151438095Y-60411904D01*
X137652380Y-61411904D02*
X138461904Y-61411904D01*
X138557142Y-61364285D01*
X138604761Y-61316666D01*
X138652380Y-61221428D01*
X138652380Y-61030952D01*
X138604761Y-60935714D01*
X138557142Y-60888095D01*
X138461904Y-60840476D01*
X137652380Y-60840476D01*
X138652380Y-59840476D02*
X138652380Y-60411904D01*
X138652380Y-60126190D02*
X137652380Y-60126190D01*
X137795238Y-60221428D01*
X137890476Y-60316666D01*
X137938095Y-60411904D01*
M02*
