G04 #@! TF.GenerationSoftware,KiCad,Pcbnew,(5.1.5)-3*
G04 #@! TF.CreationDate,2020-08-22T08:16:36+03:00*
G04 #@! TF.ProjectId,C5W LED series,43355720-4c45-4442-9073-65726965732e,rev?*
G04 #@! TF.SameCoordinates,Original*
G04 #@! TF.FileFunction,Copper,L2,Bot*
G04 #@! TF.FilePolarity,Positive*
%FSLAX46Y46*%
G04 Gerber Fmt 4.6, Leading zero omitted, Abs format (unit mm)*
G04 Created by KiCad (PCBNEW (5.1.5)-3) date 2020-08-22 08:16:36*
%MOMM*%
%LPD*%
G04 APERTURE LIST*
%ADD10C,0.100000*%
%ADD11C,0.800000*%
%ADD12C,0.500000*%
%ADD13C,0.254000*%
G04 APERTURE END LIST*
G04 #@! TA.AperFunction,SMDPad,CuDef*
D10*
G36*
X163849504Y-107926204D02*
G01*
X163873773Y-107929804D01*
X163897571Y-107935765D01*
X163920671Y-107944030D01*
X163942849Y-107954520D01*
X163963893Y-107967133D01*
X163983598Y-107981747D01*
X164001777Y-107998223D01*
X164018253Y-108016402D01*
X164032867Y-108036107D01*
X164045480Y-108057151D01*
X164055970Y-108079329D01*
X164064235Y-108102429D01*
X164070196Y-108126227D01*
X164073796Y-108150496D01*
X164075000Y-108175000D01*
X164075000Y-108925000D01*
X164073796Y-108949504D01*
X164070196Y-108973773D01*
X164064235Y-108997571D01*
X164055970Y-109020671D01*
X164045480Y-109042849D01*
X164032867Y-109063893D01*
X164018253Y-109083598D01*
X164001777Y-109101777D01*
X163983598Y-109118253D01*
X163963893Y-109132867D01*
X163942849Y-109145480D01*
X163920671Y-109155970D01*
X163897571Y-109164235D01*
X163873773Y-109170196D01*
X163849504Y-109173796D01*
X163825000Y-109175000D01*
X162575000Y-109175000D01*
X162550496Y-109173796D01*
X162526227Y-109170196D01*
X162502429Y-109164235D01*
X162479329Y-109155970D01*
X162457151Y-109145480D01*
X162436107Y-109132867D01*
X162416402Y-109118253D01*
X162398223Y-109101777D01*
X162381747Y-109083598D01*
X162367133Y-109063893D01*
X162354520Y-109042849D01*
X162344030Y-109020671D01*
X162335765Y-108997571D01*
X162329804Y-108973773D01*
X162326204Y-108949504D01*
X162325000Y-108925000D01*
X162325000Y-108175000D01*
X162326204Y-108150496D01*
X162329804Y-108126227D01*
X162335765Y-108102429D01*
X162344030Y-108079329D01*
X162354520Y-108057151D01*
X162367133Y-108036107D01*
X162381747Y-108016402D01*
X162398223Y-107998223D01*
X162416402Y-107981747D01*
X162436107Y-107967133D01*
X162457151Y-107954520D01*
X162479329Y-107944030D01*
X162502429Y-107935765D01*
X162526227Y-107929804D01*
X162550496Y-107926204D01*
X162575000Y-107925000D01*
X163825000Y-107925000D01*
X163849504Y-107926204D01*
G37*
G04 #@! TD.AperFunction*
G04 #@! TA.AperFunction,SMDPad,CuDef*
G36*
X163849504Y-110726204D02*
G01*
X163873773Y-110729804D01*
X163897571Y-110735765D01*
X163920671Y-110744030D01*
X163942849Y-110754520D01*
X163963893Y-110767133D01*
X163983598Y-110781747D01*
X164001777Y-110798223D01*
X164018253Y-110816402D01*
X164032867Y-110836107D01*
X164045480Y-110857151D01*
X164055970Y-110879329D01*
X164064235Y-110902429D01*
X164070196Y-110926227D01*
X164073796Y-110950496D01*
X164075000Y-110975000D01*
X164075000Y-111725000D01*
X164073796Y-111749504D01*
X164070196Y-111773773D01*
X164064235Y-111797571D01*
X164055970Y-111820671D01*
X164045480Y-111842849D01*
X164032867Y-111863893D01*
X164018253Y-111883598D01*
X164001777Y-111901777D01*
X163983598Y-111918253D01*
X163963893Y-111932867D01*
X163942849Y-111945480D01*
X163920671Y-111955970D01*
X163897571Y-111964235D01*
X163873773Y-111970196D01*
X163849504Y-111973796D01*
X163825000Y-111975000D01*
X162575000Y-111975000D01*
X162550496Y-111973796D01*
X162526227Y-111970196D01*
X162502429Y-111964235D01*
X162479329Y-111955970D01*
X162457151Y-111945480D01*
X162436107Y-111932867D01*
X162416402Y-111918253D01*
X162398223Y-111901777D01*
X162381747Y-111883598D01*
X162367133Y-111863893D01*
X162354520Y-111842849D01*
X162344030Y-111820671D01*
X162335765Y-111797571D01*
X162329804Y-111773773D01*
X162326204Y-111749504D01*
X162325000Y-111725000D01*
X162325000Y-110975000D01*
X162326204Y-110950496D01*
X162329804Y-110926227D01*
X162335765Y-110902429D01*
X162344030Y-110879329D01*
X162354520Y-110857151D01*
X162367133Y-110836107D01*
X162381747Y-110816402D01*
X162398223Y-110798223D01*
X162416402Y-110781747D01*
X162436107Y-110767133D01*
X162457151Y-110754520D01*
X162479329Y-110744030D01*
X162502429Y-110735765D01*
X162526227Y-110729804D01*
X162550496Y-110726204D01*
X162575000Y-110725000D01*
X163825000Y-110725000D01*
X163849504Y-110726204D01*
G37*
G04 #@! TD.AperFunction*
G04 #@! TA.AperFunction,SMDPad,CuDef*
G36*
X150349504Y-110726204D02*
G01*
X150373773Y-110729804D01*
X150397571Y-110735765D01*
X150420671Y-110744030D01*
X150442849Y-110754520D01*
X150463893Y-110767133D01*
X150483598Y-110781747D01*
X150501777Y-110798223D01*
X150518253Y-110816402D01*
X150532867Y-110836107D01*
X150545480Y-110857151D01*
X150555970Y-110879329D01*
X150564235Y-110902429D01*
X150570196Y-110926227D01*
X150573796Y-110950496D01*
X150575000Y-110975000D01*
X150575000Y-111725000D01*
X150573796Y-111749504D01*
X150570196Y-111773773D01*
X150564235Y-111797571D01*
X150555970Y-111820671D01*
X150545480Y-111842849D01*
X150532867Y-111863893D01*
X150518253Y-111883598D01*
X150501777Y-111901777D01*
X150483598Y-111918253D01*
X150463893Y-111932867D01*
X150442849Y-111945480D01*
X150420671Y-111955970D01*
X150397571Y-111964235D01*
X150373773Y-111970196D01*
X150349504Y-111973796D01*
X150325000Y-111975000D01*
X149075000Y-111975000D01*
X149050496Y-111973796D01*
X149026227Y-111970196D01*
X149002429Y-111964235D01*
X148979329Y-111955970D01*
X148957151Y-111945480D01*
X148936107Y-111932867D01*
X148916402Y-111918253D01*
X148898223Y-111901777D01*
X148881747Y-111883598D01*
X148867133Y-111863893D01*
X148854520Y-111842849D01*
X148844030Y-111820671D01*
X148835765Y-111797571D01*
X148829804Y-111773773D01*
X148826204Y-111749504D01*
X148825000Y-111725000D01*
X148825000Y-110975000D01*
X148826204Y-110950496D01*
X148829804Y-110926227D01*
X148835765Y-110902429D01*
X148844030Y-110879329D01*
X148854520Y-110857151D01*
X148867133Y-110836107D01*
X148881747Y-110816402D01*
X148898223Y-110798223D01*
X148916402Y-110781747D01*
X148936107Y-110767133D01*
X148957151Y-110754520D01*
X148979329Y-110744030D01*
X149002429Y-110735765D01*
X149026227Y-110729804D01*
X149050496Y-110726204D01*
X149075000Y-110725000D01*
X150325000Y-110725000D01*
X150349504Y-110726204D01*
G37*
G04 #@! TD.AperFunction*
G04 #@! TA.AperFunction,SMDPad,CuDef*
G36*
X150349504Y-107926204D02*
G01*
X150373773Y-107929804D01*
X150397571Y-107935765D01*
X150420671Y-107944030D01*
X150442849Y-107954520D01*
X150463893Y-107967133D01*
X150483598Y-107981747D01*
X150501777Y-107998223D01*
X150518253Y-108016402D01*
X150532867Y-108036107D01*
X150545480Y-108057151D01*
X150555970Y-108079329D01*
X150564235Y-108102429D01*
X150570196Y-108126227D01*
X150573796Y-108150496D01*
X150575000Y-108175000D01*
X150575000Y-108925000D01*
X150573796Y-108949504D01*
X150570196Y-108973773D01*
X150564235Y-108997571D01*
X150555970Y-109020671D01*
X150545480Y-109042849D01*
X150532867Y-109063893D01*
X150518253Y-109083598D01*
X150501777Y-109101777D01*
X150483598Y-109118253D01*
X150463893Y-109132867D01*
X150442849Y-109145480D01*
X150420671Y-109155970D01*
X150397571Y-109164235D01*
X150373773Y-109170196D01*
X150349504Y-109173796D01*
X150325000Y-109175000D01*
X149075000Y-109175000D01*
X149050496Y-109173796D01*
X149026227Y-109170196D01*
X149002429Y-109164235D01*
X148979329Y-109155970D01*
X148957151Y-109145480D01*
X148936107Y-109132867D01*
X148916402Y-109118253D01*
X148898223Y-109101777D01*
X148881747Y-109083598D01*
X148867133Y-109063893D01*
X148854520Y-109042849D01*
X148844030Y-109020671D01*
X148835765Y-108997571D01*
X148829804Y-108973773D01*
X148826204Y-108949504D01*
X148825000Y-108925000D01*
X148825000Y-108175000D01*
X148826204Y-108150496D01*
X148829804Y-108126227D01*
X148835765Y-108102429D01*
X148844030Y-108079329D01*
X148854520Y-108057151D01*
X148867133Y-108036107D01*
X148881747Y-108016402D01*
X148898223Y-107998223D01*
X148916402Y-107981747D01*
X148936107Y-107967133D01*
X148957151Y-107954520D01*
X148979329Y-107944030D01*
X149002429Y-107935765D01*
X149026227Y-107929804D01*
X149050496Y-107926204D01*
X149075000Y-107925000D01*
X150325000Y-107925000D01*
X150349504Y-107926204D01*
G37*
G04 #@! TD.AperFunction*
G04 #@! TA.AperFunction,SMDPad,CuDef*
G36*
X190849504Y-107926204D02*
G01*
X190873773Y-107929804D01*
X190897571Y-107935765D01*
X190920671Y-107944030D01*
X190942849Y-107954520D01*
X190963893Y-107967133D01*
X190983598Y-107981747D01*
X191001777Y-107998223D01*
X191018253Y-108016402D01*
X191032867Y-108036107D01*
X191045480Y-108057151D01*
X191055970Y-108079329D01*
X191064235Y-108102429D01*
X191070196Y-108126227D01*
X191073796Y-108150496D01*
X191075000Y-108175000D01*
X191075000Y-108925000D01*
X191073796Y-108949504D01*
X191070196Y-108973773D01*
X191064235Y-108997571D01*
X191055970Y-109020671D01*
X191045480Y-109042849D01*
X191032867Y-109063893D01*
X191018253Y-109083598D01*
X191001777Y-109101777D01*
X190983598Y-109118253D01*
X190963893Y-109132867D01*
X190942849Y-109145480D01*
X190920671Y-109155970D01*
X190897571Y-109164235D01*
X190873773Y-109170196D01*
X190849504Y-109173796D01*
X190825000Y-109175000D01*
X189575000Y-109175000D01*
X189550496Y-109173796D01*
X189526227Y-109170196D01*
X189502429Y-109164235D01*
X189479329Y-109155970D01*
X189457151Y-109145480D01*
X189436107Y-109132867D01*
X189416402Y-109118253D01*
X189398223Y-109101777D01*
X189381747Y-109083598D01*
X189367133Y-109063893D01*
X189354520Y-109042849D01*
X189344030Y-109020671D01*
X189335765Y-108997571D01*
X189329804Y-108973773D01*
X189326204Y-108949504D01*
X189325000Y-108925000D01*
X189325000Y-108175000D01*
X189326204Y-108150496D01*
X189329804Y-108126227D01*
X189335765Y-108102429D01*
X189344030Y-108079329D01*
X189354520Y-108057151D01*
X189367133Y-108036107D01*
X189381747Y-108016402D01*
X189398223Y-107998223D01*
X189416402Y-107981747D01*
X189436107Y-107967133D01*
X189457151Y-107954520D01*
X189479329Y-107944030D01*
X189502429Y-107935765D01*
X189526227Y-107929804D01*
X189550496Y-107926204D01*
X189575000Y-107925000D01*
X190825000Y-107925000D01*
X190849504Y-107926204D01*
G37*
G04 #@! TD.AperFunction*
G04 #@! TA.AperFunction,SMDPad,CuDef*
G36*
X190849504Y-110726204D02*
G01*
X190873773Y-110729804D01*
X190897571Y-110735765D01*
X190920671Y-110744030D01*
X190942849Y-110754520D01*
X190963893Y-110767133D01*
X190983598Y-110781747D01*
X191001777Y-110798223D01*
X191018253Y-110816402D01*
X191032867Y-110836107D01*
X191045480Y-110857151D01*
X191055970Y-110879329D01*
X191064235Y-110902429D01*
X191070196Y-110926227D01*
X191073796Y-110950496D01*
X191075000Y-110975000D01*
X191075000Y-111725000D01*
X191073796Y-111749504D01*
X191070196Y-111773773D01*
X191064235Y-111797571D01*
X191055970Y-111820671D01*
X191045480Y-111842849D01*
X191032867Y-111863893D01*
X191018253Y-111883598D01*
X191001777Y-111901777D01*
X190983598Y-111918253D01*
X190963893Y-111932867D01*
X190942849Y-111945480D01*
X190920671Y-111955970D01*
X190897571Y-111964235D01*
X190873773Y-111970196D01*
X190849504Y-111973796D01*
X190825000Y-111975000D01*
X189575000Y-111975000D01*
X189550496Y-111973796D01*
X189526227Y-111970196D01*
X189502429Y-111964235D01*
X189479329Y-111955970D01*
X189457151Y-111945480D01*
X189436107Y-111932867D01*
X189416402Y-111918253D01*
X189398223Y-111901777D01*
X189381747Y-111883598D01*
X189367133Y-111863893D01*
X189354520Y-111842849D01*
X189344030Y-111820671D01*
X189335765Y-111797571D01*
X189329804Y-111773773D01*
X189326204Y-111749504D01*
X189325000Y-111725000D01*
X189325000Y-110975000D01*
X189326204Y-110950496D01*
X189329804Y-110926227D01*
X189335765Y-110902429D01*
X189344030Y-110879329D01*
X189354520Y-110857151D01*
X189367133Y-110836107D01*
X189381747Y-110816402D01*
X189398223Y-110798223D01*
X189416402Y-110781747D01*
X189436107Y-110767133D01*
X189457151Y-110754520D01*
X189479329Y-110744030D01*
X189502429Y-110735765D01*
X189526227Y-110729804D01*
X189550496Y-110726204D01*
X189575000Y-110725000D01*
X190825000Y-110725000D01*
X190849504Y-110726204D01*
G37*
G04 #@! TD.AperFunction*
G04 #@! TA.AperFunction,SMDPad,CuDef*
G36*
X204349504Y-110726204D02*
G01*
X204373773Y-110729804D01*
X204397571Y-110735765D01*
X204420671Y-110744030D01*
X204442849Y-110754520D01*
X204463893Y-110767133D01*
X204483598Y-110781747D01*
X204501777Y-110798223D01*
X204518253Y-110816402D01*
X204532867Y-110836107D01*
X204545480Y-110857151D01*
X204555970Y-110879329D01*
X204564235Y-110902429D01*
X204570196Y-110926227D01*
X204573796Y-110950496D01*
X204575000Y-110975000D01*
X204575000Y-111725000D01*
X204573796Y-111749504D01*
X204570196Y-111773773D01*
X204564235Y-111797571D01*
X204555970Y-111820671D01*
X204545480Y-111842849D01*
X204532867Y-111863893D01*
X204518253Y-111883598D01*
X204501777Y-111901777D01*
X204483598Y-111918253D01*
X204463893Y-111932867D01*
X204442849Y-111945480D01*
X204420671Y-111955970D01*
X204397571Y-111964235D01*
X204373773Y-111970196D01*
X204349504Y-111973796D01*
X204325000Y-111975000D01*
X203075000Y-111975000D01*
X203050496Y-111973796D01*
X203026227Y-111970196D01*
X203002429Y-111964235D01*
X202979329Y-111955970D01*
X202957151Y-111945480D01*
X202936107Y-111932867D01*
X202916402Y-111918253D01*
X202898223Y-111901777D01*
X202881747Y-111883598D01*
X202867133Y-111863893D01*
X202854520Y-111842849D01*
X202844030Y-111820671D01*
X202835765Y-111797571D01*
X202829804Y-111773773D01*
X202826204Y-111749504D01*
X202825000Y-111725000D01*
X202825000Y-110975000D01*
X202826204Y-110950496D01*
X202829804Y-110926227D01*
X202835765Y-110902429D01*
X202844030Y-110879329D01*
X202854520Y-110857151D01*
X202867133Y-110836107D01*
X202881747Y-110816402D01*
X202898223Y-110798223D01*
X202916402Y-110781747D01*
X202936107Y-110767133D01*
X202957151Y-110754520D01*
X202979329Y-110744030D01*
X203002429Y-110735765D01*
X203026227Y-110729804D01*
X203050496Y-110726204D01*
X203075000Y-110725000D01*
X204325000Y-110725000D01*
X204349504Y-110726204D01*
G37*
G04 #@! TD.AperFunction*
G04 #@! TA.AperFunction,SMDPad,CuDef*
G36*
X204349504Y-107926204D02*
G01*
X204373773Y-107929804D01*
X204397571Y-107935765D01*
X204420671Y-107944030D01*
X204442849Y-107954520D01*
X204463893Y-107967133D01*
X204483598Y-107981747D01*
X204501777Y-107998223D01*
X204518253Y-108016402D01*
X204532867Y-108036107D01*
X204545480Y-108057151D01*
X204555970Y-108079329D01*
X204564235Y-108102429D01*
X204570196Y-108126227D01*
X204573796Y-108150496D01*
X204575000Y-108175000D01*
X204575000Y-108925000D01*
X204573796Y-108949504D01*
X204570196Y-108973773D01*
X204564235Y-108997571D01*
X204555970Y-109020671D01*
X204545480Y-109042849D01*
X204532867Y-109063893D01*
X204518253Y-109083598D01*
X204501777Y-109101777D01*
X204483598Y-109118253D01*
X204463893Y-109132867D01*
X204442849Y-109145480D01*
X204420671Y-109155970D01*
X204397571Y-109164235D01*
X204373773Y-109170196D01*
X204349504Y-109173796D01*
X204325000Y-109175000D01*
X203075000Y-109175000D01*
X203050496Y-109173796D01*
X203026227Y-109170196D01*
X203002429Y-109164235D01*
X202979329Y-109155970D01*
X202957151Y-109145480D01*
X202936107Y-109132867D01*
X202916402Y-109118253D01*
X202898223Y-109101777D01*
X202881747Y-109083598D01*
X202867133Y-109063893D01*
X202854520Y-109042849D01*
X202844030Y-109020671D01*
X202835765Y-108997571D01*
X202829804Y-108973773D01*
X202826204Y-108949504D01*
X202825000Y-108925000D01*
X202825000Y-108175000D01*
X202826204Y-108150496D01*
X202829804Y-108126227D01*
X202835765Y-108102429D01*
X202844030Y-108079329D01*
X202854520Y-108057151D01*
X202867133Y-108036107D01*
X202881747Y-108016402D01*
X202898223Y-107998223D01*
X202916402Y-107981747D01*
X202936107Y-107967133D01*
X202957151Y-107954520D01*
X202979329Y-107944030D01*
X203002429Y-107935765D01*
X203026227Y-107929804D01*
X203050496Y-107926204D01*
X203075000Y-107925000D01*
X204325000Y-107925000D01*
X204349504Y-107926204D01*
G37*
G04 #@! TD.AperFunction*
G04 #@! TA.AperFunction,SMDPad,CuDef*
G36*
X177349504Y-110726204D02*
G01*
X177373773Y-110729804D01*
X177397571Y-110735765D01*
X177420671Y-110744030D01*
X177442849Y-110754520D01*
X177463893Y-110767133D01*
X177483598Y-110781747D01*
X177501777Y-110798223D01*
X177518253Y-110816402D01*
X177532867Y-110836107D01*
X177545480Y-110857151D01*
X177555970Y-110879329D01*
X177564235Y-110902429D01*
X177570196Y-110926227D01*
X177573796Y-110950496D01*
X177575000Y-110975000D01*
X177575000Y-111725000D01*
X177573796Y-111749504D01*
X177570196Y-111773773D01*
X177564235Y-111797571D01*
X177555970Y-111820671D01*
X177545480Y-111842849D01*
X177532867Y-111863893D01*
X177518253Y-111883598D01*
X177501777Y-111901777D01*
X177483598Y-111918253D01*
X177463893Y-111932867D01*
X177442849Y-111945480D01*
X177420671Y-111955970D01*
X177397571Y-111964235D01*
X177373773Y-111970196D01*
X177349504Y-111973796D01*
X177325000Y-111975000D01*
X176075000Y-111975000D01*
X176050496Y-111973796D01*
X176026227Y-111970196D01*
X176002429Y-111964235D01*
X175979329Y-111955970D01*
X175957151Y-111945480D01*
X175936107Y-111932867D01*
X175916402Y-111918253D01*
X175898223Y-111901777D01*
X175881747Y-111883598D01*
X175867133Y-111863893D01*
X175854520Y-111842849D01*
X175844030Y-111820671D01*
X175835765Y-111797571D01*
X175829804Y-111773773D01*
X175826204Y-111749504D01*
X175825000Y-111725000D01*
X175825000Y-110975000D01*
X175826204Y-110950496D01*
X175829804Y-110926227D01*
X175835765Y-110902429D01*
X175844030Y-110879329D01*
X175854520Y-110857151D01*
X175867133Y-110836107D01*
X175881747Y-110816402D01*
X175898223Y-110798223D01*
X175916402Y-110781747D01*
X175936107Y-110767133D01*
X175957151Y-110754520D01*
X175979329Y-110744030D01*
X176002429Y-110735765D01*
X176026227Y-110729804D01*
X176050496Y-110726204D01*
X176075000Y-110725000D01*
X177325000Y-110725000D01*
X177349504Y-110726204D01*
G37*
G04 #@! TD.AperFunction*
G04 #@! TA.AperFunction,SMDPad,CuDef*
G36*
X177349504Y-107926204D02*
G01*
X177373773Y-107929804D01*
X177397571Y-107935765D01*
X177420671Y-107944030D01*
X177442849Y-107954520D01*
X177463893Y-107967133D01*
X177483598Y-107981747D01*
X177501777Y-107998223D01*
X177518253Y-108016402D01*
X177532867Y-108036107D01*
X177545480Y-108057151D01*
X177555970Y-108079329D01*
X177564235Y-108102429D01*
X177570196Y-108126227D01*
X177573796Y-108150496D01*
X177575000Y-108175000D01*
X177575000Y-108925000D01*
X177573796Y-108949504D01*
X177570196Y-108973773D01*
X177564235Y-108997571D01*
X177555970Y-109020671D01*
X177545480Y-109042849D01*
X177532867Y-109063893D01*
X177518253Y-109083598D01*
X177501777Y-109101777D01*
X177483598Y-109118253D01*
X177463893Y-109132867D01*
X177442849Y-109145480D01*
X177420671Y-109155970D01*
X177397571Y-109164235D01*
X177373773Y-109170196D01*
X177349504Y-109173796D01*
X177325000Y-109175000D01*
X176075000Y-109175000D01*
X176050496Y-109173796D01*
X176026227Y-109170196D01*
X176002429Y-109164235D01*
X175979329Y-109155970D01*
X175957151Y-109145480D01*
X175936107Y-109132867D01*
X175916402Y-109118253D01*
X175898223Y-109101777D01*
X175881747Y-109083598D01*
X175867133Y-109063893D01*
X175854520Y-109042849D01*
X175844030Y-109020671D01*
X175835765Y-108997571D01*
X175829804Y-108973773D01*
X175826204Y-108949504D01*
X175825000Y-108925000D01*
X175825000Y-108175000D01*
X175826204Y-108150496D01*
X175829804Y-108126227D01*
X175835765Y-108102429D01*
X175844030Y-108079329D01*
X175854520Y-108057151D01*
X175867133Y-108036107D01*
X175881747Y-108016402D01*
X175898223Y-107998223D01*
X175916402Y-107981747D01*
X175936107Y-107967133D01*
X175957151Y-107954520D01*
X175979329Y-107944030D01*
X176002429Y-107935765D01*
X176026227Y-107929804D01*
X176050496Y-107926204D01*
X176075000Y-107925000D01*
X177325000Y-107925000D01*
X177349504Y-107926204D01*
G37*
G04 #@! TD.AperFunction*
G04 #@! TA.AperFunction,SMDPad,CuDef*
G36*
X136849504Y-107926204D02*
G01*
X136873773Y-107929804D01*
X136897571Y-107935765D01*
X136920671Y-107944030D01*
X136942849Y-107954520D01*
X136963893Y-107967133D01*
X136983598Y-107981747D01*
X137001777Y-107998223D01*
X137018253Y-108016402D01*
X137032867Y-108036107D01*
X137045480Y-108057151D01*
X137055970Y-108079329D01*
X137064235Y-108102429D01*
X137070196Y-108126227D01*
X137073796Y-108150496D01*
X137075000Y-108175000D01*
X137075000Y-108925000D01*
X137073796Y-108949504D01*
X137070196Y-108973773D01*
X137064235Y-108997571D01*
X137055970Y-109020671D01*
X137045480Y-109042849D01*
X137032867Y-109063893D01*
X137018253Y-109083598D01*
X137001777Y-109101777D01*
X136983598Y-109118253D01*
X136963893Y-109132867D01*
X136942849Y-109145480D01*
X136920671Y-109155970D01*
X136897571Y-109164235D01*
X136873773Y-109170196D01*
X136849504Y-109173796D01*
X136825000Y-109175000D01*
X135575000Y-109175000D01*
X135550496Y-109173796D01*
X135526227Y-109170196D01*
X135502429Y-109164235D01*
X135479329Y-109155970D01*
X135457151Y-109145480D01*
X135436107Y-109132867D01*
X135416402Y-109118253D01*
X135398223Y-109101777D01*
X135381747Y-109083598D01*
X135367133Y-109063893D01*
X135354520Y-109042849D01*
X135344030Y-109020671D01*
X135335765Y-108997571D01*
X135329804Y-108973773D01*
X135326204Y-108949504D01*
X135325000Y-108925000D01*
X135325000Y-108175000D01*
X135326204Y-108150496D01*
X135329804Y-108126227D01*
X135335765Y-108102429D01*
X135344030Y-108079329D01*
X135354520Y-108057151D01*
X135367133Y-108036107D01*
X135381747Y-108016402D01*
X135398223Y-107998223D01*
X135416402Y-107981747D01*
X135436107Y-107967133D01*
X135457151Y-107954520D01*
X135479329Y-107944030D01*
X135502429Y-107935765D01*
X135526227Y-107929804D01*
X135550496Y-107926204D01*
X135575000Y-107925000D01*
X136825000Y-107925000D01*
X136849504Y-107926204D01*
G37*
G04 #@! TD.AperFunction*
G04 #@! TA.AperFunction,SMDPad,CuDef*
G36*
X136849504Y-110726204D02*
G01*
X136873773Y-110729804D01*
X136897571Y-110735765D01*
X136920671Y-110744030D01*
X136942849Y-110754520D01*
X136963893Y-110767133D01*
X136983598Y-110781747D01*
X137001777Y-110798223D01*
X137018253Y-110816402D01*
X137032867Y-110836107D01*
X137045480Y-110857151D01*
X137055970Y-110879329D01*
X137064235Y-110902429D01*
X137070196Y-110926227D01*
X137073796Y-110950496D01*
X137075000Y-110975000D01*
X137075000Y-111725000D01*
X137073796Y-111749504D01*
X137070196Y-111773773D01*
X137064235Y-111797571D01*
X137055970Y-111820671D01*
X137045480Y-111842849D01*
X137032867Y-111863893D01*
X137018253Y-111883598D01*
X137001777Y-111901777D01*
X136983598Y-111918253D01*
X136963893Y-111932867D01*
X136942849Y-111945480D01*
X136920671Y-111955970D01*
X136897571Y-111964235D01*
X136873773Y-111970196D01*
X136849504Y-111973796D01*
X136825000Y-111975000D01*
X135575000Y-111975000D01*
X135550496Y-111973796D01*
X135526227Y-111970196D01*
X135502429Y-111964235D01*
X135479329Y-111955970D01*
X135457151Y-111945480D01*
X135436107Y-111932867D01*
X135416402Y-111918253D01*
X135398223Y-111901777D01*
X135381747Y-111883598D01*
X135367133Y-111863893D01*
X135354520Y-111842849D01*
X135344030Y-111820671D01*
X135335765Y-111797571D01*
X135329804Y-111773773D01*
X135326204Y-111749504D01*
X135325000Y-111725000D01*
X135325000Y-110975000D01*
X135326204Y-110950496D01*
X135329804Y-110926227D01*
X135335765Y-110902429D01*
X135344030Y-110879329D01*
X135354520Y-110857151D01*
X135367133Y-110836107D01*
X135381747Y-110816402D01*
X135398223Y-110798223D01*
X135416402Y-110781747D01*
X135436107Y-110767133D01*
X135457151Y-110754520D01*
X135479329Y-110744030D01*
X135502429Y-110735765D01*
X135526227Y-110729804D01*
X135550496Y-110726204D01*
X135575000Y-110725000D01*
X136825000Y-110725000D01*
X136849504Y-110726204D01*
G37*
G04 #@! TD.AperFunction*
G04 #@! TA.AperFunction,SMDPad,CuDef*
G36*
X204349504Y-71026204D02*
G01*
X204373773Y-71029804D01*
X204397571Y-71035765D01*
X204420671Y-71044030D01*
X204442849Y-71054520D01*
X204463893Y-71067133D01*
X204483598Y-71081747D01*
X204501777Y-71098223D01*
X204518253Y-71116402D01*
X204532867Y-71136107D01*
X204545480Y-71157151D01*
X204555970Y-71179329D01*
X204564235Y-71202429D01*
X204570196Y-71226227D01*
X204573796Y-71250496D01*
X204575000Y-71275000D01*
X204575000Y-72025000D01*
X204573796Y-72049504D01*
X204570196Y-72073773D01*
X204564235Y-72097571D01*
X204555970Y-72120671D01*
X204545480Y-72142849D01*
X204532867Y-72163893D01*
X204518253Y-72183598D01*
X204501777Y-72201777D01*
X204483598Y-72218253D01*
X204463893Y-72232867D01*
X204442849Y-72245480D01*
X204420671Y-72255970D01*
X204397571Y-72264235D01*
X204373773Y-72270196D01*
X204349504Y-72273796D01*
X204325000Y-72275000D01*
X203075000Y-72275000D01*
X203050496Y-72273796D01*
X203026227Y-72270196D01*
X203002429Y-72264235D01*
X202979329Y-72255970D01*
X202957151Y-72245480D01*
X202936107Y-72232867D01*
X202916402Y-72218253D01*
X202898223Y-72201777D01*
X202881747Y-72183598D01*
X202867133Y-72163893D01*
X202854520Y-72142849D01*
X202844030Y-72120671D01*
X202835765Y-72097571D01*
X202829804Y-72073773D01*
X202826204Y-72049504D01*
X202825000Y-72025000D01*
X202825000Y-71275000D01*
X202826204Y-71250496D01*
X202829804Y-71226227D01*
X202835765Y-71202429D01*
X202844030Y-71179329D01*
X202854520Y-71157151D01*
X202867133Y-71136107D01*
X202881747Y-71116402D01*
X202898223Y-71098223D01*
X202916402Y-71081747D01*
X202936107Y-71067133D01*
X202957151Y-71054520D01*
X202979329Y-71044030D01*
X203002429Y-71035765D01*
X203026227Y-71029804D01*
X203050496Y-71026204D01*
X203075000Y-71025000D01*
X204325000Y-71025000D01*
X204349504Y-71026204D01*
G37*
G04 #@! TD.AperFunction*
G04 #@! TA.AperFunction,SMDPad,CuDef*
G36*
X204349504Y-73826204D02*
G01*
X204373773Y-73829804D01*
X204397571Y-73835765D01*
X204420671Y-73844030D01*
X204442849Y-73854520D01*
X204463893Y-73867133D01*
X204483598Y-73881747D01*
X204501777Y-73898223D01*
X204518253Y-73916402D01*
X204532867Y-73936107D01*
X204545480Y-73957151D01*
X204555970Y-73979329D01*
X204564235Y-74002429D01*
X204570196Y-74026227D01*
X204573796Y-74050496D01*
X204575000Y-74075000D01*
X204575000Y-74825000D01*
X204573796Y-74849504D01*
X204570196Y-74873773D01*
X204564235Y-74897571D01*
X204555970Y-74920671D01*
X204545480Y-74942849D01*
X204532867Y-74963893D01*
X204518253Y-74983598D01*
X204501777Y-75001777D01*
X204483598Y-75018253D01*
X204463893Y-75032867D01*
X204442849Y-75045480D01*
X204420671Y-75055970D01*
X204397571Y-75064235D01*
X204373773Y-75070196D01*
X204349504Y-75073796D01*
X204325000Y-75075000D01*
X203075000Y-75075000D01*
X203050496Y-75073796D01*
X203026227Y-75070196D01*
X203002429Y-75064235D01*
X202979329Y-75055970D01*
X202957151Y-75045480D01*
X202936107Y-75032867D01*
X202916402Y-75018253D01*
X202898223Y-75001777D01*
X202881747Y-74983598D01*
X202867133Y-74963893D01*
X202854520Y-74942849D01*
X202844030Y-74920671D01*
X202835765Y-74897571D01*
X202829804Y-74873773D01*
X202826204Y-74849504D01*
X202825000Y-74825000D01*
X202825000Y-74075000D01*
X202826204Y-74050496D01*
X202829804Y-74026227D01*
X202835765Y-74002429D01*
X202844030Y-73979329D01*
X202854520Y-73957151D01*
X202867133Y-73936107D01*
X202881747Y-73916402D01*
X202898223Y-73898223D01*
X202916402Y-73881747D01*
X202936107Y-73867133D01*
X202957151Y-73854520D01*
X202979329Y-73844030D01*
X203002429Y-73835765D01*
X203026227Y-73829804D01*
X203050496Y-73826204D01*
X203075000Y-73825000D01*
X204325000Y-73825000D01*
X204349504Y-73826204D01*
G37*
G04 #@! TD.AperFunction*
G04 #@! TA.AperFunction,SMDPad,CuDef*
G36*
X190849504Y-73826204D02*
G01*
X190873773Y-73829804D01*
X190897571Y-73835765D01*
X190920671Y-73844030D01*
X190942849Y-73854520D01*
X190963893Y-73867133D01*
X190983598Y-73881747D01*
X191001777Y-73898223D01*
X191018253Y-73916402D01*
X191032867Y-73936107D01*
X191045480Y-73957151D01*
X191055970Y-73979329D01*
X191064235Y-74002429D01*
X191070196Y-74026227D01*
X191073796Y-74050496D01*
X191075000Y-74075000D01*
X191075000Y-74825000D01*
X191073796Y-74849504D01*
X191070196Y-74873773D01*
X191064235Y-74897571D01*
X191055970Y-74920671D01*
X191045480Y-74942849D01*
X191032867Y-74963893D01*
X191018253Y-74983598D01*
X191001777Y-75001777D01*
X190983598Y-75018253D01*
X190963893Y-75032867D01*
X190942849Y-75045480D01*
X190920671Y-75055970D01*
X190897571Y-75064235D01*
X190873773Y-75070196D01*
X190849504Y-75073796D01*
X190825000Y-75075000D01*
X189575000Y-75075000D01*
X189550496Y-75073796D01*
X189526227Y-75070196D01*
X189502429Y-75064235D01*
X189479329Y-75055970D01*
X189457151Y-75045480D01*
X189436107Y-75032867D01*
X189416402Y-75018253D01*
X189398223Y-75001777D01*
X189381747Y-74983598D01*
X189367133Y-74963893D01*
X189354520Y-74942849D01*
X189344030Y-74920671D01*
X189335765Y-74897571D01*
X189329804Y-74873773D01*
X189326204Y-74849504D01*
X189325000Y-74825000D01*
X189325000Y-74075000D01*
X189326204Y-74050496D01*
X189329804Y-74026227D01*
X189335765Y-74002429D01*
X189344030Y-73979329D01*
X189354520Y-73957151D01*
X189367133Y-73936107D01*
X189381747Y-73916402D01*
X189398223Y-73898223D01*
X189416402Y-73881747D01*
X189436107Y-73867133D01*
X189457151Y-73854520D01*
X189479329Y-73844030D01*
X189502429Y-73835765D01*
X189526227Y-73829804D01*
X189550496Y-73826204D01*
X189575000Y-73825000D01*
X190825000Y-73825000D01*
X190849504Y-73826204D01*
G37*
G04 #@! TD.AperFunction*
G04 #@! TA.AperFunction,SMDPad,CuDef*
G36*
X190849504Y-71026204D02*
G01*
X190873773Y-71029804D01*
X190897571Y-71035765D01*
X190920671Y-71044030D01*
X190942849Y-71054520D01*
X190963893Y-71067133D01*
X190983598Y-71081747D01*
X191001777Y-71098223D01*
X191018253Y-71116402D01*
X191032867Y-71136107D01*
X191045480Y-71157151D01*
X191055970Y-71179329D01*
X191064235Y-71202429D01*
X191070196Y-71226227D01*
X191073796Y-71250496D01*
X191075000Y-71275000D01*
X191075000Y-72025000D01*
X191073796Y-72049504D01*
X191070196Y-72073773D01*
X191064235Y-72097571D01*
X191055970Y-72120671D01*
X191045480Y-72142849D01*
X191032867Y-72163893D01*
X191018253Y-72183598D01*
X191001777Y-72201777D01*
X190983598Y-72218253D01*
X190963893Y-72232867D01*
X190942849Y-72245480D01*
X190920671Y-72255970D01*
X190897571Y-72264235D01*
X190873773Y-72270196D01*
X190849504Y-72273796D01*
X190825000Y-72275000D01*
X189575000Y-72275000D01*
X189550496Y-72273796D01*
X189526227Y-72270196D01*
X189502429Y-72264235D01*
X189479329Y-72255970D01*
X189457151Y-72245480D01*
X189436107Y-72232867D01*
X189416402Y-72218253D01*
X189398223Y-72201777D01*
X189381747Y-72183598D01*
X189367133Y-72163893D01*
X189354520Y-72142849D01*
X189344030Y-72120671D01*
X189335765Y-72097571D01*
X189329804Y-72073773D01*
X189326204Y-72049504D01*
X189325000Y-72025000D01*
X189325000Y-71275000D01*
X189326204Y-71250496D01*
X189329804Y-71226227D01*
X189335765Y-71202429D01*
X189344030Y-71179329D01*
X189354520Y-71157151D01*
X189367133Y-71136107D01*
X189381747Y-71116402D01*
X189398223Y-71098223D01*
X189416402Y-71081747D01*
X189436107Y-71067133D01*
X189457151Y-71054520D01*
X189479329Y-71044030D01*
X189502429Y-71035765D01*
X189526227Y-71029804D01*
X189550496Y-71026204D01*
X189575000Y-71025000D01*
X190825000Y-71025000D01*
X190849504Y-71026204D01*
G37*
G04 #@! TD.AperFunction*
G04 #@! TA.AperFunction,SMDPad,CuDef*
G36*
X177349504Y-71026204D02*
G01*
X177373773Y-71029804D01*
X177397571Y-71035765D01*
X177420671Y-71044030D01*
X177442849Y-71054520D01*
X177463893Y-71067133D01*
X177483598Y-71081747D01*
X177501777Y-71098223D01*
X177518253Y-71116402D01*
X177532867Y-71136107D01*
X177545480Y-71157151D01*
X177555970Y-71179329D01*
X177564235Y-71202429D01*
X177570196Y-71226227D01*
X177573796Y-71250496D01*
X177575000Y-71275000D01*
X177575000Y-72025000D01*
X177573796Y-72049504D01*
X177570196Y-72073773D01*
X177564235Y-72097571D01*
X177555970Y-72120671D01*
X177545480Y-72142849D01*
X177532867Y-72163893D01*
X177518253Y-72183598D01*
X177501777Y-72201777D01*
X177483598Y-72218253D01*
X177463893Y-72232867D01*
X177442849Y-72245480D01*
X177420671Y-72255970D01*
X177397571Y-72264235D01*
X177373773Y-72270196D01*
X177349504Y-72273796D01*
X177325000Y-72275000D01*
X176075000Y-72275000D01*
X176050496Y-72273796D01*
X176026227Y-72270196D01*
X176002429Y-72264235D01*
X175979329Y-72255970D01*
X175957151Y-72245480D01*
X175936107Y-72232867D01*
X175916402Y-72218253D01*
X175898223Y-72201777D01*
X175881747Y-72183598D01*
X175867133Y-72163893D01*
X175854520Y-72142849D01*
X175844030Y-72120671D01*
X175835765Y-72097571D01*
X175829804Y-72073773D01*
X175826204Y-72049504D01*
X175825000Y-72025000D01*
X175825000Y-71275000D01*
X175826204Y-71250496D01*
X175829804Y-71226227D01*
X175835765Y-71202429D01*
X175844030Y-71179329D01*
X175854520Y-71157151D01*
X175867133Y-71136107D01*
X175881747Y-71116402D01*
X175898223Y-71098223D01*
X175916402Y-71081747D01*
X175936107Y-71067133D01*
X175957151Y-71054520D01*
X175979329Y-71044030D01*
X176002429Y-71035765D01*
X176026227Y-71029804D01*
X176050496Y-71026204D01*
X176075000Y-71025000D01*
X177325000Y-71025000D01*
X177349504Y-71026204D01*
G37*
G04 #@! TD.AperFunction*
G04 #@! TA.AperFunction,SMDPad,CuDef*
G36*
X177349504Y-73826204D02*
G01*
X177373773Y-73829804D01*
X177397571Y-73835765D01*
X177420671Y-73844030D01*
X177442849Y-73854520D01*
X177463893Y-73867133D01*
X177483598Y-73881747D01*
X177501777Y-73898223D01*
X177518253Y-73916402D01*
X177532867Y-73936107D01*
X177545480Y-73957151D01*
X177555970Y-73979329D01*
X177564235Y-74002429D01*
X177570196Y-74026227D01*
X177573796Y-74050496D01*
X177575000Y-74075000D01*
X177575000Y-74825000D01*
X177573796Y-74849504D01*
X177570196Y-74873773D01*
X177564235Y-74897571D01*
X177555970Y-74920671D01*
X177545480Y-74942849D01*
X177532867Y-74963893D01*
X177518253Y-74983598D01*
X177501777Y-75001777D01*
X177483598Y-75018253D01*
X177463893Y-75032867D01*
X177442849Y-75045480D01*
X177420671Y-75055970D01*
X177397571Y-75064235D01*
X177373773Y-75070196D01*
X177349504Y-75073796D01*
X177325000Y-75075000D01*
X176075000Y-75075000D01*
X176050496Y-75073796D01*
X176026227Y-75070196D01*
X176002429Y-75064235D01*
X175979329Y-75055970D01*
X175957151Y-75045480D01*
X175936107Y-75032867D01*
X175916402Y-75018253D01*
X175898223Y-75001777D01*
X175881747Y-74983598D01*
X175867133Y-74963893D01*
X175854520Y-74942849D01*
X175844030Y-74920671D01*
X175835765Y-74897571D01*
X175829804Y-74873773D01*
X175826204Y-74849504D01*
X175825000Y-74825000D01*
X175825000Y-74075000D01*
X175826204Y-74050496D01*
X175829804Y-74026227D01*
X175835765Y-74002429D01*
X175844030Y-73979329D01*
X175854520Y-73957151D01*
X175867133Y-73936107D01*
X175881747Y-73916402D01*
X175898223Y-73898223D01*
X175916402Y-73881747D01*
X175936107Y-73867133D01*
X175957151Y-73854520D01*
X175979329Y-73844030D01*
X176002429Y-73835765D01*
X176026227Y-73829804D01*
X176050496Y-73826204D01*
X176075000Y-73825000D01*
X177325000Y-73825000D01*
X177349504Y-73826204D01*
G37*
G04 #@! TD.AperFunction*
G04 #@! TA.AperFunction,SMDPad,CuDef*
G36*
X163849504Y-73826204D02*
G01*
X163873773Y-73829804D01*
X163897571Y-73835765D01*
X163920671Y-73844030D01*
X163942849Y-73854520D01*
X163963893Y-73867133D01*
X163983598Y-73881747D01*
X164001777Y-73898223D01*
X164018253Y-73916402D01*
X164032867Y-73936107D01*
X164045480Y-73957151D01*
X164055970Y-73979329D01*
X164064235Y-74002429D01*
X164070196Y-74026227D01*
X164073796Y-74050496D01*
X164075000Y-74075000D01*
X164075000Y-74825000D01*
X164073796Y-74849504D01*
X164070196Y-74873773D01*
X164064235Y-74897571D01*
X164055970Y-74920671D01*
X164045480Y-74942849D01*
X164032867Y-74963893D01*
X164018253Y-74983598D01*
X164001777Y-75001777D01*
X163983598Y-75018253D01*
X163963893Y-75032867D01*
X163942849Y-75045480D01*
X163920671Y-75055970D01*
X163897571Y-75064235D01*
X163873773Y-75070196D01*
X163849504Y-75073796D01*
X163825000Y-75075000D01*
X162575000Y-75075000D01*
X162550496Y-75073796D01*
X162526227Y-75070196D01*
X162502429Y-75064235D01*
X162479329Y-75055970D01*
X162457151Y-75045480D01*
X162436107Y-75032867D01*
X162416402Y-75018253D01*
X162398223Y-75001777D01*
X162381747Y-74983598D01*
X162367133Y-74963893D01*
X162354520Y-74942849D01*
X162344030Y-74920671D01*
X162335765Y-74897571D01*
X162329804Y-74873773D01*
X162326204Y-74849504D01*
X162325000Y-74825000D01*
X162325000Y-74075000D01*
X162326204Y-74050496D01*
X162329804Y-74026227D01*
X162335765Y-74002429D01*
X162344030Y-73979329D01*
X162354520Y-73957151D01*
X162367133Y-73936107D01*
X162381747Y-73916402D01*
X162398223Y-73898223D01*
X162416402Y-73881747D01*
X162436107Y-73867133D01*
X162457151Y-73854520D01*
X162479329Y-73844030D01*
X162502429Y-73835765D01*
X162526227Y-73829804D01*
X162550496Y-73826204D01*
X162575000Y-73825000D01*
X163825000Y-73825000D01*
X163849504Y-73826204D01*
G37*
G04 #@! TD.AperFunction*
G04 #@! TA.AperFunction,SMDPad,CuDef*
G36*
X163849504Y-71026204D02*
G01*
X163873773Y-71029804D01*
X163897571Y-71035765D01*
X163920671Y-71044030D01*
X163942849Y-71054520D01*
X163963893Y-71067133D01*
X163983598Y-71081747D01*
X164001777Y-71098223D01*
X164018253Y-71116402D01*
X164032867Y-71136107D01*
X164045480Y-71157151D01*
X164055970Y-71179329D01*
X164064235Y-71202429D01*
X164070196Y-71226227D01*
X164073796Y-71250496D01*
X164075000Y-71275000D01*
X164075000Y-72025000D01*
X164073796Y-72049504D01*
X164070196Y-72073773D01*
X164064235Y-72097571D01*
X164055970Y-72120671D01*
X164045480Y-72142849D01*
X164032867Y-72163893D01*
X164018253Y-72183598D01*
X164001777Y-72201777D01*
X163983598Y-72218253D01*
X163963893Y-72232867D01*
X163942849Y-72245480D01*
X163920671Y-72255970D01*
X163897571Y-72264235D01*
X163873773Y-72270196D01*
X163849504Y-72273796D01*
X163825000Y-72275000D01*
X162575000Y-72275000D01*
X162550496Y-72273796D01*
X162526227Y-72270196D01*
X162502429Y-72264235D01*
X162479329Y-72255970D01*
X162457151Y-72245480D01*
X162436107Y-72232867D01*
X162416402Y-72218253D01*
X162398223Y-72201777D01*
X162381747Y-72183598D01*
X162367133Y-72163893D01*
X162354520Y-72142849D01*
X162344030Y-72120671D01*
X162335765Y-72097571D01*
X162329804Y-72073773D01*
X162326204Y-72049504D01*
X162325000Y-72025000D01*
X162325000Y-71275000D01*
X162326204Y-71250496D01*
X162329804Y-71226227D01*
X162335765Y-71202429D01*
X162344030Y-71179329D01*
X162354520Y-71157151D01*
X162367133Y-71136107D01*
X162381747Y-71116402D01*
X162398223Y-71098223D01*
X162416402Y-71081747D01*
X162436107Y-71067133D01*
X162457151Y-71054520D01*
X162479329Y-71044030D01*
X162502429Y-71035765D01*
X162526227Y-71029804D01*
X162550496Y-71026204D01*
X162575000Y-71025000D01*
X163825000Y-71025000D01*
X163849504Y-71026204D01*
G37*
G04 #@! TD.AperFunction*
G04 #@! TA.AperFunction,SMDPad,CuDef*
G36*
X150349504Y-71026204D02*
G01*
X150373773Y-71029804D01*
X150397571Y-71035765D01*
X150420671Y-71044030D01*
X150442849Y-71054520D01*
X150463893Y-71067133D01*
X150483598Y-71081747D01*
X150501777Y-71098223D01*
X150518253Y-71116402D01*
X150532867Y-71136107D01*
X150545480Y-71157151D01*
X150555970Y-71179329D01*
X150564235Y-71202429D01*
X150570196Y-71226227D01*
X150573796Y-71250496D01*
X150575000Y-71275000D01*
X150575000Y-72025000D01*
X150573796Y-72049504D01*
X150570196Y-72073773D01*
X150564235Y-72097571D01*
X150555970Y-72120671D01*
X150545480Y-72142849D01*
X150532867Y-72163893D01*
X150518253Y-72183598D01*
X150501777Y-72201777D01*
X150483598Y-72218253D01*
X150463893Y-72232867D01*
X150442849Y-72245480D01*
X150420671Y-72255970D01*
X150397571Y-72264235D01*
X150373773Y-72270196D01*
X150349504Y-72273796D01*
X150325000Y-72275000D01*
X149075000Y-72275000D01*
X149050496Y-72273796D01*
X149026227Y-72270196D01*
X149002429Y-72264235D01*
X148979329Y-72255970D01*
X148957151Y-72245480D01*
X148936107Y-72232867D01*
X148916402Y-72218253D01*
X148898223Y-72201777D01*
X148881747Y-72183598D01*
X148867133Y-72163893D01*
X148854520Y-72142849D01*
X148844030Y-72120671D01*
X148835765Y-72097571D01*
X148829804Y-72073773D01*
X148826204Y-72049504D01*
X148825000Y-72025000D01*
X148825000Y-71275000D01*
X148826204Y-71250496D01*
X148829804Y-71226227D01*
X148835765Y-71202429D01*
X148844030Y-71179329D01*
X148854520Y-71157151D01*
X148867133Y-71136107D01*
X148881747Y-71116402D01*
X148898223Y-71098223D01*
X148916402Y-71081747D01*
X148936107Y-71067133D01*
X148957151Y-71054520D01*
X148979329Y-71044030D01*
X149002429Y-71035765D01*
X149026227Y-71029804D01*
X149050496Y-71026204D01*
X149075000Y-71025000D01*
X150325000Y-71025000D01*
X150349504Y-71026204D01*
G37*
G04 #@! TD.AperFunction*
G04 #@! TA.AperFunction,SMDPad,CuDef*
G36*
X150349504Y-73826204D02*
G01*
X150373773Y-73829804D01*
X150397571Y-73835765D01*
X150420671Y-73844030D01*
X150442849Y-73854520D01*
X150463893Y-73867133D01*
X150483598Y-73881747D01*
X150501777Y-73898223D01*
X150518253Y-73916402D01*
X150532867Y-73936107D01*
X150545480Y-73957151D01*
X150555970Y-73979329D01*
X150564235Y-74002429D01*
X150570196Y-74026227D01*
X150573796Y-74050496D01*
X150575000Y-74075000D01*
X150575000Y-74825000D01*
X150573796Y-74849504D01*
X150570196Y-74873773D01*
X150564235Y-74897571D01*
X150555970Y-74920671D01*
X150545480Y-74942849D01*
X150532867Y-74963893D01*
X150518253Y-74983598D01*
X150501777Y-75001777D01*
X150483598Y-75018253D01*
X150463893Y-75032867D01*
X150442849Y-75045480D01*
X150420671Y-75055970D01*
X150397571Y-75064235D01*
X150373773Y-75070196D01*
X150349504Y-75073796D01*
X150325000Y-75075000D01*
X149075000Y-75075000D01*
X149050496Y-75073796D01*
X149026227Y-75070196D01*
X149002429Y-75064235D01*
X148979329Y-75055970D01*
X148957151Y-75045480D01*
X148936107Y-75032867D01*
X148916402Y-75018253D01*
X148898223Y-75001777D01*
X148881747Y-74983598D01*
X148867133Y-74963893D01*
X148854520Y-74942849D01*
X148844030Y-74920671D01*
X148835765Y-74897571D01*
X148829804Y-74873773D01*
X148826204Y-74849504D01*
X148825000Y-74825000D01*
X148825000Y-74075000D01*
X148826204Y-74050496D01*
X148829804Y-74026227D01*
X148835765Y-74002429D01*
X148844030Y-73979329D01*
X148854520Y-73957151D01*
X148867133Y-73936107D01*
X148881747Y-73916402D01*
X148898223Y-73898223D01*
X148916402Y-73881747D01*
X148936107Y-73867133D01*
X148957151Y-73854520D01*
X148979329Y-73844030D01*
X149002429Y-73835765D01*
X149026227Y-73829804D01*
X149050496Y-73826204D01*
X149075000Y-73825000D01*
X150325000Y-73825000D01*
X150349504Y-73826204D01*
G37*
G04 #@! TD.AperFunction*
G04 #@! TA.AperFunction,SMDPad,CuDef*
G36*
X136849504Y-73826204D02*
G01*
X136873773Y-73829804D01*
X136897571Y-73835765D01*
X136920671Y-73844030D01*
X136942849Y-73854520D01*
X136963893Y-73867133D01*
X136983598Y-73881747D01*
X137001777Y-73898223D01*
X137018253Y-73916402D01*
X137032867Y-73936107D01*
X137045480Y-73957151D01*
X137055970Y-73979329D01*
X137064235Y-74002429D01*
X137070196Y-74026227D01*
X137073796Y-74050496D01*
X137075000Y-74075000D01*
X137075000Y-74825000D01*
X137073796Y-74849504D01*
X137070196Y-74873773D01*
X137064235Y-74897571D01*
X137055970Y-74920671D01*
X137045480Y-74942849D01*
X137032867Y-74963893D01*
X137018253Y-74983598D01*
X137001777Y-75001777D01*
X136983598Y-75018253D01*
X136963893Y-75032867D01*
X136942849Y-75045480D01*
X136920671Y-75055970D01*
X136897571Y-75064235D01*
X136873773Y-75070196D01*
X136849504Y-75073796D01*
X136825000Y-75075000D01*
X135575000Y-75075000D01*
X135550496Y-75073796D01*
X135526227Y-75070196D01*
X135502429Y-75064235D01*
X135479329Y-75055970D01*
X135457151Y-75045480D01*
X135436107Y-75032867D01*
X135416402Y-75018253D01*
X135398223Y-75001777D01*
X135381747Y-74983598D01*
X135367133Y-74963893D01*
X135354520Y-74942849D01*
X135344030Y-74920671D01*
X135335765Y-74897571D01*
X135329804Y-74873773D01*
X135326204Y-74849504D01*
X135325000Y-74825000D01*
X135325000Y-74075000D01*
X135326204Y-74050496D01*
X135329804Y-74026227D01*
X135335765Y-74002429D01*
X135344030Y-73979329D01*
X135354520Y-73957151D01*
X135367133Y-73936107D01*
X135381747Y-73916402D01*
X135398223Y-73898223D01*
X135416402Y-73881747D01*
X135436107Y-73867133D01*
X135457151Y-73854520D01*
X135479329Y-73844030D01*
X135502429Y-73835765D01*
X135526227Y-73829804D01*
X135550496Y-73826204D01*
X135575000Y-73825000D01*
X136825000Y-73825000D01*
X136849504Y-73826204D01*
G37*
G04 #@! TD.AperFunction*
G04 #@! TA.AperFunction,SMDPad,CuDef*
G36*
X136849504Y-71026204D02*
G01*
X136873773Y-71029804D01*
X136897571Y-71035765D01*
X136920671Y-71044030D01*
X136942849Y-71054520D01*
X136963893Y-71067133D01*
X136983598Y-71081747D01*
X137001777Y-71098223D01*
X137018253Y-71116402D01*
X137032867Y-71136107D01*
X137045480Y-71157151D01*
X137055970Y-71179329D01*
X137064235Y-71202429D01*
X137070196Y-71226227D01*
X137073796Y-71250496D01*
X137075000Y-71275000D01*
X137075000Y-72025000D01*
X137073796Y-72049504D01*
X137070196Y-72073773D01*
X137064235Y-72097571D01*
X137055970Y-72120671D01*
X137045480Y-72142849D01*
X137032867Y-72163893D01*
X137018253Y-72183598D01*
X137001777Y-72201777D01*
X136983598Y-72218253D01*
X136963893Y-72232867D01*
X136942849Y-72245480D01*
X136920671Y-72255970D01*
X136897571Y-72264235D01*
X136873773Y-72270196D01*
X136849504Y-72273796D01*
X136825000Y-72275000D01*
X135575000Y-72275000D01*
X135550496Y-72273796D01*
X135526227Y-72270196D01*
X135502429Y-72264235D01*
X135479329Y-72255970D01*
X135457151Y-72245480D01*
X135436107Y-72232867D01*
X135416402Y-72218253D01*
X135398223Y-72201777D01*
X135381747Y-72183598D01*
X135367133Y-72163893D01*
X135354520Y-72142849D01*
X135344030Y-72120671D01*
X135335765Y-72097571D01*
X135329804Y-72073773D01*
X135326204Y-72049504D01*
X135325000Y-72025000D01*
X135325000Y-71275000D01*
X135326204Y-71250496D01*
X135329804Y-71226227D01*
X135335765Y-71202429D01*
X135344030Y-71179329D01*
X135354520Y-71157151D01*
X135367133Y-71136107D01*
X135381747Y-71116402D01*
X135398223Y-71098223D01*
X135416402Y-71081747D01*
X135436107Y-71067133D01*
X135457151Y-71054520D01*
X135479329Y-71044030D01*
X135502429Y-71035765D01*
X135526227Y-71029804D01*
X135550496Y-71026204D01*
X135575000Y-71025000D01*
X136825000Y-71025000D01*
X136849504Y-71026204D01*
G37*
G04 #@! TD.AperFunction*
D11*
X134000000Y-78750000D03*
X134000000Y-80000000D03*
X135000000Y-80000000D03*
X136250000Y-80000000D03*
X137500000Y-80000000D03*
X138500000Y-80000000D03*
X138500000Y-78750000D03*
X135000000Y-81000000D03*
X136250000Y-81000000D03*
X137500000Y-81000000D03*
X137500000Y-82000000D03*
X138500000Y-82000000D03*
X138500000Y-81000000D03*
X136250000Y-82000000D03*
X135000000Y-82000000D03*
X134000000Y-82000000D03*
X134000000Y-81000000D03*
X149750000Y-82000000D03*
X152000000Y-80000000D03*
X151000000Y-80000000D03*
X147500000Y-80000000D03*
X148500000Y-81000000D03*
X148500000Y-80000000D03*
X152000000Y-82000000D03*
X152000000Y-81000000D03*
X147500000Y-82000000D03*
X147500000Y-81000000D03*
X152000000Y-78750000D03*
X149750000Y-80000000D03*
X147500000Y-78750000D03*
X148500000Y-82000000D03*
X151000000Y-81000000D03*
X151000000Y-82000000D03*
X149750000Y-81000000D03*
X165500000Y-81000000D03*
X161000000Y-82000000D03*
X161000000Y-80000000D03*
X162000000Y-80000000D03*
X165500000Y-78750000D03*
X165500000Y-80000000D03*
X165500000Y-82000000D03*
X162000000Y-81000000D03*
X161000000Y-81000000D03*
X163250000Y-80000000D03*
X164500000Y-80000000D03*
X163250000Y-82000000D03*
X163250000Y-81000000D03*
X162000000Y-82000000D03*
X161000000Y-78750000D03*
X164500000Y-82000000D03*
X164500000Y-81000000D03*
X178000000Y-80000000D03*
X179000000Y-78750000D03*
X176750000Y-82000000D03*
X174500000Y-82000000D03*
X175500000Y-81000000D03*
X174500000Y-80000000D03*
X174500000Y-81000000D03*
X176750000Y-80000000D03*
X179000000Y-80000000D03*
X179000000Y-82000000D03*
X179000000Y-81000000D03*
X175500000Y-80000000D03*
X176750000Y-81000000D03*
X178000000Y-82000000D03*
X178000000Y-81000000D03*
X175500000Y-82000000D03*
X174500000Y-78750000D03*
X191500000Y-82000000D03*
X188000000Y-78750000D03*
X190250000Y-81000000D03*
X191500000Y-81000000D03*
X189000000Y-82000000D03*
X192500000Y-78750000D03*
X190250000Y-82000000D03*
X190250000Y-80000000D03*
X192500000Y-82000000D03*
X188000000Y-80000000D03*
X192500000Y-80000000D03*
X192500000Y-81000000D03*
X188000000Y-81000000D03*
X191500000Y-80000000D03*
X189000000Y-81000000D03*
X188000000Y-82000000D03*
X189000000Y-80000000D03*
X203750000Y-81000000D03*
X202500000Y-82000000D03*
X205000000Y-82000000D03*
X201500000Y-82000000D03*
X201500000Y-78750000D03*
X205000000Y-80000000D03*
X203750000Y-82000000D03*
X206000000Y-82000000D03*
X201500000Y-81000000D03*
X206000000Y-78750000D03*
X201500000Y-80000000D03*
X206000000Y-80000000D03*
X202500000Y-81000000D03*
X206000000Y-81000000D03*
X203750000Y-80000000D03*
X205000000Y-81000000D03*
X202500000Y-80000000D03*
X136250000Y-118900000D03*
X138500000Y-116900000D03*
X137500000Y-116900000D03*
X134000000Y-116900000D03*
X135000000Y-117900000D03*
X135000000Y-116900000D03*
X138500000Y-118900000D03*
X138500000Y-117900000D03*
X134000000Y-118900000D03*
X134000000Y-117900000D03*
X138500000Y-115650000D03*
X136250000Y-116900000D03*
X134000000Y-115650000D03*
X135000000Y-118900000D03*
X137500000Y-117900000D03*
X137500000Y-118900000D03*
X136250000Y-117900000D03*
X190250000Y-117900000D03*
X189000000Y-118900000D03*
X191500000Y-118900000D03*
X188000000Y-118900000D03*
X188000000Y-115650000D03*
X191500000Y-116900000D03*
X190250000Y-118900000D03*
X192500000Y-118900000D03*
X188000000Y-117900000D03*
X192500000Y-115650000D03*
X188000000Y-116900000D03*
X192500000Y-116900000D03*
X189000000Y-117900000D03*
X192500000Y-117900000D03*
X190250000Y-116900000D03*
X191500000Y-117900000D03*
X189000000Y-116900000D03*
X178000000Y-118900000D03*
X174500000Y-115650000D03*
X176750000Y-117900000D03*
X178000000Y-117900000D03*
X175500000Y-118900000D03*
X152000000Y-117900000D03*
X147500000Y-118900000D03*
X147500000Y-116900000D03*
X148500000Y-116900000D03*
X152000000Y-115650000D03*
X152000000Y-116900000D03*
X152000000Y-118900000D03*
X148500000Y-117900000D03*
X147500000Y-117900000D03*
X149750000Y-116900000D03*
X151000000Y-116900000D03*
X149750000Y-118900000D03*
X164500000Y-116900000D03*
X165500000Y-115650000D03*
X163250000Y-118900000D03*
X161000000Y-118900000D03*
X149750000Y-117900000D03*
X162000000Y-117900000D03*
X161000000Y-116900000D03*
X148500000Y-118900000D03*
X161000000Y-117900000D03*
X163250000Y-116900000D03*
X165500000Y-116900000D03*
X165500000Y-118900000D03*
X147500000Y-115650000D03*
X151000000Y-118900000D03*
X165500000Y-117900000D03*
X151000000Y-117900000D03*
X162000000Y-116900000D03*
X179000000Y-115650000D03*
X176750000Y-118900000D03*
X176750000Y-116900000D03*
X179000000Y-118900000D03*
X174500000Y-116900000D03*
X163250000Y-117900000D03*
X179000000Y-116900000D03*
X179000000Y-117900000D03*
X174500000Y-117900000D03*
X178000000Y-116900000D03*
X175500000Y-117900000D03*
X164500000Y-118900000D03*
X174500000Y-118900000D03*
X164500000Y-117900000D03*
X162000000Y-118900000D03*
X161000000Y-115650000D03*
X175500000Y-116900000D03*
X201500000Y-116900000D03*
X201500000Y-115650000D03*
X206000000Y-115650000D03*
X203750000Y-118900000D03*
X203750000Y-116900000D03*
X201500000Y-117900000D03*
X201500000Y-118900000D03*
X206000000Y-118900000D03*
X202500000Y-118900000D03*
X202500000Y-117900000D03*
X203750000Y-117900000D03*
X205000000Y-118900000D03*
X206000000Y-116900000D03*
X205000000Y-116900000D03*
X206000000Y-117900000D03*
X202500000Y-116900000D03*
X205000000Y-117900000D03*
X136250000Y-57750000D03*
X135250000Y-57750000D03*
X137250000Y-57750000D03*
X138000000Y-58500000D03*
X138000000Y-59500000D03*
X134250000Y-58500000D03*
X134250000Y-59500000D03*
X138000000Y-60500000D03*
X134250000Y-60500000D03*
X148750000Y-57750000D03*
X150750000Y-57750000D03*
X147750000Y-58500000D03*
X147750000Y-59500000D03*
X149750000Y-57750000D03*
X147750000Y-60500000D03*
X151500000Y-59500000D03*
X151500000Y-60500000D03*
X151500000Y-58500000D03*
X161250000Y-58500000D03*
X162250000Y-57750000D03*
X164250000Y-57750000D03*
X163250000Y-57750000D03*
X161250000Y-59500000D03*
X161250000Y-60500000D03*
X165000000Y-58500000D03*
X165000000Y-60500000D03*
X165000000Y-59500000D03*
X177750000Y-57750000D03*
X175750000Y-57750000D03*
X174750000Y-59500000D03*
X176750000Y-57750000D03*
X174750000Y-58500000D03*
X178500000Y-59500000D03*
X178500000Y-58500000D03*
X178500000Y-60500000D03*
X174750000Y-60500000D03*
X192000000Y-58500000D03*
X192000000Y-59500000D03*
X188250000Y-60500000D03*
X192000000Y-60500000D03*
X188250000Y-59500000D03*
X190250000Y-57750000D03*
X191250000Y-57750000D03*
X189250000Y-57750000D03*
X188250000Y-58500000D03*
X205500000Y-60500000D03*
X204750000Y-57750000D03*
X202750000Y-57750000D03*
X201750000Y-58500000D03*
X201750000Y-59500000D03*
X205500000Y-58500000D03*
X203750000Y-57750000D03*
X205500000Y-59500000D03*
X201750000Y-60500000D03*
X135250000Y-94650000D03*
X137250000Y-94650000D03*
X134250000Y-95400000D03*
X134250000Y-96400000D03*
X136250000Y-94650000D03*
X134250000Y-97400000D03*
X138000000Y-96400000D03*
X138000000Y-97400000D03*
X138000000Y-95400000D03*
X192000000Y-97400000D03*
X191250000Y-94650000D03*
X189250000Y-94650000D03*
X188250000Y-95400000D03*
X188250000Y-96400000D03*
X192000000Y-95400000D03*
X190250000Y-94650000D03*
X192000000Y-96400000D03*
X188250000Y-97400000D03*
X178500000Y-95400000D03*
X178500000Y-96400000D03*
X174750000Y-97400000D03*
X178500000Y-97400000D03*
X147750000Y-95400000D03*
X148750000Y-94650000D03*
X150750000Y-94650000D03*
X149750000Y-94650000D03*
X147750000Y-96400000D03*
X164250000Y-94650000D03*
X147750000Y-97400000D03*
X162250000Y-94650000D03*
X151500000Y-95400000D03*
X161250000Y-96400000D03*
X163250000Y-94650000D03*
X151500000Y-97400000D03*
X151500000Y-96400000D03*
X161250000Y-95400000D03*
X174750000Y-96400000D03*
X176750000Y-94650000D03*
X165000000Y-96400000D03*
X165000000Y-95400000D03*
X165000000Y-97400000D03*
X177750000Y-94650000D03*
X161250000Y-97400000D03*
X175750000Y-94650000D03*
X174750000Y-95400000D03*
X201750000Y-95400000D03*
X204750000Y-94650000D03*
X205500000Y-97400000D03*
X202750000Y-94650000D03*
X201750000Y-96400000D03*
X203750000Y-94650000D03*
X205500000Y-96400000D03*
X205500000Y-95400000D03*
X201750000Y-97400000D03*
X134000000Y-76750000D03*
X134000000Y-75500000D03*
X138500000Y-76750000D03*
X138500000Y-75500000D03*
X138500000Y-74250000D03*
X134000000Y-74250000D03*
X134000000Y-70500000D03*
X134000000Y-71750000D03*
X134000000Y-73000000D03*
X138500000Y-70500000D03*
X138500000Y-71750000D03*
X138500000Y-73000000D03*
X139500000Y-76750000D03*
X139500000Y-75500000D03*
X133000000Y-76750000D03*
X133000000Y-75500000D03*
X133000000Y-71750000D03*
X133000000Y-70500000D03*
X139500000Y-71750000D03*
X139500000Y-70500000D03*
X139500000Y-74250000D03*
X139500000Y-73000000D03*
X133000000Y-74250000D03*
X133000000Y-73000000D03*
X153000000Y-73000000D03*
X146500000Y-70500000D03*
X153000000Y-71750000D03*
X153000000Y-70500000D03*
X153000000Y-74250000D03*
X146500000Y-74250000D03*
X146500000Y-73000000D03*
X152000000Y-71750000D03*
X152000000Y-73000000D03*
X153000000Y-76750000D03*
X147500000Y-70500000D03*
X153000000Y-75500000D03*
X146500000Y-76750000D03*
X146500000Y-75500000D03*
X146500000Y-71750000D03*
X147500000Y-76750000D03*
X152000000Y-75500000D03*
X147500000Y-71750000D03*
X152000000Y-70500000D03*
X152000000Y-76750000D03*
X152000000Y-74250000D03*
X147500000Y-74250000D03*
X147500000Y-75500000D03*
X147500000Y-73000000D03*
X165500000Y-73000000D03*
X166500000Y-74250000D03*
X165500000Y-71750000D03*
X161000000Y-76750000D03*
X160000000Y-71750000D03*
X166500000Y-71750000D03*
X166500000Y-73000000D03*
X160000000Y-76750000D03*
X160000000Y-74250000D03*
X166500000Y-76750000D03*
X160000000Y-73000000D03*
X166500000Y-75500000D03*
X166500000Y-70500000D03*
X160000000Y-75500000D03*
X161000000Y-70500000D03*
X160000000Y-70500000D03*
X165500000Y-70500000D03*
X165500000Y-75500000D03*
X165500000Y-74250000D03*
X161000000Y-73000000D03*
X165500000Y-76750000D03*
X161000000Y-75500000D03*
X161000000Y-71750000D03*
X161000000Y-74250000D03*
X180000000Y-71750000D03*
X179000000Y-73000000D03*
X180000000Y-74250000D03*
X173500000Y-76750000D03*
X180000000Y-73000000D03*
X174500000Y-76750000D03*
X180000000Y-76750000D03*
X173500000Y-74250000D03*
X173500000Y-73000000D03*
X179000000Y-71750000D03*
X180000000Y-75500000D03*
X173500000Y-75500000D03*
X180000000Y-70500000D03*
X173500000Y-71750000D03*
X173500000Y-70500000D03*
X174500000Y-70500000D03*
X174500000Y-73000000D03*
X179000000Y-74250000D03*
X179000000Y-75500000D03*
X174500000Y-74250000D03*
X179000000Y-76750000D03*
X174500000Y-75500000D03*
X174500000Y-71750000D03*
X179000000Y-70500000D03*
X188000000Y-70500000D03*
X188000000Y-71750000D03*
X188000000Y-73000000D03*
X192500000Y-70500000D03*
X192500000Y-75500000D03*
X188000000Y-75500000D03*
X192500000Y-76750000D03*
X192500000Y-74250000D03*
X188000000Y-74250000D03*
X187000000Y-74250000D03*
X193500000Y-73000000D03*
X193500000Y-71750000D03*
X193500000Y-76750000D03*
X187000000Y-76750000D03*
X188000000Y-76750000D03*
X192500000Y-73000000D03*
X193500000Y-74250000D03*
X187000000Y-71750000D03*
X187000000Y-70500000D03*
X192500000Y-71750000D03*
X187000000Y-75500000D03*
X187000000Y-73000000D03*
X193500000Y-70500000D03*
X193500000Y-75500000D03*
X207000000Y-73000000D03*
X201500000Y-76750000D03*
X200500000Y-70500000D03*
X206000000Y-71750000D03*
X200500000Y-75500000D03*
X201500000Y-73000000D03*
X206000000Y-73000000D03*
X207000000Y-74250000D03*
X200500000Y-74250000D03*
X206000000Y-75500000D03*
X201500000Y-75500000D03*
X201500000Y-70500000D03*
X207000000Y-71750000D03*
X207000000Y-76750000D03*
X200500000Y-76750000D03*
X206000000Y-74250000D03*
X201500000Y-74250000D03*
X200500000Y-71750000D03*
X206000000Y-70500000D03*
X206000000Y-76750000D03*
X201500000Y-71750000D03*
X207000000Y-75500000D03*
X200500000Y-73000000D03*
X207000000Y-70500000D03*
X139500000Y-109900000D03*
X133000000Y-107400000D03*
X139500000Y-108650000D03*
X139500000Y-107400000D03*
X139500000Y-111150000D03*
X133000000Y-111150000D03*
X133000000Y-109900000D03*
X138500000Y-108650000D03*
X138500000Y-109900000D03*
X139500000Y-113650000D03*
X134000000Y-107400000D03*
X139500000Y-112400000D03*
X133000000Y-113650000D03*
X133000000Y-112400000D03*
X133000000Y-108650000D03*
X134000000Y-113650000D03*
X138500000Y-112400000D03*
X134000000Y-108650000D03*
X138500000Y-107400000D03*
X138500000Y-113650000D03*
X138500000Y-111150000D03*
X134000000Y-111150000D03*
X134000000Y-112400000D03*
X134000000Y-109900000D03*
X193500000Y-109900000D03*
X188000000Y-113650000D03*
X187000000Y-107400000D03*
X192500000Y-108650000D03*
X187000000Y-112400000D03*
X188000000Y-109900000D03*
X192500000Y-109900000D03*
X193500000Y-111150000D03*
X187000000Y-111150000D03*
X192500000Y-112400000D03*
X188000000Y-112400000D03*
X188000000Y-107400000D03*
X193500000Y-108650000D03*
X193500000Y-113650000D03*
X187000000Y-113650000D03*
X192500000Y-111150000D03*
X188000000Y-111150000D03*
X187000000Y-108650000D03*
X192500000Y-107400000D03*
X192500000Y-113650000D03*
X188000000Y-108650000D03*
X193500000Y-112400000D03*
X187000000Y-109900000D03*
X193500000Y-107400000D03*
X174500000Y-107400000D03*
X174500000Y-108650000D03*
X174500000Y-109900000D03*
X179000000Y-107400000D03*
X179000000Y-112400000D03*
X174500000Y-112400000D03*
X179000000Y-113650000D03*
X179000000Y-111150000D03*
X174500000Y-111150000D03*
X152000000Y-109900000D03*
X153000000Y-111150000D03*
X152000000Y-108650000D03*
X147500000Y-113650000D03*
X146500000Y-108650000D03*
X153000000Y-108650000D03*
X153000000Y-109900000D03*
X146500000Y-113650000D03*
X146500000Y-111150000D03*
X153000000Y-113650000D03*
X146500000Y-109900000D03*
X153000000Y-112400000D03*
X153000000Y-107400000D03*
X146500000Y-112400000D03*
X147500000Y-107400000D03*
X146500000Y-107400000D03*
X152000000Y-107400000D03*
X166500000Y-108650000D03*
X165500000Y-109900000D03*
X166500000Y-111150000D03*
X152000000Y-112400000D03*
X152000000Y-111150000D03*
X147500000Y-109900000D03*
X152000000Y-113650000D03*
X160000000Y-113650000D03*
X147500000Y-112400000D03*
X147500000Y-108650000D03*
X147500000Y-111150000D03*
X166500000Y-109900000D03*
X161000000Y-113650000D03*
X166500000Y-113650000D03*
X160000000Y-111150000D03*
X160000000Y-109900000D03*
X165500000Y-108650000D03*
X166500000Y-112400000D03*
X160000000Y-112400000D03*
X166500000Y-107400000D03*
X160000000Y-108650000D03*
X160000000Y-107400000D03*
X173500000Y-111150000D03*
X161000000Y-107400000D03*
X161000000Y-109900000D03*
X165500000Y-111150000D03*
X165500000Y-112400000D03*
X161000000Y-111150000D03*
X165500000Y-113650000D03*
X180000000Y-109900000D03*
X161000000Y-112400000D03*
X180000000Y-108650000D03*
X180000000Y-113650000D03*
X173500000Y-113650000D03*
X161000000Y-108650000D03*
X174500000Y-113650000D03*
X179000000Y-109900000D03*
X165500000Y-107400000D03*
X180000000Y-111150000D03*
X173500000Y-108650000D03*
X173500000Y-107400000D03*
X179000000Y-108650000D03*
X173500000Y-112400000D03*
X173500000Y-109900000D03*
X180000000Y-107400000D03*
X180000000Y-112400000D03*
X201500000Y-111150000D03*
X207000000Y-109900000D03*
X206000000Y-111150000D03*
X206000000Y-107400000D03*
X200500000Y-107400000D03*
X200500000Y-108650000D03*
X201500000Y-113650000D03*
X207000000Y-111150000D03*
X206000000Y-108650000D03*
X200500000Y-112400000D03*
X201500000Y-109900000D03*
X206000000Y-112400000D03*
X201500000Y-112400000D03*
X201500000Y-107400000D03*
X206000000Y-109900000D03*
X200500000Y-111150000D03*
X207000000Y-113650000D03*
X207000000Y-108650000D03*
X200500000Y-113650000D03*
X206000000Y-113650000D03*
X207000000Y-112400000D03*
X207000000Y-107400000D03*
X201500000Y-108650000D03*
X200500000Y-109900000D03*
X134000000Y-68500000D03*
X134000000Y-67250000D03*
X134000000Y-66000000D03*
X135000000Y-65000000D03*
X138500000Y-68500000D03*
X138500000Y-67250000D03*
X138500000Y-66000000D03*
X137500000Y-65000000D03*
X135000000Y-66000000D03*
X136250000Y-66000000D03*
X137500000Y-66000000D03*
X136250000Y-65000000D03*
X138500000Y-65000000D03*
X134000000Y-65000000D03*
X138500000Y-64000000D03*
X137500000Y-64000000D03*
X136250000Y-64000000D03*
X135000000Y-64000000D03*
X134000000Y-64000000D03*
X151000000Y-65000000D03*
X149750000Y-64000000D03*
X151000000Y-66000000D03*
X149750000Y-66000000D03*
X152000000Y-64000000D03*
X151000000Y-64000000D03*
X147500000Y-65000000D03*
X148500000Y-64000000D03*
X152000000Y-65000000D03*
X148500000Y-66000000D03*
X149750000Y-65000000D03*
X147500000Y-64000000D03*
X152000000Y-67250000D03*
X148500000Y-65000000D03*
X147500000Y-68500000D03*
X147500000Y-67250000D03*
X147500000Y-66000000D03*
X152000000Y-68500000D03*
X152000000Y-66000000D03*
X165500000Y-65000000D03*
X164500000Y-64000000D03*
X165500000Y-66000000D03*
X162000000Y-65000000D03*
X164500000Y-66000000D03*
X163250000Y-64000000D03*
X163250000Y-66000000D03*
X162000000Y-66000000D03*
X165500000Y-64000000D03*
X161000000Y-65000000D03*
X161000000Y-64000000D03*
X164500000Y-65000000D03*
X161000000Y-66000000D03*
X162000000Y-64000000D03*
X165500000Y-67250000D03*
X161000000Y-68500000D03*
X161000000Y-67250000D03*
X163250000Y-65000000D03*
X165500000Y-68500000D03*
X179000000Y-67250000D03*
X174500000Y-68500000D03*
X179000000Y-64000000D03*
X178000000Y-64000000D03*
X179000000Y-66000000D03*
X179000000Y-65000000D03*
X178000000Y-66000000D03*
X175500000Y-66000000D03*
X178000000Y-65000000D03*
X174500000Y-66000000D03*
X176750000Y-66000000D03*
X174500000Y-65000000D03*
X175500000Y-64000000D03*
X176750000Y-64000000D03*
X174500000Y-64000000D03*
X175500000Y-65000000D03*
X174500000Y-67250000D03*
X176750000Y-65000000D03*
X179000000Y-68500000D03*
X190250000Y-65000000D03*
X192500000Y-68500000D03*
X188000000Y-67250000D03*
X189000000Y-66000000D03*
X191500000Y-66000000D03*
X190250000Y-66000000D03*
X188000000Y-65000000D03*
X189000000Y-64000000D03*
X192500000Y-66000000D03*
X192500000Y-64000000D03*
X188000000Y-68500000D03*
X188000000Y-66000000D03*
X192500000Y-67250000D03*
X191500000Y-64000000D03*
X192500000Y-65000000D03*
X191500000Y-65000000D03*
X188000000Y-64000000D03*
X189000000Y-65000000D03*
X190250000Y-64000000D03*
X206000000Y-66000000D03*
X206000000Y-65000000D03*
X205000000Y-64000000D03*
X205000000Y-65000000D03*
X206000000Y-64000000D03*
X206000000Y-67250000D03*
X202500000Y-65000000D03*
X203750000Y-66000000D03*
X201500000Y-67250000D03*
X205000000Y-66000000D03*
X203750000Y-65000000D03*
X201500000Y-68500000D03*
X201500000Y-66000000D03*
X201500000Y-64000000D03*
X202500000Y-64000000D03*
X201500000Y-65000000D03*
X206000000Y-68500000D03*
X202500000Y-66000000D03*
X203750000Y-64000000D03*
X137500000Y-101900000D03*
X136250000Y-100900000D03*
X137500000Y-102900000D03*
X136250000Y-102900000D03*
X138500000Y-100900000D03*
X137500000Y-100900000D03*
X134000000Y-101900000D03*
X135000000Y-100900000D03*
X138500000Y-101900000D03*
X135000000Y-102900000D03*
X136250000Y-101900000D03*
X134000000Y-100900000D03*
X138500000Y-104150000D03*
X135000000Y-101900000D03*
X134000000Y-105400000D03*
X134000000Y-104150000D03*
X134000000Y-102900000D03*
X138500000Y-105400000D03*
X138500000Y-102900000D03*
X192500000Y-102900000D03*
X192500000Y-101900000D03*
X191500000Y-100900000D03*
X191500000Y-101900000D03*
X192500000Y-100900000D03*
X192500000Y-104150000D03*
X189000000Y-101900000D03*
X190250000Y-102900000D03*
X188000000Y-104150000D03*
X191500000Y-102900000D03*
X190250000Y-101900000D03*
X188000000Y-105400000D03*
X188000000Y-102900000D03*
X188000000Y-100900000D03*
X189000000Y-100900000D03*
X188000000Y-101900000D03*
X192500000Y-105400000D03*
X189000000Y-102900000D03*
X190250000Y-100900000D03*
X176750000Y-101900000D03*
X179000000Y-105400000D03*
X174500000Y-104150000D03*
X152000000Y-101900000D03*
X151000000Y-100900000D03*
X152000000Y-102900000D03*
X148500000Y-101900000D03*
X151000000Y-102900000D03*
X149750000Y-100900000D03*
X149750000Y-102900000D03*
X148500000Y-102900000D03*
X152000000Y-100900000D03*
X147500000Y-101900000D03*
X147500000Y-100900000D03*
X151000000Y-101900000D03*
X147500000Y-102900000D03*
X148500000Y-100900000D03*
X152000000Y-104150000D03*
X147500000Y-105400000D03*
X147500000Y-104150000D03*
X149750000Y-101900000D03*
X152000000Y-105400000D03*
X165500000Y-104150000D03*
X161000000Y-105400000D03*
X165500000Y-100900000D03*
X164500000Y-100900000D03*
X165500000Y-102900000D03*
X165500000Y-101900000D03*
X164500000Y-102900000D03*
X162000000Y-102900000D03*
X164500000Y-101900000D03*
X161000000Y-102900000D03*
X163250000Y-102900000D03*
X161000000Y-101900000D03*
X162000000Y-100900000D03*
X163250000Y-100900000D03*
X161000000Y-100900000D03*
X162000000Y-101900000D03*
X175500000Y-102900000D03*
X178000000Y-102900000D03*
X161000000Y-104150000D03*
X163250000Y-101900000D03*
X176750000Y-102900000D03*
X174500000Y-101900000D03*
X175500000Y-100900000D03*
X179000000Y-102900000D03*
X165500000Y-105400000D03*
X179000000Y-100900000D03*
X174500000Y-105400000D03*
X174500000Y-102900000D03*
X179000000Y-104150000D03*
X178000000Y-100900000D03*
X179000000Y-101900000D03*
X178000000Y-101900000D03*
X174500000Y-100900000D03*
X175500000Y-101900000D03*
X176750000Y-100900000D03*
X206000000Y-101900000D03*
X205000000Y-100900000D03*
X202500000Y-101900000D03*
X201500000Y-102900000D03*
X205000000Y-101900000D03*
X206000000Y-102900000D03*
X206000000Y-104150000D03*
X203750000Y-102900000D03*
X205000000Y-102900000D03*
X201500000Y-104150000D03*
X206000000Y-100900000D03*
X203750000Y-101900000D03*
X201500000Y-105400000D03*
X201500000Y-100900000D03*
X201500000Y-101900000D03*
X202500000Y-100900000D03*
X206000000Y-105400000D03*
X203750000Y-100900000D03*
X202500000Y-102900000D03*
D12*
X136200000Y-74450000D02*
X136200000Y-78550000D01*
X149700000Y-74450000D02*
X149700000Y-78550000D01*
X163200000Y-74450000D02*
X163200000Y-78550000D01*
X176700000Y-74450000D02*
X176700000Y-78550000D01*
X190200000Y-74450000D02*
X190200000Y-78550000D01*
X203700000Y-74450000D02*
X203700000Y-78550000D01*
X136200000Y-111350000D02*
X136200000Y-115450000D01*
X190200000Y-111350000D02*
X190200000Y-115450000D01*
X203700000Y-111350000D02*
X203700000Y-115450000D01*
X176700000Y-111350000D02*
X176700000Y-115450000D01*
X163200000Y-111350000D02*
X163200000Y-115450000D01*
X149700000Y-111350000D02*
X149700000Y-115450000D01*
X139750000Y-63500000D02*
X139750000Y-62750000D01*
X136200000Y-71025000D02*
X137750000Y-69500000D01*
X140750000Y-64500000D02*
X139750000Y-63500000D01*
X137750000Y-69500000D02*
X139750000Y-69500000D01*
X139750000Y-69500000D02*
X140750000Y-68750000D01*
X140750000Y-68750000D02*
X140750000Y-64500000D01*
X136200000Y-71650000D02*
X136200000Y-71025000D01*
X153250000Y-69500000D02*
X154250000Y-68750000D01*
X149700000Y-71650000D02*
X149700000Y-71025000D01*
X151250000Y-69500000D02*
X153250000Y-69500000D01*
X154250000Y-64500000D02*
X153250000Y-63500000D01*
X154250000Y-68750000D02*
X154250000Y-64500000D01*
X153250000Y-63500000D02*
X153250000Y-62750000D01*
X149700000Y-71025000D02*
X151250000Y-69500000D01*
X167750000Y-68750000D02*
X167750000Y-64500000D01*
X163200000Y-71025000D02*
X164750000Y-69500000D01*
X167750000Y-64500000D02*
X166750000Y-63500000D01*
X164750000Y-69500000D02*
X166750000Y-69500000D01*
X166750000Y-63500000D02*
X166750000Y-62750000D01*
X166750000Y-69500000D02*
X167750000Y-68750000D01*
X163200000Y-71650000D02*
X163200000Y-71025000D01*
X178250000Y-69500000D02*
X180250000Y-69500000D01*
X176700000Y-71650000D02*
X176700000Y-71025000D01*
X180250000Y-63500000D02*
X180250000Y-62750000D01*
X176700000Y-71025000D02*
X178250000Y-69500000D01*
X181250000Y-68750000D02*
X181250000Y-64500000D01*
X181250000Y-64500000D02*
X180250000Y-63500000D01*
X180250000Y-69500000D02*
X181250000Y-68750000D01*
X194750000Y-68750000D02*
X194750000Y-64500000D01*
X190200000Y-71650000D02*
X190200000Y-71025000D01*
X193750000Y-63500000D02*
X193750000Y-62750000D01*
X193750000Y-69500000D02*
X194750000Y-68750000D01*
X191750000Y-69500000D02*
X193750000Y-69500000D01*
X194750000Y-64500000D02*
X193750000Y-63500000D01*
X190200000Y-71025000D02*
X191750000Y-69500000D01*
X203700000Y-71650000D02*
X203700000Y-71025000D01*
X207250000Y-63500000D02*
X207250000Y-62750000D01*
X208250000Y-64500000D02*
X207250000Y-63500000D01*
X205250000Y-69500000D02*
X207250000Y-69500000D01*
X203700000Y-71025000D02*
X205250000Y-69500000D01*
X208250000Y-68750000D02*
X208250000Y-64500000D01*
X207250000Y-69500000D02*
X208250000Y-68750000D01*
X139750000Y-106400000D02*
X140750000Y-105650000D01*
X136200000Y-108550000D02*
X136200000Y-107925000D01*
X137750000Y-106400000D02*
X139750000Y-106400000D01*
X140750000Y-101400000D02*
X139750000Y-100400000D01*
X140750000Y-105650000D02*
X140750000Y-101400000D01*
X139750000Y-100400000D02*
X139750000Y-99650000D01*
X136200000Y-107925000D02*
X137750000Y-106400000D01*
X190200000Y-108550000D02*
X190200000Y-107925000D01*
X193750000Y-100400000D02*
X193750000Y-99650000D01*
X194750000Y-101400000D02*
X193750000Y-100400000D01*
X191750000Y-106400000D02*
X193750000Y-106400000D01*
X190200000Y-107925000D02*
X191750000Y-106400000D01*
X194750000Y-105650000D02*
X194750000Y-101400000D01*
X193750000Y-106400000D02*
X194750000Y-105650000D01*
X203700000Y-108550000D02*
X203700000Y-107925000D01*
X207250000Y-100400000D02*
X207250000Y-99650000D01*
X208250000Y-101400000D02*
X207250000Y-100400000D01*
X205250000Y-106400000D02*
X207250000Y-106400000D01*
X208250000Y-105650000D02*
X208250000Y-101400000D01*
X207250000Y-106400000D02*
X208250000Y-105650000D01*
X203700000Y-107925000D02*
X205250000Y-106400000D01*
X181250000Y-105650000D02*
X181250000Y-101400000D01*
X176700000Y-108550000D02*
X176700000Y-107925000D01*
X180250000Y-100400000D02*
X180250000Y-99650000D01*
X180250000Y-106400000D02*
X181250000Y-105650000D01*
X178250000Y-106400000D02*
X180250000Y-106400000D01*
X181250000Y-101400000D02*
X180250000Y-100400000D01*
X176700000Y-107925000D02*
X178250000Y-106400000D01*
X164750000Y-106400000D02*
X166750000Y-106400000D01*
X163200000Y-108550000D02*
X163200000Y-107925000D01*
X166750000Y-100400000D02*
X166750000Y-99650000D01*
X163200000Y-107925000D02*
X164750000Y-106400000D01*
X167750000Y-105650000D02*
X167750000Y-101400000D01*
X167750000Y-101400000D02*
X166750000Y-100400000D01*
X166750000Y-106400000D02*
X167750000Y-105650000D01*
X154250000Y-105650000D02*
X154250000Y-101400000D01*
X149700000Y-107925000D02*
X151250000Y-106400000D01*
X154250000Y-101400000D02*
X153250000Y-100400000D01*
X151250000Y-106400000D02*
X153250000Y-106400000D01*
X153250000Y-100400000D02*
X153250000Y-99650000D01*
X153250000Y-106400000D02*
X154250000Y-105650000D01*
X149700000Y-108550000D02*
X149700000Y-107925000D01*
D13*
G36*
X141123000Y-77965429D02*
G01*
X141123000Y-82373000D01*
X140418519Y-82373000D01*
X140400000Y-82371176D01*
X140326095Y-82378455D01*
X140255030Y-82400012D01*
X140189537Y-82435019D01*
X140132131Y-82482131D01*
X140085019Y-82539537D01*
X140050012Y-82605030D01*
X140028455Y-82676095D01*
X140023000Y-82731481D01*
X140021176Y-82750000D01*
X140023000Y-82768519D01*
X140023000Y-87598952D01*
X138138683Y-89573000D01*
X134361317Y-89573000D01*
X132477000Y-87598952D01*
X132477000Y-82768519D01*
X132478824Y-82750000D01*
X132477000Y-82731481D01*
X132471545Y-82676095D01*
X132449988Y-82605030D01*
X132414981Y-82539537D01*
X132367869Y-82482131D01*
X132310463Y-82435019D01*
X132244970Y-82400012D01*
X132173905Y-82378455D01*
X132100000Y-82371176D01*
X132081481Y-82373000D01*
X131377000Y-82373000D01*
X131377000Y-77965429D01*
X141123000Y-77965429D01*
G37*
X141123000Y-77965429D02*
X141123000Y-82373000D01*
X140418519Y-82373000D01*
X140400000Y-82371176D01*
X140326095Y-82378455D01*
X140255030Y-82400012D01*
X140189537Y-82435019D01*
X140132131Y-82482131D01*
X140085019Y-82539537D01*
X140050012Y-82605030D01*
X140028455Y-82676095D01*
X140023000Y-82731481D01*
X140021176Y-82750000D01*
X140023000Y-82768519D01*
X140023000Y-87598952D01*
X138138683Y-89573000D01*
X134361317Y-89573000D01*
X132477000Y-87598952D01*
X132477000Y-82768519D01*
X132478824Y-82750000D01*
X132477000Y-82731481D01*
X132471545Y-82676095D01*
X132449988Y-82605030D01*
X132414981Y-82539537D01*
X132367869Y-82482131D01*
X132310463Y-82435019D01*
X132244970Y-82400012D01*
X132173905Y-82378455D01*
X132100000Y-82371176D01*
X132081481Y-82373000D01*
X131377000Y-82373000D01*
X131377000Y-77965429D01*
X141123000Y-77965429D01*
G36*
X132081471Y-63626999D02*
G01*
X132100000Y-63628824D01*
X132173905Y-63621545D01*
X132244970Y-63599988D01*
X132287977Y-63577000D01*
X139177792Y-63577000D01*
X139181349Y-63613112D01*
X139214343Y-63721877D01*
X139228184Y-63747772D01*
X139267921Y-63822115D01*
X139340026Y-63909974D01*
X139362038Y-63928039D01*
X140173000Y-64739001D01*
X140173000Y-68461500D01*
X139557668Y-68923000D01*
X137780683Y-68923000D01*
X137754713Y-68920229D01*
X137724021Y-68923000D01*
X137721664Y-68923000D01*
X137695751Y-68925552D01*
X137641514Y-68930449D01*
X137639242Y-68931118D01*
X137636888Y-68931350D01*
X137584729Y-68947172D01*
X137532485Y-68962558D01*
X137530392Y-68963655D01*
X137528124Y-68964343D01*
X137480008Y-68990061D01*
X137431815Y-69015319D01*
X137429976Y-69016803D01*
X137427885Y-69017921D01*
X137421696Y-69023000D01*
X131377000Y-69023000D01*
X131377000Y-63627000D01*
X132081471Y-63626999D01*
G37*
X132081471Y-63626999D02*
X132100000Y-63628824D01*
X132173905Y-63621545D01*
X132244970Y-63599988D01*
X132287977Y-63577000D01*
X139177792Y-63577000D01*
X139181349Y-63613112D01*
X139214343Y-63721877D01*
X139228184Y-63747772D01*
X139267921Y-63822115D01*
X139340026Y-63909974D01*
X139362038Y-63928039D01*
X140173000Y-64739001D01*
X140173000Y-68461500D01*
X139557668Y-68923000D01*
X137780683Y-68923000D01*
X137754713Y-68920229D01*
X137724021Y-68923000D01*
X137721664Y-68923000D01*
X137695751Y-68925552D01*
X137641514Y-68930449D01*
X137639242Y-68931118D01*
X137636888Y-68931350D01*
X137584729Y-68947172D01*
X137532485Y-68962558D01*
X137530392Y-68963655D01*
X137528124Y-68964343D01*
X137480008Y-68990061D01*
X137431815Y-69015319D01*
X137429976Y-69016803D01*
X137427885Y-69017921D01*
X137421696Y-69023000D01*
X131377000Y-69023000D01*
X131377000Y-63627000D01*
X132081471Y-63626999D01*
G36*
X134361318Y-56427000D02*
G01*
X138138681Y-56426999D01*
X140023000Y-58401048D01*
X140023000Y-63123000D01*
X132477000Y-63123000D01*
X132477000Y-58401048D01*
X134361318Y-56427000D01*
G37*
X134361318Y-56427000D02*
X138138681Y-56426999D01*
X140023000Y-58401048D01*
X140023000Y-63123000D01*
X132477000Y-63123000D01*
X132477000Y-58401048D01*
X134361318Y-56427000D01*
G36*
X136950661Y-69477000D02*
G01*
X135813860Y-70595466D01*
X135790026Y-70615026D01*
X135755361Y-70657265D01*
X135722693Y-70696418D01*
X135575000Y-70696418D01*
X135462124Y-70707535D01*
X135353586Y-70740460D01*
X135253557Y-70793927D01*
X135165881Y-70865881D01*
X135093927Y-70953557D01*
X135040460Y-71053586D01*
X135007535Y-71162124D01*
X134996418Y-71275000D01*
X134996418Y-72025000D01*
X135007535Y-72137876D01*
X135040460Y-72246414D01*
X135093927Y-72346443D01*
X135165881Y-72434119D01*
X135253557Y-72506073D01*
X135353586Y-72559540D01*
X135462124Y-72592465D01*
X135575000Y-72603582D01*
X136825000Y-72603582D01*
X136937876Y-72592465D01*
X137046414Y-72559540D01*
X137146443Y-72506073D01*
X137234119Y-72434119D01*
X137306073Y-72346443D01*
X137359540Y-72246414D01*
X137392465Y-72137876D01*
X137403582Y-72025000D01*
X137403582Y-71275000D01*
X137392465Y-71162124D01*
X137359540Y-71053586D01*
X137306073Y-70953557D01*
X137234119Y-70865881D01*
X137207035Y-70843654D01*
X137986258Y-70077000D01*
X139737384Y-70076999D01*
X139781555Y-70078932D01*
X139822217Y-70072677D01*
X139863112Y-70068649D01*
X139878247Y-70064058D01*
X139893893Y-70061651D01*
X139932542Y-70047588D01*
X139971876Y-70035656D01*
X139985829Y-70028198D01*
X140000700Y-70022787D01*
X140035850Y-70001461D01*
X140072115Y-69982078D01*
X140106278Y-69954041D01*
X140742333Y-69477000D01*
X141123000Y-69477000D01*
X141123000Y-77523000D01*
X136777000Y-77523000D01*
X136777000Y-75403582D01*
X136825000Y-75403582D01*
X136937876Y-75392465D01*
X137046414Y-75359540D01*
X137146443Y-75306073D01*
X137234119Y-75234119D01*
X137306073Y-75146443D01*
X137359540Y-75046414D01*
X137392465Y-74937876D01*
X137403582Y-74825000D01*
X137403582Y-74075000D01*
X137392465Y-73962124D01*
X137359540Y-73853586D01*
X137306073Y-73753557D01*
X137234119Y-73665881D01*
X137146443Y-73593927D01*
X137046414Y-73540460D01*
X136937876Y-73507535D01*
X136825000Y-73496418D01*
X135575000Y-73496418D01*
X135462124Y-73507535D01*
X135353586Y-73540460D01*
X135253557Y-73593927D01*
X135165881Y-73665881D01*
X135093927Y-73753557D01*
X135040460Y-73853586D01*
X135007535Y-73962124D01*
X134996418Y-74075000D01*
X134996418Y-74825000D01*
X135007535Y-74937876D01*
X135040460Y-75046414D01*
X135093927Y-75146443D01*
X135165881Y-75234119D01*
X135253557Y-75306073D01*
X135353586Y-75359540D01*
X135462124Y-75392465D01*
X135575000Y-75403582D01*
X135623000Y-75403582D01*
X135623000Y-77523000D01*
X131377000Y-77523000D01*
X131377000Y-69477000D01*
X136950661Y-69477000D01*
G37*
X136950661Y-69477000D02*
X135813860Y-70595466D01*
X135790026Y-70615026D01*
X135755361Y-70657265D01*
X135722693Y-70696418D01*
X135575000Y-70696418D01*
X135462124Y-70707535D01*
X135353586Y-70740460D01*
X135253557Y-70793927D01*
X135165881Y-70865881D01*
X135093927Y-70953557D01*
X135040460Y-71053586D01*
X135007535Y-71162124D01*
X134996418Y-71275000D01*
X134996418Y-72025000D01*
X135007535Y-72137876D01*
X135040460Y-72246414D01*
X135093927Y-72346443D01*
X135165881Y-72434119D01*
X135253557Y-72506073D01*
X135353586Y-72559540D01*
X135462124Y-72592465D01*
X135575000Y-72603582D01*
X136825000Y-72603582D01*
X136937876Y-72592465D01*
X137046414Y-72559540D01*
X137146443Y-72506073D01*
X137234119Y-72434119D01*
X137306073Y-72346443D01*
X137359540Y-72246414D01*
X137392465Y-72137876D01*
X137403582Y-72025000D01*
X137403582Y-71275000D01*
X137392465Y-71162124D01*
X137359540Y-71053586D01*
X137306073Y-70953557D01*
X137234119Y-70865881D01*
X137207035Y-70843654D01*
X137986258Y-70077000D01*
X139737384Y-70076999D01*
X139781555Y-70078932D01*
X139822217Y-70072677D01*
X139863112Y-70068649D01*
X139878247Y-70064058D01*
X139893893Y-70061651D01*
X139932542Y-70047588D01*
X139971876Y-70035656D01*
X139985829Y-70028198D01*
X140000700Y-70022787D01*
X140035850Y-70001461D01*
X140072115Y-69982078D01*
X140106278Y-69954041D01*
X140742333Y-69477000D01*
X141123000Y-69477000D01*
X141123000Y-77523000D01*
X136777000Y-77523000D01*
X136777000Y-75403582D01*
X136825000Y-75403582D01*
X136937876Y-75392465D01*
X137046414Y-75359540D01*
X137146443Y-75306073D01*
X137234119Y-75234119D01*
X137306073Y-75146443D01*
X137359540Y-75046414D01*
X137392465Y-74937876D01*
X137403582Y-74825000D01*
X137403582Y-74075000D01*
X137392465Y-73962124D01*
X137359540Y-73853586D01*
X137306073Y-73753557D01*
X137234119Y-73665881D01*
X137146443Y-73593927D01*
X137046414Y-73540460D01*
X136937876Y-73507535D01*
X136825000Y-73496418D01*
X135575000Y-73496418D01*
X135462124Y-73507535D01*
X135353586Y-73540460D01*
X135253557Y-73593927D01*
X135165881Y-73665881D01*
X135093927Y-73753557D01*
X135040460Y-73853586D01*
X135007535Y-73962124D01*
X134996418Y-74075000D01*
X134996418Y-74825000D01*
X135007535Y-74937876D01*
X135040460Y-75046414D01*
X135093927Y-75146443D01*
X135165881Y-75234119D01*
X135253557Y-75306073D01*
X135353586Y-75359540D01*
X135462124Y-75392465D01*
X135575000Y-75403582D01*
X135623000Y-75403582D01*
X135623000Y-77523000D01*
X131377000Y-77523000D01*
X131377000Y-69477000D01*
X136950661Y-69477000D01*
G36*
X145581471Y-63626999D02*
G01*
X145600000Y-63628824D01*
X145673905Y-63621545D01*
X145744970Y-63599988D01*
X145787977Y-63577000D01*
X152677792Y-63577000D01*
X152681349Y-63613112D01*
X152714343Y-63721877D01*
X152728184Y-63747772D01*
X152767921Y-63822115D01*
X152840026Y-63909974D01*
X152862038Y-63928039D01*
X153673000Y-64739001D01*
X153673000Y-68461500D01*
X153057668Y-68923000D01*
X151280683Y-68923000D01*
X151254713Y-68920229D01*
X151224021Y-68923000D01*
X151221664Y-68923000D01*
X151195751Y-68925552D01*
X151141514Y-68930449D01*
X151139242Y-68931118D01*
X151136888Y-68931350D01*
X151084729Y-68947172D01*
X151032485Y-68962558D01*
X151030392Y-68963655D01*
X151028124Y-68964343D01*
X150980008Y-68990061D01*
X150931815Y-69015319D01*
X150929976Y-69016803D01*
X150927885Y-69017921D01*
X150921696Y-69023000D01*
X144877000Y-69023000D01*
X144877000Y-63627000D01*
X145581471Y-63626999D01*
G37*
X145581471Y-63626999D02*
X145600000Y-63628824D01*
X145673905Y-63621545D01*
X145744970Y-63599988D01*
X145787977Y-63577000D01*
X152677792Y-63577000D01*
X152681349Y-63613112D01*
X152714343Y-63721877D01*
X152728184Y-63747772D01*
X152767921Y-63822115D01*
X152840026Y-63909974D01*
X152862038Y-63928039D01*
X153673000Y-64739001D01*
X153673000Y-68461500D01*
X153057668Y-68923000D01*
X151280683Y-68923000D01*
X151254713Y-68920229D01*
X151224021Y-68923000D01*
X151221664Y-68923000D01*
X151195751Y-68925552D01*
X151141514Y-68930449D01*
X151139242Y-68931118D01*
X151136888Y-68931350D01*
X151084729Y-68947172D01*
X151032485Y-68962558D01*
X151030392Y-68963655D01*
X151028124Y-68964343D01*
X150980008Y-68990061D01*
X150931815Y-69015319D01*
X150929976Y-69016803D01*
X150927885Y-69017921D01*
X150921696Y-69023000D01*
X144877000Y-69023000D01*
X144877000Y-63627000D01*
X145581471Y-63626999D01*
G36*
X147861318Y-56427000D02*
G01*
X151638681Y-56426999D01*
X153523000Y-58401048D01*
X153523000Y-63123000D01*
X145977000Y-63123000D01*
X145977000Y-58401048D01*
X147861318Y-56427000D01*
G37*
X147861318Y-56427000D02*
X151638681Y-56426999D01*
X153523000Y-58401048D01*
X153523000Y-63123000D01*
X145977000Y-63123000D01*
X145977000Y-58401048D01*
X147861318Y-56427000D01*
G36*
X154623000Y-77965429D02*
G01*
X154623000Y-82373000D01*
X153918519Y-82373000D01*
X153900000Y-82371176D01*
X153826095Y-82378455D01*
X153755030Y-82400012D01*
X153689537Y-82435019D01*
X153632131Y-82482131D01*
X153585019Y-82539537D01*
X153550012Y-82605030D01*
X153528455Y-82676095D01*
X153523000Y-82731481D01*
X153521176Y-82750000D01*
X153523000Y-82768519D01*
X153523000Y-87598952D01*
X151638683Y-89573000D01*
X147861317Y-89573000D01*
X145977000Y-87598952D01*
X145977000Y-82768519D01*
X145978824Y-82750000D01*
X145977000Y-82731481D01*
X145971545Y-82676095D01*
X145949988Y-82605030D01*
X145914981Y-82539537D01*
X145867869Y-82482131D01*
X145810463Y-82435019D01*
X145744970Y-82400012D01*
X145673905Y-82378455D01*
X145600000Y-82371176D01*
X145581481Y-82373000D01*
X144877000Y-82373000D01*
X144877000Y-77965429D01*
X154623000Y-77965429D01*
G37*
X154623000Y-77965429D02*
X154623000Y-82373000D01*
X153918519Y-82373000D01*
X153900000Y-82371176D01*
X153826095Y-82378455D01*
X153755030Y-82400012D01*
X153689537Y-82435019D01*
X153632131Y-82482131D01*
X153585019Y-82539537D01*
X153550012Y-82605030D01*
X153528455Y-82676095D01*
X153523000Y-82731481D01*
X153521176Y-82750000D01*
X153523000Y-82768519D01*
X153523000Y-87598952D01*
X151638683Y-89573000D01*
X147861317Y-89573000D01*
X145977000Y-87598952D01*
X145977000Y-82768519D01*
X145978824Y-82750000D01*
X145977000Y-82731481D01*
X145971545Y-82676095D01*
X145949988Y-82605030D01*
X145914981Y-82539537D01*
X145867869Y-82482131D01*
X145810463Y-82435019D01*
X145744970Y-82400012D01*
X145673905Y-82378455D01*
X145600000Y-82371176D01*
X145581481Y-82373000D01*
X144877000Y-82373000D01*
X144877000Y-77965429D01*
X154623000Y-77965429D01*
G36*
X150450661Y-69477000D02*
G01*
X149313860Y-70595466D01*
X149290026Y-70615026D01*
X149255361Y-70657265D01*
X149222693Y-70696418D01*
X149075000Y-70696418D01*
X148962124Y-70707535D01*
X148853586Y-70740460D01*
X148753557Y-70793927D01*
X148665881Y-70865881D01*
X148593927Y-70953557D01*
X148540460Y-71053586D01*
X148507535Y-71162124D01*
X148496418Y-71275000D01*
X148496418Y-72025000D01*
X148507535Y-72137876D01*
X148540460Y-72246414D01*
X148593927Y-72346443D01*
X148665881Y-72434119D01*
X148753557Y-72506073D01*
X148853586Y-72559540D01*
X148962124Y-72592465D01*
X149075000Y-72603582D01*
X150325000Y-72603582D01*
X150437876Y-72592465D01*
X150546414Y-72559540D01*
X150646443Y-72506073D01*
X150734119Y-72434119D01*
X150806073Y-72346443D01*
X150859540Y-72246414D01*
X150892465Y-72137876D01*
X150903582Y-72025000D01*
X150903582Y-71275000D01*
X150892465Y-71162124D01*
X150859540Y-71053586D01*
X150806073Y-70953557D01*
X150734119Y-70865881D01*
X150707035Y-70843654D01*
X151486258Y-70077000D01*
X153237384Y-70076999D01*
X153281555Y-70078932D01*
X153322217Y-70072677D01*
X153363112Y-70068649D01*
X153378247Y-70064058D01*
X153393893Y-70061651D01*
X153432542Y-70047588D01*
X153471876Y-70035656D01*
X153485829Y-70028198D01*
X153500700Y-70022787D01*
X153535850Y-70001461D01*
X153572115Y-69982078D01*
X153606278Y-69954041D01*
X154242333Y-69477000D01*
X154623000Y-69477000D01*
X154623000Y-77523000D01*
X150277000Y-77523000D01*
X150277000Y-75403582D01*
X150325000Y-75403582D01*
X150437876Y-75392465D01*
X150546414Y-75359540D01*
X150646443Y-75306073D01*
X150734119Y-75234119D01*
X150806073Y-75146443D01*
X150859540Y-75046414D01*
X150892465Y-74937876D01*
X150903582Y-74825000D01*
X150903582Y-74075000D01*
X150892465Y-73962124D01*
X150859540Y-73853586D01*
X150806073Y-73753557D01*
X150734119Y-73665881D01*
X150646443Y-73593927D01*
X150546414Y-73540460D01*
X150437876Y-73507535D01*
X150325000Y-73496418D01*
X149075000Y-73496418D01*
X148962124Y-73507535D01*
X148853586Y-73540460D01*
X148753557Y-73593927D01*
X148665881Y-73665881D01*
X148593927Y-73753557D01*
X148540460Y-73853586D01*
X148507535Y-73962124D01*
X148496418Y-74075000D01*
X148496418Y-74825000D01*
X148507535Y-74937876D01*
X148540460Y-75046414D01*
X148593927Y-75146443D01*
X148665881Y-75234119D01*
X148753557Y-75306073D01*
X148853586Y-75359540D01*
X148962124Y-75392465D01*
X149075000Y-75403582D01*
X149123000Y-75403582D01*
X149123000Y-77523000D01*
X144877000Y-77523000D01*
X144877000Y-69477000D01*
X150450661Y-69477000D01*
G37*
X150450661Y-69477000D02*
X149313860Y-70595466D01*
X149290026Y-70615026D01*
X149255361Y-70657265D01*
X149222693Y-70696418D01*
X149075000Y-70696418D01*
X148962124Y-70707535D01*
X148853586Y-70740460D01*
X148753557Y-70793927D01*
X148665881Y-70865881D01*
X148593927Y-70953557D01*
X148540460Y-71053586D01*
X148507535Y-71162124D01*
X148496418Y-71275000D01*
X148496418Y-72025000D01*
X148507535Y-72137876D01*
X148540460Y-72246414D01*
X148593927Y-72346443D01*
X148665881Y-72434119D01*
X148753557Y-72506073D01*
X148853586Y-72559540D01*
X148962124Y-72592465D01*
X149075000Y-72603582D01*
X150325000Y-72603582D01*
X150437876Y-72592465D01*
X150546414Y-72559540D01*
X150646443Y-72506073D01*
X150734119Y-72434119D01*
X150806073Y-72346443D01*
X150859540Y-72246414D01*
X150892465Y-72137876D01*
X150903582Y-72025000D01*
X150903582Y-71275000D01*
X150892465Y-71162124D01*
X150859540Y-71053586D01*
X150806073Y-70953557D01*
X150734119Y-70865881D01*
X150707035Y-70843654D01*
X151486258Y-70077000D01*
X153237384Y-70076999D01*
X153281555Y-70078932D01*
X153322217Y-70072677D01*
X153363112Y-70068649D01*
X153378247Y-70064058D01*
X153393893Y-70061651D01*
X153432542Y-70047588D01*
X153471876Y-70035656D01*
X153485829Y-70028198D01*
X153500700Y-70022787D01*
X153535850Y-70001461D01*
X153572115Y-69982078D01*
X153606278Y-69954041D01*
X154242333Y-69477000D01*
X154623000Y-69477000D01*
X154623000Y-77523000D01*
X150277000Y-77523000D01*
X150277000Y-75403582D01*
X150325000Y-75403582D01*
X150437876Y-75392465D01*
X150546414Y-75359540D01*
X150646443Y-75306073D01*
X150734119Y-75234119D01*
X150806073Y-75146443D01*
X150859540Y-75046414D01*
X150892465Y-74937876D01*
X150903582Y-74825000D01*
X150903582Y-74075000D01*
X150892465Y-73962124D01*
X150859540Y-73853586D01*
X150806073Y-73753557D01*
X150734119Y-73665881D01*
X150646443Y-73593927D01*
X150546414Y-73540460D01*
X150437876Y-73507535D01*
X150325000Y-73496418D01*
X149075000Y-73496418D01*
X148962124Y-73507535D01*
X148853586Y-73540460D01*
X148753557Y-73593927D01*
X148665881Y-73665881D01*
X148593927Y-73753557D01*
X148540460Y-73853586D01*
X148507535Y-73962124D01*
X148496418Y-74075000D01*
X148496418Y-74825000D01*
X148507535Y-74937876D01*
X148540460Y-75046414D01*
X148593927Y-75146443D01*
X148665881Y-75234119D01*
X148753557Y-75306073D01*
X148853586Y-75359540D01*
X148962124Y-75392465D01*
X149075000Y-75403582D01*
X149123000Y-75403582D01*
X149123000Y-77523000D01*
X144877000Y-77523000D01*
X144877000Y-69477000D01*
X150450661Y-69477000D01*
G36*
X161361318Y-56427000D02*
G01*
X165138681Y-56426999D01*
X167023000Y-58401048D01*
X167023000Y-63123000D01*
X159477000Y-63123000D01*
X159477000Y-58401048D01*
X161361318Y-56427000D01*
G37*
X161361318Y-56427000D02*
X165138681Y-56426999D01*
X167023000Y-58401048D01*
X167023000Y-63123000D01*
X159477000Y-63123000D01*
X159477000Y-58401048D01*
X161361318Y-56427000D01*
G36*
X159081471Y-63626999D02*
G01*
X159100000Y-63628824D01*
X159173905Y-63621545D01*
X159244970Y-63599988D01*
X159287977Y-63577000D01*
X166177792Y-63577000D01*
X166181349Y-63613112D01*
X166214343Y-63721877D01*
X166228184Y-63747772D01*
X166267921Y-63822115D01*
X166340026Y-63909974D01*
X166362038Y-63928039D01*
X167173000Y-64739001D01*
X167173000Y-68461500D01*
X166557668Y-68923000D01*
X164780683Y-68923000D01*
X164754713Y-68920229D01*
X164724021Y-68923000D01*
X164721664Y-68923000D01*
X164695751Y-68925552D01*
X164641514Y-68930449D01*
X164639242Y-68931118D01*
X164636888Y-68931350D01*
X164584729Y-68947172D01*
X164532485Y-68962558D01*
X164530392Y-68963655D01*
X164528124Y-68964343D01*
X164480008Y-68990061D01*
X164431815Y-69015319D01*
X164429976Y-69016803D01*
X164427885Y-69017921D01*
X164421696Y-69023000D01*
X158377000Y-69023000D01*
X158377000Y-63627000D01*
X159081471Y-63626999D01*
G37*
X159081471Y-63626999D02*
X159100000Y-63628824D01*
X159173905Y-63621545D01*
X159244970Y-63599988D01*
X159287977Y-63577000D01*
X166177792Y-63577000D01*
X166181349Y-63613112D01*
X166214343Y-63721877D01*
X166228184Y-63747772D01*
X166267921Y-63822115D01*
X166340026Y-63909974D01*
X166362038Y-63928039D01*
X167173000Y-64739001D01*
X167173000Y-68461500D01*
X166557668Y-68923000D01*
X164780683Y-68923000D01*
X164754713Y-68920229D01*
X164724021Y-68923000D01*
X164721664Y-68923000D01*
X164695751Y-68925552D01*
X164641514Y-68930449D01*
X164639242Y-68931118D01*
X164636888Y-68931350D01*
X164584729Y-68947172D01*
X164532485Y-68962558D01*
X164530392Y-68963655D01*
X164528124Y-68964343D01*
X164480008Y-68990061D01*
X164431815Y-69015319D01*
X164429976Y-69016803D01*
X164427885Y-69017921D01*
X164421696Y-69023000D01*
X158377000Y-69023000D01*
X158377000Y-63627000D01*
X159081471Y-63626999D01*
G36*
X168123000Y-77965429D02*
G01*
X168123000Y-82373000D01*
X167418519Y-82373000D01*
X167400000Y-82371176D01*
X167326095Y-82378455D01*
X167255030Y-82400012D01*
X167189537Y-82435019D01*
X167132131Y-82482131D01*
X167085019Y-82539537D01*
X167050012Y-82605030D01*
X167028455Y-82676095D01*
X167023000Y-82731481D01*
X167021176Y-82750000D01*
X167023000Y-82768519D01*
X167023000Y-87598952D01*
X165138683Y-89573000D01*
X161361317Y-89573000D01*
X159477000Y-87598952D01*
X159477000Y-82768519D01*
X159478824Y-82750000D01*
X159477000Y-82731481D01*
X159471545Y-82676095D01*
X159449988Y-82605030D01*
X159414981Y-82539537D01*
X159367869Y-82482131D01*
X159310463Y-82435019D01*
X159244970Y-82400012D01*
X159173905Y-82378455D01*
X159100000Y-82371176D01*
X159081481Y-82373000D01*
X158377000Y-82373000D01*
X158377000Y-77965429D01*
X168123000Y-77965429D01*
G37*
X168123000Y-77965429D02*
X168123000Y-82373000D01*
X167418519Y-82373000D01*
X167400000Y-82371176D01*
X167326095Y-82378455D01*
X167255030Y-82400012D01*
X167189537Y-82435019D01*
X167132131Y-82482131D01*
X167085019Y-82539537D01*
X167050012Y-82605030D01*
X167028455Y-82676095D01*
X167023000Y-82731481D01*
X167021176Y-82750000D01*
X167023000Y-82768519D01*
X167023000Y-87598952D01*
X165138683Y-89573000D01*
X161361317Y-89573000D01*
X159477000Y-87598952D01*
X159477000Y-82768519D01*
X159478824Y-82750000D01*
X159477000Y-82731481D01*
X159471545Y-82676095D01*
X159449988Y-82605030D01*
X159414981Y-82539537D01*
X159367869Y-82482131D01*
X159310463Y-82435019D01*
X159244970Y-82400012D01*
X159173905Y-82378455D01*
X159100000Y-82371176D01*
X159081481Y-82373000D01*
X158377000Y-82373000D01*
X158377000Y-77965429D01*
X168123000Y-77965429D01*
G36*
X163950661Y-69477000D02*
G01*
X162813860Y-70595466D01*
X162790026Y-70615026D01*
X162755361Y-70657265D01*
X162722693Y-70696418D01*
X162575000Y-70696418D01*
X162462124Y-70707535D01*
X162353586Y-70740460D01*
X162253557Y-70793927D01*
X162165881Y-70865881D01*
X162093927Y-70953557D01*
X162040460Y-71053586D01*
X162007535Y-71162124D01*
X161996418Y-71275000D01*
X161996418Y-72025000D01*
X162007535Y-72137876D01*
X162040460Y-72246414D01*
X162093927Y-72346443D01*
X162165881Y-72434119D01*
X162253557Y-72506073D01*
X162353586Y-72559540D01*
X162462124Y-72592465D01*
X162575000Y-72603582D01*
X163825000Y-72603582D01*
X163937876Y-72592465D01*
X164046414Y-72559540D01*
X164146443Y-72506073D01*
X164234119Y-72434119D01*
X164306073Y-72346443D01*
X164359540Y-72246414D01*
X164392465Y-72137876D01*
X164403582Y-72025000D01*
X164403582Y-71275000D01*
X164392465Y-71162124D01*
X164359540Y-71053586D01*
X164306073Y-70953557D01*
X164234119Y-70865881D01*
X164207035Y-70843654D01*
X164986258Y-70077000D01*
X166737384Y-70076999D01*
X166781555Y-70078932D01*
X166822217Y-70072677D01*
X166863112Y-70068649D01*
X166878247Y-70064058D01*
X166893893Y-70061651D01*
X166932542Y-70047588D01*
X166971876Y-70035656D01*
X166985829Y-70028198D01*
X167000700Y-70022787D01*
X167035850Y-70001461D01*
X167072115Y-69982078D01*
X167106278Y-69954041D01*
X167742333Y-69477000D01*
X168123000Y-69477000D01*
X168123000Y-77523000D01*
X163777000Y-77523000D01*
X163777000Y-75403582D01*
X163825000Y-75403582D01*
X163937876Y-75392465D01*
X164046414Y-75359540D01*
X164146443Y-75306073D01*
X164234119Y-75234119D01*
X164306073Y-75146443D01*
X164359540Y-75046414D01*
X164392465Y-74937876D01*
X164403582Y-74825000D01*
X164403582Y-74075000D01*
X164392465Y-73962124D01*
X164359540Y-73853586D01*
X164306073Y-73753557D01*
X164234119Y-73665881D01*
X164146443Y-73593927D01*
X164046414Y-73540460D01*
X163937876Y-73507535D01*
X163825000Y-73496418D01*
X162575000Y-73496418D01*
X162462124Y-73507535D01*
X162353586Y-73540460D01*
X162253557Y-73593927D01*
X162165881Y-73665881D01*
X162093927Y-73753557D01*
X162040460Y-73853586D01*
X162007535Y-73962124D01*
X161996418Y-74075000D01*
X161996418Y-74825000D01*
X162007535Y-74937876D01*
X162040460Y-75046414D01*
X162093927Y-75146443D01*
X162165881Y-75234119D01*
X162253557Y-75306073D01*
X162353586Y-75359540D01*
X162462124Y-75392465D01*
X162575000Y-75403582D01*
X162623000Y-75403582D01*
X162623000Y-77523000D01*
X158377000Y-77523000D01*
X158377000Y-69477000D01*
X163950661Y-69477000D01*
G37*
X163950661Y-69477000D02*
X162813860Y-70595466D01*
X162790026Y-70615026D01*
X162755361Y-70657265D01*
X162722693Y-70696418D01*
X162575000Y-70696418D01*
X162462124Y-70707535D01*
X162353586Y-70740460D01*
X162253557Y-70793927D01*
X162165881Y-70865881D01*
X162093927Y-70953557D01*
X162040460Y-71053586D01*
X162007535Y-71162124D01*
X161996418Y-71275000D01*
X161996418Y-72025000D01*
X162007535Y-72137876D01*
X162040460Y-72246414D01*
X162093927Y-72346443D01*
X162165881Y-72434119D01*
X162253557Y-72506073D01*
X162353586Y-72559540D01*
X162462124Y-72592465D01*
X162575000Y-72603582D01*
X163825000Y-72603582D01*
X163937876Y-72592465D01*
X164046414Y-72559540D01*
X164146443Y-72506073D01*
X164234119Y-72434119D01*
X164306073Y-72346443D01*
X164359540Y-72246414D01*
X164392465Y-72137876D01*
X164403582Y-72025000D01*
X164403582Y-71275000D01*
X164392465Y-71162124D01*
X164359540Y-71053586D01*
X164306073Y-70953557D01*
X164234119Y-70865881D01*
X164207035Y-70843654D01*
X164986258Y-70077000D01*
X166737384Y-70076999D01*
X166781555Y-70078932D01*
X166822217Y-70072677D01*
X166863112Y-70068649D01*
X166878247Y-70064058D01*
X166893893Y-70061651D01*
X166932542Y-70047588D01*
X166971876Y-70035656D01*
X166985829Y-70028198D01*
X167000700Y-70022787D01*
X167035850Y-70001461D01*
X167072115Y-69982078D01*
X167106278Y-69954041D01*
X167742333Y-69477000D01*
X168123000Y-69477000D01*
X168123000Y-77523000D01*
X163777000Y-77523000D01*
X163777000Y-75403582D01*
X163825000Y-75403582D01*
X163937876Y-75392465D01*
X164046414Y-75359540D01*
X164146443Y-75306073D01*
X164234119Y-75234119D01*
X164306073Y-75146443D01*
X164359540Y-75046414D01*
X164392465Y-74937876D01*
X164403582Y-74825000D01*
X164403582Y-74075000D01*
X164392465Y-73962124D01*
X164359540Y-73853586D01*
X164306073Y-73753557D01*
X164234119Y-73665881D01*
X164146443Y-73593927D01*
X164046414Y-73540460D01*
X163937876Y-73507535D01*
X163825000Y-73496418D01*
X162575000Y-73496418D01*
X162462124Y-73507535D01*
X162353586Y-73540460D01*
X162253557Y-73593927D01*
X162165881Y-73665881D01*
X162093927Y-73753557D01*
X162040460Y-73853586D01*
X162007535Y-73962124D01*
X161996418Y-74075000D01*
X161996418Y-74825000D01*
X162007535Y-74937876D01*
X162040460Y-75046414D01*
X162093927Y-75146443D01*
X162165881Y-75234119D01*
X162253557Y-75306073D01*
X162353586Y-75359540D01*
X162462124Y-75392465D01*
X162575000Y-75403582D01*
X162623000Y-75403582D01*
X162623000Y-77523000D01*
X158377000Y-77523000D01*
X158377000Y-69477000D01*
X163950661Y-69477000D01*
G36*
X172581471Y-63626999D02*
G01*
X172600000Y-63628824D01*
X172673905Y-63621545D01*
X172744970Y-63599988D01*
X172787977Y-63577000D01*
X179677792Y-63577000D01*
X179681349Y-63613112D01*
X179714343Y-63721877D01*
X179728184Y-63747772D01*
X179767921Y-63822115D01*
X179840026Y-63909974D01*
X179862038Y-63928039D01*
X180673000Y-64739001D01*
X180673000Y-68461500D01*
X180057668Y-68923000D01*
X178280683Y-68923000D01*
X178254713Y-68920229D01*
X178224021Y-68923000D01*
X178221664Y-68923000D01*
X178195751Y-68925552D01*
X178141514Y-68930449D01*
X178139242Y-68931118D01*
X178136888Y-68931350D01*
X178084729Y-68947172D01*
X178032485Y-68962558D01*
X178030392Y-68963655D01*
X178028124Y-68964343D01*
X177980008Y-68990061D01*
X177931815Y-69015319D01*
X177929976Y-69016803D01*
X177927885Y-69017921D01*
X177921696Y-69023000D01*
X171877000Y-69023000D01*
X171877000Y-63627000D01*
X172581471Y-63626999D01*
G37*
X172581471Y-63626999D02*
X172600000Y-63628824D01*
X172673905Y-63621545D01*
X172744970Y-63599988D01*
X172787977Y-63577000D01*
X179677792Y-63577000D01*
X179681349Y-63613112D01*
X179714343Y-63721877D01*
X179728184Y-63747772D01*
X179767921Y-63822115D01*
X179840026Y-63909974D01*
X179862038Y-63928039D01*
X180673000Y-64739001D01*
X180673000Y-68461500D01*
X180057668Y-68923000D01*
X178280683Y-68923000D01*
X178254713Y-68920229D01*
X178224021Y-68923000D01*
X178221664Y-68923000D01*
X178195751Y-68925552D01*
X178141514Y-68930449D01*
X178139242Y-68931118D01*
X178136888Y-68931350D01*
X178084729Y-68947172D01*
X178032485Y-68962558D01*
X178030392Y-68963655D01*
X178028124Y-68964343D01*
X177980008Y-68990061D01*
X177931815Y-69015319D01*
X177929976Y-69016803D01*
X177927885Y-69017921D01*
X177921696Y-69023000D01*
X171877000Y-69023000D01*
X171877000Y-63627000D01*
X172581471Y-63626999D01*
G36*
X181623000Y-77965429D02*
G01*
X181623000Y-82373000D01*
X180918519Y-82373000D01*
X180900000Y-82371176D01*
X180826095Y-82378455D01*
X180755030Y-82400012D01*
X180689537Y-82435019D01*
X180632131Y-82482131D01*
X180585019Y-82539537D01*
X180550012Y-82605030D01*
X180528455Y-82676095D01*
X180523000Y-82731481D01*
X180521176Y-82750000D01*
X180523000Y-82768519D01*
X180523000Y-87598952D01*
X178638683Y-89573000D01*
X174861317Y-89573000D01*
X172977000Y-87598952D01*
X172977000Y-82768519D01*
X172978824Y-82750000D01*
X172977000Y-82731481D01*
X172971545Y-82676095D01*
X172949988Y-82605030D01*
X172914981Y-82539537D01*
X172867869Y-82482131D01*
X172810463Y-82435019D01*
X172744970Y-82400012D01*
X172673905Y-82378455D01*
X172600000Y-82371176D01*
X172581481Y-82373000D01*
X171877000Y-82373000D01*
X171877000Y-77965429D01*
X181623000Y-77965429D01*
G37*
X181623000Y-77965429D02*
X181623000Y-82373000D01*
X180918519Y-82373000D01*
X180900000Y-82371176D01*
X180826095Y-82378455D01*
X180755030Y-82400012D01*
X180689537Y-82435019D01*
X180632131Y-82482131D01*
X180585019Y-82539537D01*
X180550012Y-82605030D01*
X180528455Y-82676095D01*
X180523000Y-82731481D01*
X180521176Y-82750000D01*
X180523000Y-82768519D01*
X180523000Y-87598952D01*
X178638683Y-89573000D01*
X174861317Y-89573000D01*
X172977000Y-87598952D01*
X172977000Y-82768519D01*
X172978824Y-82750000D01*
X172977000Y-82731481D01*
X172971545Y-82676095D01*
X172949988Y-82605030D01*
X172914981Y-82539537D01*
X172867869Y-82482131D01*
X172810463Y-82435019D01*
X172744970Y-82400012D01*
X172673905Y-82378455D01*
X172600000Y-82371176D01*
X172581481Y-82373000D01*
X171877000Y-82373000D01*
X171877000Y-77965429D01*
X181623000Y-77965429D01*
G36*
X177450661Y-69477000D02*
G01*
X176313860Y-70595466D01*
X176290026Y-70615026D01*
X176255361Y-70657265D01*
X176222693Y-70696418D01*
X176075000Y-70696418D01*
X175962124Y-70707535D01*
X175853586Y-70740460D01*
X175753557Y-70793927D01*
X175665881Y-70865881D01*
X175593927Y-70953557D01*
X175540460Y-71053586D01*
X175507535Y-71162124D01*
X175496418Y-71275000D01*
X175496418Y-72025000D01*
X175507535Y-72137876D01*
X175540460Y-72246414D01*
X175593927Y-72346443D01*
X175665881Y-72434119D01*
X175753557Y-72506073D01*
X175853586Y-72559540D01*
X175962124Y-72592465D01*
X176075000Y-72603582D01*
X177325000Y-72603582D01*
X177437876Y-72592465D01*
X177546414Y-72559540D01*
X177646443Y-72506073D01*
X177734119Y-72434119D01*
X177806073Y-72346443D01*
X177859540Y-72246414D01*
X177892465Y-72137876D01*
X177903582Y-72025000D01*
X177903582Y-71275000D01*
X177892465Y-71162124D01*
X177859540Y-71053586D01*
X177806073Y-70953557D01*
X177734119Y-70865881D01*
X177707035Y-70843654D01*
X178486258Y-70077000D01*
X180237384Y-70076999D01*
X180281555Y-70078932D01*
X180322217Y-70072677D01*
X180363112Y-70068649D01*
X180378247Y-70064058D01*
X180393893Y-70061651D01*
X180432542Y-70047588D01*
X180471876Y-70035656D01*
X180485829Y-70028198D01*
X180500700Y-70022787D01*
X180535850Y-70001461D01*
X180572115Y-69982078D01*
X180606278Y-69954041D01*
X181242333Y-69477000D01*
X181623000Y-69477000D01*
X181623000Y-77523000D01*
X177277000Y-77523000D01*
X177277000Y-75403582D01*
X177325000Y-75403582D01*
X177437876Y-75392465D01*
X177546414Y-75359540D01*
X177646443Y-75306073D01*
X177734119Y-75234119D01*
X177806073Y-75146443D01*
X177859540Y-75046414D01*
X177892465Y-74937876D01*
X177903582Y-74825000D01*
X177903582Y-74075000D01*
X177892465Y-73962124D01*
X177859540Y-73853586D01*
X177806073Y-73753557D01*
X177734119Y-73665881D01*
X177646443Y-73593927D01*
X177546414Y-73540460D01*
X177437876Y-73507535D01*
X177325000Y-73496418D01*
X176075000Y-73496418D01*
X175962124Y-73507535D01*
X175853586Y-73540460D01*
X175753557Y-73593927D01*
X175665881Y-73665881D01*
X175593927Y-73753557D01*
X175540460Y-73853586D01*
X175507535Y-73962124D01*
X175496418Y-74075000D01*
X175496418Y-74825000D01*
X175507535Y-74937876D01*
X175540460Y-75046414D01*
X175593927Y-75146443D01*
X175665881Y-75234119D01*
X175753557Y-75306073D01*
X175853586Y-75359540D01*
X175962124Y-75392465D01*
X176075000Y-75403582D01*
X176123000Y-75403582D01*
X176123000Y-77523000D01*
X171877000Y-77523000D01*
X171877000Y-69477000D01*
X177450661Y-69477000D01*
G37*
X177450661Y-69477000D02*
X176313860Y-70595466D01*
X176290026Y-70615026D01*
X176255361Y-70657265D01*
X176222693Y-70696418D01*
X176075000Y-70696418D01*
X175962124Y-70707535D01*
X175853586Y-70740460D01*
X175753557Y-70793927D01*
X175665881Y-70865881D01*
X175593927Y-70953557D01*
X175540460Y-71053586D01*
X175507535Y-71162124D01*
X175496418Y-71275000D01*
X175496418Y-72025000D01*
X175507535Y-72137876D01*
X175540460Y-72246414D01*
X175593927Y-72346443D01*
X175665881Y-72434119D01*
X175753557Y-72506073D01*
X175853586Y-72559540D01*
X175962124Y-72592465D01*
X176075000Y-72603582D01*
X177325000Y-72603582D01*
X177437876Y-72592465D01*
X177546414Y-72559540D01*
X177646443Y-72506073D01*
X177734119Y-72434119D01*
X177806073Y-72346443D01*
X177859540Y-72246414D01*
X177892465Y-72137876D01*
X177903582Y-72025000D01*
X177903582Y-71275000D01*
X177892465Y-71162124D01*
X177859540Y-71053586D01*
X177806073Y-70953557D01*
X177734119Y-70865881D01*
X177707035Y-70843654D01*
X178486258Y-70077000D01*
X180237384Y-70076999D01*
X180281555Y-70078932D01*
X180322217Y-70072677D01*
X180363112Y-70068649D01*
X180378247Y-70064058D01*
X180393893Y-70061651D01*
X180432542Y-70047588D01*
X180471876Y-70035656D01*
X180485829Y-70028198D01*
X180500700Y-70022787D01*
X180535850Y-70001461D01*
X180572115Y-69982078D01*
X180606278Y-69954041D01*
X181242333Y-69477000D01*
X181623000Y-69477000D01*
X181623000Y-77523000D01*
X177277000Y-77523000D01*
X177277000Y-75403582D01*
X177325000Y-75403582D01*
X177437876Y-75392465D01*
X177546414Y-75359540D01*
X177646443Y-75306073D01*
X177734119Y-75234119D01*
X177806073Y-75146443D01*
X177859540Y-75046414D01*
X177892465Y-74937876D01*
X177903582Y-74825000D01*
X177903582Y-74075000D01*
X177892465Y-73962124D01*
X177859540Y-73853586D01*
X177806073Y-73753557D01*
X177734119Y-73665881D01*
X177646443Y-73593927D01*
X177546414Y-73540460D01*
X177437876Y-73507535D01*
X177325000Y-73496418D01*
X176075000Y-73496418D01*
X175962124Y-73507535D01*
X175853586Y-73540460D01*
X175753557Y-73593927D01*
X175665881Y-73665881D01*
X175593927Y-73753557D01*
X175540460Y-73853586D01*
X175507535Y-73962124D01*
X175496418Y-74075000D01*
X175496418Y-74825000D01*
X175507535Y-74937876D01*
X175540460Y-75046414D01*
X175593927Y-75146443D01*
X175665881Y-75234119D01*
X175753557Y-75306073D01*
X175853586Y-75359540D01*
X175962124Y-75392465D01*
X176075000Y-75403582D01*
X176123000Y-75403582D01*
X176123000Y-77523000D01*
X171877000Y-77523000D01*
X171877000Y-69477000D01*
X177450661Y-69477000D01*
G36*
X174861318Y-56427000D02*
G01*
X178638681Y-56426999D01*
X180523000Y-58401048D01*
X180523000Y-63123000D01*
X172977000Y-63123000D01*
X172977000Y-58401048D01*
X174861318Y-56427000D01*
G37*
X174861318Y-56427000D02*
X178638681Y-56426999D01*
X180523000Y-58401048D01*
X180523000Y-63123000D01*
X172977000Y-63123000D01*
X172977000Y-58401048D01*
X174861318Y-56427000D01*
G36*
X186081471Y-63626999D02*
G01*
X186100000Y-63628824D01*
X186173905Y-63621545D01*
X186244970Y-63599988D01*
X186287977Y-63577000D01*
X193177792Y-63577000D01*
X193181349Y-63613112D01*
X193214343Y-63721877D01*
X193228184Y-63747772D01*
X193267921Y-63822115D01*
X193340026Y-63909974D01*
X193362038Y-63928039D01*
X194173000Y-64739001D01*
X194173000Y-68461500D01*
X193557668Y-68923000D01*
X191780683Y-68923000D01*
X191754713Y-68920229D01*
X191724021Y-68923000D01*
X191721664Y-68923000D01*
X191695751Y-68925552D01*
X191641514Y-68930449D01*
X191639242Y-68931118D01*
X191636888Y-68931350D01*
X191584729Y-68947172D01*
X191532485Y-68962558D01*
X191530392Y-68963655D01*
X191528124Y-68964343D01*
X191480008Y-68990061D01*
X191431815Y-69015319D01*
X191429976Y-69016803D01*
X191427885Y-69017921D01*
X191421696Y-69023000D01*
X185377000Y-69023000D01*
X185377000Y-63627000D01*
X186081471Y-63626999D01*
G37*
X186081471Y-63626999D02*
X186100000Y-63628824D01*
X186173905Y-63621545D01*
X186244970Y-63599988D01*
X186287977Y-63577000D01*
X193177792Y-63577000D01*
X193181349Y-63613112D01*
X193214343Y-63721877D01*
X193228184Y-63747772D01*
X193267921Y-63822115D01*
X193340026Y-63909974D01*
X193362038Y-63928039D01*
X194173000Y-64739001D01*
X194173000Y-68461500D01*
X193557668Y-68923000D01*
X191780683Y-68923000D01*
X191754713Y-68920229D01*
X191724021Y-68923000D01*
X191721664Y-68923000D01*
X191695751Y-68925552D01*
X191641514Y-68930449D01*
X191639242Y-68931118D01*
X191636888Y-68931350D01*
X191584729Y-68947172D01*
X191532485Y-68962558D01*
X191530392Y-68963655D01*
X191528124Y-68964343D01*
X191480008Y-68990061D01*
X191431815Y-69015319D01*
X191429976Y-69016803D01*
X191427885Y-69017921D01*
X191421696Y-69023000D01*
X185377000Y-69023000D01*
X185377000Y-63627000D01*
X186081471Y-63626999D01*
G36*
X195123000Y-77965429D02*
G01*
X195123000Y-82373000D01*
X194418519Y-82373000D01*
X194400000Y-82371176D01*
X194326095Y-82378455D01*
X194255030Y-82400012D01*
X194189537Y-82435019D01*
X194132131Y-82482131D01*
X194085019Y-82539537D01*
X194050012Y-82605030D01*
X194028455Y-82676095D01*
X194023000Y-82731481D01*
X194021176Y-82750000D01*
X194023000Y-82768519D01*
X194023000Y-87598952D01*
X192138683Y-89573000D01*
X188361317Y-89573000D01*
X186477000Y-87598952D01*
X186477000Y-82768519D01*
X186478824Y-82750000D01*
X186477000Y-82731481D01*
X186471545Y-82676095D01*
X186449988Y-82605030D01*
X186414981Y-82539537D01*
X186367869Y-82482131D01*
X186310463Y-82435019D01*
X186244970Y-82400012D01*
X186173905Y-82378455D01*
X186100000Y-82371176D01*
X186081481Y-82373000D01*
X185377000Y-82373000D01*
X185377000Y-77965429D01*
X195123000Y-77965429D01*
G37*
X195123000Y-77965429D02*
X195123000Y-82373000D01*
X194418519Y-82373000D01*
X194400000Y-82371176D01*
X194326095Y-82378455D01*
X194255030Y-82400012D01*
X194189537Y-82435019D01*
X194132131Y-82482131D01*
X194085019Y-82539537D01*
X194050012Y-82605030D01*
X194028455Y-82676095D01*
X194023000Y-82731481D01*
X194021176Y-82750000D01*
X194023000Y-82768519D01*
X194023000Y-87598952D01*
X192138683Y-89573000D01*
X188361317Y-89573000D01*
X186477000Y-87598952D01*
X186477000Y-82768519D01*
X186478824Y-82750000D01*
X186477000Y-82731481D01*
X186471545Y-82676095D01*
X186449988Y-82605030D01*
X186414981Y-82539537D01*
X186367869Y-82482131D01*
X186310463Y-82435019D01*
X186244970Y-82400012D01*
X186173905Y-82378455D01*
X186100000Y-82371176D01*
X186081481Y-82373000D01*
X185377000Y-82373000D01*
X185377000Y-77965429D01*
X195123000Y-77965429D01*
G36*
X190950661Y-69477000D02*
G01*
X189813860Y-70595466D01*
X189790026Y-70615026D01*
X189755361Y-70657265D01*
X189722693Y-70696418D01*
X189575000Y-70696418D01*
X189462124Y-70707535D01*
X189353586Y-70740460D01*
X189253557Y-70793927D01*
X189165881Y-70865881D01*
X189093927Y-70953557D01*
X189040460Y-71053586D01*
X189007535Y-71162124D01*
X188996418Y-71275000D01*
X188996418Y-72025000D01*
X189007535Y-72137876D01*
X189040460Y-72246414D01*
X189093927Y-72346443D01*
X189165881Y-72434119D01*
X189253557Y-72506073D01*
X189353586Y-72559540D01*
X189462124Y-72592465D01*
X189575000Y-72603582D01*
X190825000Y-72603582D01*
X190937876Y-72592465D01*
X191046414Y-72559540D01*
X191146443Y-72506073D01*
X191234119Y-72434119D01*
X191306073Y-72346443D01*
X191359540Y-72246414D01*
X191392465Y-72137876D01*
X191403582Y-72025000D01*
X191403582Y-71275000D01*
X191392465Y-71162124D01*
X191359540Y-71053586D01*
X191306073Y-70953557D01*
X191234119Y-70865881D01*
X191207035Y-70843654D01*
X191986258Y-70077000D01*
X193737384Y-70076999D01*
X193781555Y-70078932D01*
X193822217Y-70072677D01*
X193863112Y-70068649D01*
X193878247Y-70064058D01*
X193893893Y-70061651D01*
X193932542Y-70047588D01*
X193971876Y-70035656D01*
X193985829Y-70028198D01*
X194000700Y-70022787D01*
X194035850Y-70001461D01*
X194072115Y-69982078D01*
X194106278Y-69954041D01*
X194742333Y-69477000D01*
X195123000Y-69477000D01*
X195123000Y-77523000D01*
X190777000Y-77523000D01*
X190777000Y-75403582D01*
X190825000Y-75403582D01*
X190937876Y-75392465D01*
X191046414Y-75359540D01*
X191146443Y-75306073D01*
X191234119Y-75234119D01*
X191306073Y-75146443D01*
X191359540Y-75046414D01*
X191392465Y-74937876D01*
X191403582Y-74825000D01*
X191403582Y-74075000D01*
X191392465Y-73962124D01*
X191359540Y-73853586D01*
X191306073Y-73753557D01*
X191234119Y-73665881D01*
X191146443Y-73593927D01*
X191046414Y-73540460D01*
X190937876Y-73507535D01*
X190825000Y-73496418D01*
X189575000Y-73496418D01*
X189462124Y-73507535D01*
X189353586Y-73540460D01*
X189253557Y-73593927D01*
X189165881Y-73665881D01*
X189093927Y-73753557D01*
X189040460Y-73853586D01*
X189007535Y-73962124D01*
X188996418Y-74075000D01*
X188996418Y-74825000D01*
X189007535Y-74937876D01*
X189040460Y-75046414D01*
X189093927Y-75146443D01*
X189165881Y-75234119D01*
X189253557Y-75306073D01*
X189353586Y-75359540D01*
X189462124Y-75392465D01*
X189575000Y-75403582D01*
X189623000Y-75403582D01*
X189623000Y-77523000D01*
X185377000Y-77523000D01*
X185377000Y-69477000D01*
X190950661Y-69477000D01*
G37*
X190950661Y-69477000D02*
X189813860Y-70595466D01*
X189790026Y-70615026D01*
X189755361Y-70657265D01*
X189722693Y-70696418D01*
X189575000Y-70696418D01*
X189462124Y-70707535D01*
X189353586Y-70740460D01*
X189253557Y-70793927D01*
X189165881Y-70865881D01*
X189093927Y-70953557D01*
X189040460Y-71053586D01*
X189007535Y-71162124D01*
X188996418Y-71275000D01*
X188996418Y-72025000D01*
X189007535Y-72137876D01*
X189040460Y-72246414D01*
X189093927Y-72346443D01*
X189165881Y-72434119D01*
X189253557Y-72506073D01*
X189353586Y-72559540D01*
X189462124Y-72592465D01*
X189575000Y-72603582D01*
X190825000Y-72603582D01*
X190937876Y-72592465D01*
X191046414Y-72559540D01*
X191146443Y-72506073D01*
X191234119Y-72434119D01*
X191306073Y-72346443D01*
X191359540Y-72246414D01*
X191392465Y-72137876D01*
X191403582Y-72025000D01*
X191403582Y-71275000D01*
X191392465Y-71162124D01*
X191359540Y-71053586D01*
X191306073Y-70953557D01*
X191234119Y-70865881D01*
X191207035Y-70843654D01*
X191986258Y-70077000D01*
X193737384Y-70076999D01*
X193781555Y-70078932D01*
X193822217Y-70072677D01*
X193863112Y-70068649D01*
X193878247Y-70064058D01*
X193893893Y-70061651D01*
X193932542Y-70047588D01*
X193971876Y-70035656D01*
X193985829Y-70028198D01*
X194000700Y-70022787D01*
X194035850Y-70001461D01*
X194072115Y-69982078D01*
X194106278Y-69954041D01*
X194742333Y-69477000D01*
X195123000Y-69477000D01*
X195123000Y-77523000D01*
X190777000Y-77523000D01*
X190777000Y-75403582D01*
X190825000Y-75403582D01*
X190937876Y-75392465D01*
X191046414Y-75359540D01*
X191146443Y-75306073D01*
X191234119Y-75234119D01*
X191306073Y-75146443D01*
X191359540Y-75046414D01*
X191392465Y-74937876D01*
X191403582Y-74825000D01*
X191403582Y-74075000D01*
X191392465Y-73962124D01*
X191359540Y-73853586D01*
X191306073Y-73753557D01*
X191234119Y-73665881D01*
X191146443Y-73593927D01*
X191046414Y-73540460D01*
X190937876Y-73507535D01*
X190825000Y-73496418D01*
X189575000Y-73496418D01*
X189462124Y-73507535D01*
X189353586Y-73540460D01*
X189253557Y-73593927D01*
X189165881Y-73665881D01*
X189093927Y-73753557D01*
X189040460Y-73853586D01*
X189007535Y-73962124D01*
X188996418Y-74075000D01*
X188996418Y-74825000D01*
X189007535Y-74937876D01*
X189040460Y-75046414D01*
X189093927Y-75146443D01*
X189165881Y-75234119D01*
X189253557Y-75306073D01*
X189353586Y-75359540D01*
X189462124Y-75392465D01*
X189575000Y-75403582D01*
X189623000Y-75403582D01*
X189623000Y-77523000D01*
X185377000Y-77523000D01*
X185377000Y-69477000D01*
X190950661Y-69477000D01*
G36*
X188361318Y-56427000D02*
G01*
X192138681Y-56426999D01*
X194023000Y-58401048D01*
X194023000Y-63123000D01*
X186477000Y-63123000D01*
X186477000Y-58401048D01*
X188361318Y-56427000D01*
G37*
X188361318Y-56427000D02*
X192138681Y-56426999D01*
X194023000Y-58401048D01*
X194023000Y-63123000D01*
X186477000Y-63123000D01*
X186477000Y-58401048D01*
X188361318Y-56427000D01*
G36*
X208623000Y-77965429D02*
G01*
X208623000Y-82373000D01*
X207918519Y-82373000D01*
X207900000Y-82371176D01*
X207826095Y-82378455D01*
X207755030Y-82400012D01*
X207689537Y-82435019D01*
X207632131Y-82482131D01*
X207585019Y-82539537D01*
X207550012Y-82605030D01*
X207528455Y-82676095D01*
X207523000Y-82731481D01*
X207521176Y-82750000D01*
X207523000Y-82768519D01*
X207523000Y-87598952D01*
X205638683Y-89573000D01*
X201861317Y-89573000D01*
X199977000Y-87598952D01*
X199977000Y-82768519D01*
X199978824Y-82750000D01*
X199977000Y-82731481D01*
X199971545Y-82676095D01*
X199949988Y-82605030D01*
X199914981Y-82539537D01*
X199867869Y-82482131D01*
X199810463Y-82435019D01*
X199744970Y-82400012D01*
X199673905Y-82378455D01*
X199600000Y-82371176D01*
X199581481Y-82373000D01*
X198877000Y-82373000D01*
X198877000Y-77965429D01*
X208623000Y-77965429D01*
G37*
X208623000Y-77965429D02*
X208623000Y-82373000D01*
X207918519Y-82373000D01*
X207900000Y-82371176D01*
X207826095Y-82378455D01*
X207755030Y-82400012D01*
X207689537Y-82435019D01*
X207632131Y-82482131D01*
X207585019Y-82539537D01*
X207550012Y-82605030D01*
X207528455Y-82676095D01*
X207523000Y-82731481D01*
X207521176Y-82750000D01*
X207523000Y-82768519D01*
X207523000Y-87598952D01*
X205638683Y-89573000D01*
X201861317Y-89573000D01*
X199977000Y-87598952D01*
X199977000Y-82768519D01*
X199978824Y-82750000D01*
X199977000Y-82731481D01*
X199971545Y-82676095D01*
X199949988Y-82605030D01*
X199914981Y-82539537D01*
X199867869Y-82482131D01*
X199810463Y-82435019D01*
X199744970Y-82400012D01*
X199673905Y-82378455D01*
X199600000Y-82371176D01*
X199581481Y-82373000D01*
X198877000Y-82373000D01*
X198877000Y-77965429D01*
X208623000Y-77965429D01*
G36*
X204450661Y-69477000D02*
G01*
X203313860Y-70595466D01*
X203290026Y-70615026D01*
X203255361Y-70657265D01*
X203222693Y-70696418D01*
X203075000Y-70696418D01*
X202962124Y-70707535D01*
X202853586Y-70740460D01*
X202753557Y-70793927D01*
X202665881Y-70865881D01*
X202593927Y-70953557D01*
X202540460Y-71053586D01*
X202507535Y-71162124D01*
X202496418Y-71275000D01*
X202496418Y-72025000D01*
X202507535Y-72137876D01*
X202540460Y-72246414D01*
X202593927Y-72346443D01*
X202665881Y-72434119D01*
X202753557Y-72506073D01*
X202853586Y-72559540D01*
X202962124Y-72592465D01*
X203075000Y-72603582D01*
X204325000Y-72603582D01*
X204437876Y-72592465D01*
X204546414Y-72559540D01*
X204646443Y-72506073D01*
X204734119Y-72434119D01*
X204806073Y-72346443D01*
X204859540Y-72246414D01*
X204892465Y-72137876D01*
X204903582Y-72025000D01*
X204903582Y-71275000D01*
X204892465Y-71162124D01*
X204859540Y-71053586D01*
X204806073Y-70953557D01*
X204734119Y-70865881D01*
X204707035Y-70843654D01*
X205486258Y-70077000D01*
X207237384Y-70076999D01*
X207281555Y-70078932D01*
X207322217Y-70072677D01*
X207363112Y-70068649D01*
X207378247Y-70064058D01*
X207393893Y-70061651D01*
X207432542Y-70047588D01*
X207471876Y-70035656D01*
X207485829Y-70028198D01*
X207500700Y-70022787D01*
X207535850Y-70001461D01*
X207572115Y-69982078D01*
X207606278Y-69954041D01*
X208242333Y-69477000D01*
X208623000Y-69477000D01*
X208623000Y-77523000D01*
X204277000Y-77523000D01*
X204277000Y-75403582D01*
X204325000Y-75403582D01*
X204437876Y-75392465D01*
X204546414Y-75359540D01*
X204646443Y-75306073D01*
X204734119Y-75234119D01*
X204806073Y-75146443D01*
X204859540Y-75046414D01*
X204892465Y-74937876D01*
X204903582Y-74825000D01*
X204903582Y-74075000D01*
X204892465Y-73962124D01*
X204859540Y-73853586D01*
X204806073Y-73753557D01*
X204734119Y-73665881D01*
X204646443Y-73593927D01*
X204546414Y-73540460D01*
X204437876Y-73507535D01*
X204325000Y-73496418D01*
X203075000Y-73496418D01*
X202962124Y-73507535D01*
X202853586Y-73540460D01*
X202753557Y-73593927D01*
X202665881Y-73665881D01*
X202593927Y-73753557D01*
X202540460Y-73853586D01*
X202507535Y-73962124D01*
X202496418Y-74075000D01*
X202496418Y-74825000D01*
X202507535Y-74937876D01*
X202540460Y-75046414D01*
X202593927Y-75146443D01*
X202665881Y-75234119D01*
X202753557Y-75306073D01*
X202853586Y-75359540D01*
X202962124Y-75392465D01*
X203075000Y-75403582D01*
X203123000Y-75403582D01*
X203123000Y-77523000D01*
X198877000Y-77523000D01*
X198877000Y-69477000D01*
X204450661Y-69477000D01*
G37*
X204450661Y-69477000D02*
X203313860Y-70595466D01*
X203290026Y-70615026D01*
X203255361Y-70657265D01*
X203222693Y-70696418D01*
X203075000Y-70696418D01*
X202962124Y-70707535D01*
X202853586Y-70740460D01*
X202753557Y-70793927D01*
X202665881Y-70865881D01*
X202593927Y-70953557D01*
X202540460Y-71053586D01*
X202507535Y-71162124D01*
X202496418Y-71275000D01*
X202496418Y-72025000D01*
X202507535Y-72137876D01*
X202540460Y-72246414D01*
X202593927Y-72346443D01*
X202665881Y-72434119D01*
X202753557Y-72506073D01*
X202853586Y-72559540D01*
X202962124Y-72592465D01*
X203075000Y-72603582D01*
X204325000Y-72603582D01*
X204437876Y-72592465D01*
X204546414Y-72559540D01*
X204646443Y-72506073D01*
X204734119Y-72434119D01*
X204806073Y-72346443D01*
X204859540Y-72246414D01*
X204892465Y-72137876D01*
X204903582Y-72025000D01*
X204903582Y-71275000D01*
X204892465Y-71162124D01*
X204859540Y-71053586D01*
X204806073Y-70953557D01*
X204734119Y-70865881D01*
X204707035Y-70843654D01*
X205486258Y-70077000D01*
X207237384Y-70076999D01*
X207281555Y-70078932D01*
X207322217Y-70072677D01*
X207363112Y-70068649D01*
X207378247Y-70064058D01*
X207393893Y-70061651D01*
X207432542Y-70047588D01*
X207471876Y-70035656D01*
X207485829Y-70028198D01*
X207500700Y-70022787D01*
X207535850Y-70001461D01*
X207572115Y-69982078D01*
X207606278Y-69954041D01*
X208242333Y-69477000D01*
X208623000Y-69477000D01*
X208623000Y-77523000D01*
X204277000Y-77523000D01*
X204277000Y-75403582D01*
X204325000Y-75403582D01*
X204437876Y-75392465D01*
X204546414Y-75359540D01*
X204646443Y-75306073D01*
X204734119Y-75234119D01*
X204806073Y-75146443D01*
X204859540Y-75046414D01*
X204892465Y-74937876D01*
X204903582Y-74825000D01*
X204903582Y-74075000D01*
X204892465Y-73962124D01*
X204859540Y-73853586D01*
X204806073Y-73753557D01*
X204734119Y-73665881D01*
X204646443Y-73593927D01*
X204546414Y-73540460D01*
X204437876Y-73507535D01*
X204325000Y-73496418D01*
X203075000Y-73496418D01*
X202962124Y-73507535D01*
X202853586Y-73540460D01*
X202753557Y-73593927D01*
X202665881Y-73665881D01*
X202593927Y-73753557D01*
X202540460Y-73853586D01*
X202507535Y-73962124D01*
X202496418Y-74075000D01*
X202496418Y-74825000D01*
X202507535Y-74937876D01*
X202540460Y-75046414D01*
X202593927Y-75146443D01*
X202665881Y-75234119D01*
X202753557Y-75306073D01*
X202853586Y-75359540D01*
X202962124Y-75392465D01*
X203075000Y-75403582D01*
X203123000Y-75403582D01*
X203123000Y-77523000D01*
X198877000Y-77523000D01*
X198877000Y-69477000D01*
X204450661Y-69477000D01*
G36*
X201861318Y-56427000D02*
G01*
X205638681Y-56426999D01*
X207523000Y-58401048D01*
X207523000Y-63123000D01*
X199977000Y-63123000D01*
X199977000Y-58401048D01*
X201861318Y-56427000D01*
G37*
X201861318Y-56427000D02*
X205638681Y-56426999D01*
X207523000Y-58401048D01*
X207523000Y-63123000D01*
X199977000Y-63123000D01*
X199977000Y-58401048D01*
X201861318Y-56427000D01*
G36*
X199581471Y-63626999D02*
G01*
X199600000Y-63628824D01*
X199673905Y-63621545D01*
X199744970Y-63599988D01*
X199787977Y-63577000D01*
X206677792Y-63577000D01*
X206681349Y-63613112D01*
X206714343Y-63721877D01*
X206728184Y-63747772D01*
X206767921Y-63822115D01*
X206840026Y-63909974D01*
X206862038Y-63928039D01*
X207673000Y-64739001D01*
X207673000Y-68461500D01*
X207057668Y-68923000D01*
X205280683Y-68923000D01*
X205254713Y-68920229D01*
X205224021Y-68923000D01*
X205221664Y-68923000D01*
X205195751Y-68925552D01*
X205141514Y-68930449D01*
X205139242Y-68931118D01*
X205136888Y-68931350D01*
X205084729Y-68947172D01*
X205032485Y-68962558D01*
X205030392Y-68963655D01*
X205028124Y-68964343D01*
X204980008Y-68990061D01*
X204931815Y-69015319D01*
X204929976Y-69016803D01*
X204927885Y-69017921D01*
X204921696Y-69023000D01*
X198877000Y-69023000D01*
X198877000Y-63627000D01*
X199581471Y-63626999D01*
G37*
X199581471Y-63626999D02*
X199600000Y-63628824D01*
X199673905Y-63621545D01*
X199744970Y-63599988D01*
X199787977Y-63577000D01*
X206677792Y-63577000D01*
X206681349Y-63613112D01*
X206714343Y-63721877D01*
X206728184Y-63747772D01*
X206767921Y-63822115D01*
X206840026Y-63909974D01*
X206862038Y-63928039D01*
X207673000Y-64739001D01*
X207673000Y-68461500D01*
X207057668Y-68923000D01*
X205280683Y-68923000D01*
X205254713Y-68920229D01*
X205224021Y-68923000D01*
X205221664Y-68923000D01*
X205195751Y-68925552D01*
X205141514Y-68930449D01*
X205139242Y-68931118D01*
X205136888Y-68931350D01*
X205084729Y-68947172D01*
X205032485Y-68962558D01*
X205030392Y-68963655D01*
X205028124Y-68964343D01*
X204980008Y-68990061D01*
X204931815Y-69015319D01*
X204929976Y-69016803D01*
X204927885Y-69017921D01*
X204921696Y-69023000D01*
X198877000Y-69023000D01*
X198877000Y-63627000D01*
X199581471Y-63626999D01*
G36*
X159081471Y-100526999D02*
G01*
X159100000Y-100528824D01*
X159173905Y-100521545D01*
X159244970Y-100499988D01*
X159287977Y-100477000D01*
X166177792Y-100477000D01*
X166181349Y-100513112D01*
X166214343Y-100621877D01*
X166228184Y-100647772D01*
X166267921Y-100722115D01*
X166340026Y-100809974D01*
X166362038Y-100828039D01*
X167173000Y-101639001D01*
X167173000Y-105361500D01*
X166557668Y-105823000D01*
X164780683Y-105823000D01*
X164754713Y-105820229D01*
X164724021Y-105823000D01*
X164721664Y-105823000D01*
X164695751Y-105825552D01*
X164641514Y-105830449D01*
X164639242Y-105831118D01*
X164636888Y-105831350D01*
X164584729Y-105847172D01*
X164532485Y-105862558D01*
X164530392Y-105863655D01*
X164528124Y-105864343D01*
X164480008Y-105890061D01*
X164431815Y-105915319D01*
X164429976Y-105916803D01*
X164427885Y-105917921D01*
X164421696Y-105923000D01*
X158377000Y-105923000D01*
X158377000Y-100527000D01*
X159081471Y-100526999D01*
G37*
X159081471Y-100526999D02*
X159100000Y-100528824D01*
X159173905Y-100521545D01*
X159244970Y-100499988D01*
X159287977Y-100477000D01*
X166177792Y-100477000D01*
X166181349Y-100513112D01*
X166214343Y-100621877D01*
X166228184Y-100647772D01*
X166267921Y-100722115D01*
X166340026Y-100809974D01*
X166362038Y-100828039D01*
X167173000Y-101639001D01*
X167173000Y-105361500D01*
X166557668Y-105823000D01*
X164780683Y-105823000D01*
X164754713Y-105820229D01*
X164724021Y-105823000D01*
X164721664Y-105823000D01*
X164695751Y-105825552D01*
X164641514Y-105830449D01*
X164639242Y-105831118D01*
X164636888Y-105831350D01*
X164584729Y-105847172D01*
X164532485Y-105862558D01*
X164530392Y-105863655D01*
X164528124Y-105864343D01*
X164480008Y-105890061D01*
X164431815Y-105915319D01*
X164429976Y-105916803D01*
X164427885Y-105917921D01*
X164421696Y-105923000D01*
X158377000Y-105923000D01*
X158377000Y-100527000D01*
X159081471Y-100526999D01*
G36*
X168123000Y-114865429D02*
G01*
X168123000Y-119273000D01*
X167418519Y-119273000D01*
X167400000Y-119271176D01*
X167326095Y-119278455D01*
X167255030Y-119300012D01*
X167189537Y-119335019D01*
X167132131Y-119382131D01*
X167085019Y-119439537D01*
X167050012Y-119505030D01*
X167028455Y-119576095D01*
X167023000Y-119631481D01*
X167021176Y-119650000D01*
X167023000Y-119668519D01*
X167023000Y-124498952D01*
X165138683Y-126473000D01*
X161361317Y-126473000D01*
X159477000Y-124498952D01*
X159477000Y-119668519D01*
X159478824Y-119650000D01*
X159477000Y-119631481D01*
X159471545Y-119576095D01*
X159449988Y-119505030D01*
X159414981Y-119439537D01*
X159367869Y-119382131D01*
X159310463Y-119335019D01*
X159244970Y-119300012D01*
X159173905Y-119278455D01*
X159100000Y-119271176D01*
X159081481Y-119273000D01*
X158377000Y-119273000D01*
X158377000Y-114865429D01*
X168123000Y-114865429D01*
G37*
X168123000Y-114865429D02*
X168123000Y-119273000D01*
X167418519Y-119273000D01*
X167400000Y-119271176D01*
X167326095Y-119278455D01*
X167255030Y-119300012D01*
X167189537Y-119335019D01*
X167132131Y-119382131D01*
X167085019Y-119439537D01*
X167050012Y-119505030D01*
X167028455Y-119576095D01*
X167023000Y-119631481D01*
X167021176Y-119650000D01*
X167023000Y-119668519D01*
X167023000Y-124498952D01*
X165138683Y-126473000D01*
X161361317Y-126473000D01*
X159477000Y-124498952D01*
X159477000Y-119668519D01*
X159478824Y-119650000D01*
X159477000Y-119631481D01*
X159471545Y-119576095D01*
X159449988Y-119505030D01*
X159414981Y-119439537D01*
X159367869Y-119382131D01*
X159310463Y-119335019D01*
X159244970Y-119300012D01*
X159173905Y-119278455D01*
X159100000Y-119271176D01*
X159081481Y-119273000D01*
X158377000Y-119273000D01*
X158377000Y-114865429D01*
X168123000Y-114865429D01*
G36*
X172581471Y-100526999D02*
G01*
X172600000Y-100528824D01*
X172673905Y-100521545D01*
X172744970Y-100499988D01*
X172787977Y-100477000D01*
X179677792Y-100477000D01*
X179681349Y-100513112D01*
X179714343Y-100621877D01*
X179728184Y-100647772D01*
X179767921Y-100722115D01*
X179840026Y-100809974D01*
X179862038Y-100828039D01*
X180673000Y-101639001D01*
X180673000Y-105361500D01*
X180057668Y-105823000D01*
X178280683Y-105823000D01*
X178254713Y-105820229D01*
X178224021Y-105823000D01*
X178221664Y-105823000D01*
X178195751Y-105825552D01*
X178141514Y-105830449D01*
X178139242Y-105831118D01*
X178136888Y-105831350D01*
X178084729Y-105847172D01*
X178032485Y-105862558D01*
X178030392Y-105863655D01*
X178028124Y-105864343D01*
X177980008Y-105890061D01*
X177931815Y-105915319D01*
X177929976Y-105916803D01*
X177927885Y-105917921D01*
X177921696Y-105923000D01*
X171877000Y-105923000D01*
X171877000Y-100527000D01*
X172581471Y-100526999D01*
G37*
X172581471Y-100526999D02*
X172600000Y-100528824D01*
X172673905Y-100521545D01*
X172744970Y-100499988D01*
X172787977Y-100477000D01*
X179677792Y-100477000D01*
X179681349Y-100513112D01*
X179714343Y-100621877D01*
X179728184Y-100647772D01*
X179767921Y-100722115D01*
X179840026Y-100809974D01*
X179862038Y-100828039D01*
X180673000Y-101639001D01*
X180673000Y-105361500D01*
X180057668Y-105823000D01*
X178280683Y-105823000D01*
X178254713Y-105820229D01*
X178224021Y-105823000D01*
X178221664Y-105823000D01*
X178195751Y-105825552D01*
X178141514Y-105830449D01*
X178139242Y-105831118D01*
X178136888Y-105831350D01*
X178084729Y-105847172D01*
X178032485Y-105862558D01*
X178030392Y-105863655D01*
X178028124Y-105864343D01*
X177980008Y-105890061D01*
X177931815Y-105915319D01*
X177929976Y-105916803D01*
X177927885Y-105917921D01*
X177921696Y-105923000D01*
X171877000Y-105923000D01*
X171877000Y-100527000D01*
X172581471Y-100526999D01*
G36*
X163950661Y-106377000D02*
G01*
X162813860Y-107495466D01*
X162790026Y-107515026D01*
X162755361Y-107557265D01*
X162722693Y-107596418D01*
X162575000Y-107596418D01*
X162462124Y-107607535D01*
X162353586Y-107640460D01*
X162253557Y-107693927D01*
X162165881Y-107765881D01*
X162093927Y-107853557D01*
X162040460Y-107953586D01*
X162007535Y-108062124D01*
X161996418Y-108175000D01*
X161996418Y-108925000D01*
X162007535Y-109037876D01*
X162040460Y-109146414D01*
X162093927Y-109246443D01*
X162165881Y-109334119D01*
X162253557Y-109406073D01*
X162353586Y-109459540D01*
X162462124Y-109492465D01*
X162575000Y-109503582D01*
X163825000Y-109503582D01*
X163937876Y-109492465D01*
X164046414Y-109459540D01*
X164146443Y-109406073D01*
X164234119Y-109334119D01*
X164306073Y-109246443D01*
X164359540Y-109146414D01*
X164392465Y-109037876D01*
X164403582Y-108925000D01*
X164403582Y-108175000D01*
X164392465Y-108062124D01*
X164359540Y-107953586D01*
X164306073Y-107853557D01*
X164234119Y-107765881D01*
X164207035Y-107743654D01*
X164986258Y-106977000D01*
X166737384Y-106976999D01*
X166781555Y-106978932D01*
X166822217Y-106972677D01*
X166863112Y-106968649D01*
X166878247Y-106964058D01*
X166893893Y-106961651D01*
X166932542Y-106947588D01*
X166971876Y-106935656D01*
X166985829Y-106928198D01*
X167000700Y-106922787D01*
X167035850Y-106901461D01*
X167072115Y-106882078D01*
X167106278Y-106854041D01*
X167742333Y-106377000D01*
X168123000Y-106377000D01*
X168123000Y-114423000D01*
X163777000Y-114423000D01*
X163777000Y-112303582D01*
X163825000Y-112303582D01*
X163937876Y-112292465D01*
X164046414Y-112259540D01*
X164146443Y-112206073D01*
X164234119Y-112134119D01*
X164306073Y-112046443D01*
X164359540Y-111946414D01*
X164392465Y-111837876D01*
X164403582Y-111725000D01*
X164403582Y-110975000D01*
X164392465Y-110862124D01*
X164359540Y-110753586D01*
X164306073Y-110653557D01*
X164234119Y-110565881D01*
X164146443Y-110493927D01*
X164046414Y-110440460D01*
X163937876Y-110407535D01*
X163825000Y-110396418D01*
X162575000Y-110396418D01*
X162462124Y-110407535D01*
X162353586Y-110440460D01*
X162253557Y-110493927D01*
X162165881Y-110565881D01*
X162093927Y-110653557D01*
X162040460Y-110753586D01*
X162007535Y-110862124D01*
X161996418Y-110975000D01*
X161996418Y-111725000D01*
X162007535Y-111837876D01*
X162040460Y-111946414D01*
X162093927Y-112046443D01*
X162165881Y-112134119D01*
X162253557Y-112206073D01*
X162353586Y-112259540D01*
X162462124Y-112292465D01*
X162575000Y-112303582D01*
X162623000Y-112303582D01*
X162623000Y-114423000D01*
X158377000Y-114423000D01*
X158377000Y-106377000D01*
X163950661Y-106377000D01*
G37*
X163950661Y-106377000D02*
X162813860Y-107495466D01*
X162790026Y-107515026D01*
X162755361Y-107557265D01*
X162722693Y-107596418D01*
X162575000Y-107596418D01*
X162462124Y-107607535D01*
X162353586Y-107640460D01*
X162253557Y-107693927D01*
X162165881Y-107765881D01*
X162093927Y-107853557D01*
X162040460Y-107953586D01*
X162007535Y-108062124D01*
X161996418Y-108175000D01*
X161996418Y-108925000D01*
X162007535Y-109037876D01*
X162040460Y-109146414D01*
X162093927Y-109246443D01*
X162165881Y-109334119D01*
X162253557Y-109406073D01*
X162353586Y-109459540D01*
X162462124Y-109492465D01*
X162575000Y-109503582D01*
X163825000Y-109503582D01*
X163937876Y-109492465D01*
X164046414Y-109459540D01*
X164146443Y-109406073D01*
X164234119Y-109334119D01*
X164306073Y-109246443D01*
X164359540Y-109146414D01*
X164392465Y-109037876D01*
X164403582Y-108925000D01*
X164403582Y-108175000D01*
X164392465Y-108062124D01*
X164359540Y-107953586D01*
X164306073Y-107853557D01*
X164234119Y-107765881D01*
X164207035Y-107743654D01*
X164986258Y-106977000D01*
X166737384Y-106976999D01*
X166781555Y-106978932D01*
X166822217Y-106972677D01*
X166863112Y-106968649D01*
X166878247Y-106964058D01*
X166893893Y-106961651D01*
X166932542Y-106947588D01*
X166971876Y-106935656D01*
X166985829Y-106928198D01*
X167000700Y-106922787D01*
X167035850Y-106901461D01*
X167072115Y-106882078D01*
X167106278Y-106854041D01*
X167742333Y-106377000D01*
X168123000Y-106377000D01*
X168123000Y-114423000D01*
X163777000Y-114423000D01*
X163777000Y-112303582D01*
X163825000Y-112303582D01*
X163937876Y-112292465D01*
X164046414Y-112259540D01*
X164146443Y-112206073D01*
X164234119Y-112134119D01*
X164306073Y-112046443D01*
X164359540Y-111946414D01*
X164392465Y-111837876D01*
X164403582Y-111725000D01*
X164403582Y-110975000D01*
X164392465Y-110862124D01*
X164359540Y-110753586D01*
X164306073Y-110653557D01*
X164234119Y-110565881D01*
X164146443Y-110493927D01*
X164046414Y-110440460D01*
X163937876Y-110407535D01*
X163825000Y-110396418D01*
X162575000Y-110396418D01*
X162462124Y-110407535D01*
X162353586Y-110440460D01*
X162253557Y-110493927D01*
X162165881Y-110565881D01*
X162093927Y-110653557D01*
X162040460Y-110753586D01*
X162007535Y-110862124D01*
X161996418Y-110975000D01*
X161996418Y-111725000D01*
X162007535Y-111837876D01*
X162040460Y-111946414D01*
X162093927Y-112046443D01*
X162165881Y-112134119D01*
X162253557Y-112206073D01*
X162353586Y-112259540D01*
X162462124Y-112292465D01*
X162575000Y-112303582D01*
X162623000Y-112303582D01*
X162623000Y-114423000D01*
X158377000Y-114423000D01*
X158377000Y-106377000D01*
X163950661Y-106377000D01*
G36*
X181623000Y-114865429D02*
G01*
X181623000Y-119273000D01*
X180918519Y-119273000D01*
X180900000Y-119271176D01*
X180826095Y-119278455D01*
X180755030Y-119300012D01*
X180689537Y-119335019D01*
X180632131Y-119382131D01*
X180585019Y-119439537D01*
X180550012Y-119505030D01*
X180528455Y-119576095D01*
X180523000Y-119631481D01*
X180521176Y-119650000D01*
X180523000Y-119668519D01*
X180523000Y-124498952D01*
X178638683Y-126473000D01*
X174861317Y-126473000D01*
X172977000Y-124498952D01*
X172977000Y-119668519D01*
X172978824Y-119650000D01*
X172977000Y-119631481D01*
X172971545Y-119576095D01*
X172949988Y-119505030D01*
X172914981Y-119439537D01*
X172867869Y-119382131D01*
X172810463Y-119335019D01*
X172744970Y-119300012D01*
X172673905Y-119278455D01*
X172600000Y-119271176D01*
X172581481Y-119273000D01*
X171877000Y-119273000D01*
X171877000Y-114865429D01*
X181623000Y-114865429D01*
G37*
X181623000Y-114865429D02*
X181623000Y-119273000D01*
X180918519Y-119273000D01*
X180900000Y-119271176D01*
X180826095Y-119278455D01*
X180755030Y-119300012D01*
X180689537Y-119335019D01*
X180632131Y-119382131D01*
X180585019Y-119439537D01*
X180550012Y-119505030D01*
X180528455Y-119576095D01*
X180523000Y-119631481D01*
X180521176Y-119650000D01*
X180523000Y-119668519D01*
X180523000Y-124498952D01*
X178638683Y-126473000D01*
X174861317Y-126473000D01*
X172977000Y-124498952D01*
X172977000Y-119668519D01*
X172978824Y-119650000D01*
X172977000Y-119631481D01*
X172971545Y-119576095D01*
X172949988Y-119505030D01*
X172914981Y-119439537D01*
X172867869Y-119382131D01*
X172810463Y-119335019D01*
X172744970Y-119300012D01*
X172673905Y-119278455D01*
X172600000Y-119271176D01*
X172581481Y-119273000D01*
X171877000Y-119273000D01*
X171877000Y-114865429D01*
X181623000Y-114865429D01*
G36*
X177450661Y-106377000D02*
G01*
X176313860Y-107495466D01*
X176290026Y-107515026D01*
X176255361Y-107557265D01*
X176222693Y-107596418D01*
X176075000Y-107596418D01*
X175962124Y-107607535D01*
X175853586Y-107640460D01*
X175753557Y-107693927D01*
X175665881Y-107765881D01*
X175593927Y-107853557D01*
X175540460Y-107953586D01*
X175507535Y-108062124D01*
X175496418Y-108175000D01*
X175496418Y-108925000D01*
X175507535Y-109037876D01*
X175540460Y-109146414D01*
X175593927Y-109246443D01*
X175665881Y-109334119D01*
X175753557Y-109406073D01*
X175853586Y-109459540D01*
X175962124Y-109492465D01*
X176075000Y-109503582D01*
X177325000Y-109503582D01*
X177437876Y-109492465D01*
X177546414Y-109459540D01*
X177646443Y-109406073D01*
X177734119Y-109334119D01*
X177806073Y-109246443D01*
X177859540Y-109146414D01*
X177892465Y-109037876D01*
X177903582Y-108925000D01*
X177903582Y-108175000D01*
X177892465Y-108062124D01*
X177859540Y-107953586D01*
X177806073Y-107853557D01*
X177734119Y-107765881D01*
X177707035Y-107743654D01*
X178486258Y-106977000D01*
X180237384Y-106976999D01*
X180281555Y-106978932D01*
X180322217Y-106972677D01*
X180363112Y-106968649D01*
X180378247Y-106964058D01*
X180393893Y-106961651D01*
X180432542Y-106947588D01*
X180471876Y-106935656D01*
X180485829Y-106928198D01*
X180500700Y-106922787D01*
X180535850Y-106901461D01*
X180572115Y-106882078D01*
X180606278Y-106854041D01*
X181242333Y-106377000D01*
X181623000Y-106377000D01*
X181623000Y-114423000D01*
X177277000Y-114423000D01*
X177277000Y-112303582D01*
X177325000Y-112303582D01*
X177437876Y-112292465D01*
X177546414Y-112259540D01*
X177646443Y-112206073D01*
X177734119Y-112134119D01*
X177806073Y-112046443D01*
X177859540Y-111946414D01*
X177892465Y-111837876D01*
X177903582Y-111725000D01*
X177903582Y-110975000D01*
X177892465Y-110862124D01*
X177859540Y-110753586D01*
X177806073Y-110653557D01*
X177734119Y-110565881D01*
X177646443Y-110493927D01*
X177546414Y-110440460D01*
X177437876Y-110407535D01*
X177325000Y-110396418D01*
X176075000Y-110396418D01*
X175962124Y-110407535D01*
X175853586Y-110440460D01*
X175753557Y-110493927D01*
X175665881Y-110565881D01*
X175593927Y-110653557D01*
X175540460Y-110753586D01*
X175507535Y-110862124D01*
X175496418Y-110975000D01*
X175496418Y-111725000D01*
X175507535Y-111837876D01*
X175540460Y-111946414D01*
X175593927Y-112046443D01*
X175665881Y-112134119D01*
X175753557Y-112206073D01*
X175853586Y-112259540D01*
X175962124Y-112292465D01*
X176075000Y-112303582D01*
X176123000Y-112303582D01*
X176123000Y-114423000D01*
X171877000Y-114423000D01*
X171877000Y-106377000D01*
X177450661Y-106377000D01*
G37*
X177450661Y-106377000D02*
X176313860Y-107495466D01*
X176290026Y-107515026D01*
X176255361Y-107557265D01*
X176222693Y-107596418D01*
X176075000Y-107596418D01*
X175962124Y-107607535D01*
X175853586Y-107640460D01*
X175753557Y-107693927D01*
X175665881Y-107765881D01*
X175593927Y-107853557D01*
X175540460Y-107953586D01*
X175507535Y-108062124D01*
X175496418Y-108175000D01*
X175496418Y-108925000D01*
X175507535Y-109037876D01*
X175540460Y-109146414D01*
X175593927Y-109246443D01*
X175665881Y-109334119D01*
X175753557Y-109406073D01*
X175853586Y-109459540D01*
X175962124Y-109492465D01*
X176075000Y-109503582D01*
X177325000Y-109503582D01*
X177437876Y-109492465D01*
X177546414Y-109459540D01*
X177646443Y-109406073D01*
X177734119Y-109334119D01*
X177806073Y-109246443D01*
X177859540Y-109146414D01*
X177892465Y-109037876D01*
X177903582Y-108925000D01*
X177903582Y-108175000D01*
X177892465Y-108062124D01*
X177859540Y-107953586D01*
X177806073Y-107853557D01*
X177734119Y-107765881D01*
X177707035Y-107743654D01*
X178486258Y-106977000D01*
X180237384Y-106976999D01*
X180281555Y-106978932D01*
X180322217Y-106972677D01*
X180363112Y-106968649D01*
X180378247Y-106964058D01*
X180393893Y-106961651D01*
X180432542Y-106947588D01*
X180471876Y-106935656D01*
X180485829Y-106928198D01*
X180500700Y-106922787D01*
X180535850Y-106901461D01*
X180572115Y-106882078D01*
X180606278Y-106854041D01*
X181242333Y-106377000D01*
X181623000Y-106377000D01*
X181623000Y-114423000D01*
X177277000Y-114423000D01*
X177277000Y-112303582D01*
X177325000Y-112303582D01*
X177437876Y-112292465D01*
X177546414Y-112259540D01*
X177646443Y-112206073D01*
X177734119Y-112134119D01*
X177806073Y-112046443D01*
X177859540Y-111946414D01*
X177892465Y-111837876D01*
X177903582Y-111725000D01*
X177903582Y-110975000D01*
X177892465Y-110862124D01*
X177859540Y-110753586D01*
X177806073Y-110653557D01*
X177734119Y-110565881D01*
X177646443Y-110493927D01*
X177546414Y-110440460D01*
X177437876Y-110407535D01*
X177325000Y-110396418D01*
X176075000Y-110396418D01*
X175962124Y-110407535D01*
X175853586Y-110440460D01*
X175753557Y-110493927D01*
X175665881Y-110565881D01*
X175593927Y-110653557D01*
X175540460Y-110753586D01*
X175507535Y-110862124D01*
X175496418Y-110975000D01*
X175496418Y-111725000D01*
X175507535Y-111837876D01*
X175540460Y-111946414D01*
X175593927Y-112046443D01*
X175665881Y-112134119D01*
X175753557Y-112206073D01*
X175853586Y-112259540D01*
X175962124Y-112292465D01*
X176075000Y-112303582D01*
X176123000Y-112303582D01*
X176123000Y-114423000D01*
X171877000Y-114423000D01*
X171877000Y-106377000D01*
X177450661Y-106377000D01*
G36*
X174861318Y-93327000D02*
G01*
X178638681Y-93326999D01*
X180523000Y-95301048D01*
X180523000Y-100023000D01*
X172977000Y-100023000D01*
X172977000Y-95301048D01*
X174861318Y-93327000D01*
G37*
X174861318Y-93327000D02*
X178638681Y-93326999D01*
X180523000Y-95301048D01*
X180523000Y-100023000D01*
X172977000Y-100023000D01*
X172977000Y-95301048D01*
X174861318Y-93327000D01*
G36*
X132081471Y-100526999D02*
G01*
X132100000Y-100528824D01*
X132173905Y-100521545D01*
X132244970Y-100499988D01*
X132287977Y-100477000D01*
X139177792Y-100477000D01*
X139181349Y-100513112D01*
X139214343Y-100621877D01*
X139228184Y-100647772D01*
X139267921Y-100722115D01*
X139340026Y-100809974D01*
X139362038Y-100828039D01*
X140173000Y-101639001D01*
X140173000Y-105361500D01*
X139557668Y-105823000D01*
X137780683Y-105823000D01*
X137754713Y-105820229D01*
X137724021Y-105823000D01*
X137721664Y-105823000D01*
X137695751Y-105825552D01*
X137641514Y-105830449D01*
X137639242Y-105831118D01*
X137636888Y-105831350D01*
X137584729Y-105847172D01*
X137532485Y-105862558D01*
X137530392Y-105863655D01*
X137528124Y-105864343D01*
X137480008Y-105890061D01*
X137431815Y-105915319D01*
X137429976Y-105916803D01*
X137427885Y-105917921D01*
X137421696Y-105923000D01*
X131377000Y-105923000D01*
X131377000Y-100527000D01*
X132081471Y-100526999D01*
G37*
X132081471Y-100526999D02*
X132100000Y-100528824D01*
X132173905Y-100521545D01*
X132244970Y-100499988D01*
X132287977Y-100477000D01*
X139177792Y-100477000D01*
X139181349Y-100513112D01*
X139214343Y-100621877D01*
X139228184Y-100647772D01*
X139267921Y-100722115D01*
X139340026Y-100809974D01*
X139362038Y-100828039D01*
X140173000Y-101639001D01*
X140173000Y-105361500D01*
X139557668Y-105823000D01*
X137780683Y-105823000D01*
X137754713Y-105820229D01*
X137724021Y-105823000D01*
X137721664Y-105823000D01*
X137695751Y-105825552D01*
X137641514Y-105830449D01*
X137639242Y-105831118D01*
X137636888Y-105831350D01*
X137584729Y-105847172D01*
X137532485Y-105862558D01*
X137530392Y-105863655D01*
X137528124Y-105864343D01*
X137480008Y-105890061D01*
X137431815Y-105915319D01*
X137429976Y-105916803D01*
X137427885Y-105917921D01*
X137421696Y-105923000D01*
X131377000Y-105923000D01*
X131377000Y-100527000D01*
X132081471Y-100526999D01*
G36*
X134361318Y-93327000D02*
G01*
X138138681Y-93326999D01*
X140023000Y-95301048D01*
X140023000Y-100023000D01*
X132477000Y-100023000D01*
X132477000Y-95301048D01*
X134361318Y-93327000D01*
G37*
X134361318Y-93327000D02*
X138138681Y-93326999D01*
X140023000Y-95301048D01*
X140023000Y-100023000D01*
X132477000Y-100023000D01*
X132477000Y-95301048D01*
X134361318Y-93327000D01*
G36*
X141123000Y-114865429D02*
G01*
X141123000Y-119273000D01*
X140418519Y-119273000D01*
X140400000Y-119271176D01*
X140326095Y-119278455D01*
X140255030Y-119300012D01*
X140189537Y-119335019D01*
X140132131Y-119382131D01*
X140085019Y-119439537D01*
X140050012Y-119505030D01*
X140028455Y-119576095D01*
X140023000Y-119631481D01*
X140021176Y-119650000D01*
X140023000Y-119668519D01*
X140023000Y-124498952D01*
X138138683Y-126473000D01*
X134361317Y-126473000D01*
X132477000Y-124498952D01*
X132477000Y-119668519D01*
X132478824Y-119650000D01*
X132477000Y-119631481D01*
X132471545Y-119576095D01*
X132449988Y-119505030D01*
X132414981Y-119439537D01*
X132367869Y-119382131D01*
X132310463Y-119335019D01*
X132244970Y-119300012D01*
X132173905Y-119278455D01*
X132100000Y-119271176D01*
X132081481Y-119273000D01*
X131377000Y-119273000D01*
X131377000Y-114865429D01*
X141123000Y-114865429D01*
G37*
X141123000Y-114865429D02*
X141123000Y-119273000D01*
X140418519Y-119273000D01*
X140400000Y-119271176D01*
X140326095Y-119278455D01*
X140255030Y-119300012D01*
X140189537Y-119335019D01*
X140132131Y-119382131D01*
X140085019Y-119439537D01*
X140050012Y-119505030D01*
X140028455Y-119576095D01*
X140023000Y-119631481D01*
X140021176Y-119650000D01*
X140023000Y-119668519D01*
X140023000Y-124498952D01*
X138138683Y-126473000D01*
X134361317Y-126473000D01*
X132477000Y-124498952D01*
X132477000Y-119668519D01*
X132478824Y-119650000D01*
X132477000Y-119631481D01*
X132471545Y-119576095D01*
X132449988Y-119505030D01*
X132414981Y-119439537D01*
X132367869Y-119382131D01*
X132310463Y-119335019D01*
X132244970Y-119300012D01*
X132173905Y-119278455D01*
X132100000Y-119271176D01*
X132081481Y-119273000D01*
X131377000Y-119273000D01*
X131377000Y-114865429D01*
X141123000Y-114865429D01*
G36*
X136950661Y-106377000D02*
G01*
X135813860Y-107495466D01*
X135790026Y-107515026D01*
X135755361Y-107557265D01*
X135722693Y-107596418D01*
X135575000Y-107596418D01*
X135462124Y-107607535D01*
X135353586Y-107640460D01*
X135253557Y-107693927D01*
X135165881Y-107765881D01*
X135093927Y-107853557D01*
X135040460Y-107953586D01*
X135007535Y-108062124D01*
X134996418Y-108175000D01*
X134996418Y-108925000D01*
X135007535Y-109037876D01*
X135040460Y-109146414D01*
X135093927Y-109246443D01*
X135165881Y-109334119D01*
X135253557Y-109406073D01*
X135353586Y-109459540D01*
X135462124Y-109492465D01*
X135575000Y-109503582D01*
X136825000Y-109503582D01*
X136937876Y-109492465D01*
X137046414Y-109459540D01*
X137146443Y-109406073D01*
X137234119Y-109334119D01*
X137306073Y-109246443D01*
X137359540Y-109146414D01*
X137392465Y-109037876D01*
X137403582Y-108925000D01*
X137403582Y-108175000D01*
X137392465Y-108062124D01*
X137359540Y-107953586D01*
X137306073Y-107853557D01*
X137234119Y-107765881D01*
X137207035Y-107743654D01*
X137986258Y-106977000D01*
X139737384Y-106976999D01*
X139781555Y-106978932D01*
X139822217Y-106972677D01*
X139863112Y-106968649D01*
X139878247Y-106964058D01*
X139893893Y-106961651D01*
X139932542Y-106947588D01*
X139971876Y-106935656D01*
X139985829Y-106928198D01*
X140000700Y-106922787D01*
X140035850Y-106901461D01*
X140072115Y-106882078D01*
X140106278Y-106854041D01*
X140742333Y-106377000D01*
X141123000Y-106377000D01*
X141123000Y-114423000D01*
X136777000Y-114423000D01*
X136777000Y-112303582D01*
X136825000Y-112303582D01*
X136937876Y-112292465D01*
X137046414Y-112259540D01*
X137146443Y-112206073D01*
X137234119Y-112134119D01*
X137306073Y-112046443D01*
X137359540Y-111946414D01*
X137392465Y-111837876D01*
X137403582Y-111725000D01*
X137403582Y-110975000D01*
X137392465Y-110862124D01*
X137359540Y-110753586D01*
X137306073Y-110653557D01*
X137234119Y-110565881D01*
X137146443Y-110493927D01*
X137046414Y-110440460D01*
X136937876Y-110407535D01*
X136825000Y-110396418D01*
X135575000Y-110396418D01*
X135462124Y-110407535D01*
X135353586Y-110440460D01*
X135253557Y-110493927D01*
X135165881Y-110565881D01*
X135093927Y-110653557D01*
X135040460Y-110753586D01*
X135007535Y-110862124D01*
X134996418Y-110975000D01*
X134996418Y-111725000D01*
X135007535Y-111837876D01*
X135040460Y-111946414D01*
X135093927Y-112046443D01*
X135165881Y-112134119D01*
X135253557Y-112206073D01*
X135353586Y-112259540D01*
X135462124Y-112292465D01*
X135575000Y-112303582D01*
X135623000Y-112303582D01*
X135623000Y-114423000D01*
X131377000Y-114423000D01*
X131377000Y-106377000D01*
X136950661Y-106377000D01*
G37*
X136950661Y-106377000D02*
X135813860Y-107495466D01*
X135790026Y-107515026D01*
X135755361Y-107557265D01*
X135722693Y-107596418D01*
X135575000Y-107596418D01*
X135462124Y-107607535D01*
X135353586Y-107640460D01*
X135253557Y-107693927D01*
X135165881Y-107765881D01*
X135093927Y-107853557D01*
X135040460Y-107953586D01*
X135007535Y-108062124D01*
X134996418Y-108175000D01*
X134996418Y-108925000D01*
X135007535Y-109037876D01*
X135040460Y-109146414D01*
X135093927Y-109246443D01*
X135165881Y-109334119D01*
X135253557Y-109406073D01*
X135353586Y-109459540D01*
X135462124Y-109492465D01*
X135575000Y-109503582D01*
X136825000Y-109503582D01*
X136937876Y-109492465D01*
X137046414Y-109459540D01*
X137146443Y-109406073D01*
X137234119Y-109334119D01*
X137306073Y-109246443D01*
X137359540Y-109146414D01*
X137392465Y-109037876D01*
X137403582Y-108925000D01*
X137403582Y-108175000D01*
X137392465Y-108062124D01*
X137359540Y-107953586D01*
X137306073Y-107853557D01*
X137234119Y-107765881D01*
X137207035Y-107743654D01*
X137986258Y-106977000D01*
X139737384Y-106976999D01*
X139781555Y-106978932D01*
X139822217Y-106972677D01*
X139863112Y-106968649D01*
X139878247Y-106964058D01*
X139893893Y-106961651D01*
X139932542Y-106947588D01*
X139971876Y-106935656D01*
X139985829Y-106928198D01*
X140000700Y-106922787D01*
X140035850Y-106901461D01*
X140072115Y-106882078D01*
X140106278Y-106854041D01*
X140742333Y-106377000D01*
X141123000Y-106377000D01*
X141123000Y-114423000D01*
X136777000Y-114423000D01*
X136777000Y-112303582D01*
X136825000Y-112303582D01*
X136937876Y-112292465D01*
X137046414Y-112259540D01*
X137146443Y-112206073D01*
X137234119Y-112134119D01*
X137306073Y-112046443D01*
X137359540Y-111946414D01*
X137392465Y-111837876D01*
X137403582Y-111725000D01*
X137403582Y-110975000D01*
X137392465Y-110862124D01*
X137359540Y-110753586D01*
X137306073Y-110653557D01*
X137234119Y-110565881D01*
X137146443Y-110493927D01*
X137046414Y-110440460D01*
X136937876Y-110407535D01*
X136825000Y-110396418D01*
X135575000Y-110396418D01*
X135462124Y-110407535D01*
X135353586Y-110440460D01*
X135253557Y-110493927D01*
X135165881Y-110565881D01*
X135093927Y-110653557D01*
X135040460Y-110753586D01*
X135007535Y-110862124D01*
X134996418Y-110975000D01*
X134996418Y-111725000D01*
X135007535Y-111837876D01*
X135040460Y-111946414D01*
X135093927Y-112046443D01*
X135165881Y-112134119D01*
X135253557Y-112206073D01*
X135353586Y-112259540D01*
X135462124Y-112292465D01*
X135575000Y-112303582D01*
X135623000Y-112303582D01*
X135623000Y-114423000D01*
X131377000Y-114423000D01*
X131377000Y-106377000D01*
X136950661Y-106377000D01*
G36*
X147861318Y-93327000D02*
G01*
X151638681Y-93326999D01*
X153523000Y-95301048D01*
X153523000Y-100023000D01*
X145977000Y-100023000D01*
X145977000Y-95301048D01*
X147861318Y-93327000D01*
G37*
X147861318Y-93327000D02*
X151638681Y-93326999D01*
X153523000Y-95301048D01*
X153523000Y-100023000D01*
X145977000Y-100023000D01*
X145977000Y-95301048D01*
X147861318Y-93327000D01*
G36*
X161361318Y-93327000D02*
G01*
X165138681Y-93326999D01*
X167023000Y-95301048D01*
X167023000Y-100023000D01*
X159477000Y-100023000D01*
X159477000Y-95301048D01*
X161361318Y-93327000D01*
G37*
X161361318Y-93327000D02*
X165138681Y-93326999D01*
X167023000Y-95301048D01*
X167023000Y-100023000D01*
X159477000Y-100023000D01*
X159477000Y-95301048D01*
X161361318Y-93327000D01*
G36*
X145581471Y-100526999D02*
G01*
X145600000Y-100528824D01*
X145673905Y-100521545D01*
X145744970Y-100499988D01*
X145787977Y-100477000D01*
X152677792Y-100477000D01*
X152681349Y-100513112D01*
X152714343Y-100621877D01*
X152728184Y-100647772D01*
X152767921Y-100722115D01*
X152840026Y-100809974D01*
X152862038Y-100828039D01*
X153673000Y-101639001D01*
X153673000Y-105361500D01*
X153057668Y-105823000D01*
X151280683Y-105823000D01*
X151254713Y-105820229D01*
X151224021Y-105823000D01*
X151221664Y-105823000D01*
X151195751Y-105825552D01*
X151141514Y-105830449D01*
X151139242Y-105831118D01*
X151136888Y-105831350D01*
X151084729Y-105847172D01*
X151032485Y-105862558D01*
X151030392Y-105863655D01*
X151028124Y-105864343D01*
X150980008Y-105890061D01*
X150931815Y-105915319D01*
X150929976Y-105916803D01*
X150927885Y-105917921D01*
X150921696Y-105923000D01*
X144877000Y-105923000D01*
X144877000Y-100527000D01*
X145581471Y-100526999D01*
G37*
X145581471Y-100526999D02*
X145600000Y-100528824D01*
X145673905Y-100521545D01*
X145744970Y-100499988D01*
X145787977Y-100477000D01*
X152677792Y-100477000D01*
X152681349Y-100513112D01*
X152714343Y-100621877D01*
X152728184Y-100647772D01*
X152767921Y-100722115D01*
X152840026Y-100809974D01*
X152862038Y-100828039D01*
X153673000Y-101639001D01*
X153673000Y-105361500D01*
X153057668Y-105823000D01*
X151280683Y-105823000D01*
X151254713Y-105820229D01*
X151224021Y-105823000D01*
X151221664Y-105823000D01*
X151195751Y-105825552D01*
X151141514Y-105830449D01*
X151139242Y-105831118D01*
X151136888Y-105831350D01*
X151084729Y-105847172D01*
X151032485Y-105862558D01*
X151030392Y-105863655D01*
X151028124Y-105864343D01*
X150980008Y-105890061D01*
X150931815Y-105915319D01*
X150929976Y-105916803D01*
X150927885Y-105917921D01*
X150921696Y-105923000D01*
X144877000Y-105923000D01*
X144877000Y-100527000D01*
X145581471Y-100526999D01*
G36*
X154623000Y-114865429D02*
G01*
X154623000Y-119273000D01*
X153918519Y-119273000D01*
X153900000Y-119271176D01*
X153826095Y-119278455D01*
X153755030Y-119300012D01*
X153689537Y-119335019D01*
X153632131Y-119382131D01*
X153585019Y-119439537D01*
X153550012Y-119505030D01*
X153528455Y-119576095D01*
X153523000Y-119631481D01*
X153521176Y-119650000D01*
X153523000Y-119668519D01*
X153523000Y-124498952D01*
X151638683Y-126473000D01*
X147861317Y-126473000D01*
X145977000Y-124498952D01*
X145977000Y-119668519D01*
X145978824Y-119650000D01*
X145977000Y-119631481D01*
X145971545Y-119576095D01*
X145949988Y-119505030D01*
X145914981Y-119439537D01*
X145867869Y-119382131D01*
X145810463Y-119335019D01*
X145744970Y-119300012D01*
X145673905Y-119278455D01*
X145600000Y-119271176D01*
X145581481Y-119273000D01*
X144877000Y-119273000D01*
X144877000Y-114865429D01*
X154623000Y-114865429D01*
G37*
X154623000Y-114865429D02*
X154623000Y-119273000D01*
X153918519Y-119273000D01*
X153900000Y-119271176D01*
X153826095Y-119278455D01*
X153755030Y-119300012D01*
X153689537Y-119335019D01*
X153632131Y-119382131D01*
X153585019Y-119439537D01*
X153550012Y-119505030D01*
X153528455Y-119576095D01*
X153523000Y-119631481D01*
X153521176Y-119650000D01*
X153523000Y-119668519D01*
X153523000Y-124498952D01*
X151638683Y-126473000D01*
X147861317Y-126473000D01*
X145977000Y-124498952D01*
X145977000Y-119668519D01*
X145978824Y-119650000D01*
X145977000Y-119631481D01*
X145971545Y-119576095D01*
X145949988Y-119505030D01*
X145914981Y-119439537D01*
X145867869Y-119382131D01*
X145810463Y-119335019D01*
X145744970Y-119300012D01*
X145673905Y-119278455D01*
X145600000Y-119271176D01*
X145581481Y-119273000D01*
X144877000Y-119273000D01*
X144877000Y-114865429D01*
X154623000Y-114865429D01*
G36*
X150450661Y-106377000D02*
G01*
X149313860Y-107495466D01*
X149290026Y-107515026D01*
X149255361Y-107557265D01*
X149222693Y-107596418D01*
X149075000Y-107596418D01*
X148962124Y-107607535D01*
X148853586Y-107640460D01*
X148753557Y-107693927D01*
X148665881Y-107765881D01*
X148593927Y-107853557D01*
X148540460Y-107953586D01*
X148507535Y-108062124D01*
X148496418Y-108175000D01*
X148496418Y-108925000D01*
X148507535Y-109037876D01*
X148540460Y-109146414D01*
X148593927Y-109246443D01*
X148665881Y-109334119D01*
X148753557Y-109406073D01*
X148853586Y-109459540D01*
X148962124Y-109492465D01*
X149075000Y-109503582D01*
X150325000Y-109503582D01*
X150437876Y-109492465D01*
X150546414Y-109459540D01*
X150646443Y-109406073D01*
X150734119Y-109334119D01*
X150806073Y-109246443D01*
X150859540Y-109146414D01*
X150892465Y-109037876D01*
X150903582Y-108925000D01*
X150903582Y-108175000D01*
X150892465Y-108062124D01*
X150859540Y-107953586D01*
X150806073Y-107853557D01*
X150734119Y-107765881D01*
X150707035Y-107743654D01*
X151486258Y-106977000D01*
X153237384Y-106976999D01*
X153281555Y-106978932D01*
X153322217Y-106972677D01*
X153363112Y-106968649D01*
X153378247Y-106964058D01*
X153393893Y-106961651D01*
X153432542Y-106947588D01*
X153471876Y-106935656D01*
X153485829Y-106928198D01*
X153500700Y-106922787D01*
X153535850Y-106901461D01*
X153572115Y-106882078D01*
X153606278Y-106854041D01*
X154242333Y-106377000D01*
X154623000Y-106377000D01*
X154623000Y-114423000D01*
X150277000Y-114423000D01*
X150277000Y-112303582D01*
X150325000Y-112303582D01*
X150437876Y-112292465D01*
X150546414Y-112259540D01*
X150646443Y-112206073D01*
X150734119Y-112134119D01*
X150806073Y-112046443D01*
X150859540Y-111946414D01*
X150892465Y-111837876D01*
X150903582Y-111725000D01*
X150903582Y-110975000D01*
X150892465Y-110862124D01*
X150859540Y-110753586D01*
X150806073Y-110653557D01*
X150734119Y-110565881D01*
X150646443Y-110493927D01*
X150546414Y-110440460D01*
X150437876Y-110407535D01*
X150325000Y-110396418D01*
X149075000Y-110396418D01*
X148962124Y-110407535D01*
X148853586Y-110440460D01*
X148753557Y-110493927D01*
X148665881Y-110565881D01*
X148593927Y-110653557D01*
X148540460Y-110753586D01*
X148507535Y-110862124D01*
X148496418Y-110975000D01*
X148496418Y-111725000D01*
X148507535Y-111837876D01*
X148540460Y-111946414D01*
X148593927Y-112046443D01*
X148665881Y-112134119D01*
X148753557Y-112206073D01*
X148853586Y-112259540D01*
X148962124Y-112292465D01*
X149075000Y-112303582D01*
X149123000Y-112303582D01*
X149123000Y-114423000D01*
X144877000Y-114423000D01*
X144877000Y-106377000D01*
X150450661Y-106377000D01*
G37*
X150450661Y-106377000D02*
X149313860Y-107495466D01*
X149290026Y-107515026D01*
X149255361Y-107557265D01*
X149222693Y-107596418D01*
X149075000Y-107596418D01*
X148962124Y-107607535D01*
X148853586Y-107640460D01*
X148753557Y-107693927D01*
X148665881Y-107765881D01*
X148593927Y-107853557D01*
X148540460Y-107953586D01*
X148507535Y-108062124D01*
X148496418Y-108175000D01*
X148496418Y-108925000D01*
X148507535Y-109037876D01*
X148540460Y-109146414D01*
X148593927Y-109246443D01*
X148665881Y-109334119D01*
X148753557Y-109406073D01*
X148853586Y-109459540D01*
X148962124Y-109492465D01*
X149075000Y-109503582D01*
X150325000Y-109503582D01*
X150437876Y-109492465D01*
X150546414Y-109459540D01*
X150646443Y-109406073D01*
X150734119Y-109334119D01*
X150806073Y-109246443D01*
X150859540Y-109146414D01*
X150892465Y-109037876D01*
X150903582Y-108925000D01*
X150903582Y-108175000D01*
X150892465Y-108062124D01*
X150859540Y-107953586D01*
X150806073Y-107853557D01*
X150734119Y-107765881D01*
X150707035Y-107743654D01*
X151486258Y-106977000D01*
X153237384Y-106976999D01*
X153281555Y-106978932D01*
X153322217Y-106972677D01*
X153363112Y-106968649D01*
X153378247Y-106964058D01*
X153393893Y-106961651D01*
X153432542Y-106947588D01*
X153471876Y-106935656D01*
X153485829Y-106928198D01*
X153500700Y-106922787D01*
X153535850Y-106901461D01*
X153572115Y-106882078D01*
X153606278Y-106854041D01*
X154242333Y-106377000D01*
X154623000Y-106377000D01*
X154623000Y-114423000D01*
X150277000Y-114423000D01*
X150277000Y-112303582D01*
X150325000Y-112303582D01*
X150437876Y-112292465D01*
X150546414Y-112259540D01*
X150646443Y-112206073D01*
X150734119Y-112134119D01*
X150806073Y-112046443D01*
X150859540Y-111946414D01*
X150892465Y-111837876D01*
X150903582Y-111725000D01*
X150903582Y-110975000D01*
X150892465Y-110862124D01*
X150859540Y-110753586D01*
X150806073Y-110653557D01*
X150734119Y-110565881D01*
X150646443Y-110493927D01*
X150546414Y-110440460D01*
X150437876Y-110407535D01*
X150325000Y-110396418D01*
X149075000Y-110396418D01*
X148962124Y-110407535D01*
X148853586Y-110440460D01*
X148753557Y-110493927D01*
X148665881Y-110565881D01*
X148593927Y-110653557D01*
X148540460Y-110753586D01*
X148507535Y-110862124D01*
X148496418Y-110975000D01*
X148496418Y-111725000D01*
X148507535Y-111837876D01*
X148540460Y-111946414D01*
X148593927Y-112046443D01*
X148665881Y-112134119D01*
X148753557Y-112206073D01*
X148853586Y-112259540D01*
X148962124Y-112292465D01*
X149075000Y-112303582D01*
X149123000Y-112303582D01*
X149123000Y-114423000D01*
X144877000Y-114423000D01*
X144877000Y-106377000D01*
X150450661Y-106377000D01*
G36*
X195123000Y-114865429D02*
G01*
X195123000Y-119273000D01*
X194418519Y-119273000D01*
X194400000Y-119271176D01*
X194326095Y-119278455D01*
X194255030Y-119300012D01*
X194189537Y-119335019D01*
X194132131Y-119382131D01*
X194085019Y-119439537D01*
X194050012Y-119505030D01*
X194028455Y-119576095D01*
X194023000Y-119631481D01*
X194021176Y-119650000D01*
X194023000Y-119668519D01*
X194023000Y-124498952D01*
X192138683Y-126473000D01*
X188361317Y-126473000D01*
X186477000Y-124498952D01*
X186477000Y-119668519D01*
X186478824Y-119650000D01*
X186477000Y-119631481D01*
X186471545Y-119576095D01*
X186449988Y-119505030D01*
X186414981Y-119439537D01*
X186367869Y-119382131D01*
X186310463Y-119335019D01*
X186244970Y-119300012D01*
X186173905Y-119278455D01*
X186100000Y-119271176D01*
X186081481Y-119273000D01*
X185377000Y-119273000D01*
X185377000Y-114865429D01*
X195123000Y-114865429D01*
G37*
X195123000Y-114865429D02*
X195123000Y-119273000D01*
X194418519Y-119273000D01*
X194400000Y-119271176D01*
X194326095Y-119278455D01*
X194255030Y-119300012D01*
X194189537Y-119335019D01*
X194132131Y-119382131D01*
X194085019Y-119439537D01*
X194050012Y-119505030D01*
X194028455Y-119576095D01*
X194023000Y-119631481D01*
X194021176Y-119650000D01*
X194023000Y-119668519D01*
X194023000Y-124498952D01*
X192138683Y-126473000D01*
X188361317Y-126473000D01*
X186477000Y-124498952D01*
X186477000Y-119668519D01*
X186478824Y-119650000D01*
X186477000Y-119631481D01*
X186471545Y-119576095D01*
X186449988Y-119505030D01*
X186414981Y-119439537D01*
X186367869Y-119382131D01*
X186310463Y-119335019D01*
X186244970Y-119300012D01*
X186173905Y-119278455D01*
X186100000Y-119271176D01*
X186081481Y-119273000D01*
X185377000Y-119273000D01*
X185377000Y-114865429D01*
X195123000Y-114865429D01*
G36*
X190950661Y-106377000D02*
G01*
X189813860Y-107495466D01*
X189790026Y-107515026D01*
X189755361Y-107557265D01*
X189722693Y-107596418D01*
X189575000Y-107596418D01*
X189462124Y-107607535D01*
X189353586Y-107640460D01*
X189253557Y-107693927D01*
X189165881Y-107765881D01*
X189093927Y-107853557D01*
X189040460Y-107953586D01*
X189007535Y-108062124D01*
X188996418Y-108175000D01*
X188996418Y-108925000D01*
X189007535Y-109037876D01*
X189040460Y-109146414D01*
X189093927Y-109246443D01*
X189165881Y-109334119D01*
X189253557Y-109406073D01*
X189353586Y-109459540D01*
X189462124Y-109492465D01*
X189575000Y-109503582D01*
X190825000Y-109503582D01*
X190937876Y-109492465D01*
X191046414Y-109459540D01*
X191146443Y-109406073D01*
X191234119Y-109334119D01*
X191306073Y-109246443D01*
X191359540Y-109146414D01*
X191392465Y-109037876D01*
X191403582Y-108925000D01*
X191403582Y-108175000D01*
X191392465Y-108062124D01*
X191359540Y-107953586D01*
X191306073Y-107853557D01*
X191234119Y-107765881D01*
X191207035Y-107743654D01*
X191986258Y-106977000D01*
X193737384Y-106976999D01*
X193781555Y-106978932D01*
X193822217Y-106972677D01*
X193863112Y-106968649D01*
X193878247Y-106964058D01*
X193893893Y-106961651D01*
X193932542Y-106947588D01*
X193971876Y-106935656D01*
X193985829Y-106928198D01*
X194000700Y-106922787D01*
X194035850Y-106901461D01*
X194072115Y-106882078D01*
X194106278Y-106854041D01*
X194742333Y-106377000D01*
X195123000Y-106377000D01*
X195123000Y-114423000D01*
X190777000Y-114423000D01*
X190777000Y-112303582D01*
X190825000Y-112303582D01*
X190937876Y-112292465D01*
X191046414Y-112259540D01*
X191146443Y-112206073D01*
X191234119Y-112134119D01*
X191306073Y-112046443D01*
X191359540Y-111946414D01*
X191392465Y-111837876D01*
X191403582Y-111725000D01*
X191403582Y-110975000D01*
X191392465Y-110862124D01*
X191359540Y-110753586D01*
X191306073Y-110653557D01*
X191234119Y-110565881D01*
X191146443Y-110493927D01*
X191046414Y-110440460D01*
X190937876Y-110407535D01*
X190825000Y-110396418D01*
X189575000Y-110396418D01*
X189462124Y-110407535D01*
X189353586Y-110440460D01*
X189253557Y-110493927D01*
X189165881Y-110565881D01*
X189093927Y-110653557D01*
X189040460Y-110753586D01*
X189007535Y-110862124D01*
X188996418Y-110975000D01*
X188996418Y-111725000D01*
X189007535Y-111837876D01*
X189040460Y-111946414D01*
X189093927Y-112046443D01*
X189165881Y-112134119D01*
X189253557Y-112206073D01*
X189353586Y-112259540D01*
X189462124Y-112292465D01*
X189575000Y-112303582D01*
X189623000Y-112303582D01*
X189623000Y-114423000D01*
X185377000Y-114423000D01*
X185377000Y-106377000D01*
X190950661Y-106377000D01*
G37*
X190950661Y-106377000D02*
X189813860Y-107495466D01*
X189790026Y-107515026D01*
X189755361Y-107557265D01*
X189722693Y-107596418D01*
X189575000Y-107596418D01*
X189462124Y-107607535D01*
X189353586Y-107640460D01*
X189253557Y-107693927D01*
X189165881Y-107765881D01*
X189093927Y-107853557D01*
X189040460Y-107953586D01*
X189007535Y-108062124D01*
X188996418Y-108175000D01*
X188996418Y-108925000D01*
X189007535Y-109037876D01*
X189040460Y-109146414D01*
X189093927Y-109246443D01*
X189165881Y-109334119D01*
X189253557Y-109406073D01*
X189353586Y-109459540D01*
X189462124Y-109492465D01*
X189575000Y-109503582D01*
X190825000Y-109503582D01*
X190937876Y-109492465D01*
X191046414Y-109459540D01*
X191146443Y-109406073D01*
X191234119Y-109334119D01*
X191306073Y-109246443D01*
X191359540Y-109146414D01*
X191392465Y-109037876D01*
X191403582Y-108925000D01*
X191403582Y-108175000D01*
X191392465Y-108062124D01*
X191359540Y-107953586D01*
X191306073Y-107853557D01*
X191234119Y-107765881D01*
X191207035Y-107743654D01*
X191986258Y-106977000D01*
X193737384Y-106976999D01*
X193781555Y-106978932D01*
X193822217Y-106972677D01*
X193863112Y-106968649D01*
X193878247Y-106964058D01*
X193893893Y-106961651D01*
X193932542Y-106947588D01*
X193971876Y-106935656D01*
X193985829Y-106928198D01*
X194000700Y-106922787D01*
X194035850Y-106901461D01*
X194072115Y-106882078D01*
X194106278Y-106854041D01*
X194742333Y-106377000D01*
X195123000Y-106377000D01*
X195123000Y-114423000D01*
X190777000Y-114423000D01*
X190777000Y-112303582D01*
X190825000Y-112303582D01*
X190937876Y-112292465D01*
X191046414Y-112259540D01*
X191146443Y-112206073D01*
X191234119Y-112134119D01*
X191306073Y-112046443D01*
X191359540Y-111946414D01*
X191392465Y-111837876D01*
X191403582Y-111725000D01*
X191403582Y-110975000D01*
X191392465Y-110862124D01*
X191359540Y-110753586D01*
X191306073Y-110653557D01*
X191234119Y-110565881D01*
X191146443Y-110493927D01*
X191046414Y-110440460D01*
X190937876Y-110407535D01*
X190825000Y-110396418D01*
X189575000Y-110396418D01*
X189462124Y-110407535D01*
X189353586Y-110440460D01*
X189253557Y-110493927D01*
X189165881Y-110565881D01*
X189093927Y-110653557D01*
X189040460Y-110753586D01*
X189007535Y-110862124D01*
X188996418Y-110975000D01*
X188996418Y-111725000D01*
X189007535Y-111837876D01*
X189040460Y-111946414D01*
X189093927Y-112046443D01*
X189165881Y-112134119D01*
X189253557Y-112206073D01*
X189353586Y-112259540D01*
X189462124Y-112292465D01*
X189575000Y-112303582D01*
X189623000Y-112303582D01*
X189623000Y-114423000D01*
X185377000Y-114423000D01*
X185377000Y-106377000D01*
X190950661Y-106377000D01*
G36*
X188361318Y-93327000D02*
G01*
X192138681Y-93326999D01*
X194023000Y-95301048D01*
X194023000Y-100023000D01*
X186477000Y-100023000D01*
X186477000Y-95301048D01*
X188361318Y-93327000D01*
G37*
X188361318Y-93327000D02*
X192138681Y-93326999D01*
X194023000Y-95301048D01*
X194023000Y-100023000D01*
X186477000Y-100023000D01*
X186477000Y-95301048D01*
X188361318Y-93327000D01*
G36*
X208623000Y-114865429D02*
G01*
X208623000Y-119273000D01*
X207918519Y-119273000D01*
X207900000Y-119271176D01*
X207826095Y-119278455D01*
X207755030Y-119300012D01*
X207689537Y-119335019D01*
X207632131Y-119382131D01*
X207585019Y-119439537D01*
X207550012Y-119505030D01*
X207528455Y-119576095D01*
X207523000Y-119631481D01*
X207521176Y-119650000D01*
X207523000Y-119668519D01*
X207523000Y-124498952D01*
X205638683Y-126473000D01*
X201861317Y-126473000D01*
X199977000Y-124498952D01*
X199977000Y-119668519D01*
X199978824Y-119650000D01*
X199977000Y-119631481D01*
X199971545Y-119576095D01*
X199949988Y-119505030D01*
X199914981Y-119439537D01*
X199867869Y-119382131D01*
X199810463Y-119335019D01*
X199744970Y-119300012D01*
X199673905Y-119278455D01*
X199600000Y-119271176D01*
X199581481Y-119273000D01*
X198877000Y-119273000D01*
X198877000Y-114865429D01*
X208623000Y-114865429D01*
G37*
X208623000Y-114865429D02*
X208623000Y-119273000D01*
X207918519Y-119273000D01*
X207900000Y-119271176D01*
X207826095Y-119278455D01*
X207755030Y-119300012D01*
X207689537Y-119335019D01*
X207632131Y-119382131D01*
X207585019Y-119439537D01*
X207550012Y-119505030D01*
X207528455Y-119576095D01*
X207523000Y-119631481D01*
X207521176Y-119650000D01*
X207523000Y-119668519D01*
X207523000Y-124498952D01*
X205638683Y-126473000D01*
X201861317Y-126473000D01*
X199977000Y-124498952D01*
X199977000Y-119668519D01*
X199978824Y-119650000D01*
X199977000Y-119631481D01*
X199971545Y-119576095D01*
X199949988Y-119505030D01*
X199914981Y-119439537D01*
X199867869Y-119382131D01*
X199810463Y-119335019D01*
X199744970Y-119300012D01*
X199673905Y-119278455D01*
X199600000Y-119271176D01*
X199581481Y-119273000D01*
X198877000Y-119273000D01*
X198877000Y-114865429D01*
X208623000Y-114865429D01*
G36*
X186081471Y-100526999D02*
G01*
X186100000Y-100528824D01*
X186173905Y-100521545D01*
X186244970Y-100499988D01*
X186287977Y-100477000D01*
X193177792Y-100477000D01*
X193181349Y-100513112D01*
X193214343Y-100621877D01*
X193228184Y-100647772D01*
X193267921Y-100722115D01*
X193340026Y-100809974D01*
X193362038Y-100828039D01*
X194173000Y-101639001D01*
X194173000Y-105361500D01*
X193557668Y-105823000D01*
X191780683Y-105823000D01*
X191754713Y-105820229D01*
X191724021Y-105823000D01*
X191721664Y-105823000D01*
X191695751Y-105825552D01*
X191641514Y-105830449D01*
X191639242Y-105831118D01*
X191636888Y-105831350D01*
X191584729Y-105847172D01*
X191532485Y-105862558D01*
X191530392Y-105863655D01*
X191528124Y-105864343D01*
X191480008Y-105890061D01*
X191431815Y-105915319D01*
X191429976Y-105916803D01*
X191427885Y-105917921D01*
X191421696Y-105923000D01*
X185377000Y-105923000D01*
X185377000Y-100527000D01*
X186081471Y-100526999D01*
G37*
X186081471Y-100526999D02*
X186100000Y-100528824D01*
X186173905Y-100521545D01*
X186244970Y-100499988D01*
X186287977Y-100477000D01*
X193177792Y-100477000D01*
X193181349Y-100513112D01*
X193214343Y-100621877D01*
X193228184Y-100647772D01*
X193267921Y-100722115D01*
X193340026Y-100809974D01*
X193362038Y-100828039D01*
X194173000Y-101639001D01*
X194173000Y-105361500D01*
X193557668Y-105823000D01*
X191780683Y-105823000D01*
X191754713Y-105820229D01*
X191724021Y-105823000D01*
X191721664Y-105823000D01*
X191695751Y-105825552D01*
X191641514Y-105830449D01*
X191639242Y-105831118D01*
X191636888Y-105831350D01*
X191584729Y-105847172D01*
X191532485Y-105862558D01*
X191530392Y-105863655D01*
X191528124Y-105864343D01*
X191480008Y-105890061D01*
X191431815Y-105915319D01*
X191429976Y-105916803D01*
X191427885Y-105917921D01*
X191421696Y-105923000D01*
X185377000Y-105923000D01*
X185377000Y-100527000D01*
X186081471Y-100526999D01*
G36*
X199581471Y-100526999D02*
G01*
X199600000Y-100528824D01*
X199673905Y-100521545D01*
X199744970Y-100499988D01*
X199787977Y-100477000D01*
X206677792Y-100477000D01*
X206681349Y-100513112D01*
X206714343Y-100621877D01*
X206728184Y-100647772D01*
X206767921Y-100722115D01*
X206840026Y-100809974D01*
X206862038Y-100828039D01*
X207673000Y-101639001D01*
X207673000Y-105361500D01*
X207057668Y-105823000D01*
X205280683Y-105823000D01*
X205254713Y-105820229D01*
X205224021Y-105823000D01*
X205221664Y-105823000D01*
X205195751Y-105825552D01*
X205141514Y-105830449D01*
X205139242Y-105831118D01*
X205136888Y-105831350D01*
X205084729Y-105847172D01*
X205032485Y-105862558D01*
X205030392Y-105863655D01*
X205028124Y-105864343D01*
X204980008Y-105890061D01*
X204931815Y-105915319D01*
X204929976Y-105916803D01*
X204927885Y-105917921D01*
X204921696Y-105923000D01*
X198877000Y-105923000D01*
X198877000Y-100527000D01*
X199581471Y-100526999D01*
G37*
X199581471Y-100526999D02*
X199600000Y-100528824D01*
X199673905Y-100521545D01*
X199744970Y-100499988D01*
X199787977Y-100477000D01*
X206677792Y-100477000D01*
X206681349Y-100513112D01*
X206714343Y-100621877D01*
X206728184Y-100647772D01*
X206767921Y-100722115D01*
X206840026Y-100809974D01*
X206862038Y-100828039D01*
X207673000Y-101639001D01*
X207673000Y-105361500D01*
X207057668Y-105823000D01*
X205280683Y-105823000D01*
X205254713Y-105820229D01*
X205224021Y-105823000D01*
X205221664Y-105823000D01*
X205195751Y-105825552D01*
X205141514Y-105830449D01*
X205139242Y-105831118D01*
X205136888Y-105831350D01*
X205084729Y-105847172D01*
X205032485Y-105862558D01*
X205030392Y-105863655D01*
X205028124Y-105864343D01*
X204980008Y-105890061D01*
X204931815Y-105915319D01*
X204929976Y-105916803D01*
X204927885Y-105917921D01*
X204921696Y-105923000D01*
X198877000Y-105923000D01*
X198877000Y-100527000D01*
X199581471Y-100526999D01*
G36*
X201861318Y-93327000D02*
G01*
X205638681Y-93326999D01*
X207523000Y-95301048D01*
X207523000Y-100023000D01*
X199977000Y-100023000D01*
X199977000Y-95301048D01*
X201861318Y-93327000D01*
G37*
X201861318Y-93327000D02*
X205638681Y-93326999D01*
X207523000Y-95301048D01*
X207523000Y-100023000D01*
X199977000Y-100023000D01*
X199977000Y-95301048D01*
X201861318Y-93327000D01*
G36*
X204450661Y-106377000D02*
G01*
X203313860Y-107495466D01*
X203290026Y-107515026D01*
X203255361Y-107557265D01*
X203222693Y-107596418D01*
X203075000Y-107596418D01*
X202962124Y-107607535D01*
X202853586Y-107640460D01*
X202753557Y-107693927D01*
X202665881Y-107765881D01*
X202593927Y-107853557D01*
X202540460Y-107953586D01*
X202507535Y-108062124D01*
X202496418Y-108175000D01*
X202496418Y-108925000D01*
X202507535Y-109037876D01*
X202540460Y-109146414D01*
X202593927Y-109246443D01*
X202665881Y-109334119D01*
X202753557Y-109406073D01*
X202853586Y-109459540D01*
X202962124Y-109492465D01*
X203075000Y-109503582D01*
X204325000Y-109503582D01*
X204437876Y-109492465D01*
X204546414Y-109459540D01*
X204646443Y-109406073D01*
X204734119Y-109334119D01*
X204806073Y-109246443D01*
X204859540Y-109146414D01*
X204892465Y-109037876D01*
X204903582Y-108925000D01*
X204903582Y-108175000D01*
X204892465Y-108062124D01*
X204859540Y-107953586D01*
X204806073Y-107853557D01*
X204734119Y-107765881D01*
X204707035Y-107743654D01*
X205486258Y-106977000D01*
X207237384Y-106976999D01*
X207281555Y-106978932D01*
X207322217Y-106972677D01*
X207363112Y-106968649D01*
X207378247Y-106964058D01*
X207393893Y-106961651D01*
X207432542Y-106947588D01*
X207471876Y-106935656D01*
X207485829Y-106928198D01*
X207500700Y-106922787D01*
X207535850Y-106901461D01*
X207572115Y-106882078D01*
X207606278Y-106854041D01*
X208242333Y-106377000D01*
X208623000Y-106377000D01*
X208623000Y-114423000D01*
X204277000Y-114423000D01*
X204277000Y-112303582D01*
X204325000Y-112303582D01*
X204437876Y-112292465D01*
X204546414Y-112259540D01*
X204646443Y-112206073D01*
X204734119Y-112134119D01*
X204806073Y-112046443D01*
X204859540Y-111946414D01*
X204892465Y-111837876D01*
X204903582Y-111725000D01*
X204903582Y-110975000D01*
X204892465Y-110862124D01*
X204859540Y-110753586D01*
X204806073Y-110653557D01*
X204734119Y-110565881D01*
X204646443Y-110493927D01*
X204546414Y-110440460D01*
X204437876Y-110407535D01*
X204325000Y-110396418D01*
X203075000Y-110396418D01*
X202962124Y-110407535D01*
X202853586Y-110440460D01*
X202753557Y-110493927D01*
X202665881Y-110565881D01*
X202593927Y-110653557D01*
X202540460Y-110753586D01*
X202507535Y-110862124D01*
X202496418Y-110975000D01*
X202496418Y-111725000D01*
X202507535Y-111837876D01*
X202540460Y-111946414D01*
X202593927Y-112046443D01*
X202665881Y-112134119D01*
X202753557Y-112206073D01*
X202853586Y-112259540D01*
X202962124Y-112292465D01*
X203075000Y-112303582D01*
X203123000Y-112303582D01*
X203123000Y-114423000D01*
X198877000Y-114423000D01*
X198877000Y-106377000D01*
X204450661Y-106377000D01*
G37*
X204450661Y-106377000D02*
X203313860Y-107495466D01*
X203290026Y-107515026D01*
X203255361Y-107557265D01*
X203222693Y-107596418D01*
X203075000Y-107596418D01*
X202962124Y-107607535D01*
X202853586Y-107640460D01*
X202753557Y-107693927D01*
X202665881Y-107765881D01*
X202593927Y-107853557D01*
X202540460Y-107953586D01*
X202507535Y-108062124D01*
X202496418Y-108175000D01*
X202496418Y-108925000D01*
X202507535Y-109037876D01*
X202540460Y-109146414D01*
X202593927Y-109246443D01*
X202665881Y-109334119D01*
X202753557Y-109406073D01*
X202853586Y-109459540D01*
X202962124Y-109492465D01*
X203075000Y-109503582D01*
X204325000Y-109503582D01*
X204437876Y-109492465D01*
X204546414Y-109459540D01*
X204646443Y-109406073D01*
X204734119Y-109334119D01*
X204806073Y-109246443D01*
X204859540Y-109146414D01*
X204892465Y-109037876D01*
X204903582Y-108925000D01*
X204903582Y-108175000D01*
X204892465Y-108062124D01*
X204859540Y-107953586D01*
X204806073Y-107853557D01*
X204734119Y-107765881D01*
X204707035Y-107743654D01*
X205486258Y-106977000D01*
X207237384Y-106976999D01*
X207281555Y-106978932D01*
X207322217Y-106972677D01*
X207363112Y-106968649D01*
X207378247Y-106964058D01*
X207393893Y-106961651D01*
X207432542Y-106947588D01*
X207471876Y-106935656D01*
X207485829Y-106928198D01*
X207500700Y-106922787D01*
X207535850Y-106901461D01*
X207572115Y-106882078D01*
X207606278Y-106854041D01*
X208242333Y-106377000D01*
X208623000Y-106377000D01*
X208623000Y-114423000D01*
X204277000Y-114423000D01*
X204277000Y-112303582D01*
X204325000Y-112303582D01*
X204437876Y-112292465D01*
X204546414Y-112259540D01*
X204646443Y-112206073D01*
X204734119Y-112134119D01*
X204806073Y-112046443D01*
X204859540Y-111946414D01*
X204892465Y-111837876D01*
X204903582Y-111725000D01*
X204903582Y-110975000D01*
X204892465Y-110862124D01*
X204859540Y-110753586D01*
X204806073Y-110653557D01*
X204734119Y-110565881D01*
X204646443Y-110493927D01*
X204546414Y-110440460D01*
X204437876Y-110407535D01*
X204325000Y-110396418D01*
X203075000Y-110396418D01*
X202962124Y-110407535D01*
X202853586Y-110440460D01*
X202753557Y-110493927D01*
X202665881Y-110565881D01*
X202593927Y-110653557D01*
X202540460Y-110753586D01*
X202507535Y-110862124D01*
X202496418Y-110975000D01*
X202496418Y-111725000D01*
X202507535Y-111837876D01*
X202540460Y-111946414D01*
X202593927Y-112046443D01*
X202665881Y-112134119D01*
X202753557Y-112206073D01*
X202853586Y-112259540D01*
X202962124Y-112292465D01*
X203075000Y-112303582D01*
X203123000Y-112303582D01*
X203123000Y-114423000D01*
X198877000Y-114423000D01*
X198877000Y-106377000D01*
X204450661Y-106377000D01*
M02*
