G04 #@! TF.GenerationSoftware,KiCad,Pcbnew,(5.1.5)-3*
G04 #@! TF.CreationDate,2020-08-22T08:16:36+03:00*
G04 #@! TF.ProjectId,C5W LED series,43355720-4c45-4442-9073-65726965732e,rev?*
G04 #@! TF.SameCoordinates,Original*
G04 #@! TF.FileFunction,Paste,Top*
G04 #@! TF.FilePolarity,Positive*
%FSLAX46Y46*%
G04 Gerber Fmt 4.6, Leading zero omitted, Abs format (unit mm)*
G04 Created by KiCad (PCBNEW (5.1.5)-3) date 2020-08-22 08:16:36*
%MOMM*%
%LPD*%
G04 APERTURE LIST*
%ADD10R,1.500000X2.400000*%
%ADD11R,1.500000X1.050000*%
%ADD12R,2.200000X1.250000*%
%ADD13R,2.200000X2.200000*%
G04 APERTURE END LIST*
D10*
X203700000Y-96700000D03*
D11*
X203700000Y-99075000D03*
D12*
X149700000Y-115525000D03*
D13*
X149700000Y-113250000D03*
D12*
X203700000Y-115525000D03*
D13*
X203700000Y-113250000D03*
X163200000Y-113250000D03*
D12*
X163200000Y-115525000D03*
D10*
X149700000Y-96700000D03*
D11*
X149700000Y-99075000D03*
D12*
X149700000Y-107125000D03*
D13*
X149700000Y-104850000D03*
D12*
X203700000Y-107125000D03*
D13*
X203700000Y-104850000D03*
X190200000Y-104850000D03*
D12*
X190200000Y-107125000D03*
D13*
X163200000Y-104850000D03*
D12*
X163200000Y-107125000D03*
D13*
X190200000Y-113250000D03*
D12*
X190200000Y-115525000D03*
X176700000Y-115525000D03*
D13*
X176700000Y-113250000D03*
D11*
X163200000Y-99075000D03*
D10*
X163200000Y-96700000D03*
D12*
X176700000Y-107125000D03*
D13*
X176700000Y-104850000D03*
D11*
X190200000Y-99075000D03*
D10*
X190200000Y-96700000D03*
X176700000Y-96700000D03*
D11*
X176700000Y-99075000D03*
D13*
X136200000Y-113250000D03*
D12*
X136200000Y-115525000D03*
D13*
X136200000Y-104850000D03*
D12*
X136200000Y-107125000D03*
D11*
X136200000Y-99075000D03*
D10*
X136200000Y-96700000D03*
D13*
X203700000Y-67950000D03*
D12*
X203700000Y-70225000D03*
D13*
X203700000Y-76350000D03*
D12*
X203700000Y-78625000D03*
D11*
X203700000Y-62175000D03*
D10*
X203700000Y-59800000D03*
D12*
X190200000Y-78625000D03*
D13*
X190200000Y-76350000D03*
D12*
X190200000Y-70225000D03*
D13*
X190200000Y-67950000D03*
D10*
X190200000Y-59800000D03*
D11*
X190200000Y-62175000D03*
D13*
X176700000Y-76350000D03*
D12*
X176700000Y-78625000D03*
D13*
X176700000Y-67950000D03*
D12*
X176700000Y-70225000D03*
D11*
X176700000Y-62175000D03*
D10*
X176700000Y-59800000D03*
D12*
X163200000Y-78625000D03*
D13*
X163200000Y-76350000D03*
D10*
X163200000Y-59800000D03*
D11*
X163200000Y-62175000D03*
D12*
X163200000Y-70225000D03*
D13*
X163200000Y-67950000D03*
X149700000Y-76350000D03*
D12*
X149700000Y-78625000D03*
D13*
X149700000Y-67950000D03*
D12*
X149700000Y-70225000D03*
D11*
X149700000Y-62175000D03*
D10*
X149700000Y-59800000D03*
D12*
X136200000Y-70225000D03*
D13*
X136200000Y-67950000D03*
D12*
X136200000Y-78625000D03*
D13*
X136200000Y-76350000D03*
D10*
X136200000Y-59800000D03*
D11*
X136200000Y-62175000D03*
M02*
