M48
; DRILL file {KiCad (5.1.5)-3} date 22-Aug-20 8:16:31 AM
; FORMAT={-:-/ absolute / inch / decimal}
; #@! TF.CreationDate,2020-08-22T08:16:31+03:00
; #@! TF.GenerationSoftware,Kicad,Pcbnew,(5.1.5)-3
; #@! TF.FileFunction,Plated,1,2,PTH
FMAT,2
INCH
T1C0.0157
%
G90
G05
T1
X5.2362Y-2.7756
X5.2362Y-2.8248
X5.2362Y-2.874
X5.2362Y-2.9232
X5.2362Y-2.9724
X5.2362Y-3.0217
X5.2362Y-4.2283
X5.2362Y-4.2776
X5.2362Y-4.3268
X5.2362Y-4.376
X5.2362Y-4.4252
X5.2362Y-4.4744
X5.2756Y-2.5197
X5.2756Y-2.5591
X5.2756Y-2.5984
X5.2756Y-2.6476
X5.2756Y-2.6969
X5.2756Y-2.7756
X5.2756Y-2.8248
X5.2756Y-2.874
X5.2756Y-2.9232
X5.2756Y-2.9724
X5.2756Y-3.0217
X5.2756Y-3.1004
X5.2756Y-3.1496
X5.2756Y-3.189
X5.2756Y-3.2283
X5.2756Y-3.9724
X5.2756Y-4.0118
X5.2756Y-4.0512
X5.2756Y-4.1004
X5.2756Y-4.1496
X5.2756Y-4.2283
X5.2756Y-4.2776
X5.2756Y-4.3268
X5.2756Y-4.376
X5.2756Y-4.4252
X5.2756Y-4.4744
X5.2756Y-4.5531
X5.2756Y-4.6024
X5.2756Y-4.6417
X5.2756Y-4.6811
X5.2854Y-2.3031
X5.2854Y-2.3425
X5.2854Y-2.3819
X5.2854Y-3.7559
X5.2854Y-3.7953
X5.2854Y-3.8346
X5.315Y-2.5197
X5.315Y-2.5591
X5.315Y-2.5984
X5.315Y-3.1496
X5.315Y-3.189
X5.315Y-3.2283
X5.315Y-3.9724
X5.315Y-4.0118
X5.315Y-4.0512
X5.315Y-4.6024
X5.315Y-4.6417
X5.315Y-4.6811
X5.3248Y-2.2736
X5.3248Y-3.7264
X5.3642Y-2.2736
X5.3642Y-2.5197
X5.3642Y-2.5591
X5.3642Y-2.5984
X5.3642Y-3.1496
X5.3642Y-3.189
X5.3642Y-3.2283
X5.3642Y-3.7264
X5.3642Y-3.9724
X5.3642Y-4.0118
X5.3642Y-4.0512
X5.3642Y-4.6024
X5.3642Y-4.6417
X5.3642Y-4.6811
X5.4035Y-2.2736
X5.4035Y-3.7264
X5.4134Y-2.5197
X5.4134Y-2.5591
X5.4134Y-2.5984
X5.4134Y-3.1496
X5.4134Y-3.189
X5.4134Y-3.2283
X5.4134Y-3.9724
X5.4134Y-4.0118
X5.4134Y-4.0512
X5.4134Y-4.6024
X5.4134Y-4.6417
X5.4134Y-4.6811
X5.4331Y-2.3031
X5.4331Y-2.3425
X5.4331Y-2.3819
X5.4331Y-3.7559
X5.4331Y-3.7953
X5.4331Y-3.8346
X5.4528Y-2.5197
X5.4528Y-2.5591
X5.4528Y-2.5984
X5.4528Y-2.6476
X5.4528Y-2.6969
X5.4528Y-2.7756
X5.4528Y-2.8248
X5.4528Y-2.874
X5.4528Y-2.9232
X5.4528Y-2.9724
X5.4528Y-3.0217
X5.4528Y-3.1004
X5.4528Y-3.1496
X5.4528Y-3.189
X5.4528Y-3.2283
X5.4528Y-3.9724
X5.4528Y-4.0118
X5.4528Y-4.0512
X5.4528Y-4.1004
X5.4528Y-4.1496
X5.4528Y-4.2283
X5.4528Y-4.2776
X5.4528Y-4.3268
X5.4528Y-4.376
X5.4528Y-4.4252
X5.4528Y-4.4744
X5.4528Y-4.5531
X5.4528Y-4.6024
X5.4528Y-4.6417
X5.4528Y-4.6811
X5.4921Y-2.7756
X5.4921Y-2.8248
X5.4921Y-2.874
X5.4921Y-2.9232
X5.4921Y-2.9724
X5.4921Y-3.0217
X5.4921Y-4.2283
X5.4921Y-4.2776
X5.4921Y-4.3268
X5.4921Y-4.376
X5.4921Y-4.4252
X5.4921Y-4.4744
X5.7677Y-2.7756
X5.7677Y-2.8248
X5.7677Y-2.874
X5.7677Y-2.9232
X5.7677Y-2.9724
X5.7677Y-3.0217
X5.7677Y-4.2283
X5.7677Y-4.2776
X5.7677Y-4.3268
X5.7677Y-4.376
X5.7677Y-4.4252
X5.7677Y-4.4744
X5.8071Y-2.5197
X5.8071Y-2.5591
X5.8071Y-2.5984
X5.8071Y-2.6476
X5.8071Y-2.6969
X5.8071Y-2.7756
X5.8071Y-2.8248
X5.8071Y-2.874
X5.8071Y-2.9232
X5.8071Y-2.9724
X5.8071Y-3.0217
X5.8071Y-3.1004
X5.8071Y-3.1496
X5.8071Y-3.189
X5.8071Y-3.2283
X5.8071Y-3.9724
X5.8071Y-4.0118
X5.8071Y-4.0512
X5.8071Y-4.1004
X5.8071Y-4.1496
X5.8071Y-4.2283
X5.8071Y-4.2776
X5.8071Y-4.3268
X5.8071Y-4.376
X5.8071Y-4.4252
X5.8071Y-4.4744
X5.8071Y-4.5531
X5.8071Y-4.6024
X5.8071Y-4.6417
X5.8071Y-4.6811
X5.8169Y-2.3031
X5.8169Y-2.3425
X5.8169Y-2.3819
X5.8169Y-3.7559
X5.8169Y-3.7953
X5.8169Y-3.8346
X5.8465Y-2.5197
X5.8465Y-2.5591
X5.8465Y-2.5984
X5.8465Y-3.1496
X5.8465Y-3.189
X5.8465Y-3.2283
X5.8465Y-3.9724
X5.8465Y-4.0118
X5.8465Y-4.0512
X5.8465Y-4.6024
X5.8465Y-4.6417
X5.8465Y-4.6811
X5.8563Y-2.2736
X5.8563Y-3.7264
X5.8957Y-2.2736
X5.8957Y-2.5197
X5.8957Y-2.5591
X5.8957Y-2.5984
X5.8957Y-3.1496
X5.8957Y-3.189
X5.8957Y-3.2283
X5.8957Y-3.7264
X5.8957Y-3.9724
X5.8957Y-4.0118
X5.8957Y-4.0512
X5.8957Y-4.6024
X5.8957Y-4.6417
X5.8957Y-4.6811
X5.935Y-2.2736
X5.935Y-3.7264
X5.9449Y-2.5197
X5.9449Y-2.5591
X5.9449Y-2.5984
X5.9449Y-3.1496
X5.9449Y-3.189
X5.9449Y-3.2283
X5.9449Y-3.9724
X5.9449Y-4.0118
X5.9449Y-4.0512
X5.9449Y-4.6024
X5.9449Y-4.6417
X5.9449Y-4.6811
X5.9646Y-2.3031
X5.9646Y-2.3425
X5.9646Y-2.3819
X5.9646Y-3.7559
X5.9646Y-3.7953
X5.9646Y-3.8346
X5.9843Y-2.5197
X5.9843Y-2.5591
X5.9843Y-2.5984
X5.9843Y-2.6476
X5.9843Y-2.6969
X5.9843Y-2.7756
X5.9843Y-2.8248
X5.9843Y-2.874
X5.9843Y-2.9232
X5.9843Y-2.9724
X5.9843Y-3.0217
X5.9843Y-3.1004
X5.9843Y-3.1496
X5.9843Y-3.189
X5.9843Y-3.2283
X5.9843Y-3.9724
X5.9843Y-4.0118
X5.9843Y-4.0512
X5.9843Y-4.1004
X5.9843Y-4.1496
X5.9843Y-4.2283
X5.9843Y-4.2776
X5.9843Y-4.3268
X5.9843Y-4.376
X5.9843Y-4.4252
X5.9843Y-4.4744
X5.9843Y-4.5531
X5.9843Y-4.6024
X5.9843Y-4.6417
X5.9843Y-4.6811
X6.0236Y-2.7756
X6.0236Y-2.8248
X6.0236Y-2.874
X6.0236Y-2.9232
X6.0236Y-2.9724
X6.0236Y-3.0217
X6.0236Y-4.2283
X6.0236Y-4.2776
X6.0236Y-4.3268
X6.0236Y-4.376
X6.0236Y-4.4252
X6.0236Y-4.4744
X6.2992Y-2.7756
X6.2992Y-2.8248
X6.2992Y-2.874
X6.2992Y-2.9232
X6.2992Y-2.9724
X6.2992Y-3.0217
X6.2992Y-4.2283
X6.2992Y-4.2776
X6.2992Y-4.3268
X6.2992Y-4.376
X6.2992Y-4.4252
X6.2992Y-4.4744
X6.3386Y-2.5197
X6.3386Y-2.5591
X6.3386Y-2.5984
X6.3386Y-2.6476
X6.3386Y-2.6969
X6.3386Y-2.7756
X6.3386Y-2.8248
X6.3386Y-2.874
X6.3386Y-2.9232
X6.3386Y-2.9724
X6.3386Y-3.0217
X6.3386Y-3.1004
X6.3386Y-3.1496
X6.3386Y-3.189
X6.3386Y-3.2283
X6.3386Y-3.9724
X6.3386Y-4.0118
X6.3386Y-4.0512
X6.3386Y-4.1004
X6.3386Y-4.1496
X6.3386Y-4.2283
X6.3386Y-4.2776
X6.3386Y-4.3268
X6.3386Y-4.376
X6.3386Y-4.4252
X6.3386Y-4.4744
X6.3386Y-4.5531
X6.3386Y-4.6024
X6.3386Y-4.6417
X6.3386Y-4.6811
X6.3484Y-2.3031
X6.3484Y-2.3425
X6.3484Y-2.3819
X6.3484Y-3.7559
X6.3484Y-3.7953
X6.3484Y-3.8346
X6.378Y-2.5197
X6.378Y-2.5591
X6.378Y-2.5984
X6.378Y-3.1496
X6.378Y-3.189
X6.378Y-3.2283
X6.378Y-3.9724
X6.378Y-4.0118
X6.378Y-4.0512
X6.378Y-4.6024
X6.378Y-4.6417
X6.378Y-4.6811
X6.3878Y-2.2736
X6.3878Y-3.7264
X6.4272Y-2.2736
X6.4272Y-2.5197
X6.4272Y-2.5591
X6.4272Y-2.5984
X6.4272Y-3.1496
X6.4272Y-3.189
X6.4272Y-3.2283
X6.4272Y-3.7264
X6.4272Y-3.9724
X6.4272Y-4.0118
X6.4272Y-4.0512
X6.4272Y-4.6024
X6.4272Y-4.6417
X6.4272Y-4.6811
X6.4665Y-2.2736
X6.4665Y-3.7264
X6.4764Y-2.5197
X6.4764Y-2.5591
X6.4764Y-2.5984
X6.4764Y-3.1496
X6.4764Y-3.189
X6.4764Y-3.2283
X6.4764Y-3.9724
X6.4764Y-4.0118
X6.4764Y-4.0512
X6.4764Y-4.6024
X6.4764Y-4.6417
X6.4764Y-4.6811
X6.4961Y-2.3031
X6.4961Y-2.3425
X6.4961Y-2.3819
X6.4961Y-3.7559
X6.4961Y-3.7953
X6.4961Y-3.8346
X6.5157Y-2.5197
X6.5157Y-2.5591
X6.5157Y-2.5984
X6.5157Y-2.6476
X6.5157Y-2.6969
X6.5157Y-2.7756
X6.5157Y-2.8248
X6.5157Y-2.874
X6.5157Y-2.9232
X6.5157Y-2.9724
X6.5157Y-3.0217
X6.5157Y-3.1004
X6.5157Y-3.1496
X6.5157Y-3.189
X6.5157Y-3.2283
X6.5157Y-3.9724
X6.5157Y-4.0118
X6.5157Y-4.0512
X6.5157Y-4.1004
X6.5157Y-4.1496
X6.5157Y-4.2283
X6.5157Y-4.2776
X6.5157Y-4.3268
X6.5157Y-4.376
X6.5157Y-4.4252
X6.5157Y-4.4744
X6.5157Y-4.5531
X6.5157Y-4.6024
X6.5157Y-4.6417
X6.5157Y-4.6811
X6.5551Y-2.7756
X6.5551Y-2.8248
X6.5551Y-2.874
X6.5551Y-2.9232
X6.5551Y-2.9724
X6.5551Y-3.0217
X6.5551Y-4.2283
X6.5551Y-4.2776
X6.5551Y-4.3268
X6.5551Y-4.376
X6.5551Y-4.4252
X6.5551Y-4.4744
X6.8307Y-2.7756
X6.8307Y-2.8248
X6.8307Y-2.874
X6.8307Y-2.9232
X6.8307Y-2.9724
X6.8307Y-3.0217
X6.8307Y-4.2283
X6.8307Y-4.2776
X6.8307Y-4.3268
X6.8307Y-4.376
X6.8307Y-4.4252
X6.8307Y-4.4744
X6.8701Y-2.5197
X6.8701Y-2.5591
X6.8701Y-2.5984
X6.8701Y-2.6476
X6.8701Y-2.6969
X6.8701Y-2.7756
X6.8701Y-2.8248
X6.8701Y-2.874
X6.8701Y-2.9232
X6.8701Y-2.9724
X6.8701Y-3.0217
X6.8701Y-3.1004
X6.8701Y-3.1496
X6.8701Y-3.189
X6.8701Y-3.2283
X6.8701Y-3.9724
X6.8701Y-4.0118
X6.8701Y-4.0512
X6.8701Y-4.1004
X6.8701Y-4.1496
X6.8701Y-4.2283
X6.8701Y-4.2776
X6.8701Y-4.3268
X6.8701Y-4.376
X6.8701Y-4.4252
X6.8701Y-4.4744
X6.8701Y-4.5531
X6.8701Y-4.6024
X6.8701Y-4.6417
X6.8701Y-4.6811
X6.8799Y-2.3031
X6.8799Y-2.3425
X6.8799Y-2.3819
X6.8799Y-3.7559
X6.8799Y-3.7953
X6.8799Y-3.8346
X6.9094Y-2.5197
X6.9094Y-2.5591
X6.9094Y-2.5984
X6.9094Y-3.1496
X6.9094Y-3.189
X6.9094Y-3.2283
X6.9094Y-3.9724
X6.9094Y-4.0118
X6.9094Y-4.0512
X6.9094Y-4.6024
X6.9094Y-4.6417
X6.9094Y-4.6811
X6.9193Y-2.2736
X6.9193Y-3.7264
X6.9587Y-2.2736
X6.9587Y-2.5197
X6.9587Y-2.5591
X6.9587Y-2.5984
X6.9587Y-3.1496
X6.9587Y-3.189
X6.9587Y-3.2283
X6.9587Y-3.7264
X6.9587Y-3.9724
X6.9587Y-4.0118
X6.9587Y-4.0512
X6.9587Y-4.6024
X6.9587Y-4.6417
X6.9587Y-4.6811
X6.998Y-2.2736
X6.998Y-3.7264
X7.0079Y-2.5197
X7.0079Y-2.5591
X7.0079Y-2.5984
X7.0079Y-3.1496
X7.0079Y-3.189
X7.0079Y-3.2283
X7.0079Y-3.9724
X7.0079Y-4.0118
X7.0079Y-4.0512
X7.0079Y-4.6024
X7.0079Y-4.6417
X7.0079Y-4.6811
X7.0276Y-2.3031
X7.0276Y-2.3425
X7.0276Y-2.3819
X7.0276Y-3.7559
X7.0276Y-3.7953
X7.0276Y-3.8346
X7.0472Y-2.5197
X7.0472Y-2.5591
X7.0472Y-2.5984
X7.0472Y-2.6476
X7.0472Y-2.6969
X7.0472Y-2.7756
X7.0472Y-2.8248
X7.0472Y-2.874
X7.0472Y-2.9232
X7.0472Y-2.9724
X7.0472Y-3.0217
X7.0472Y-3.1004
X7.0472Y-3.1496
X7.0472Y-3.189
X7.0472Y-3.2283
X7.0472Y-3.9724
X7.0472Y-4.0118
X7.0472Y-4.0512
X7.0472Y-4.1004
X7.0472Y-4.1496
X7.0472Y-4.2283
X7.0472Y-4.2776
X7.0472Y-4.3268
X7.0472Y-4.376
X7.0472Y-4.4252
X7.0472Y-4.4744
X7.0472Y-4.5531
X7.0472Y-4.6024
X7.0472Y-4.6417
X7.0472Y-4.6811
X7.0866Y-2.7756
X7.0866Y-2.8248
X7.0866Y-2.874
X7.0866Y-2.9232
X7.0866Y-2.9724
X7.0866Y-3.0217
X7.0866Y-4.2283
X7.0866Y-4.2776
X7.0866Y-4.3268
X7.0866Y-4.376
X7.0866Y-4.4252
X7.0866Y-4.4744
X7.3622Y-2.7756
X7.3622Y-2.8248
X7.3622Y-2.874
X7.3622Y-2.9232
X7.3622Y-2.9724
X7.3622Y-3.0217
X7.3622Y-4.2283
X7.3622Y-4.2776
X7.3622Y-4.3268
X7.3622Y-4.376
X7.3622Y-4.4252
X7.3622Y-4.4744
X7.4016Y-2.5197
X7.4016Y-2.5591
X7.4016Y-2.5984
X7.4016Y-2.6476
X7.4016Y-2.6969
X7.4016Y-2.7756
X7.4016Y-2.8248
X7.4016Y-2.874
X7.4016Y-2.9232
X7.4016Y-2.9724
X7.4016Y-3.0217
X7.4016Y-3.1004
X7.4016Y-3.1496
X7.4016Y-3.189
X7.4016Y-3.2283
X7.4016Y-3.9724
X7.4016Y-4.0118
X7.4016Y-4.0512
X7.4016Y-4.1004
X7.4016Y-4.1496
X7.4016Y-4.2283
X7.4016Y-4.2776
X7.4016Y-4.3268
X7.4016Y-4.376
X7.4016Y-4.4252
X7.4016Y-4.4744
X7.4016Y-4.5531
X7.4016Y-4.6024
X7.4016Y-4.6417
X7.4016Y-4.6811
X7.4114Y-2.3031
X7.4114Y-2.3425
X7.4114Y-2.3819
X7.4114Y-3.7559
X7.4114Y-3.7953
X7.4114Y-3.8346
X7.4409Y-2.5197
X7.4409Y-2.5591
X7.4409Y-2.5984
X7.4409Y-3.1496
X7.4409Y-3.189
X7.4409Y-3.2283
X7.4409Y-3.9724
X7.4409Y-4.0118
X7.4409Y-4.0512
X7.4409Y-4.6024
X7.4409Y-4.6417
X7.4409Y-4.6811
X7.4508Y-2.2736
X7.4508Y-3.7264
X7.4902Y-2.2736
X7.4902Y-2.5197
X7.4902Y-2.5591
X7.4902Y-2.5984
X7.4902Y-3.1496
X7.4902Y-3.189
X7.4902Y-3.2283
X7.4902Y-3.7264
X7.4902Y-3.9724
X7.4902Y-4.0118
X7.4902Y-4.0512
X7.4902Y-4.6024
X7.4902Y-4.6417
X7.4902Y-4.6811
X7.5295Y-2.2736
X7.5295Y-3.7264
X7.5394Y-2.5197
X7.5394Y-2.5591
X7.5394Y-2.5984
X7.5394Y-3.1496
X7.5394Y-3.189
X7.5394Y-3.2283
X7.5394Y-3.9724
X7.5394Y-4.0118
X7.5394Y-4.0512
X7.5394Y-4.6024
X7.5394Y-4.6417
X7.5394Y-4.6811
X7.5591Y-2.3031
X7.5591Y-2.3425
X7.5591Y-2.3819
X7.5591Y-3.7559
X7.5591Y-3.7953
X7.5591Y-3.8346
X7.5787Y-2.5197
X7.5787Y-2.5591
X7.5787Y-2.5984
X7.5787Y-2.6476
X7.5787Y-2.6969
X7.5787Y-2.7756
X7.5787Y-2.8248
X7.5787Y-2.874
X7.5787Y-2.9232
X7.5787Y-2.9724
X7.5787Y-3.0217
X7.5787Y-3.1004
X7.5787Y-3.1496
X7.5787Y-3.189
X7.5787Y-3.2283
X7.5787Y-3.9724
X7.5787Y-4.0118
X7.5787Y-4.0512
X7.5787Y-4.1004
X7.5787Y-4.1496
X7.5787Y-4.2283
X7.5787Y-4.2776
X7.5787Y-4.3268
X7.5787Y-4.376
X7.5787Y-4.4252
X7.5787Y-4.4744
X7.5787Y-4.5531
X7.5787Y-4.6024
X7.5787Y-4.6417
X7.5787Y-4.6811
X7.6181Y-2.7756
X7.6181Y-2.8248
X7.6181Y-2.874
X7.6181Y-2.9232
X7.6181Y-2.9724
X7.6181Y-3.0217
X7.6181Y-4.2283
X7.6181Y-4.2776
X7.6181Y-4.3268
X7.6181Y-4.376
X7.6181Y-4.4252
X7.6181Y-4.4744
X7.8937Y-2.7756
X7.8937Y-2.8248
X7.8937Y-2.874
X7.8937Y-2.9232
X7.8937Y-2.9724
X7.8937Y-3.0217
X7.8937Y-4.2283
X7.8937Y-4.2776
X7.8937Y-4.3268
X7.8937Y-4.376
X7.8937Y-4.4252
X7.8937Y-4.4744
X7.9331Y-2.5197
X7.9331Y-2.5591
X7.9331Y-2.5984
X7.9331Y-2.6476
X7.9331Y-2.6969
X7.9331Y-2.7756
X7.9331Y-2.8248
X7.9331Y-2.874
X7.9331Y-2.9232
X7.9331Y-2.9724
X7.9331Y-3.0217
X7.9331Y-3.1004
X7.9331Y-3.1496
X7.9331Y-3.189
X7.9331Y-3.2283
X7.9331Y-3.9724
X7.9331Y-4.0118
X7.9331Y-4.0512
X7.9331Y-4.1004
X7.9331Y-4.1496
X7.9331Y-4.2283
X7.9331Y-4.2776
X7.9331Y-4.3268
X7.9331Y-4.376
X7.9331Y-4.4252
X7.9331Y-4.4744
X7.9331Y-4.5531
X7.9331Y-4.6024
X7.9331Y-4.6417
X7.9331Y-4.6811
X7.9429Y-2.3031
X7.9429Y-2.3425
X7.9429Y-2.3819
X7.9429Y-3.7559
X7.9429Y-3.7953
X7.9429Y-3.8346
X7.9724Y-2.5197
X7.9724Y-2.5591
X7.9724Y-2.5984
X7.9724Y-3.1496
X7.9724Y-3.189
X7.9724Y-3.2283
X7.9724Y-3.9724
X7.9724Y-4.0118
X7.9724Y-4.0512
X7.9724Y-4.6024
X7.9724Y-4.6417
X7.9724Y-4.6811
X7.9823Y-2.2736
X7.9823Y-3.7264
X8.0217Y-2.2736
X8.0217Y-2.5197
X8.0217Y-2.5591
X8.0217Y-2.5984
X8.0217Y-3.1496
X8.0217Y-3.189
X8.0217Y-3.2283
X8.0217Y-3.7264
X8.0217Y-3.9724
X8.0217Y-4.0118
X8.0217Y-4.0512
X8.0217Y-4.6024
X8.0217Y-4.6417
X8.0217Y-4.6811
X8.061Y-2.2736
X8.061Y-3.7264
X8.0709Y-2.5197
X8.0709Y-2.5591
X8.0709Y-2.5984
X8.0709Y-3.1496
X8.0709Y-3.189
X8.0709Y-3.2283
X8.0709Y-3.9724
X8.0709Y-4.0118
X8.0709Y-4.0512
X8.0709Y-4.6024
X8.0709Y-4.6417
X8.0709Y-4.6811
X8.0906Y-2.3031
X8.0906Y-2.3425
X8.0906Y-2.3819
X8.0906Y-3.7559
X8.0906Y-3.7953
X8.0906Y-3.8346
X8.1102Y-2.5197
X8.1102Y-2.5591
X8.1102Y-2.5984
X8.1102Y-2.6476
X8.1102Y-2.6969
X8.1102Y-2.7756
X8.1102Y-2.8248
X8.1102Y-2.874
X8.1102Y-2.9232
X8.1102Y-2.9724
X8.1102Y-3.0217
X8.1102Y-3.1004
X8.1102Y-3.1496
X8.1102Y-3.189
X8.1102Y-3.2283
X8.1102Y-3.9724
X8.1102Y-4.0118
X8.1102Y-4.0512
X8.1102Y-4.1004
X8.1102Y-4.1496
X8.1102Y-4.2283
X8.1102Y-4.2776
X8.1102Y-4.3268
X8.1102Y-4.376
X8.1102Y-4.4252
X8.1102Y-4.4744
X8.1102Y-4.5531
X8.1102Y-4.6024
X8.1102Y-4.6417
X8.1102Y-4.6811
X8.1496Y-2.7756
X8.1496Y-2.8248
X8.1496Y-2.874
X8.1496Y-2.9232
X8.1496Y-2.9724
X8.1496Y-3.0217
X8.1496Y-4.2283
X8.1496Y-4.2776
X8.1496Y-4.3268
X8.1496Y-4.376
X8.1496Y-4.4252
X8.1496Y-4.4744
T0
M30
