G04 #@! TF.GenerationSoftware,KiCad,Pcbnew,(5.1.5)-3*
G04 #@! TF.CreationDate,2020-08-22T08:16:36+03:00*
G04 #@! TF.ProjectId,C5W LED series,43355720-4c45-4442-9073-65726965732e,rev?*
G04 #@! TF.SameCoordinates,Original*
G04 #@! TF.FileFunction,Soldermask,Top*
G04 #@! TF.FilePolarity,Negative*
%FSLAX46Y46*%
G04 Gerber Fmt 4.6, Leading zero omitted, Abs format (unit mm)*
G04 Created by KiCad (PCBNEW (5.1.5)-3) date 2020-08-22 08:16:36*
%MOMM*%
%LPD*%
G04 APERTURE LIST*
%ADD10C,0.100000*%
%ADD11C,1.500000*%
%ADD12C,0.500000*%
%ADD13R,1.500000X2.400000*%
%ADD14R,1.500000X1.050000*%
%ADD15R,2.200000X1.250000*%
%ADD16R,2.200000X2.200000*%
G04 APERTURE END LIST*
D10*
G36*
X178400000Y-119450000D02*
G01*
X175100000Y-119450000D01*
X175100000Y-116450000D01*
X178400000Y-116450000D01*
X178400000Y-119450000D01*
G37*
X178400000Y-119450000D02*
X175100000Y-119450000D01*
X175100000Y-116450000D01*
X178400000Y-116450000D01*
X178400000Y-119450000D01*
G36*
X168500000Y-119450000D02*
G01*
X164900000Y-119450000D01*
X164900000Y-100350000D01*
X168500000Y-100350000D01*
X168500000Y-119450000D01*
G37*
X168500000Y-119450000D02*
X164900000Y-119450000D01*
X164900000Y-100350000D01*
X168500000Y-100350000D01*
X168500000Y-119450000D01*
G36*
X164900000Y-119450000D02*
G01*
X161600000Y-119450000D01*
X161600000Y-116450000D01*
X164900000Y-116450000D01*
X164900000Y-119450000D01*
G37*
X164900000Y-119450000D02*
X161600000Y-119450000D01*
X161600000Y-116450000D01*
X164900000Y-116450000D01*
X164900000Y-119450000D01*
G36*
X175100000Y-119450000D02*
G01*
X171500000Y-119450000D01*
X171500000Y-100350000D01*
X175100000Y-100350000D01*
X175100000Y-119450000D01*
G37*
X175100000Y-119450000D02*
X171500000Y-119450000D01*
X171500000Y-100350000D01*
X175100000Y-100350000D01*
X175100000Y-119450000D01*
G36*
X178300000Y-111850000D02*
G01*
X175100000Y-111850000D01*
X175100000Y-107950000D01*
X178300000Y-107950000D01*
X178300000Y-111850000D01*
G37*
X178300000Y-111850000D02*
X175100000Y-111850000D01*
X175100000Y-107950000D01*
X178300000Y-107950000D01*
X178300000Y-111850000D01*
G36*
X182000000Y-119450000D02*
G01*
X178400000Y-119450000D01*
X178400000Y-100350000D01*
X182000000Y-100350000D01*
X182000000Y-119450000D01*
G37*
X182000000Y-119450000D02*
X178400000Y-119450000D01*
X178400000Y-100350000D01*
X182000000Y-100350000D01*
X182000000Y-119450000D01*
G36*
X178400000Y-103350000D02*
G01*
X175100000Y-103350000D01*
X175100000Y-100350000D01*
X178400000Y-100350000D01*
X178400000Y-103350000D01*
G37*
X178400000Y-103350000D02*
X175100000Y-103350000D01*
X175100000Y-100350000D01*
X178400000Y-100350000D01*
X178400000Y-103350000D01*
G36*
X151400000Y-119450000D02*
G01*
X148100000Y-119450000D01*
X148100000Y-116450000D01*
X151400000Y-116450000D01*
X151400000Y-119450000D01*
G37*
X151400000Y-119450000D02*
X148100000Y-119450000D01*
X148100000Y-116450000D01*
X151400000Y-116450000D01*
X151400000Y-119450000D01*
G36*
X155000000Y-119450000D02*
G01*
X151400000Y-119450000D01*
X151400000Y-100350000D01*
X155000000Y-100350000D01*
X155000000Y-119450000D01*
G37*
X155000000Y-119450000D02*
X151400000Y-119450000D01*
X151400000Y-100350000D01*
X155000000Y-100350000D01*
X155000000Y-119450000D01*
G36*
X164800000Y-111850000D02*
G01*
X161600000Y-111850000D01*
X161600000Y-107950000D01*
X164800000Y-107950000D01*
X164800000Y-111850000D01*
G37*
X164800000Y-111850000D02*
X161600000Y-111850000D01*
X161600000Y-107950000D01*
X164800000Y-107950000D01*
X164800000Y-111850000D01*
G36*
X151300000Y-111850000D02*
G01*
X148100000Y-111850000D01*
X148100000Y-107950000D01*
X151300000Y-107950000D01*
X151300000Y-111850000D01*
G37*
X151300000Y-111850000D02*
X148100000Y-111850000D01*
X148100000Y-107950000D01*
X151300000Y-107950000D01*
X151300000Y-111850000D01*
G36*
X148100000Y-119450000D02*
G01*
X144500000Y-119450000D01*
X144500000Y-100350000D01*
X148100000Y-100350000D01*
X148100000Y-119450000D01*
G37*
X148100000Y-119450000D02*
X144500000Y-119450000D01*
X144500000Y-100350000D01*
X148100000Y-100350000D01*
X148100000Y-119450000D01*
G36*
X164900000Y-103350000D02*
G01*
X161600000Y-103350000D01*
X161600000Y-100350000D01*
X164900000Y-100350000D01*
X164900000Y-103350000D01*
G37*
X164900000Y-103350000D02*
X161600000Y-103350000D01*
X161600000Y-100350000D01*
X164900000Y-100350000D01*
X164900000Y-103350000D01*
G36*
X161600000Y-119450000D02*
G01*
X158000000Y-119450000D01*
X158000000Y-100350000D01*
X161600000Y-100350000D01*
X161600000Y-119450000D01*
G37*
X161600000Y-119450000D02*
X158000000Y-119450000D01*
X158000000Y-100350000D01*
X161600000Y-100350000D01*
X161600000Y-119450000D01*
G36*
X151400000Y-103350000D02*
G01*
X148100000Y-103350000D01*
X148100000Y-100350000D01*
X151400000Y-100350000D01*
X151400000Y-103350000D01*
G37*
X151400000Y-103350000D02*
X148100000Y-103350000D01*
X148100000Y-100350000D01*
X151400000Y-100350000D01*
X151400000Y-103350000D01*
G36*
X188600000Y-119450000D02*
G01*
X185000000Y-119450000D01*
X185000000Y-100350000D01*
X188600000Y-100350000D01*
X188600000Y-119450000D01*
G37*
X188600000Y-119450000D02*
X185000000Y-119450000D01*
X185000000Y-100350000D01*
X188600000Y-100350000D01*
X188600000Y-119450000D01*
G36*
X202100000Y-119450000D02*
G01*
X198500000Y-119450000D01*
X198500000Y-100350000D01*
X202100000Y-100350000D01*
X202100000Y-119450000D01*
G37*
X202100000Y-119450000D02*
X198500000Y-119450000D01*
X198500000Y-100350000D01*
X202100000Y-100350000D01*
X202100000Y-119450000D01*
G36*
X191900000Y-103350000D02*
G01*
X188600000Y-103350000D01*
X188600000Y-100350000D01*
X191900000Y-100350000D01*
X191900000Y-103350000D01*
G37*
X191900000Y-103350000D02*
X188600000Y-103350000D01*
X188600000Y-100350000D01*
X191900000Y-100350000D01*
X191900000Y-103350000D01*
G36*
X209000000Y-119450000D02*
G01*
X205400000Y-119450000D01*
X205400000Y-100350000D01*
X209000000Y-100350000D01*
X209000000Y-119450000D01*
G37*
X209000000Y-119450000D02*
X205400000Y-119450000D01*
X205400000Y-100350000D01*
X209000000Y-100350000D01*
X209000000Y-119450000D01*
G36*
X205400000Y-119450000D02*
G01*
X202100000Y-119450000D01*
X202100000Y-116450000D01*
X205400000Y-116450000D01*
X205400000Y-119450000D01*
G37*
X205400000Y-119450000D02*
X202100000Y-119450000D01*
X202100000Y-116450000D01*
X205400000Y-116450000D01*
X205400000Y-119450000D01*
G36*
X191900000Y-119450000D02*
G01*
X188600000Y-119450000D01*
X188600000Y-116450000D01*
X191900000Y-116450000D01*
X191900000Y-119450000D01*
G37*
X191900000Y-119450000D02*
X188600000Y-119450000D01*
X188600000Y-116450000D01*
X191900000Y-116450000D01*
X191900000Y-119450000D01*
G36*
X191800000Y-111850000D02*
G01*
X188600000Y-111850000D01*
X188600000Y-107950000D01*
X191800000Y-107950000D01*
X191800000Y-111850000D01*
G37*
X191800000Y-111850000D02*
X188600000Y-111850000D01*
X188600000Y-107950000D01*
X191800000Y-107950000D01*
X191800000Y-111850000D01*
G36*
X205300000Y-111850000D02*
G01*
X202100000Y-111850000D01*
X202100000Y-107950000D01*
X205300000Y-107950000D01*
X205300000Y-111850000D01*
G37*
X205300000Y-111850000D02*
X202100000Y-111850000D01*
X202100000Y-107950000D01*
X205300000Y-107950000D01*
X205300000Y-111850000D01*
G36*
X205400000Y-103350000D02*
G01*
X202100000Y-103350000D01*
X202100000Y-100350000D01*
X205400000Y-100350000D01*
X205400000Y-103350000D01*
G37*
X205400000Y-103350000D02*
X202100000Y-103350000D01*
X202100000Y-100350000D01*
X205400000Y-100350000D01*
X205400000Y-103350000D01*
G36*
X195500000Y-119450000D02*
G01*
X191900000Y-119450000D01*
X191900000Y-100350000D01*
X195500000Y-100350000D01*
X195500000Y-119450000D01*
G37*
X195500000Y-119450000D02*
X191900000Y-119450000D01*
X191900000Y-100350000D01*
X195500000Y-100350000D01*
X195500000Y-119450000D01*
G36*
X134600000Y-119450000D02*
G01*
X131000000Y-119450000D01*
X131000000Y-100350000D01*
X134600000Y-100350000D01*
X134600000Y-119450000D01*
G37*
X134600000Y-119450000D02*
X131000000Y-119450000D01*
X131000000Y-100350000D01*
X134600000Y-100350000D01*
X134600000Y-119450000D01*
G36*
X137900000Y-119450000D02*
G01*
X134600000Y-119450000D01*
X134600000Y-116450000D01*
X137900000Y-116450000D01*
X137900000Y-119450000D01*
G37*
X137900000Y-119450000D02*
X134600000Y-119450000D01*
X134600000Y-116450000D01*
X137900000Y-116450000D01*
X137900000Y-119450000D01*
G36*
X137900000Y-103350000D02*
G01*
X134600000Y-103350000D01*
X134600000Y-100350000D01*
X137900000Y-100350000D01*
X137900000Y-103350000D01*
G37*
X137900000Y-103350000D02*
X134600000Y-103350000D01*
X134600000Y-100350000D01*
X137900000Y-100350000D01*
X137900000Y-103350000D01*
G36*
X137800000Y-111850000D02*
G01*
X134600000Y-111850000D01*
X134600000Y-107950000D01*
X137800000Y-107950000D01*
X137800000Y-111850000D01*
G37*
X137800000Y-111850000D02*
X134600000Y-111850000D01*
X134600000Y-107950000D01*
X137800000Y-107950000D01*
X137800000Y-111850000D01*
G36*
X141500000Y-119450000D02*
G01*
X137900000Y-119450000D01*
X137900000Y-100350000D01*
X141500000Y-100350000D01*
X141500000Y-119450000D01*
G37*
X141500000Y-119450000D02*
X137900000Y-119450000D01*
X137900000Y-100350000D01*
X141500000Y-100350000D01*
X141500000Y-119450000D01*
G36*
X202100000Y-82550000D02*
G01*
X198500000Y-82550000D01*
X198500000Y-63450000D01*
X202100000Y-63450000D01*
X202100000Y-82550000D01*
G37*
X202100000Y-82550000D02*
X198500000Y-82550000D01*
X198500000Y-63450000D01*
X202100000Y-63450000D01*
X202100000Y-82550000D01*
G36*
X205400000Y-66450000D02*
G01*
X202100000Y-66450000D01*
X202100000Y-63450000D01*
X205400000Y-63450000D01*
X205400000Y-66450000D01*
G37*
X205400000Y-66450000D02*
X202100000Y-66450000D01*
X202100000Y-63450000D01*
X205400000Y-63450000D01*
X205400000Y-66450000D01*
G36*
X205400000Y-82550000D02*
G01*
X202100000Y-82550000D01*
X202100000Y-79550000D01*
X205400000Y-79550000D01*
X205400000Y-82550000D01*
G37*
X205400000Y-82550000D02*
X202100000Y-82550000D01*
X202100000Y-79550000D01*
X205400000Y-79550000D01*
X205400000Y-82550000D01*
G36*
X205300000Y-74950000D02*
G01*
X202100000Y-74950000D01*
X202100000Y-71050000D01*
X205300000Y-71050000D01*
X205300000Y-74950000D01*
G37*
X205300000Y-74950000D02*
X202100000Y-74950000D01*
X202100000Y-71050000D01*
X205300000Y-71050000D01*
X205300000Y-74950000D01*
G36*
X209000000Y-82550000D02*
G01*
X205400000Y-82550000D01*
X205400000Y-63450000D01*
X209000000Y-63450000D01*
X209000000Y-82550000D01*
G37*
X209000000Y-82550000D02*
X205400000Y-82550000D01*
X205400000Y-63450000D01*
X209000000Y-63450000D01*
X209000000Y-82550000D01*
G36*
X191900000Y-82550000D02*
G01*
X188600000Y-82550000D01*
X188600000Y-79550000D01*
X191900000Y-79550000D01*
X191900000Y-82550000D01*
G37*
X191900000Y-82550000D02*
X188600000Y-82550000D01*
X188600000Y-79550000D01*
X191900000Y-79550000D01*
X191900000Y-82550000D01*
G36*
X188600000Y-82550000D02*
G01*
X185000000Y-82550000D01*
X185000000Y-63450000D01*
X188600000Y-63450000D01*
X188600000Y-82550000D01*
G37*
X188600000Y-82550000D02*
X185000000Y-82550000D01*
X185000000Y-63450000D01*
X188600000Y-63450000D01*
X188600000Y-82550000D01*
G36*
X191800000Y-74950000D02*
G01*
X188600000Y-74950000D01*
X188600000Y-71050000D01*
X191800000Y-71050000D01*
X191800000Y-74950000D01*
G37*
X191800000Y-74950000D02*
X188600000Y-74950000D01*
X188600000Y-71050000D01*
X191800000Y-71050000D01*
X191800000Y-74950000D01*
G36*
X195500000Y-82550000D02*
G01*
X191900000Y-82550000D01*
X191900000Y-63450000D01*
X195500000Y-63450000D01*
X195500000Y-82550000D01*
G37*
X195500000Y-82550000D02*
X191900000Y-82550000D01*
X191900000Y-63450000D01*
X195500000Y-63450000D01*
X195500000Y-82550000D01*
G36*
X191900000Y-66450000D02*
G01*
X188600000Y-66450000D01*
X188600000Y-63450000D01*
X191900000Y-63450000D01*
X191900000Y-66450000D01*
G37*
X191900000Y-66450000D02*
X188600000Y-66450000D01*
X188600000Y-63450000D01*
X191900000Y-63450000D01*
X191900000Y-66450000D01*
G36*
X182000000Y-82550000D02*
G01*
X178400000Y-82550000D01*
X178400000Y-63450000D01*
X182000000Y-63450000D01*
X182000000Y-82550000D01*
G37*
X182000000Y-82550000D02*
X178400000Y-82550000D01*
X178400000Y-63450000D01*
X182000000Y-63450000D01*
X182000000Y-82550000D01*
G36*
X178400000Y-82550000D02*
G01*
X175100000Y-82550000D01*
X175100000Y-79550000D01*
X178400000Y-79550000D01*
X178400000Y-82550000D01*
G37*
X178400000Y-82550000D02*
X175100000Y-82550000D01*
X175100000Y-79550000D01*
X178400000Y-79550000D01*
X178400000Y-82550000D01*
G36*
X178300000Y-74950000D02*
G01*
X175100000Y-74950000D01*
X175100000Y-71050000D01*
X178300000Y-71050000D01*
X178300000Y-74950000D01*
G37*
X178300000Y-74950000D02*
X175100000Y-74950000D01*
X175100000Y-71050000D01*
X178300000Y-71050000D01*
X178300000Y-74950000D01*
G36*
X178400000Y-66450000D02*
G01*
X175100000Y-66450000D01*
X175100000Y-63450000D01*
X178400000Y-63450000D01*
X178400000Y-66450000D01*
G37*
X178400000Y-66450000D02*
X175100000Y-66450000D01*
X175100000Y-63450000D01*
X178400000Y-63450000D01*
X178400000Y-66450000D01*
G36*
X175100000Y-82550000D02*
G01*
X171500000Y-82550000D01*
X171500000Y-63450000D01*
X175100000Y-63450000D01*
X175100000Y-82550000D01*
G37*
X175100000Y-82550000D02*
X171500000Y-82550000D01*
X171500000Y-63450000D01*
X175100000Y-63450000D01*
X175100000Y-82550000D01*
G36*
X164900000Y-82550000D02*
G01*
X161600000Y-82550000D01*
X161600000Y-79550000D01*
X164900000Y-79550000D01*
X164900000Y-82550000D01*
G37*
X164900000Y-82550000D02*
X161600000Y-82550000D01*
X161600000Y-79550000D01*
X164900000Y-79550000D01*
X164900000Y-82550000D01*
G36*
X168500000Y-82550000D02*
G01*
X164900000Y-82550000D01*
X164900000Y-63450000D01*
X168500000Y-63450000D01*
X168500000Y-82550000D01*
G37*
X168500000Y-82550000D02*
X164900000Y-82550000D01*
X164900000Y-63450000D01*
X168500000Y-63450000D01*
X168500000Y-82550000D01*
G36*
X164800000Y-74950000D02*
G01*
X161600000Y-74950000D01*
X161600000Y-71050000D01*
X164800000Y-71050000D01*
X164800000Y-74950000D01*
G37*
X164800000Y-74950000D02*
X161600000Y-74950000D01*
X161600000Y-71050000D01*
X164800000Y-71050000D01*
X164800000Y-74950000D01*
G36*
X161600000Y-82550000D02*
G01*
X158000000Y-82550000D01*
X158000000Y-63450000D01*
X161600000Y-63450000D01*
X161600000Y-82550000D01*
G37*
X161600000Y-82550000D02*
X158000000Y-82550000D01*
X158000000Y-63450000D01*
X161600000Y-63450000D01*
X161600000Y-82550000D01*
G36*
X164900000Y-66450000D02*
G01*
X161600000Y-66450000D01*
X161600000Y-63450000D01*
X164900000Y-63450000D01*
X164900000Y-66450000D01*
G37*
X164900000Y-66450000D02*
X161600000Y-66450000D01*
X161600000Y-63450000D01*
X164900000Y-63450000D01*
X164900000Y-66450000D01*
G36*
X148100000Y-82550000D02*
G01*
X144500000Y-82550000D01*
X144500000Y-63450000D01*
X148100000Y-63450000D01*
X148100000Y-82550000D01*
G37*
X148100000Y-82550000D02*
X144500000Y-82550000D01*
X144500000Y-63450000D01*
X148100000Y-63450000D01*
X148100000Y-82550000D01*
G36*
X151400000Y-82550000D02*
G01*
X148100000Y-82550000D01*
X148100000Y-79550000D01*
X151400000Y-79550000D01*
X151400000Y-82550000D01*
G37*
X151400000Y-82550000D02*
X148100000Y-82550000D01*
X148100000Y-79550000D01*
X151400000Y-79550000D01*
X151400000Y-82550000D01*
G36*
X151400000Y-66450000D02*
G01*
X148100000Y-66450000D01*
X148100000Y-63450000D01*
X151400000Y-63450000D01*
X151400000Y-66450000D01*
G37*
X151400000Y-66450000D02*
X148100000Y-66450000D01*
X148100000Y-63450000D01*
X151400000Y-63450000D01*
X151400000Y-66450000D01*
G36*
X151300000Y-74950000D02*
G01*
X148100000Y-74950000D01*
X148100000Y-71050000D01*
X151300000Y-71050000D01*
X151300000Y-74950000D01*
G37*
X151300000Y-74950000D02*
X148100000Y-74950000D01*
X148100000Y-71050000D01*
X151300000Y-71050000D01*
X151300000Y-74950000D01*
G36*
X155000000Y-82550000D02*
G01*
X151400000Y-82550000D01*
X151400000Y-63450000D01*
X155000000Y-63450000D01*
X155000000Y-82550000D01*
G37*
X155000000Y-82550000D02*
X151400000Y-82550000D01*
X151400000Y-63450000D01*
X155000000Y-63450000D01*
X155000000Y-82550000D01*
G36*
X137800000Y-74950000D02*
G01*
X134600000Y-74950000D01*
X134600000Y-71050000D01*
X137800000Y-71050000D01*
X137800000Y-74950000D01*
G37*
X137800000Y-74950000D02*
X134600000Y-74950000D01*
X134600000Y-71050000D01*
X137800000Y-71050000D01*
X137800000Y-74950000D01*
G36*
X137900000Y-66450000D02*
G01*
X134600000Y-66450000D01*
X134600000Y-63450000D01*
X137900000Y-63450000D01*
X137900000Y-66450000D01*
G37*
X137900000Y-66450000D02*
X134600000Y-66450000D01*
X134600000Y-63450000D01*
X137900000Y-63450000D01*
X137900000Y-66450000D01*
G36*
X137900000Y-82550000D02*
G01*
X134600000Y-82550000D01*
X134600000Y-79550000D01*
X137900000Y-79550000D01*
X137900000Y-82550000D01*
G37*
X137900000Y-82550000D02*
X134600000Y-82550000D01*
X134600000Y-79550000D01*
X137900000Y-79550000D01*
X137900000Y-82550000D01*
G36*
X141500000Y-82550000D02*
G01*
X137900000Y-82550000D01*
X137900000Y-63450000D01*
X141500000Y-63450000D01*
X141500000Y-82550000D01*
G37*
X141500000Y-82550000D02*
X137900000Y-82550000D01*
X137900000Y-63450000D01*
X141500000Y-63450000D01*
X141500000Y-82550000D01*
G36*
X134600000Y-82550000D02*
G01*
X131000000Y-82550000D01*
X131000000Y-63450000D01*
X134600000Y-63450000D01*
X134600000Y-82550000D01*
G37*
X134600000Y-82550000D02*
X131000000Y-82550000D01*
X131000000Y-63450000D01*
X134600000Y-63450000D01*
X134600000Y-82550000D01*
D11*
X125400000Y-51700000D03*
X170200000Y-131400000D03*
X214500000Y-55100000D03*
D12*
X209200000Y-110200000D03*
X209200000Y-109400000D03*
X209200000Y-111000000D03*
X211800000Y-110200000D03*
X211800000Y-109400000D03*
X211800000Y-111000000D03*
D13*
X203700000Y-96700000D03*
D14*
X203700000Y-99075000D03*
D12*
X155200000Y-110200000D03*
X155200000Y-109400000D03*
X155200000Y-111000000D03*
X157800000Y-110200000D03*
X157800000Y-109400000D03*
X157800000Y-111000000D03*
X144300000Y-111000000D03*
X144300000Y-109400000D03*
X144300000Y-110200000D03*
X141700000Y-111000000D03*
X141700000Y-109400000D03*
X141700000Y-110200000D03*
D15*
X149700000Y-115525000D03*
D16*
X149700000Y-113250000D03*
D15*
X203700000Y-115525000D03*
D16*
X203700000Y-113250000D03*
D12*
X171300000Y-111000000D03*
X171300000Y-109400000D03*
X171300000Y-110200000D03*
X168700000Y-111000000D03*
X168700000Y-109400000D03*
X168700000Y-110200000D03*
D16*
X163200000Y-113250000D03*
D15*
X163200000Y-115525000D03*
D13*
X149700000Y-96700000D03*
D14*
X149700000Y-99075000D03*
D12*
X198300000Y-111000000D03*
X198300000Y-109400000D03*
X198300000Y-110200000D03*
X195700000Y-111000000D03*
X195700000Y-109400000D03*
X195700000Y-110200000D03*
D15*
X149700000Y-107125000D03*
D16*
X149700000Y-104850000D03*
D15*
X203700000Y-107125000D03*
D16*
X203700000Y-104850000D03*
X190200000Y-104850000D03*
D15*
X190200000Y-107125000D03*
D16*
X163200000Y-104850000D03*
D15*
X163200000Y-107125000D03*
D16*
X190200000Y-113250000D03*
D15*
X190200000Y-115525000D03*
X176700000Y-115525000D03*
D16*
X176700000Y-113250000D03*
D14*
X163200000Y-99075000D03*
D13*
X163200000Y-96700000D03*
D15*
X176700000Y-107125000D03*
D16*
X176700000Y-104850000D03*
D14*
X190200000Y-99075000D03*
D13*
X190200000Y-96700000D03*
D12*
X128200000Y-110200000D03*
X128200000Y-109400000D03*
X128200000Y-111000000D03*
X130800000Y-110200000D03*
X130800000Y-109400000D03*
X130800000Y-111000000D03*
D13*
X176700000Y-96700000D03*
D14*
X176700000Y-99075000D03*
D12*
X182200000Y-110200000D03*
X182200000Y-109400000D03*
X182200000Y-111000000D03*
X184800000Y-110200000D03*
X184800000Y-109400000D03*
X184800000Y-111000000D03*
D16*
X136200000Y-113250000D03*
D15*
X136200000Y-115525000D03*
D16*
X136200000Y-104850000D03*
D15*
X136200000Y-107125000D03*
D14*
X136200000Y-99075000D03*
D13*
X136200000Y-96700000D03*
D12*
X211800000Y-74100000D03*
X211800000Y-72500000D03*
X211800000Y-73300000D03*
X209200000Y-74100000D03*
X209200000Y-72500000D03*
X209200000Y-73300000D03*
D16*
X203700000Y-67950000D03*
D15*
X203700000Y-70225000D03*
D16*
X203700000Y-76350000D03*
D15*
X203700000Y-78625000D03*
D14*
X203700000Y-62175000D03*
D13*
X203700000Y-59800000D03*
D12*
X195700000Y-73300000D03*
X195700000Y-72500000D03*
X195700000Y-74100000D03*
X198300000Y-73300000D03*
X198300000Y-72500000D03*
X198300000Y-74100000D03*
X184800000Y-74100000D03*
X184800000Y-72500000D03*
X184800000Y-73300000D03*
X182200000Y-74100000D03*
X182200000Y-72500000D03*
X182200000Y-73300000D03*
D15*
X190200000Y-78625000D03*
D16*
X190200000Y-76350000D03*
D15*
X190200000Y-70225000D03*
D16*
X190200000Y-67950000D03*
D13*
X190200000Y-59800000D03*
D14*
X190200000Y-62175000D03*
D12*
X168700000Y-73300000D03*
X168700000Y-72500000D03*
X168700000Y-74100000D03*
X171300000Y-73300000D03*
X171300000Y-72500000D03*
X171300000Y-74100000D03*
D16*
X176700000Y-76350000D03*
D15*
X176700000Y-78625000D03*
D16*
X176700000Y-67950000D03*
D15*
X176700000Y-70225000D03*
D14*
X176700000Y-62175000D03*
D13*
X176700000Y-59800000D03*
D12*
X157800000Y-74100000D03*
X157800000Y-72500000D03*
X157800000Y-73300000D03*
X155200000Y-74100000D03*
X155200000Y-72500000D03*
X155200000Y-73300000D03*
D15*
X163200000Y-78625000D03*
D16*
X163200000Y-76350000D03*
D13*
X163200000Y-59800000D03*
D14*
X163200000Y-62175000D03*
D15*
X163200000Y-70225000D03*
D16*
X163200000Y-67950000D03*
D12*
X141700000Y-73300000D03*
X141700000Y-72500000D03*
X141700000Y-74100000D03*
X144300000Y-73300000D03*
X144300000Y-72500000D03*
X144300000Y-74100000D03*
D16*
X149700000Y-76350000D03*
D15*
X149700000Y-78625000D03*
D16*
X149700000Y-67950000D03*
D15*
X149700000Y-70225000D03*
D14*
X149700000Y-62175000D03*
D13*
X149700000Y-59800000D03*
D12*
X130800000Y-74100000D03*
X130800000Y-72500000D03*
X130800000Y-73300000D03*
X128200000Y-74100000D03*
X128200000Y-72500000D03*
X128200000Y-73300000D03*
D15*
X136200000Y-70225000D03*
D16*
X136200000Y-67950000D03*
D15*
X136200000Y-78625000D03*
D16*
X136200000Y-76350000D03*
D13*
X136200000Y-59800000D03*
D14*
X136200000Y-62175000D03*
M02*
