M48
; DRILL file {KiCad (5.1.5)-3} date 22-Aug-20 8:16:31 AM
; FORMAT={-:-/ absolute / inch / decimal}
; #@! TF.CreationDate,2020-08-22T08:16:31+03:00
; #@! TF.GenerationSoftware,Kicad,Pcbnew,(5.1.5)-3
; #@! TF.FileFunction,NonPlated,1,2,NPTH
FMAT,2
INCH
T1C0.0197
%
G90
G05
T1
X7.7047Y-4.3071
X7.7047Y-4.3386
X7.7047Y-4.3701
X7.8071Y-4.3071
X7.8071Y-4.3386
X7.8071Y-4.3701
X5.5787Y-4.3071
X5.5787Y-4.3386
X5.5787Y-4.3701
X5.6811Y-4.3071
X5.6811Y-4.3386
X5.6811Y-4.3701
X5.0472Y-4.3071
X5.0472Y-4.3386
X5.0472Y-4.3701
X5.1496Y-4.3071
X5.1496Y-4.3386
X5.1496Y-4.3701
X7.7047Y-2.8543
X7.7047Y-2.8858
X7.7047Y-2.9173
X7.8071Y-2.8543
X7.8071Y-2.8858
X7.8071Y-2.9173
X5.0472Y-2.8543
X5.0472Y-2.8858
X5.0472Y-2.9173
X5.1496Y-2.8543
X5.1496Y-2.8858
X5.1496Y-2.9173
X8.2362Y-2.8543
X8.2362Y-2.8858
X8.2362Y-2.9173
X8.3386Y-2.8543
X8.3386Y-2.8858
X8.3386Y-2.9173
X7.1732Y-4.3071
X7.1732Y-4.3386
X7.1732Y-4.3701
X7.2756Y-4.3071
X7.2756Y-4.3386
X7.2756Y-4.3701
X6.1102Y-4.3071
X6.1102Y-4.3386
X6.1102Y-4.3701
X6.2126Y-4.3071
X6.2126Y-4.3386
X6.2126Y-4.3701
X8.2362Y-4.3071
X8.2362Y-4.3386
X8.2362Y-4.3701
X8.3386Y-4.3071
X8.3386Y-4.3386
X8.3386Y-4.3701
X6.6417Y-2.8543
X6.6417Y-2.8858
X6.6417Y-2.9173
X6.7441Y-2.8543
X6.7441Y-2.8858
X6.7441Y-2.9173
X6.1102Y-2.8543
X6.1102Y-2.8858
X6.1102Y-2.9173
X6.2126Y-2.8543
X6.2126Y-2.8858
X6.2126Y-2.9173
X7.1732Y-2.8543
X7.1732Y-2.8858
X7.1732Y-2.9173
X7.2756Y-2.8543
X7.2756Y-2.8858
X7.2756Y-2.9173
X6.6417Y-4.3071
X6.6417Y-4.3386
X6.6417Y-4.3701
X6.7441Y-4.3071
X6.7441Y-4.3386
X6.7441Y-4.3701
X5.5787Y-2.8543
X5.5787Y-2.8858
X5.5787Y-2.9173
X5.6811Y-2.8543
X5.6811Y-2.8858
X5.6811Y-2.9173
T0
M30
