G04 #@! TF.GenerationSoftware,KiCad,Pcbnew,(5.1.5)-3*
G04 #@! TF.CreationDate,2020-08-22T08:16:36+03:00*
G04 #@! TF.ProjectId,C5W LED series,43355720-4c45-4442-9073-65726965732e,rev?*
G04 #@! TF.SameCoordinates,Original*
G04 #@! TF.FileFunction,Paste,Bot*
G04 #@! TF.FilePolarity,Positive*
%FSLAX46Y46*%
G04 Gerber Fmt 4.6, Leading zero omitted, Abs format (unit mm)*
G04 Created by KiCad (PCBNEW (5.1.5)-3) date 2020-08-22 08:16:36*
%MOMM*%
%LPD*%
G04 APERTURE LIST*
%ADD10C,0.100000*%
G04 APERTURE END LIST*
D10*
G36*
X163849504Y-107926204D02*
G01*
X163873773Y-107929804D01*
X163897571Y-107935765D01*
X163920671Y-107944030D01*
X163942849Y-107954520D01*
X163963893Y-107967133D01*
X163983598Y-107981747D01*
X164001777Y-107998223D01*
X164018253Y-108016402D01*
X164032867Y-108036107D01*
X164045480Y-108057151D01*
X164055970Y-108079329D01*
X164064235Y-108102429D01*
X164070196Y-108126227D01*
X164073796Y-108150496D01*
X164075000Y-108175000D01*
X164075000Y-108925000D01*
X164073796Y-108949504D01*
X164070196Y-108973773D01*
X164064235Y-108997571D01*
X164055970Y-109020671D01*
X164045480Y-109042849D01*
X164032867Y-109063893D01*
X164018253Y-109083598D01*
X164001777Y-109101777D01*
X163983598Y-109118253D01*
X163963893Y-109132867D01*
X163942849Y-109145480D01*
X163920671Y-109155970D01*
X163897571Y-109164235D01*
X163873773Y-109170196D01*
X163849504Y-109173796D01*
X163825000Y-109175000D01*
X162575000Y-109175000D01*
X162550496Y-109173796D01*
X162526227Y-109170196D01*
X162502429Y-109164235D01*
X162479329Y-109155970D01*
X162457151Y-109145480D01*
X162436107Y-109132867D01*
X162416402Y-109118253D01*
X162398223Y-109101777D01*
X162381747Y-109083598D01*
X162367133Y-109063893D01*
X162354520Y-109042849D01*
X162344030Y-109020671D01*
X162335765Y-108997571D01*
X162329804Y-108973773D01*
X162326204Y-108949504D01*
X162325000Y-108925000D01*
X162325000Y-108175000D01*
X162326204Y-108150496D01*
X162329804Y-108126227D01*
X162335765Y-108102429D01*
X162344030Y-108079329D01*
X162354520Y-108057151D01*
X162367133Y-108036107D01*
X162381747Y-108016402D01*
X162398223Y-107998223D01*
X162416402Y-107981747D01*
X162436107Y-107967133D01*
X162457151Y-107954520D01*
X162479329Y-107944030D01*
X162502429Y-107935765D01*
X162526227Y-107929804D01*
X162550496Y-107926204D01*
X162575000Y-107925000D01*
X163825000Y-107925000D01*
X163849504Y-107926204D01*
G37*
G36*
X163849504Y-110726204D02*
G01*
X163873773Y-110729804D01*
X163897571Y-110735765D01*
X163920671Y-110744030D01*
X163942849Y-110754520D01*
X163963893Y-110767133D01*
X163983598Y-110781747D01*
X164001777Y-110798223D01*
X164018253Y-110816402D01*
X164032867Y-110836107D01*
X164045480Y-110857151D01*
X164055970Y-110879329D01*
X164064235Y-110902429D01*
X164070196Y-110926227D01*
X164073796Y-110950496D01*
X164075000Y-110975000D01*
X164075000Y-111725000D01*
X164073796Y-111749504D01*
X164070196Y-111773773D01*
X164064235Y-111797571D01*
X164055970Y-111820671D01*
X164045480Y-111842849D01*
X164032867Y-111863893D01*
X164018253Y-111883598D01*
X164001777Y-111901777D01*
X163983598Y-111918253D01*
X163963893Y-111932867D01*
X163942849Y-111945480D01*
X163920671Y-111955970D01*
X163897571Y-111964235D01*
X163873773Y-111970196D01*
X163849504Y-111973796D01*
X163825000Y-111975000D01*
X162575000Y-111975000D01*
X162550496Y-111973796D01*
X162526227Y-111970196D01*
X162502429Y-111964235D01*
X162479329Y-111955970D01*
X162457151Y-111945480D01*
X162436107Y-111932867D01*
X162416402Y-111918253D01*
X162398223Y-111901777D01*
X162381747Y-111883598D01*
X162367133Y-111863893D01*
X162354520Y-111842849D01*
X162344030Y-111820671D01*
X162335765Y-111797571D01*
X162329804Y-111773773D01*
X162326204Y-111749504D01*
X162325000Y-111725000D01*
X162325000Y-110975000D01*
X162326204Y-110950496D01*
X162329804Y-110926227D01*
X162335765Y-110902429D01*
X162344030Y-110879329D01*
X162354520Y-110857151D01*
X162367133Y-110836107D01*
X162381747Y-110816402D01*
X162398223Y-110798223D01*
X162416402Y-110781747D01*
X162436107Y-110767133D01*
X162457151Y-110754520D01*
X162479329Y-110744030D01*
X162502429Y-110735765D01*
X162526227Y-110729804D01*
X162550496Y-110726204D01*
X162575000Y-110725000D01*
X163825000Y-110725000D01*
X163849504Y-110726204D01*
G37*
G36*
X150349504Y-110726204D02*
G01*
X150373773Y-110729804D01*
X150397571Y-110735765D01*
X150420671Y-110744030D01*
X150442849Y-110754520D01*
X150463893Y-110767133D01*
X150483598Y-110781747D01*
X150501777Y-110798223D01*
X150518253Y-110816402D01*
X150532867Y-110836107D01*
X150545480Y-110857151D01*
X150555970Y-110879329D01*
X150564235Y-110902429D01*
X150570196Y-110926227D01*
X150573796Y-110950496D01*
X150575000Y-110975000D01*
X150575000Y-111725000D01*
X150573796Y-111749504D01*
X150570196Y-111773773D01*
X150564235Y-111797571D01*
X150555970Y-111820671D01*
X150545480Y-111842849D01*
X150532867Y-111863893D01*
X150518253Y-111883598D01*
X150501777Y-111901777D01*
X150483598Y-111918253D01*
X150463893Y-111932867D01*
X150442849Y-111945480D01*
X150420671Y-111955970D01*
X150397571Y-111964235D01*
X150373773Y-111970196D01*
X150349504Y-111973796D01*
X150325000Y-111975000D01*
X149075000Y-111975000D01*
X149050496Y-111973796D01*
X149026227Y-111970196D01*
X149002429Y-111964235D01*
X148979329Y-111955970D01*
X148957151Y-111945480D01*
X148936107Y-111932867D01*
X148916402Y-111918253D01*
X148898223Y-111901777D01*
X148881747Y-111883598D01*
X148867133Y-111863893D01*
X148854520Y-111842849D01*
X148844030Y-111820671D01*
X148835765Y-111797571D01*
X148829804Y-111773773D01*
X148826204Y-111749504D01*
X148825000Y-111725000D01*
X148825000Y-110975000D01*
X148826204Y-110950496D01*
X148829804Y-110926227D01*
X148835765Y-110902429D01*
X148844030Y-110879329D01*
X148854520Y-110857151D01*
X148867133Y-110836107D01*
X148881747Y-110816402D01*
X148898223Y-110798223D01*
X148916402Y-110781747D01*
X148936107Y-110767133D01*
X148957151Y-110754520D01*
X148979329Y-110744030D01*
X149002429Y-110735765D01*
X149026227Y-110729804D01*
X149050496Y-110726204D01*
X149075000Y-110725000D01*
X150325000Y-110725000D01*
X150349504Y-110726204D01*
G37*
G36*
X150349504Y-107926204D02*
G01*
X150373773Y-107929804D01*
X150397571Y-107935765D01*
X150420671Y-107944030D01*
X150442849Y-107954520D01*
X150463893Y-107967133D01*
X150483598Y-107981747D01*
X150501777Y-107998223D01*
X150518253Y-108016402D01*
X150532867Y-108036107D01*
X150545480Y-108057151D01*
X150555970Y-108079329D01*
X150564235Y-108102429D01*
X150570196Y-108126227D01*
X150573796Y-108150496D01*
X150575000Y-108175000D01*
X150575000Y-108925000D01*
X150573796Y-108949504D01*
X150570196Y-108973773D01*
X150564235Y-108997571D01*
X150555970Y-109020671D01*
X150545480Y-109042849D01*
X150532867Y-109063893D01*
X150518253Y-109083598D01*
X150501777Y-109101777D01*
X150483598Y-109118253D01*
X150463893Y-109132867D01*
X150442849Y-109145480D01*
X150420671Y-109155970D01*
X150397571Y-109164235D01*
X150373773Y-109170196D01*
X150349504Y-109173796D01*
X150325000Y-109175000D01*
X149075000Y-109175000D01*
X149050496Y-109173796D01*
X149026227Y-109170196D01*
X149002429Y-109164235D01*
X148979329Y-109155970D01*
X148957151Y-109145480D01*
X148936107Y-109132867D01*
X148916402Y-109118253D01*
X148898223Y-109101777D01*
X148881747Y-109083598D01*
X148867133Y-109063893D01*
X148854520Y-109042849D01*
X148844030Y-109020671D01*
X148835765Y-108997571D01*
X148829804Y-108973773D01*
X148826204Y-108949504D01*
X148825000Y-108925000D01*
X148825000Y-108175000D01*
X148826204Y-108150496D01*
X148829804Y-108126227D01*
X148835765Y-108102429D01*
X148844030Y-108079329D01*
X148854520Y-108057151D01*
X148867133Y-108036107D01*
X148881747Y-108016402D01*
X148898223Y-107998223D01*
X148916402Y-107981747D01*
X148936107Y-107967133D01*
X148957151Y-107954520D01*
X148979329Y-107944030D01*
X149002429Y-107935765D01*
X149026227Y-107929804D01*
X149050496Y-107926204D01*
X149075000Y-107925000D01*
X150325000Y-107925000D01*
X150349504Y-107926204D01*
G37*
G36*
X190849504Y-107926204D02*
G01*
X190873773Y-107929804D01*
X190897571Y-107935765D01*
X190920671Y-107944030D01*
X190942849Y-107954520D01*
X190963893Y-107967133D01*
X190983598Y-107981747D01*
X191001777Y-107998223D01*
X191018253Y-108016402D01*
X191032867Y-108036107D01*
X191045480Y-108057151D01*
X191055970Y-108079329D01*
X191064235Y-108102429D01*
X191070196Y-108126227D01*
X191073796Y-108150496D01*
X191075000Y-108175000D01*
X191075000Y-108925000D01*
X191073796Y-108949504D01*
X191070196Y-108973773D01*
X191064235Y-108997571D01*
X191055970Y-109020671D01*
X191045480Y-109042849D01*
X191032867Y-109063893D01*
X191018253Y-109083598D01*
X191001777Y-109101777D01*
X190983598Y-109118253D01*
X190963893Y-109132867D01*
X190942849Y-109145480D01*
X190920671Y-109155970D01*
X190897571Y-109164235D01*
X190873773Y-109170196D01*
X190849504Y-109173796D01*
X190825000Y-109175000D01*
X189575000Y-109175000D01*
X189550496Y-109173796D01*
X189526227Y-109170196D01*
X189502429Y-109164235D01*
X189479329Y-109155970D01*
X189457151Y-109145480D01*
X189436107Y-109132867D01*
X189416402Y-109118253D01*
X189398223Y-109101777D01*
X189381747Y-109083598D01*
X189367133Y-109063893D01*
X189354520Y-109042849D01*
X189344030Y-109020671D01*
X189335765Y-108997571D01*
X189329804Y-108973773D01*
X189326204Y-108949504D01*
X189325000Y-108925000D01*
X189325000Y-108175000D01*
X189326204Y-108150496D01*
X189329804Y-108126227D01*
X189335765Y-108102429D01*
X189344030Y-108079329D01*
X189354520Y-108057151D01*
X189367133Y-108036107D01*
X189381747Y-108016402D01*
X189398223Y-107998223D01*
X189416402Y-107981747D01*
X189436107Y-107967133D01*
X189457151Y-107954520D01*
X189479329Y-107944030D01*
X189502429Y-107935765D01*
X189526227Y-107929804D01*
X189550496Y-107926204D01*
X189575000Y-107925000D01*
X190825000Y-107925000D01*
X190849504Y-107926204D01*
G37*
G36*
X190849504Y-110726204D02*
G01*
X190873773Y-110729804D01*
X190897571Y-110735765D01*
X190920671Y-110744030D01*
X190942849Y-110754520D01*
X190963893Y-110767133D01*
X190983598Y-110781747D01*
X191001777Y-110798223D01*
X191018253Y-110816402D01*
X191032867Y-110836107D01*
X191045480Y-110857151D01*
X191055970Y-110879329D01*
X191064235Y-110902429D01*
X191070196Y-110926227D01*
X191073796Y-110950496D01*
X191075000Y-110975000D01*
X191075000Y-111725000D01*
X191073796Y-111749504D01*
X191070196Y-111773773D01*
X191064235Y-111797571D01*
X191055970Y-111820671D01*
X191045480Y-111842849D01*
X191032867Y-111863893D01*
X191018253Y-111883598D01*
X191001777Y-111901777D01*
X190983598Y-111918253D01*
X190963893Y-111932867D01*
X190942849Y-111945480D01*
X190920671Y-111955970D01*
X190897571Y-111964235D01*
X190873773Y-111970196D01*
X190849504Y-111973796D01*
X190825000Y-111975000D01*
X189575000Y-111975000D01*
X189550496Y-111973796D01*
X189526227Y-111970196D01*
X189502429Y-111964235D01*
X189479329Y-111955970D01*
X189457151Y-111945480D01*
X189436107Y-111932867D01*
X189416402Y-111918253D01*
X189398223Y-111901777D01*
X189381747Y-111883598D01*
X189367133Y-111863893D01*
X189354520Y-111842849D01*
X189344030Y-111820671D01*
X189335765Y-111797571D01*
X189329804Y-111773773D01*
X189326204Y-111749504D01*
X189325000Y-111725000D01*
X189325000Y-110975000D01*
X189326204Y-110950496D01*
X189329804Y-110926227D01*
X189335765Y-110902429D01*
X189344030Y-110879329D01*
X189354520Y-110857151D01*
X189367133Y-110836107D01*
X189381747Y-110816402D01*
X189398223Y-110798223D01*
X189416402Y-110781747D01*
X189436107Y-110767133D01*
X189457151Y-110754520D01*
X189479329Y-110744030D01*
X189502429Y-110735765D01*
X189526227Y-110729804D01*
X189550496Y-110726204D01*
X189575000Y-110725000D01*
X190825000Y-110725000D01*
X190849504Y-110726204D01*
G37*
G36*
X204349504Y-110726204D02*
G01*
X204373773Y-110729804D01*
X204397571Y-110735765D01*
X204420671Y-110744030D01*
X204442849Y-110754520D01*
X204463893Y-110767133D01*
X204483598Y-110781747D01*
X204501777Y-110798223D01*
X204518253Y-110816402D01*
X204532867Y-110836107D01*
X204545480Y-110857151D01*
X204555970Y-110879329D01*
X204564235Y-110902429D01*
X204570196Y-110926227D01*
X204573796Y-110950496D01*
X204575000Y-110975000D01*
X204575000Y-111725000D01*
X204573796Y-111749504D01*
X204570196Y-111773773D01*
X204564235Y-111797571D01*
X204555970Y-111820671D01*
X204545480Y-111842849D01*
X204532867Y-111863893D01*
X204518253Y-111883598D01*
X204501777Y-111901777D01*
X204483598Y-111918253D01*
X204463893Y-111932867D01*
X204442849Y-111945480D01*
X204420671Y-111955970D01*
X204397571Y-111964235D01*
X204373773Y-111970196D01*
X204349504Y-111973796D01*
X204325000Y-111975000D01*
X203075000Y-111975000D01*
X203050496Y-111973796D01*
X203026227Y-111970196D01*
X203002429Y-111964235D01*
X202979329Y-111955970D01*
X202957151Y-111945480D01*
X202936107Y-111932867D01*
X202916402Y-111918253D01*
X202898223Y-111901777D01*
X202881747Y-111883598D01*
X202867133Y-111863893D01*
X202854520Y-111842849D01*
X202844030Y-111820671D01*
X202835765Y-111797571D01*
X202829804Y-111773773D01*
X202826204Y-111749504D01*
X202825000Y-111725000D01*
X202825000Y-110975000D01*
X202826204Y-110950496D01*
X202829804Y-110926227D01*
X202835765Y-110902429D01*
X202844030Y-110879329D01*
X202854520Y-110857151D01*
X202867133Y-110836107D01*
X202881747Y-110816402D01*
X202898223Y-110798223D01*
X202916402Y-110781747D01*
X202936107Y-110767133D01*
X202957151Y-110754520D01*
X202979329Y-110744030D01*
X203002429Y-110735765D01*
X203026227Y-110729804D01*
X203050496Y-110726204D01*
X203075000Y-110725000D01*
X204325000Y-110725000D01*
X204349504Y-110726204D01*
G37*
G36*
X204349504Y-107926204D02*
G01*
X204373773Y-107929804D01*
X204397571Y-107935765D01*
X204420671Y-107944030D01*
X204442849Y-107954520D01*
X204463893Y-107967133D01*
X204483598Y-107981747D01*
X204501777Y-107998223D01*
X204518253Y-108016402D01*
X204532867Y-108036107D01*
X204545480Y-108057151D01*
X204555970Y-108079329D01*
X204564235Y-108102429D01*
X204570196Y-108126227D01*
X204573796Y-108150496D01*
X204575000Y-108175000D01*
X204575000Y-108925000D01*
X204573796Y-108949504D01*
X204570196Y-108973773D01*
X204564235Y-108997571D01*
X204555970Y-109020671D01*
X204545480Y-109042849D01*
X204532867Y-109063893D01*
X204518253Y-109083598D01*
X204501777Y-109101777D01*
X204483598Y-109118253D01*
X204463893Y-109132867D01*
X204442849Y-109145480D01*
X204420671Y-109155970D01*
X204397571Y-109164235D01*
X204373773Y-109170196D01*
X204349504Y-109173796D01*
X204325000Y-109175000D01*
X203075000Y-109175000D01*
X203050496Y-109173796D01*
X203026227Y-109170196D01*
X203002429Y-109164235D01*
X202979329Y-109155970D01*
X202957151Y-109145480D01*
X202936107Y-109132867D01*
X202916402Y-109118253D01*
X202898223Y-109101777D01*
X202881747Y-109083598D01*
X202867133Y-109063893D01*
X202854520Y-109042849D01*
X202844030Y-109020671D01*
X202835765Y-108997571D01*
X202829804Y-108973773D01*
X202826204Y-108949504D01*
X202825000Y-108925000D01*
X202825000Y-108175000D01*
X202826204Y-108150496D01*
X202829804Y-108126227D01*
X202835765Y-108102429D01*
X202844030Y-108079329D01*
X202854520Y-108057151D01*
X202867133Y-108036107D01*
X202881747Y-108016402D01*
X202898223Y-107998223D01*
X202916402Y-107981747D01*
X202936107Y-107967133D01*
X202957151Y-107954520D01*
X202979329Y-107944030D01*
X203002429Y-107935765D01*
X203026227Y-107929804D01*
X203050496Y-107926204D01*
X203075000Y-107925000D01*
X204325000Y-107925000D01*
X204349504Y-107926204D01*
G37*
G36*
X177349504Y-110726204D02*
G01*
X177373773Y-110729804D01*
X177397571Y-110735765D01*
X177420671Y-110744030D01*
X177442849Y-110754520D01*
X177463893Y-110767133D01*
X177483598Y-110781747D01*
X177501777Y-110798223D01*
X177518253Y-110816402D01*
X177532867Y-110836107D01*
X177545480Y-110857151D01*
X177555970Y-110879329D01*
X177564235Y-110902429D01*
X177570196Y-110926227D01*
X177573796Y-110950496D01*
X177575000Y-110975000D01*
X177575000Y-111725000D01*
X177573796Y-111749504D01*
X177570196Y-111773773D01*
X177564235Y-111797571D01*
X177555970Y-111820671D01*
X177545480Y-111842849D01*
X177532867Y-111863893D01*
X177518253Y-111883598D01*
X177501777Y-111901777D01*
X177483598Y-111918253D01*
X177463893Y-111932867D01*
X177442849Y-111945480D01*
X177420671Y-111955970D01*
X177397571Y-111964235D01*
X177373773Y-111970196D01*
X177349504Y-111973796D01*
X177325000Y-111975000D01*
X176075000Y-111975000D01*
X176050496Y-111973796D01*
X176026227Y-111970196D01*
X176002429Y-111964235D01*
X175979329Y-111955970D01*
X175957151Y-111945480D01*
X175936107Y-111932867D01*
X175916402Y-111918253D01*
X175898223Y-111901777D01*
X175881747Y-111883598D01*
X175867133Y-111863893D01*
X175854520Y-111842849D01*
X175844030Y-111820671D01*
X175835765Y-111797571D01*
X175829804Y-111773773D01*
X175826204Y-111749504D01*
X175825000Y-111725000D01*
X175825000Y-110975000D01*
X175826204Y-110950496D01*
X175829804Y-110926227D01*
X175835765Y-110902429D01*
X175844030Y-110879329D01*
X175854520Y-110857151D01*
X175867133Y-110836107D01*
X175881747Y-110816402D01*
X175898223Y-110798223D01*
X175916402Y-110781747D01*
X175936107Y-110767133D01*
X175957151Y-110754520D01*
X175979329Y-110744030D01*
X176002429Y-110735765D01*
X176026227Y-110729804D01*
X176050496Y-110726204D01*
X176075000Y-110725000D01*
X177325000Y-110725000D01*
X177349504Y-110726204D01*
G37*
G36*
X177349504Y-107926204D02*
G01*
X177373773Y-107929804D01*
X177397571Y-107935765D01*
X177420671Y-107944030D01*
X177442849Y-107954520D01*
X177463893Y-107967133D01*
X177483598Y-107981747D01*
X177501777Y-107998223D01*
X177518253Y-108016402D01*
X177532867Y-108036107D01*
X177545480Y-108057151D01*
X177555970Y-108079329D01*
X177564235Y-108102429D01*
X177570196Y-108126227D01*
X177573796Y-108150496D01*
X177575000Y-108175000D01*
X177575000Y-108925000D01*
X177573796Y-108949504D01*
X177570196Y-108973773D01*
X177564235Y-108997571D01*
X177555970Y-109020671D01*
X177545480Y-109042849D01*
X177532867Y-109063893D01*
X177518253Y-109083598D01*
X177501777Y-109101777D01*
X177483598Y-109118253D01*
X177463893Y-109132867D01*
X177442849Y-109145480D01*
X177420671Y-109155970D01*
X177397571Y-109164235D01*
X177373773Y-109170196D01*
X177349504Y-109173796D01*
X177325000Y-109175000D01*
X176075000Y-109175000D01*
X176050496Y-109173796D01*
X176026227Y-109170196D01*
X176002429Y-109164235D01*
X175979329Y-109155970D01*
X175957151Y-109145480D01*
X175936107Y-109132867D01*
X175916402Y-109118253D01*
X175898223Y-109101777D01*
X175881747Y-109083598D01*
X175867133Y-109063893D01*
X175854520Y-109042849D01*
X175844030Y-109020671D01*
X175835765Y-108997571D01*
X175829804Y-108973773D01*
X175826204Y-108949504D01*
X175825000Y-108925000D01*
X175825000Y-108175000D01*
X175826204Y-108150496D01*
X175829804Y-108126227D01*
X175835765Y-108102429D01*
X175844030Y-108079329D01*
X175854520Y-108057151D01*
X175867133Y-108036107D01*
X175881747Y-108016402D01*
X175898223Y-107998223D01*
X175916402Y-107981747D01*
X175936107Y-107967133D01*
X175957151Y-107954520D01*
X175979329Y-107944030D01*
X176002429Y-107935765D01*
X176026227Y-107929804D01*
X176050496Y-107926204D01*
X176075000Y-107925000D01*
X177325000Y-107925000D01*
X177349504Y-107926204D01*
G37*
G36*
X136849504Y-107926204D02*
G01*
X136873773Y-107929804D01*
X136897571Y-107935765D01*
X136920671Y-107944030D01*
X136942849Y-107954520D01*
X136963893Y-107967133D01*
X136983598Y-107981747D01*
X137001777Y-107998223D01*
X137018253Y-108016402D01*
X137032867Y-108036107D01*
X137045480Y-108057151D01*
X137055970Y-108079329D01*
X137064235Y-108102429D01*
X137070196Y-108126227D01*
X137073796Y-108150496D01*
X137075000Y-108175000D01*
X137075000Y-108925000D01*
X137073796Y-108949504D01*
X137070196Y-108973773D01*
X137064235Y-108997571D01*
X137055970Y-109020671D01*
X137045480Y-109042849D01*
X137032867Y-109063893D01*
X137018253Y-109083598D01*
X137001777Y-109101777D01*
X136983598Y-109118253D01*
X136963893Y-109132867D01*
X136942849Y-109145480D01*
X136920671Y-109155970D01*
X136897571Y-109164235D01*
X136873773Y-109170196D01*
X136849504Y-109173796D01*
X136825000Y-109175000D01*
X135575000Y-109175000D01*
X135550496Y-109173796D01*
X135526227Y-109170196D01*
X135502429Y-109164235D01*
X135479329Y-109155970D01*
X135457151Y-109145480D01*
X135436107Y-109132867D01*
X135416402Y-109118253D01*
X135398223Y-109101777D01*
X135381747Y-109083598D01*
X135367133Y-109063893D01*
X135354520Y-109042849D01*
X135344030Y-109020671D01*
X135335765Y-108997571D01*
X135329804Y-108973773D01*
X135326204Y-108949504D01*
X135325000Y-108925000D01*
X135325000Y-108175000D01*
X135326204Y-108150496D01*
X135329804Y-108126227D01*
X135335765Y-108102429D01*
X135344030Y-108079329D01*
X135354520Y-108057151D01*
X135367133Y-108036107D01*
X135381747Y-108016402D01*
X135398223Y-107998223D01*
X135416402Y-107981747D01*
X135436107Y-107967133D01*
X135457151Y-107954520D01*
X135479329Y-107944030D01*
X135502429Y-107935765D01*
X135526227Y-107929804D01*
X135550496Y-107926204D01*
X135575000Y-107925000D01*
X136825000Y-107925000D01*
X136849504Y-107926204D01*
G37*
G36*
X136849504Y-110726204D02*
G01*
X136873773Y-110729804D01*
X136897571Y-110735765D01*
X136920671Y-110744030D01*
X136942849Y-110754520D01*
X136963893Y-110767133D01*
X136983598Y-110781747D01*
X137001777Y-110798223D01*
X137018253Y-110816402D01*
X137032867Y-110836107D01*
X137045480Y-110857151D01*
X137055970Y-110879329D01*
X137064235Y-110902429D01*
X137070196Y-110926227D01*
X137073796Y-110950496D01*
X137075000Y-110975000D01*
X137075000Y-111725000D01*
X137073796Y-111749504D01*
X137070196Y-111773773D01*
X137064235Y-111797571D01*
X137055970Y-111820671D01*
X137045480Y-111842849D01*
X137032867Y-111863893D01*
X137018253Y-111883598D01*
X137001777Y-111901777D01*
X136983598Y-111918253D01*
X136963893Y-111932867D01*
X136942849Y-111945480D01*
X136920671Y-111955970D01*
X136897571Y-111964235D01*
X136873773Y-111970196D01*
X136849504Y-111973796D01*
X136825000Y-111975000D01*
X135575000Y-111975000D01*
X135550496Y-111973796D01*
X135526227Y-111970196D01*
X135502429Y-111964235D01*
X135479329Y-111955970D01*
X135457151Y-111945480D01*
X135436107Y-111932867D01*
X135416402Y-111918253D01*
X135398223Y-111901777D01*
X135381747Y-111883598D01*
X135367133Y-111863893D01*
X135354520Y-111842849D01*
X135344030Y-111820671D01*
X135335765Y-111797571D01*
X135329804Y-111773773D01*
X135326204Y-111749504D01*
X135325000Y-111725000D01*
X135325000Y-110975000D01*
X135326204Y-110950496D01*
X135329804Y-110926227D01*
X135335765Y-110902429D01*
X135344030Y-110879329D01*
X135354520Y-110857151D01*
X135367133Y-110836107D01*
X135381747Y-110816402D01*
X135398223Y-110798223D01*
X135416402Y-110781747D01*
X135436107Y-110767133D01*
X135457151Y-110754520D01*
X135479329Y-110744030D01*
X135502429Y-110735765D01*
X135526227Y-110729804D01*
X135550496Y-110726204D01*
X135575000Y-110725000D01*
X136825000Y-110725000D01*
X136849504Y-110726204D01*
G37*
G36*
X204349504Y-71026204D02*
G01*
X204373773Y-71029804D01*
X204397571Y-71035765D01*
X204420671Y-71044030D01*
X204442849Y-71054520D01*
X204463893Y-71067133D01*
X204483598Y-71081747D01*
X204501777Y-71098223D01*
X204518253Y-71116402D01*
X204532867Y-71136107D01*
X204545480Y-71157151D01*
X204555970Y-71179329D01*
X204564235Y-71202429D01*
X204570196Y-71226227D01*
X204573796Y-71250496D01*
X204575000Y-71275000D01*
X204575000Y-72025000D01*
X204573796Y-72049504D01*
X204570196Y-72073773D01*
X204564235Y-72097571D01*
X204555970Y-72120671D01*
X204545480Y-72142849D01*
X204532867Y-72163893D01*
X204518253Y-72183598D01*
X204501777Y-72201777D01*
X204483598Y-72218253D01*
X204463893Y-72232867D01*
X204442849Y-72245480D01*
X204420671Y-72255970D01*
X204397571Y-72264235D01*
X204373773Y-72270196D01*
X204349504Y-72273796D01*
X204325000Y-72275000D01*
X203075000Y-72275000D01*
X203050496Y-72273796D01*
X203026227Y-72270196D01*
X203002429Y-72264235D01*
X202979329Y-72255970D01*
X202957151Y-72245480D01*
X202936107Y-72232867D01*
X202916402Y-72218253D01*
X202898223Y-72201777D01*
X202881747Y-72183598D01*
X202867133Y-72163893D01*
X202854520Y-72142849D01*
X202844030Y-72120671D01*
X202835765Y-72097571D01*
X202829804Y-72073773D01*
X202826204Y-72049504D01*
X202825000Y-72025000D01*
X202825000Y-71275000D01*
X202826204Y-71250496D01*
X202829804Y-71226227D01*
X202835765Y-71202429D01*
X202844030Y-71179329D01*
X202854520Y-71157151D01*
X202867133Y-71136107D01*
X202881747Y-71116402D01*
X202898223Y-71098223D01*
X202916402Y-71081747D01*
X202936107Y-71067133D01*
X202957151Y-71054520D01*
X202979329Y-71044030D01*
X203002429Y-71035765D01*
X203026227Y-71029804D01*
X203050496Y-71026204D01*
X203075000Y-71025000D01*
X204325000Y-71025000D01*
X204349504Y-71026204D01*
G37*
G36*
X204349504Y-73826204D02*
G01*
X204373773Y-73829804D01*
X204397571Y-73835765D01*
X204420671Y-73844030D01*
X204442849Y-73854520D01*
X204463893Y-73867133D01*
X204483598Y-73881747D01*
X204501777Y-73898223D01*
X204518253Y-73916402D01*
X204532867Y-73936107D01*
X204545480Y-73957151D01*
X204555970Y-73979329D01*
X204564235Y-74002429D01*
X204570196Y-74026227D01*
X204573796Y-74050496D01*
X204575000Y-74075000D01*
X204575000Y-74825000D01*
X204573796Y-74849504D01*
X204570196Y-74873773D01*
X204564235Y-74897571D01*
X204555970Y-74920671D01*
X204545480Y-74942849D01*
X204532867Y-74963893D01*
X204518253Y-74983598D01*
X204501777Y-75001777D01*
X204483598Y-75018253D01*
X204463893Y-75032867D01*
X204442849Y-75045480D01*
X204420671Y-75055970D01*
X204397571Y-75064235D01*
X204373773Y-75070196D01*
X204349504Y-75073796D01*
X204325000Y-75075000D01*
X203075000Y-75075000D01*
X203050496Y-75073796D01*
X203026227Y-75070196D01*
X203002429Y-75064235D01*
X202979329Y-75055970D01*
X202957151Y-75045480D01*
X202936107Y-75032867D01*
X202916402Y-75018253D01*
X202898223Y-75001777D01*
X202881747Y-74983598D01*
X202867133Y-74963893D01*
X202854520Y-74942849D01*
X202844030Y-74920671D01*
X202835765Y-74897571D01*
X202829804Y-74873773D01*
X202826204Y-74849504D01*
X202825000Y-74825000D01*
X202825000Y-74075000D01*
X202826204Y-74050496D01*
X202829804Y-74026227D01*
X202835765Y-74002429D01*
X202844030Y-73979329D01*
X202854520Y-73957151D01*
X202867133Y-73936107D01*
X202881747Y-73916402D01*
X202898223Y-73898223D01*
X202916402Y-73881747D01*
X202936107Y-73867133D01*
X202957151Y-73854520D01*
X202979329Y-73844030D01*
X203002429Y-73835765D01*
X203026227Y-73829804D01*
X203050496Y-73826204D01*
X203075000Y-73825000D01*
X204325000Y-73825000D01*
X204349504Y-73826204D01*
G37*
G36*
X190849504Y-73826204D02*
G01*
X190873773Y-73829804D01*
X190897571Y-73835765D01*
X190920671Y-73844030D01*
X190942849Y-73854520D01*
X190963893Y-73867133D01*
X190983598Y-73881747D01*
X191001777Y-73898223D01*
X191018253Y-73916402D01*
X191032867Y-73936107D01*
X191045480Y-73957151D01*
X191055970Y-73979329D01*
X191064235Y-74002429D01*
X191070196Y-74026227D01*
X191073796Y-74050496D01*
X191075000Y-74075000D01*
X191075000Y-74825000D01*
X191073796Y-74849504D01*
X191070196Y-74873773D01*
X191064235Y-74897571D01*
X191055970Y-74920671D01*
X191045480Y-74942849D01*
X191032867Y-74963893D01*
X191018253Y-74983598D01*
X191001777Y-75001777D01*
X190983598Y-75018253D01*
X190963893Y-75032867D01*
X190942849Y-75045480D01*
X190920671Y-75055970D01*
X190897571Y-75064235D01*
X190873773Y-75070196D01*
X190849504Y-75073796D01*
X190825000Y-75075000D01*
X189575000Y-75075000D01*
X189550496Y-75073796D01*
X189526227Y-75070196D01*
X189502429Y-75064235D01*
X189479329Y-75055970D01*
X189457151Y-75045480D01*
X189436107Y-75032867D01*
X189416402Y-75018253D01*
X189398223Y-75001777D01*
X189381747Y-74983598D01*
X189367133Y-74963893D01*
X189354520Y-74942849D01*
X189344030Y-74920671D01*
X189335765Y-74897571D01*
X189329804Y-74873773D01*
X189326204Y-74849504D01*
X189325000Y-74825000D01*
X189325000Y-74075000D01*
X189326204Y-74050496D01*
X189329804Y-74026227D01*
X189335765Y-74002429D01*
X189344030Y-73979329D01*
X189354520Y-73957151D01*
X189367133Y-73936107D01*
X189381747Y-73916402D01*
X189398223Y-73898223D01*
X189416402Y-73881747D01*
X189436107Y-73867133D01*
X189457151Y-73854520D01*
X189479329Y-73844030D01*
X189502429Y-73835765D01*
X189526227Y-73829804D01*
X189550496Y-73826204D01*
X189575000Y-73825000D01*
X190825000Y-73825000D01*
X190849504Y-73826204D01*
G37*
G36*
X190849504Y-71026204D02*
G01*
X190873773Y-71029804D01*
X190897571Y-71035765D01*
X190920671Y-71044030D01*
X190942849Y-71054520D01*
X190963893Y-71067133D01*
X190983598Y-71081747D01*
X191001777Y-71098223D01*
X191018253Y-71116402D01*
X191032867Y-71136107D01*
X191045480Y-71157151D01*
X191055970Y-71179329D01*
X191064235Y-71202429D01*
X191070196Y-71226227D01*
X191073796Y-71250496D01*
X191075000Y-71275000D01*
X191075000Y-72025000D01*
X191073796Y-72049504D01*
X191070196Y-72073773D01*
X191064235Y-72097571D01*
X191055970Y-72120671D01*
X191045480Y-72142849D01*
X191032867Y-72163893D01*
X191018253Y-72183598D01*
X191001777Y-72201777D01*
X190983598Y-72218253D01*
X190963893Y-72232867D01*
X190942849Y-72245480D01*
X190920671Y-72255970D01*
X190897571Y-72264235D01*
X190873773Y-72270196D01*
X190849504Y-72273796D01*
X190825000Y-72275000D01*
X189575000Y-72275000D01*
X189550496Y-72273796D01*
X189526227Y-72270196D01*
X189502429Y-72264235D01*
X189479329Y-72255970D01*
X189457151Y-72245480D01*
X189436107Y-72232867D01*
X189416402Y-72218253D01*
X189398223Y-72201777D01*
X189381747Y-72183598D01*
X189367133Y-72163893D01*
X189354520Y-72142849D01*
X189344030Y-72120671D01*
X189335765Y-72097571D01*
X189329804Y-72073773D01*
X189326204Y-72049504D01*
X189325000Y-72025000D01*
X189325000Y-71275000D01*
X189326204Y-71250496D01*
X189329804Y-71226227D01*
X189335765Y-71202429D01*
X189344030Y-71179329D01*
X189354520Y-71157151D01*
X189367133Y-71136107D01*
X189381747Y-71116402D01*
X189398223Y-71098223D01*
X189416402Y-71081747D01*
X189436107Y-71067133D01*
X189457151Y-71054520D01*
X189479329Y-71044030D01*
X189502429Y-71035765D01*
X189526227Y-71029804D01*
X189550496Y-71026204D01*
X189575000Y-71025000D01*
X190825000Y-71025000D01*
X190849504Y-71026204D01*
G37*
G36*
X177349504Y-71026204D02*
G01*
X177373773Y-71029804D01*
X177397571Y-71035765D01*
X177420671Y-71044030D01*
X177442849Y-71054520D01*
X177463893Y-71067133D01*
X177483598Y-71081747D01*
X177501777Y-71098223D01*
X177518253Y-71116402D01*
X177532867Y-71136107D01*
X177545480Y-71157151D01*
X177555970Y-71179329D01*
X177564235Y-71202429D01*
X177570196Y-71226227D01*
X177573796Y-71250496D01*
X177575000Y-71275000D01*
X177575000Y-72025000D01*
X177573796Y-72049504D01*
X177570196Y-72073773D01*
X177564235Y-72097571D01*
X177555970Y-72120671D01*
X177545480Y-72142849D01*
X177532867Y-72163893D01*
X177518253Y-72183598D01*
X177501777Y-72201777D01*
X177483598Y-72218253D01*
X177463893Y-72232867D01*
X177442849Y-72245480D01*
X177420671Y-72255970D01*
X177397571Y-72264235D01*
X177373773Y-72270196D01*
X177349504Y-72273796D01*
X177325000Y-72275000D01*
X176075000Y-72275000D01*
X176050496Y-72273796D01*
X176026227Y-72270196D01*
X176002429Y-72264235D01*
X175979329Y-72255970D01*
X175957151Y-72245480D01*
X175936107Y-72232867D01*
X175916402Y-72218253D01*
X175898223Y-72201777D01*
X175881747Y-72183598D01*
X175867133Y-72163893D01*
X175854520Y-72142849D01*
X175844030Y-72120671D01*
X175835765Y-72097571D01*
X175829804Y-72073773D01*
X175826204Y-72049504D01*
X175825000Y-72025000D01*
X175825000Y-71275000D01*
X175826204Y-71250496D01*
X175829804Y-71226227D01*
X175835765Y-71202429D01*
X175844030Y-71179329D01*
X175854520Y-71157151D01*
X175867133Y-71136107D01*
X175881747Y-71116402D01*
X175898223Y-71098223D01*
X175916402Y-71081747D01*
X175936107Y-71067133D01*
X175957151Y-71054520D01*
X175979329Y-71044030D01*
X176002429Y-71035765D01*
X176026227Y-71029804D01*
X176050496Y-71026204D01*
X176075000Y-71025000D01*
X177325000Y-71025000D01*
X177349504Y-71026204D01*
G37*
G36*
X177349504Y-73826204D02*
G01*
X177373773Y-73829804D01*
X177397571Y-73835765D01*
X177420671Y-73844030D01*
X177442849Y-73854520D01*
X177463893Y-73867133D01*
X177483598Y-73881747D01*
X177501777Y-73898223D01*
X177518253Y-73916402D01*
X177532867Y-73936107D01*
X177545480Y-73957151D01*
X177555970Y-73979329D01*
X177564235Y-74002429D01*
X177570196Y-74026227D01*
X177573796Y-74050496D01*
X177575000Y-74075000D01*
X177575000Y-74825000D01*
X177573796Y-74849504D01*
X177570196Y-74873773D01*
X177564235Y-74897571D01*
X177555970Y-74920671D01*
X177545480Y-74942849D01*
X177532867Y-74963893D01*
X177518253Y-74983598D01*
X177501777Y-75001777D01*
X177483598Y-75018253D01*
X177463893Y-75032867D01*
X177442849Y-75045480D01*
X177420671Y-75055970D01*
X177397571Y-75064235D01*
X177373773Y-75070196D01*
X177349504Y-75073796D01*
X177325000Y-75075000D01*
X176075000Y-75075000D01*
X176050496Y-75073796D01*
X176026227Y-75070196D01*
X176002429Y-75064235D01*
X175979329Y-75055970D01*
X175957151Y-75045480D01*
X175936107Y-75032867D01*
X175916402Y-75018253D01*
X175898223Y-75001777D01*
X175881747Y-74983598D01*
X175867133Y-74963893D01*
X175854520Y-74942849D01*
X175844030Y-74920671D01*
X175835765Y-74897571D01*
X175829804Y-74873773D01*
X175826204Y-74849504D01*
X175825000Y-74825000D01*
X175825000Y-74075000D01*
X175826204Y-74050496D01*
X175829804Y-74026227D01*
X175835765Y-74002429D01*
X175844030Y-73979329D01*
X175854520Y-73957151D01*
X175867133Y-73936107D01*
X175881747Y-73916402D01*
X175898223Y-73898223D01*
X175916402Y-73881747D01*
X175936107Y-73867133D01*
X175957151Y-73854520D01*
X175979329Y-73844030D01*
X176002429Y-73835765D01*
X176026227Y-73829804D01*
X176050496Y-73826204D01*
X176075000Y-73825000D01*
X177325000Y-73825000D01*
X177349504Y-73826204D01*
G37*
G36*
X163849504Y-73826204D02*
G01*
X163873773Y-73829804D01*
X163897571Y-73835765D01*
X163920671Y-73844030D01*
X163942849Y-73854520D01*
X163963893Y-73867133D01*
X163983598Y-73881747D01*
X164001777Y-73898223D01*
X164018253Y-73916402D01*
X164032867Y-73936107D01*
X164045480Y-73957151D01*
X164055970Y-73979329D01*
X164064235Y-74002429D01*
X164070196Y-74026227D01*
X164073796Y-74050496D01*
X164075000Y-74075000D01*
X164075000Y-74825000D01*
X164073796Y-74849504D01*
X164070196Y-74873773D01*
X164064235Y-74897571D01*
X164055970Y-74920671D01*
X164045480Y-74942849D01*
X164032867Y-74963893D01*
X164018253Y-74983598D01*
X164001777Y-75001777D01*
X163983598Y-75018253D01*
X163963893Y-75032867D01*
X163942849Y-75045480D01*
X163920671Y-75055970D01*
X163897571Y-75064235D01*
X163873773Y-75070196D01*
X163849504Y-75073796D01*
X163825000Y-75075000D01*
X162575000Y-75075000D01*
X162550496Y-75073796D01*
X162526227Y-75070196D01*
X162502429Y-75064235D01*
X162479329Y-75055970D01*
X162457151Y-75045480D01*
X162436107Y-75032867D01*
X162416402Y-75018253D01*
X162398223Y-75001777D01*
X162381747Y-74983598D01*
X162367133Y-74963893D01*
X162354520Y-74942849D01*
X162344030Y-74920671D01*
X162335765Y-74897571D01*
X162329804Y-74873773D01*
X162326204Y-74849504D01*
X162325000Y-74825000D01*
X162325000Y-74075000D01*
X162326204Y-74050496D01*
X162329804Y-74026227D01*
X162335765Y-74002429D01*
X162344030Y-73979329D01*
X162354520Y-73957151D01*
X162367133Y-73936107D01*
X162381747Y-73916402D01*
X162398223Y-73898223D01*
X162416402Y-73881747D01*
X162436107Y-73867133D01*
X162457151Y-73854520D01*
X162479329Y-73844030D01*
X162502429Y-73835765D01*
X162526227Y-73829804D01*
X162550496Y-73826204D01*
X162575000Y-73825000D01*
X163825000Y-73825000D01*
X163849504Y-73826204D01*
G37*
G36*
X163849504Y-71026204D02*
G01*
X163873773Y-71029804D01*
X163897571Y-71035765D01*
X163920671Y-71044030D01*
X163942849Y-71054520D01*
X163963893Y-71067133D01*
X163983598Y-71081747D01*
X164001777Y-71098223D01*
X164018253Y-71116402D01*
X164032867Y-71136107D01*
X164045480Y-71157151D01*
X164055970Y-71179329D01*
X164064235Y-71202429D01*
X164070196Y-71226227D01*
X164073796Y-71250496D01*
X164075000Y-71275000D01*
X164075000Y-72025000D01*
X164073796Y-72049504D01*
X164070196Y-72073773D01*
X164064235Y-72097571D01*
X164055970Y-72120671D01*
X164045480Y-72142849D01*
X164032867Y-72163893D01*
X164018253Y-72183598D01*
X164001777Y-72201777D01*
X163983598Y-72218253D01*
X163963893Y-72232867D01*
X163942849Y-72245480D01*
X163920671Y-72255970D01*
X163897571Y-72264235D01*
X163873773Y-72270196D01*
X163849504Y-72273796D01*
X163825000Y-72275000D01*
X162575000Y-72275000D01*
X162550496Y-72273796D01*
X162526227Y-72270196D01*
X162502429Y-72264235D01*
X162479329Y-72255970D01*
X162457151Y-72245480D01*
X162436107Y-72232867D01*
X162416402Y-72218253D01*
X162398223Y-72201777D01*
X162381747Y-72183598D01*
X162367133Y-72163893D01*
X162354520Y-72142849D01*
X162344030Y-72120671D01*
X162335765Y-72097571D01*
X162329804Y-72073773D01*
X162326204Y-72049504D01*
X162325000Y-72025000D01*
X162325000Y-71275000D01*
X162326204Y-71250496D01*
X162329804Y-71226227D01*
X162335765Y-71202429D01*
X162344030Y-71179329D01*
X162354520Y-71157151D01*
X162367133Y-71136107D01*
X162381747Y-71116402D01*
X162398223Y-71098223D01*
X162416402Y-71081747D01*
X162436107Y-71067133D01*
X162457151Y-71054520D01*
X162479329Y-71044030D01*
X162502429Y-71035765D01*
X162526227Y-71029804D01*
X162550496Y-71026204D01*
X162575000Y-71025000D01*
X163825000Y-71025000D01*
X163849504Y-71026204D01*
G37*
G36*
X150349504Y-71026204D02*
G01*
X150373773Y-71029804D01*
X150397571Y-71035765D01*
X150420671Y-71044030D01*
X150442849Y-71054520D01*
X150463893Y-71067133D01*
X150483598Y-71081747D01*
X150501777Y-71098223D01*
X150518253Y-71116402D01*
X150532867Y-71136107D01*
X150545480Y-71157151D01*
X150555970Y-71179329D01*
X150564235Y-71202429D01*
X150570196Y-71226227D01*
X150573796Y-71250496D01*
X150575000Y-71275000D01*
X150575000Y-72025000D01*
X150573796Y-72049504D01*
X150570196Y-72073773D01*
X150564235Y-72097571D01*
X150555970Y-72120671D01*
X150545480Y-72142849D01*
X150532867Y-72163893D01*
X150518253Y-72183598D01*
X150501777Y-72201777D01*
X150483598Y-72218253D01*
X150463893Y-72232867D01*
X150442849Y-72245480D01*
X150420671Y-72255970D01*
X150397571Y-72264235D01*
X150373773Y-72270196D01*
X150349504Y-72273796D01*
X150325000Y-72275000D01*
X149075000Y-72275000D01*
X149050496Y-72273796D01*
X149026227Y-72270196D01*
X149002429Y-72264235D01*
X148979329Y-72255970D01*
X148957151Y-72245480D01*
X148936107Y-72232867D01*
X148916402Y-72218253D01*
X148898223Y-72201777D01*
X148881747Y-72183598D01*
X148867133Y-72163893D01*
X148854520Y-72142849D01*
X148844030Y-72120671D01*
X148835765Y-72097571D01*
X148829804Y-72073773D01*
X148826204Y-72049504D01*
X148825000Y-72025000D01*
X148825000Y-71275000D01*
X148826204Y-71250496D01*
X148829804Y-71226227D01*
X148835765Y-71202429D01*
X148844030Y-71179329D01*
X148854520Y-71157151D01*
X148867133Y-71136107D01*
X148881747Y-71116402D01*
X148898223Y-71098223D01*
X148916402Y-71081747D01*
X148936107Y-71067133D01*
X148957151Y-71054520D01*
X148979329Y-71044030D01*
X149002429Y-71035765D01*
X149026227Y-71029804D01*
X149050496Y-71026204D01*
X149075000Y-71025000D01*
X150325000Y-71025000D01*
X150349504Y-71026204D01*
G37*
G36*
X150349504Y-73826204D02*
G01*
X150373773Y-73829804D01*
X150397571Y-73835765D01*
X150420671Y-73844030D01*
X150442849Y-73854520D01*
X150463893Y-73867133D01*
X150483598Y-73881747D01*
X150501777Y-73898223D01*
X150518253Y-73916402D01*
X150532867Y-73936107D01*
X150545480Y-73957151D01*
X150555970Y-73979329D01*
X150564235Y-74002429D01*
X150570196Y-74026227D01*
X150573796Y-74050496D01*
X150575000Y-74075000D01*
X150575000Y-74825000D01*
X150573796Y-74849504D01*
X150570196Y-74873773D01*
X150564235Y-74897571D01*
X150555970Y-74920671D01*
X150545480Y-74942849D01*
X150532867Y-74963893D01*
X150518253Y-74983598D01*
X150501777Y-75001777D01*
X150483598Y-75018253D01*
X150463893Y-75032867D01*
X150442849Y-75045480D01*
X150420671Y-75055970D01*
X150397571Y-75064235D01*
X150373773Y-75070196D01*
X150349504Y-75073796D01*
X150325000Y-75075000D01*
X149075000Y-75075000D01*
X149050496Y-75073796D01*
X149026227Y-75070196D01*
X149002429Y-75064235D01*
X148979329Y-75055970D01*
X148957151Y-75045480D01*
X148936107Y-75032867D01*
X148916402Y-75018253D01*
X148898223Y-75001777D01*
X148881747Y-74983598D01*
X148867133Y-74963893D01*
X148854520Y-74942849D01*
X148844030Y-74920671D01*
X148835765Y-74897571D01*
X148829804Y-74873773D01*
X148826204Y-74849504D01*
X148825000Y-74825000D01*
X148825000Y-74075000D01*
X148826204Y-74050496D01*
X148829804Y-74026227D01*
X148835765Y-74002429D01*
X148844030Y-73979329D01*
X148854520Y-73957151D01*
X148867133Y-73936107D01*
X148881747Y-73916402D01*
X148898223Y-73898223D01*
X148916402Y-73881747D01*
X148936107Y-73867133D01*
X148957151Y-73854520D01*
X148979329Y-73844030D01*
X149002429Y-73835765D01*
X149026227Y-73829804D01*
X149050496Y-73826204D01*
X149075000Y-73825000D01*
X150325000Y-73825000D01*
X150349504Y-73826204D01*
G37*
G36*
X136849504Y-73826204D02*
G01*
X136873773Y-73829804D01*
X136897571Y-73835765D01*
X136920671Y-73844030D01*
X136942849Y-73854520D01*
X136963893Y-73867133D01*
X136983598Y-73881747D01*
X137001777Y-73898223D01*
X137018253Y-73916402D01*
X137032867Y-73936107D01*
X137045480Y-73957151D01*
X137055970Y-73979329D01*
X137064235Y-74002429D01*
X137070196Y-74026227D01*
X137073796Y-74050496D01*
X137075000Y-74075000D01*
X137075000Y-74825000D01*
X137073796Y-74849504D01*
X137070196Y-74873773D01*
X137064235Y-74897571D01*
X137055970Y-74920671D01*
X137045480Y-74942849D01*
X137032867Y-74963893D01*
X137018253Y-74983598D01*
X137001777Y-75001777D01*
X136983598Y-75018253D01*
X136963893Y-75032867D01*
X136942849Y-75045480D01*
X136920671Y-75055970D01*
X136897571Y-75064235D01*
X136873773Y-75070196D01*
X136849504Y-75073796D01*
X136825000Y-75075000D01*
X135575000Y-75075000D01*
X135550496Y-75073796D01*
X135526227Y-75070196D01*
X135502429Y-75064235D01*
X135479329Y-75055970D01*
X135457151Y-75045480D01*
X135436107Y-75032867D01*
X135416402Y-75018253D01*
X135398223Y-75001777D01*
X135381747Y-74983598D01*
X135367133Y-74963893D01*
X135354520Y-74942849D01*
X135344030Y-74920671D01*
X135335765Y-74897571D01*
X135329804Y-74873773D01*
X135326204Y-74849504D01*
X135325000Y-74825000D01*
X135325000Y-74075000D01*
X135326204Y-74050496D01*
X135329804Y-74026227D01*
X135335765Y-74002429D01*
X135344030Y-73979329D01*
X135354520Y-73957151D01*
X135367133Y-73936107D01*
X135381747Y-73916402D01*
X135398223Y-73898223D01*
X135416402Y-73881747D01*
X135436107Y-73867133D01*
X135457151Y-73854520D01*
X135479329Y-73844030D01*
X135502429Y-73835765D01*
X135526227Y-73829804D01*
X135550496Y-73826204D01*
X135575000Y-73825000D01*
X136825000Y-73825000D01*
X136849504Y-73826204D01*
G37*
G36*
X136849504Y-71026204D02*
G01*
X136873773Y-71029804D01*
X136897571Y-71035765D01*
X136920671Y-71044030D01*
X136942849Y-71054520D01*
X136963893Y-71067133D01*
X136983598Y-71081747D01*
X137001777Y-71098223D01*
X137018253Y-71116402D01*
X137032867Y-71136107D01*
X137045480Y-71157151D01*
X137055970Y-71179329D01*
X137064235Y-71202429D01*
X137070196Y-71226227D01*
X137073796Y-71250496D01*
X137075000Y-71275000D01*
X137075000Y-72025000D01*
X137073796Y-72049504D01*
X137070196Y-72073773D01*
X137064235Y-72097571D01*
X137055970Y-72120671D01*
X137045480Y-72142849D01*
X137032867Y-72163893D01*
X137018253Y-72183598D01*
X137001777Y-72201777D01*
X136983598Y-72218253D01*
X136963893Y-72232867D01*
X136942849Y-72245480D01*
X136920671Y-72255970D01*
X136897571Y-72264235D01*
X136873773Y-72270196D01*
X136849504Y-72273796D01*
X136825000Y-72275000D01*
X135575000Y-72275000D01*
X135550496Y-72273796D01*
X135526227Y-72270196D01*
X135502429Y-72264235D01*
X135479329Y-72255970D01*
X135457151Y-72245480D01*
X135436107Y-72232867D01*
X135416402Y-72218253D01*
X135398223Y-72201777D01*
X135381747Y-72183598D01*
X135367133Y-72163893D01*
X135354520Y-72142849D01*
X135344030Y-72120671D01*
X135335765Y-72097571D01*
X135329804Y-72073773D01*
X135326204Y-72049504D01*
X135325000Y-72025000D01*
X135325000Y-71275000D01*
X135326204Y-71250496D01*
X135329804Y-71226227D01*
X135335765Y-71202429D01*
X135344030Y-71179329D01*
X135354520Y-71157151D01*
X135367133Y-71136107D01*
X135381747Y-71116402D01*
X135398223Y-71098223D01*
X135416402Y-71081747D01*
X135436107Y-71067133D01*
X135457151Y-71054520D01*
X135479329Y-71044030D01*
X135502429Y-71035765D01*
X135526227Y-71029804D01*
X135550496Y-71026204D01*
X135575000Y-71025000D01*
X136825000Y-71025000D01*
X136849504Y-71026204D01*
G37*
M02*
