G04 #@! TF.GenerationSoftware,KiCad,Pcbnew,(5.1.5)-3*
G04 #@! TF.CreationDate,2020-08-22T08:16:36+03:00*
G04 #@! TF.ProjectId,C5W LED series,43355720-4c45-4442-9073-65726965732e,rev?*
G04 #@! TF.SameCoordinates,Original*
G04 #@! TF.FileFunction,Copper,L1,Top*
G04 #@! TF.FilePolarity,Positive*
%FSLAX46Y46*%
G04 Gerber Fmt 4.6, Leading zero omitted, Abs format (unit mm)*
G04 Created by KiCad (PCBNEW (5.1.5)-3) date 2020-08-22 08:16:36*
%MOMM*%
%LPD*%
G04 APERTURE LIST*
%ADD10C,0.750000*%
%ADD11R,1.500000X2.400000*%
%ADD12R,1.500000X1.050000*%
%ADD13R,2.200000X1.250000*%
%ADD14R,2.200000X2.200000*%
%ADD15C,0.800000*%
%ADD16C,0.254000*%
G04 APERTURE END LIST*
D10*
X125400000Y-51700000D03*
X170200000Y-131400000D03*
X214500000Y-55100000D03*
D11*
X203700000Y-96700000D03*
D12*
X203700000Y-99075000D03*
D13*
X149700000Y-115525000D03*
D14*
X149700000Y-113250000D03*
D13*
X203700000Y-115525000D03*
D14*
X203700000Y-113250000D03*
X163200000Y-113250000D03*
D13*
X163200000Y-115525000D03*
D11*
X149700000Y-96700000D03*
D12*
X149700000Y-99075000D03*
D13*
X149700000Y-107125000D03*
D14*
X149700000Y-104850000D03*
D13*
X203700000Y-107125000D03*
D14*
X203700000Y-104850000D03*
X190200000Y-104850000D03*
D13*
X190200000Y-107125000D03*
D14*
X163200000Y-104850000D03*
D13*
X163200000Y-107125000D03*
D14*
X190200000Y-113250000D03*
D13*
X190200000Y-115525000D03*
X176700000Y-115525000D03*
D14*
X176700000Y-113250000D03*
D12*
X163200000Y-99075000D03*
D11*
X163200000Y-96700000D03*
D13*
X176700000Y-107125000D03*
D14*
X176700000Y-104850000D03*
D12*
X190200000Y-99075000D03*
D11*
X190200000Y-96700000D03*
X176700000Y-96700000D03*
D12*
X176700000Y-99075000D03*
D14*
X136200000Y-113250000D03*
D13*
X136200000Y-115525000D03*
D14*
X136200000Y-104850000D03*
D13*
X136200000Y-107125000D03*
D12*
X136200000Y-99075000D03*
D11*
X136200000Y-96700000D03*
D14*
X203700000Y-67950000D03*
D13*
X203700000Y-70225000D03*
D14*
X203700000Y-76350000D03*
D13*
X203700000Y-78625000D03*
D12*
X203700000Y-62175000D03*
D11*
X203700000Y-59800000D03*
D13*
X190200000Y-78625000D03*
D14*
X190200000Y-76350000D03*
D13*
X190200000Y-70225000D03*
D14*
X190200000Y-67950000D03*
D11*
X190200000Y-59800000D03*
D12*
X190200000Y-62175000D03*
D14*
X176700000Y-76350000D03*
D13*
X176700000Y-78625000D03*
D14*
X176700000Y-67950000D03*
D13*
X176700000Y-70225000D03*
D12*
X176700000Y-62175000D03*
D11*
X176700000Y-59800000D03*
D13*
X163200000Y-78625000D03*
D14*
X163200000Y-76350000D03*
D11*
X163200000Y-59800000D03*
D12*
X163200000Y-62175000D03*
D13*
X163200000Y-70225000D03*
D14*
X163200000Y-67950000D03*
X149700000Y-76350000D03*
D13*
X149700000Y-78625000D03*
D14*
X149700000Y-67950000D03*
D13*
X149700000Y-70225000D03*
D12*
X149700000Y-62175000D03*
D11*
X149700000Y-59800000D03*
D13*
X136200000Y-70225000D03*
D14*
X136200000Y-67950000D03*
D13*
X136200000Y-78625000D03*
D14*
X136200000Y-76350000D03*
D11*
X136200000Y-59800000D03*
D12*
X136200000Y-62175000D03*
D15*
X134000000Y-78750000D03*
X134000000Y-80000000D03*
X135000000Y-80000000D03*
X136250000Y-80000000D03*
X137500000Y-80000000D03*
X138500000Y-80000000D03*
X138500000Y-78750000D03*
X135000000Y-81000000D03*
X136250000Y-81000000D03*
X137500000Y-81000000D03*
X137500000Y-82000000D03*
X138500000Y-82000000D03*
X138500000Y-81000000D03*
X136250000Y-82000000D03*
X135000000Y-82000000D03*
X134000000Y-82000000D03*
X134000000Y-81000000D03*
X149750000Y-82000000D03*
X152000000Y-80000000D03*
X151000000Y-80000000D03*
X147500000Y-80000000D03*
X148500000Y-81000000D03*
X148500000Y-80000000D03*
X152000000Y-82000000D03*
X152000000Y-81000000D03*
X147500000Y-82000000D03*
X147500000Y-81000000D03*
X152000000Y-78750000D03*
X149750000Y-80000000D03*
X147500000Y-78750000D03*
X148500000Y-82000000D03*
X151000000Y-81000000D03*
X151000000Y-82000000D03*
X149750000Y-81000000D03*
X165500000Y-81000000D03*
X161000000Y-82000000D03*
X161000000Y-80000000D03*
X162000000Y-80000000D03*
X165500000Y-78750000D03*
X165500000Y-80000000D03*
X165500000Y-82000000D03*
X162000000Y-81000000D03*
X161000000Y-81000000D03*
X163250000Y-80000000D03*
X164500000Y-80000000D03*
X163250000Y-82000000D03*
X163250000Y-81000000D03*
X162000000Y-82000000D03*
X161000000Y-78750000D03*
X164500000Y-82000000D03*
X164500000Y-81000000D03*
X178000000Y-80000000D03*
X179000000Y-78750000D03*
X176750000Y-82000000D03*
X174500000Y-82000000D03*
X175500000Y-81000000D03*
X174500000Y-80000000D03*
X174500000Y-81000000D03*
X176750000Y-80000000D03*
X179000000Y-80000000D03*
X179000000Y-82000000D03*
X179000000Y-81000000D03*
X175500000Y-80000000D03*
X176750000Y-81000000D03*
X178000000Y-82000000D03*
X178000000Y-81000000D03*
X175500000Y-82000000D03*
X174500000Y-78750000D03*
X191500000Y-82000000D03*
X188000000Y-78750000D03*
X190250000Y-81000000D03*
X191500000Y-81000000D03*
X189000000Y-82000000D03*
X192500000Y-78750000D03*
X190250000Y-82000000D03*
X190250000Y-80000000D03*
X192500000Y-82000000D03*
X188000000Y-80000000D03*
X192500000Y-80000000D03*
X192500000Y-81000000D03*
X188000000Y-81000000D03*
X191500000Y-80000000D03*
X189000000Y-81000000D03*
X188000000Y-82000000D03*
X189000000Y-80000000D03*
X203750000Y-81000000D03*
X202500000Y-82000000D03*
X205000000Y-82000000D03*
X201500000Y-82000000D03*
X201500000Y-78750000D03*
X205000000Y-80000000D03*
X203750000Y-82000000D03*
X206000000Y-82000000D03*
X201500000Y-81000000D03*
X206000000Y-78750000D03*
X201500000Y-80000000D03*
X206000000Y-80000000D03*
X202500000Y-81000000D03*
X206000000Y-81000000D03*
X203750000Y-80000000D03*
X205000000Y-81000000D03*
X202500000Y-80000000D03*
X136250000Y-118900000D03*
X138500000Y-116900000D03*
X137500000Y-116900000D03*
X134000000Y-116900000D03*
X135000000Y-117900000D03*
X135000000Y-116900000D03*
X138500000Y-118900000D03*
X138500000Y-117900000D03*
X134000000Y-118900000D03*
X134000000Y-117900000D03*
X138500000Y-115650000D03*
X136250000Y-116900000D03*
X134000000Y-115650000D03*
X135000000Y-118900000D03*
X137500000Y-117900000D03*
X137500000Y-118900000D03*
X136250000Y-117900000D03*
X190250000Y-117900000D03*
X189000000Y-118900000D03*
X191500000Y-118900000D03*
X188000000Y-118900000D03*
X188000000Y-115650000D03*
X191500000Y-116900000D03*
X190250000Y-118900000D03*
X192500000Y-118900000D03*
X188000000Y-117900000D03*
X192500000Y-115650000D03*
X188000000Y-116900000D03*
X192500000Y-116900000D03*
X189000000Y-117900000D03*
X192500000Y-117900000D03*
X190250000Y-116900000D03*
X191500000Y-117900000D03*
X189000000Y-116900000D03*
X178000000Y-118900000D03*
X174500000Y-115650000D03*
X176750000Y-117900000D03*
X178000000Y-117900000D03*
X175500000Y-118900000D03*
X152000000Y-117900000D03*
X147500000Y-118900000D03*
X147500000Y-116900000D03*
X148500000Y-116900000D03*
X152000000Y-115650000D03*
X152000000Y-116900000D03*
X152000000Y-118900000D03*
X148500000Y-117900000D03*
X147500000Y-117900000D03*
X149750000Y-116900000D03*
X151000000Y-116900000D03*
X149750000Y-118900000D03*
X164500000Y-116900000D03*
X165500000Y-115650000D03*
X163250000Y-118900000D03*
X161000000Y-118900000D03*
X149750000Y-117900000D03*
X162000000Y-117900000D03*
X161000000Y-116900000D03*
X148500000Y-118900000D03*
X161000000Y-117900000D03*
X163250000Y-116900000D03*
X165500000Y-116900000D03*
X165500000Y-118900000D03*
X147500000Y-115650000D03*
X151000000Y-118900000D03*
X165500000Y-117900000D03*
X151000000Y-117900000D03*
X162000000Y-116900000D03*
X179000000Y-115650000D03*
X176750000Y-118900000D03*
X176750000Y-116900000D03*
X179000000Y-118900000D03*
X174500000Y-116900000D03*
X163250000Y-117900000D03*
X179000000Y-116900000D03*
X179000000Y-117900000D03*
X174500000Y-117900000D03*
X178000000Y-116900000D03*
X175500000Y-117900000D03*
X164500000Y-118900000D03*
X174500000Y-118900000D03*
X164500000Y-117900000D03*
X162000000Y-118900000D03*
X161000000Y-115650000D03*
X175500000Y-116900000D03*
X201500000Y-116900000D03*
X201500000Y-115650000D03*
X206000000Y-115650000D03*
X203750000Y-118900000D03*
X203750000Y-116900000D03*
X201500000Y-117900000D03*
X201500000Y-118900000D03*
X206000000Y-118900000D03*
X202500000Y-118900000D03*
X202500000Y-117900000D03*
X203750000Y-117900000D03*
X205000000Y-118900000D03*
X206000000Y-116900000D03*
X205000000Y-116900000D03*
X206000000Y-117900000D03*
X202500000Y-116900000D03*
X205000000Y-117900000D03*
X136250000Y-57750000D03*
X135250000Y-57750000D03*
X137250000Y-57750000D03*
X138000000Y-58500000D03*
X138000000Y-59500000D03*
X134250000Y-58500000D03*
X134250000Y-59500000D03*
X138000000Y-60500000D03*
X134250000Y-60500000D03*
X148750000Y-57750000D03*
X150750000Y-57750000D03*
X147750000Y-58500000D03*
X147750000Y-59500000D03*
X149750000Y-57750000D03*
X147750000Y-60500000D03*
X151500000Y-59500000D03*
X151500000Y-60500000D03*
X151500000Y-58500000D03*
X161250000Y-58500000D03*
X162250000Y-57750000D03*
X164250000Y-57750000D03*
X163250000Y-57750000D03*
X161250000Y-59500000D03*
X161250000Y-60500000D03*
X165000000Y-58500000D03*
X165000000Y-60500000D03*
X165000000Y-59500000D03*
X177750000Y-57750000D03*
X175750000Y-57750000D03*
X174750000Y-59500000D03*
X176750000Y-57750000D03*
X174750000Y-58500000D03*
X178500000Y-59500000D03*
X178500000Y-58500000D03*
X178500000Y-60500000D03*
X174750000Y-60500000D03*
X192000000Y-58500000D03*
X192000000Y-59500000D03*
X188250000Y-60500000D03*
X192000000Y-60500000D03*
X188250000Y-59500000D03*
X190250000Y-57750000D03*
X191250000Y-57750000D03*
X189250000Y-57750000D03*
X188250000Y-58500000D03*
X205500000Y-60500000D03*
X204750000Y-57750000D03*
X202750000Y-57750000D03*
X201750000Y-58500000D03*
X201750000Y-59500000D03*
X205500000Y-58500000D03*
X203750000Y-57750000D03*
X205500000Y-59500000D03*
X201750000Y-60500000D03*
X135250000Y-94650000D03*
X137250000Y-94650000D03*
X134250000Y-95400000D03*
X134250000Y-96400000D03*
X136250000Y-94650000D03*
X134250000Y-97400000D03*
X138000000Y-96400000D03*
X138000000Y-97400000D03*
X138000000Y-95400000D03*
X192000000Y-97400000D03*
X191250000Y-94650000D03*
X189250000Y-94650000D03*
X188250000Y-95400000D03*
X188250000Y-96400000D03*
X192000000Y-95400000D03*
X190250000Y-94650000D03*
X192000000Y-96400000D03*
X188250000Y-97400000D03*
X178500000Y-95400000D03*
X178500000Y-96400000D03*
X174750000Y-97400000D03*
X178500000Y-97400000D03*
X147750000Y-95400000D03*
X148750000Y-94650000D03*
X150750000Y-94650000D03*
X149750000Y-94650000D03*
X147750000Y-96400000D03*
X164250000Y-94650000D03*
X147750000Y-97400000D03*
X162250000Y-94650000D03*
X151500000Y-95400000D03*
X161250000Y-96400000D03*
X163250000Y-94650000D03*
X151500000Y-97400000D03*
X151500000Y-96400000D03*
X161250000Y-95400000D03*
X174750000Y-96400000D03*
X176750000Y-94650000D03*
X165000000Y-96400000D03*
X165000000Y-95400000D03*
X165000000Y-97400000D03*
X177750000Y-94650000D03*
X161250000Y-97400000D03*
X175750000Y-94650000D03*
X174750000Y-95400000D03*
X201750000Y-95400000D03*
X204750000Y-94650000D03*
X205500000Y-97400000D03*
X202750000Y-94650000D03*
X201750000Y-96400000D03*
X203750000Y-94650000D03*
X205500000Y-96400000D03*
X205500000Y-95400000D03*
X201750000Y-97400000D03*
X134000000Y-76750000D03*
X134000000Y-75500000D03*
X138500000Y-76750000D03*
X138500000Y-75500000D03*
X138500000Y-74250000D03*
X134000000Y-74250000D03*
X134000000Y-70500000D03*
X134000000Y-71750000D03*
X134000000Y-73000000D03*
X138500000Y-70500000D03*
X138500000Y-71750000D03*
X138500000Y-73000000D03*
X139500000Y-76750000D03*
X139500000Y-75500000D03*
X133000000Y-76750000D03*
X133000000Y-75500000D03*
X133000000Y-71750000D03*
X133000000Y-70500000D03*
X139500000Y-71750000D03*
X139500000Y-70500000D03*
X139500000Y-74250000D03*
X139500000Y-73000000D03*
X133000000Y-74250000D03*
X133000000Y-73000000D03*
X153000000Y-73000000D03*
X146500000Y-70500000D03*
X153000000Y-71750000D03*
X153000000Y-70500000D03*
X153000000Y-74250000D03*
X146500000Y-74250000D03*
X146500000Y-73000000D03*
X152000000Y-71750000D03*
X152000000Y-73000000D03*
X153000000Y-76750000D03*
X147500000Y-70500000D03*
X153000000Y-75500000D03*
X146500000Y-76750000D03*
X146500000Y-75500000D03*
X146500000Y-71750000D03*
X147500000Y-76750000D03*
X152000000Y-75500000D03*
X147500000Y-71750000D03*
X152000000Y-70500000D03*
X152000000Y-76750000D03*
X152000000Y-74250000D03*
X147500000Y-74250000D03*
X147500000Y-75500000D03*
X147500000Y-73000000D03*
X165500000Y-73000000D03*
X166500000Y-74250000D03*
X165500000Y-71750000D03*
X161000000Y-76750000D03*
X160000000Y-71750000D03*
X166500000Y-71750000D03*
X166500000Y-73000000D03*
X160000000Y-76750000D03*
X160000000Y-74250000D03*
X166500000Y-76750000D03*
X160000000Y-73000000D03*
X166500000Y-75500000D03*
X166500000Y-70500000D03*
X160000000Y-75500000D03*
X161000000Y-70500000D03*
X160000000Y-70500000D03*
X165500000Y-70500000D03*
X165500000Y-75500000D03*
X165500000Y-74250000D03*
X161000000Y-73000000D03*
X165500000Y-76750000D03*
X161000000Y-75500000D03*
X161000000Y-71750000D03*
X161000000Y-74250000D03*
X180000000Y-71750000D03*
X179000000Y-73000000D03*
X180000000Y-74250000D03*
X173500000Y-76750000D03*
X180000000Y-73000000D03*
X174500000Y-76750000D03*
X180000000Y-76750000D03*
X173500000Y-74250000D03*
X173500000Y-73000000D03*
X179000000Y-71750000D03*
X180000000Y-75500000D03*
X173500000Y-75500000D03*
X180000000Y-70500000D03*
X173500000Y-71750000D03*
X173500000Y-70500000D03*
X174500000Y-70500000D03*
X174500000Y-73000000D03*
X179000000Y-74250000D03*
X179000000Y-75500000D03*
X174500000Y-74250000D03*
X179000000Y-76750000D03*
X174500000Y-75500000D03*
X174500000Y-71750000D03*
X179000000Y-70500000D03*
X188000000Y-70500000D03*
X188000000Y-71750000D03*
X188000000Y-73000000D03*
X192500000Y-70500000D03*
X192500000Y-75500000D03*
X188000000Y-75500000D03*
X192500000Y-76750000D03*
X192500000Y-74250000D03*
X188000000Y-74250000D03*
X187000000Y-74250000D03*
X193500000Y-73000000D03*
X193500000Y-71750000D03*
X193500000Y-76750000D03*
X187000000Y-76750000D03*
X188000000Y-76750000D03*
X192500000Y-73000000D03*
X193500000Y-74250000D03*
X187000000Y-71750000D03*
X187000000Y-70500000D03*
X192500000Y-71750000D03*
X187000000Y-75500000D03*
X187000000Y-73000000D03*
X193500000Y-70500000D03*
X193500000Y-75500000D03*
X207000000Y-73000000D03*
X201500000Y-76750000D03*
X200500000Y-70500000D03*
X206000000Y-71750000D03*
X200500000Y-75500000D03*
X201500000Y-73000000D03*
X206000000Y-73000000D03*
X207000000Y-74250000D03*
X200500000Y-74250000D03*
X206000000Y-75500000D03*
X201500000Y-75500000D03*
X201500000Y-70500000D03*
X207000000Y-71750000D03*
X207000000Y-76750000D03*
X200500000Y-76750000D03*
X206000000Y-74250000D03*
X201500000Y-74250000D03*
X200500000Y-71750000D03*
X206000000Y-70500000D03*
X206000000Y-76750000D03*
X201500000Y-71750000D03*
X207000000Y-75500000D03*
X200500000Y-73000000D03*
X207000000Y-70500000D03*
X139500000Y-109900000D03*
X133000000Y-107400000D03*
X139500000Y-108650000D03*
X139500000Y-107400000D03*
X139500000Y-111150000D03*
X133000000Y-111150000D03*
X133000000Y-109900000D03*
X138500000Y-108650000D03*
X138500000Y-109900000D03*
X139500000Y-113650000D03*
X134000000Y-107400000D03*
X139500000Y-112400000D03*
X133000000Y-113650000D03*
X133000000Y-112400000D03*
X133000000Y-108650000D03*
X134000000Y-113650000D03*
X138500000Y-112400000D03*
X134000000Y-108650000D03*
X138500000Y-107400000D03*
X138500000Y-113650000D03*
X138500000Y-111150000D03*
X134000000Y-111150000D03*
X134000000Y-112400000D03*
X134000000Y-109900000D03*
X193500000Y-109900000D03*
X188000000Y-113650000D03*
X187000000Y-107400000D03*
X192500000Y-108650000D03*
X187000000Y-112400000D03*
X188000000Y-109900000D03*
X192500000Y-109900000D03*
X193500000Y-111150000D03*
X187000000Y-111150000D03*
X192500000Y-112400000D03*
X188000000Y-112400000D03*
X188000000Y-107400000D03*
X193500000Y-108650000D03*
X193500000Y-113650000D03*
X187000000Y-113650000D03*
X192500000Y-111150000D03*
X188000000Y-111150000D03*
X187000000Y-108650000D03*
X192500000Y-107400000D03*
X192500000Y-113650000D03*
X188000000Y-108650000D03*
X193500000Y-112400000D03*
X187000000Y-109900000D03*
X193500000Y-107400000D03*
X174500000Y-107400000D03*
X174500000Y-108650000D03*
X174500000Y-109900000D03*
X179000000Y-107400000D03*
X179000000Y-112400000D03*
X174500000Y-112400000D03*
X179000000Y-113650000D03*
X179000000Y-111150000D03*
X174500000Y-111150000D03*
X152000000Y-109900000D03*
X153000000Y-111150000D03*
X152000000Y-108650000D03*
X147500000Y-113650000D03*
X146500000Y-108650000D03*
X153000000Y-108650000D03*
X153000000Y-109900000D03*
X146500000Y-113650000D03*
X146500000Y-111150000D03*
X153000000Y-113650000D03*
X146500000Y-109900000D03*
X153000000Y-112400000D03*
X153000000Y-107400000D03*
X146500000Y-112400000D03*
X147500000Y-107400000D03*
X146500000Y-107400000D03*
X152000000Y-107400000D03*
X166500000Y-108650000D03*
X165500000Y-109900000D03*
X166500000Y-111150000D03*
X152000000Y-112400000D03*
X152000000Y-111150000D03*
X147500000Y-109900000D03*
X152000000Y-113650000D03*
X160000000Y-113650000D03*
X147500000Y-112400000D03*
X147500000Y-108650000D03*
X147500000Y-111150000D03*
X166500000Y-109900000D03*
X161000000Y-113650000D03*
X166500000Y-113650000D03*
X160000000Y-111150000D03*
X160000000Y-109900000D03*
X165500000Y-108650000D03*
X166500000Y-112400000D03*
X160000000Y-112400000D03*
X166500000Y-107400000D03*
X160000000Y-108650000D03*
X160000000Y-107400000D03*
X173500000Y-111150000D03*
X161000000Y-107400000D03*
X161000000Y-109900000D03*
X165500000Y-111150000D03*
X165500000Y-112400000D03*
X161000000Y-111150000D03*
X165500000Y-113650000D03*
X180000000Y-109900000D03*
X161000000Y-112400000D03*
X180000000Y-108650000D03*
X180000000Y-113650000D03*
X173500000Y-113650000D03*
X161000000Y-108650000D03*
X174500000Y-113650000D03*
X179000000Y-109900000D03*
X165500000Y-107400000D03*
X180000000Y-111150000D03*
X173500000Y-108650000D03*
X173500000Y-107400000D03*
X179000000Y-108650000D03*
X173500000Y-112400000D03*
X173500000Y-109900000D03*
X180000000Y-107400000D03*
X180000000Y-112400000D03*
X201500000Y-111150000D03*
X207000000Y-109900000D03*
X206000000Y-111150000D03*
X206000000Y-107400000D03*
X200500000Y-107400000D03*
X200500000Y-108650000D03*
X201500000Y-113650000D03*
X207000000Y-111150000D03*
X206000000Y-108650000D03*
X200500000Y-112400000D03*
X201500000Y-109900000D03*
X206000000Y-112400000D03*
X201500000Y-112400000D03*
X201500000Y-107400000D03*
X206000000Y-109900000D03*
X200500000Y-111150000D03*
X207000000Y-113650000D03*
X207000000Y-108650000D03*
X200500000Y-113650000D03*
X206000000Y-113650000D03*
X207000000Y-112400000D03*
X207000000Y-107400000D03*
X201500000Y-108650000D03*
X200500000Y-109900000D03*
X134000000Y-68500000D03*
X134000000Y-67250000D03*
X134000000Y-66000000D03*
X135000000Y-65000000D03*
X138500000Y-68500000D03*
X138500000Y-67250000D03*
X138500000Y-66000000D03*
X137500000Y-65000000D03*
X135000000Y-66000000D03*
X136250000Y-66000000D03*
X137500000Y-66000000D03*
X136250000Y-65000000D03*
X138500000Y-65000000D03*
X134000000Y-65000000D03*
X138500000Y-64000000D03*
X137500000Y-64000000D03*
X136250000Y-64000000D03*
X135000000Y-64000000D03*
X134000000Y-64000000D03*
X151000000Y-65000000D03*
X149750000Y-64000000D03*
X151000000Y-66000000D03*
X149750000Y-66000000D03*
X152000000Y-64000000D03*
X151000000Y-64000000D03*
X147500000Y-65000000D03*
X148500000Y-64000000D03*
X152000000Y-65000000D03*
X148500000Y-66000000D03*
X149750000Y-65000000D03*
X147500000Y-64000000D03*
X152000000Y-67250000D03*
X148500000Y-65000000D03*
X147500000Y-68500000D03*
X147500000Y-67250000D03*
X147500000Y-66000000D03*
X152000000Y-68500000D03*
X152000000Y-66000000D03*
X165500000Y-65000000D03*
X164500000Y-64000000D03*
X165500000Y-66000000D03*
X162000000Y-65000000D03*
X164500000Y-66000000D03*
X163250000Y-64000000D03*
X163250000Y-66000000D03*
X162000000Y-66000000D03*
X165500000Y-64000000D03*
X161000000Y-65000000D03*
X161000000Y-64000000D03*
X164500000Y-65000000D03*
X161000000Y-66000000D03*
X162000000Y-64000000D03*
X165500000Y-67250000D03*
X161000000Y-68500000D03*
X161000000Y-67250000D03*
X163250000Y-65000000D03*
X165500000Y-68500000D03*
X179000000Y-67250000D03*
X174500000Y-68500000D03*
X179000000Y-64000000D03*
X178000000Y-64000000D03*
X179000000Y-66000000D03*
X179000000Y-65000000D03*
X178000000Y-66000000D03*
X175500000Y-66000000D03*
X178000000Y-65000000D03*
X174500000Y-66000000D03*
X176750000Y-66000000D03*
X174500000Y-65000000D03*
X175500000Y-64000000D03*
X176750000Y-64000000D03*
X174500000Y-64000000D03*
X175500000Y-65000000D03*
X174500000Y-67250000D03*
X176750000Y-65000000D03*
X179000000Y-68500000D03*
X190250000Y-65000000D03*
X192500000Y-68500000D03*
X188000000Y-67250000D03*
X189000000Y-66000000D03*
X191500000Y-66000000D03*
X190250000Y-66000000D03*
X188000000Y-65000000D03*
X189000000Y-64000000D03*
X192500000Y-66000000D03*
X192500000Y-64000000D03*
X188000000Y-68500000D03*
X188000000Y-66000000D03*
X192500000Y-67250000D03*
X191500000Y-64000000D03*
X192500000Y-65000000D03*
X191500000Y-65000000D03*
X188000000Y-64000000D03*
X189000000Y-65000000D03*
X190250000Y-64000000D03*
X206000000Y-66000000D03*
X206000000Y-65000000D03*
X205000000Y-64000000D03*
X205000000Y-65000000D03*
X206000000Y-64000000D03*
X206000000Y-67250000D03*
X202500000Y-65000000D03*
X203750000Y-66000000D03*
X201500000Y-67250000D03*
X205000000Y-66000000D03*
X203750000Y-65000000D03*
X201500000Y-68500000D03*
X201500000Y-66000000D03*
X201500000Y-64000000D03*
X202500000Y-64000000D03*
X201500000Y-65000000D03*
X206000000Y-68500000D03*
X202500000Y-66000000D03*
X203750000Y-64000000D03*
X137500000Y-101900000D03*
X136250000Y-100900000D03*
X137500000Y-102900000D03*
X136250000Y-102900000D03*
X138500000Y-100900000D03*
X137500000Y-100900000D03*
X134000000Y-101900000D03*
X135000000Y-100900000D03*
X138500000Y-101900000D03*
X135000000Y-102900000D03*
X136250000Y-101900000D03*
X134000000Y-100900000D03*
X138500000Y-104150000D03*
X135000000Y-101900000D03*
X134000000Y-105400000D03*
X134000000Y-104150000D03*
X134000000Y-102900000D03*
X138500000Y-105400000D03*
X138500000Y-102900000D03*
X192500000Y-102900000D03*
X192500000Y-101900000D03*
X191500000Y-100900000D03*
X191500000Y-101900000D03*
X192500000Y-100900000D03*
X192500000Y-104150000D03*
X189000000Y-101900000D03*
X190250000Y-102900000D03*
X188000000Y-104150000D03*
X191500000Y-102900000D03*
X190250000Y-101900000D03*
X188000000Y-105400000D03*
X188000000Y-102900000D03*
X188000000Y-100900000D03*
X189000000Y-100900000D03*
X188000000Y-101900000D03*
X192500000Y-105400000D03*
X189000000Y-102900000D03*
X190250000Y-100900000D03*
X176750000Y-101900000D03*
X179000000Y-105400000D03*
X174500000Y-104150000D03*
X152000000Y-101900000D03*
X151000000Y-100900000D03*
X152000000Y-102900000D03*
X148500000Y-101900000D03*
X151000000Y-102900000D03*
X149750000Y-100900000D03*
X149750000Y-102900000D03*
X148500000Y-102900000D03*
X152000000Y-100900000D03*
X147500000Y-101900000D03*
X147500000Y-100900000D03*
X151000000Y-101900000D03*
X147500000Y-102900000D03*
X148500000Y-100900000D03*
X152000000Y-104150000D03*
X147500000Y-105400000D03*
X147500000Y-104150000D03*
X149750000Y-101900000D03*
X152000000Y-105400000D03*
X165500000Y-104150000D03*
X161000000Y-105400000D03*
X165500000Y-100900000D03*
X164500000Y-100900000D03*
X165500000Y-102900000D03*
X165500000Y-101900000D03*
X164500000Y-102900000D03*
X162000000Y-102900000D03*
X164500000Y-101900000D03*
X161000000Y-102900000D03*
X163250000Y-102900000D03*
X161000000Y-101900000D03*
X162000000Y-100900000D03*
X163250000Y-100900000D03*
X161000000Y-100900000D03*
X162000000Y-101900000D03*
X175500000Y-102900000D03*
X178000000Y-102900000D03*
X161000000Y-104150000D03*
X163250000Y-101900000D03*
X176750000Y-102900000D03*
X174500000Y-101900000D03*
X175500000Y-100900000D03*
X179000000Y-102900000D03*
X165500000Y-105400000D03*
X179000000Y-100900000D03*
X174500000Y-105400000D03*
X174500000Y-102900000D03*
X179000000Y-104150000D03*
X178000000Y-100900000D03*
X179000000Y-101900000D03*
X178000000Y-101900000D03*
X174500000Y-100900000D03*
X175500000Y-101900000D03*
X176750000Y-100900000D03*
X206000000Y-101900000D03*
X205000000Y-100900000D03*
X202500000Y-101900000D03*
X201500000Y-102900000D03*
X205000000Y-101900000D03*
X206000000Y-102900000D03*
X206000000Y-104150000D03*
X203750000Y-102900000D03*
X205000000Y-102900000D03*
X201500000Y-104150000D03*
X206000000Y-100900000D03*
X203750000Y-101900000D03*
X201500000Y-105400000D03*
X201500000Y-100900000D03*
X201500000Y-101900000D03*
X202500000Y-100900000D03*
X206000000Y-105400000D03*
X203750000Y-100900000D03*
X202500000Y-102900000D03*
D16*
G36*
X141123000Y-69477000D02*
G01*
X141123000Y-77523000D01*
X131377000Y-77523000D01*
X131377000Y-69477000D01*
X141123000Y-69477000D01*
G37*
X141123000Y-69477000D02*
X141123000Y-77523000D01*
X131377000Y-77523000D01*
X131377000Y-69477000D01*
X141123000Y-69477000D01*
G36*
X141123000Y-77977000D02*
G01*
X141123000Y-82373000D01*
X140418519Y-82373000D01*
X140400000Y-82371176D01*
X140326095Y-82378455D01*
X140255030Y-82400012D01*
X140189537Y-82435019D01*
X140132131Y-82482131D01*
X140085019Y-82539537D01*
X140050012Y-82605030D01*
X140028455Y-82676095D01*
X140023000Y-82731481D01*
X140021176Y-82750000D01*
X140023000Y-82768519D01*
X140023000Y-87598952D01*
X138138683Y-89573000D01*
X134361317Y-89573000D01*
X132477000Y-87598952D01*
X132477000Y-82768519D01*
X132478824Y-82750000D01*
X132477000Y-82731481D01*
X132471545Y-82676095D01*
X132449988Y-82605030D01*
X132414981Y-82539537D01*
X132367869Y-82482131D01*
X132310463Y-82435019D01*
X132244970Y-82400012D01*
X132173905Y-82378455D01*
X132100000Y-82371176D01*
X132081481Y-82373000D01*
X131377000Y-82373000D01*
X131377000Y-77977000D01*
X141123000Y-77977000D01*
G37*
X141123000Y-77977000D02*
X141123000Y-82373000D01*
X140418519Y-82373000D01*
X140400000Y-82371176D01*
X140326095Y-82378455D01*
X140255030Y-82400012D01*
X140189537Y-82435019D01*
X140132131Y-82482131D01*
X140085019Y-82539537D01*
X140050012Y-82605030D01*
X140028455Y-82676095D01*
X140023000Y-82731481D01*
X140021176Y-82750000D01*
X140023000Y-82768519D01*
X140023000Y-87598952D01*
X138138683Y-89573000D01*
X134361317Y-89573000D01*
X132477000Y-87598952D01*
X132477000Y-82768519D01*
X132478824Y-82750000D01*
X132477000Y-82731481D01*
X132471545Y-82676095D01*
X132449988Y-82605030D01*
X132414981Y-82539537D01*
X132367869Y-82482131D01*
X132310463Y-82435019D01*
X132244970Y-82400012D01*
X132173905Y-82378455D01*
X132100000Y-82371176D01*
X132081481Y-82373000D01*
X131377000Y-82373000D01*
X131377000Y-77977000D01*
X141123000Y-77977000D01*
G36*
X132081471Y-63626999D02*
G01*
X132100000Y-63628824D01*
X132173905Y-63621545D01*
X132244970Y-63599988D01*
X132310463Y-63564981D01*
X132367869Y-63517869D01*
X132414981Y-63460463D01*
X132449988Y-63394970D01*
X132471545Y-63323905D01*
X132477000Y-63268519D01*
X132478824Y-63250000D01*
X132477000Y-63231481D01*
X132477000Y-61577000D01*
X140023000Y-61577000D01*
X140023000Y-63231481D01*
X140021176Y-63250000D01*
X140023000Y-63268519D01*
X140028455Y-63323905D01*
X140050012Y-63394970D01*
X140085019Y-63460463D01*
X140132131Y-63517869D01*
X140189537Y-63564981D01*
X140255030Y-63599988D01*
X140326095Y-63621545D01*
X140400000Y-63628824D01*
X140418529Y-63626999D01*
X141123000Y-63627000D01*
X141123000Y-69023000D01*
X131377000Y-69023000D01*
X131377000Y-63627000D01*
X132081471Y-63626999D01*
G37*
X132081471Y-63626999D02*
X132100000Y-63628824D01*
X132173905Y-63621545D01*
X132244970Y-63599988D01*
X132310463Y-63564981D01*
X132367869Y-63517869D01*
X132414981Y-63460463D01*
X132449988Y-63394970D01*
X132471545Y-63323905D01*
X132477000Y-63268519D01*
X132478824Y-63250000D01*
X132477000Y-63231481D01*
X132477000Y-61577000D01*
X140023000Y-61577000D01*
X140023000Y-63231481D01*
X140021176Y-63250000D01*
X140023000Y-63268519D01*
X140028455Y-63323905D01*
X140050012Y-63394970D01*
X140085019Y-63460463D01*
X140132131Y-63517869D01*
X140189537Y-63564981D01*
X140255030Y-63599988D01*
X140326095Y-63621545D01*
X140400000Y-63628824D01*
X140418529Y-63626999D01*
X141123000Y-63627000D01*
X141123000Y-69023000D01*
X131377000Y-69023000D01*
X131377000Y-63627000D01*
X132081471Y-63626999D01*
G36*
X134361318Y-56427000D02*
G01*
X138138681Y-56426999D01*
X140023000Y-58401048D01*
X140023000Y-61123000D01*
X132477000Y-61123000D01*
X132477000Y-58401048D01*
X134361318Y-56427000D01*
G37*
X134361318Y-56427000D02*
X138138681Y-56426999D01*
X140023000Y-58401048D01*
X140023000Y-61123000D01*
X132477000Y-61123000D01*
X132477000Y-58401048D01*
X134361318Y-56427000D01*
G36*
X154623000Y-69477000D02*
G01*
X154623000Y-77523000D01*
X144877000Y-77523000D01*
X144877000Y-69477000D01*
X154623000Y-69477000D01*
G37*
X154623000Y-69477000D02*
X154623000Y-77523000D01*
X144877000Y-77523000D01*
X144877000Y-69477000D01*
X154623000Y-69477000D01*
G36*
X154623000Y-77977000D02*
G01*
X154623000Y-82373000D01*
X153918519Y-82373000D01*
X153900000Y-82371176D01*
X153826095Y-82378455D01*
X153755030Y-82400012D01*
X153689537Y-82435019D01*
X153632131Y-82482131D01*
X153585019Y-82539537D01*
X153550012Y-82605030D01*
X153528455Y-82676095D01*
X153523000Y-82731481D01*
X153521176Y-82750000D01*
X153523000Y-82768519D01*
X153523000Y-87598952D01*
X151638683Y-89573000D01*
X147861317Y-89573000D01*
X145977000Y-87598952D01*
X145977000Y-82768519D01*
X145978824Y-82750000D01*
X145977000Y-82731481D01*
X145971545Y-82676095D01*
X145949988Y-82605030D01*
X145914981Y-82539537D01*
X145867869Y-82482131D01*
X145810463Y-82435019D01*
X145744970Y-82400012D01*
X145673905Y-82378455D01*
X145600000Y-82371176D01*
X145581481Y-82373000D01*
X144877000Y-82373000D01*
X144877000Y-77977000D01*
X154623000Y-77977000D01*
G37*
X154623000Y-77977000D02*
X154623000Y-82373000D01*
X153918519Y-82373000D01*
X153900000Y-82371176D01*
X153826095Y-82378455D01*
X153755030Y-82400012D01*
X153689537Y-82435019D01*
X153632131Y-82482131D01*
X153585019Y-82539537D01*
X153550012Y-82605030D01*
X153528455Y-82676095D01*
X153523000Y-82731481D01*
X153521176Y-82750000D01*
X153523000Y-82768519D01*
X153523000Y-87598952D01*
X151638683Y-89573000D01*
X147861317Y-89573000D01*
X145977000Y-87598952D01*
X145977000Y-82768519D01*
X145978824Y-82750000D01*
X145977000Y-82731481D01*
X145971545Y-82676095D01*
X145949988Y-82605030D01*
X145914981Y-82539537D01*
X145867869Y-82482131D01*
X145810463Y-82435019D01*
X145744970Y-82400012D01*
X145673905Y-82378455D01*
X145600000Y-82371176D01*
X145581481Y-82373000D01*
X144877000Y-82373000D01*
X144877000Y-77977000D01*
X154623000Y-77977000D01*
G36*
X145581471Y-63626999D02*
G01*
X145600000Y-63628824D01*
X145673905Y-63621545D01*
X145744970Y-63599988D01*
X145810463Y-63564981D01*
X145867869Y-63517869D01*
X145914981Y-63460463D01*
X145949988Y-63394970D01*
X145971545Y-63323905D01*
X145977000Y-63268519D01*
X145978824Y-63250000D01*
X145977000Y-63231481D01*
X145977000Y-61577000D01*
X153523000Y-61577000D01*
X153523000Y-63231481D01*
X153521176Y-63250000D01*
X153523000Y-63268519D01*
X153528455Y-63323905D01*
X153550012Y-63394970D01*
X153585019Y-63460463D01*
X153632131Y-63517869D01*
X153689537Y-63564981D01*
X153755030Y-63599988D01*
X153826095Y-63621545D01*
X153900000Y-63628824D01*
X153918529Y-63626999D01*
X154623000Y-63627000D01*
X154623000Y-69023000D01*
X144877000Y-69023000D01*
X144877000Y-63627000D01*
X145581471Y-63626999D01*
G37*
X145581471Y-63626999D02*
X145600000Y-63628824D01*
X145673905Y-63621545D01*
X145744970Y-63599988D01*
X145810463Y-63564981D01*
X145867869Y-63517869D01*
X145914981Y-63460463D01*
X145949988Y-63394970D01*
X145971545Y-63323905D01*
X145977000Y-63268519D01*
X145978824Y-63250000D01*
X145977000Y-63231481D01*
X145977000Y-61577000D01*
X153523000Y-61577000D01*
X153523000Y-63231481D01*
X153521176Y-63250000D01*
X153523000Y-63268519D01*
X153528455Y-63323905D01*
X153550012Y-63394970D01*
X153585019Y-63460463D01*
X153632131Y-63517869D01*
X153689537Y-63564981D01*
X153755030Y-63599988D01*
X153826095Y-63621545D01*
X153900000Y-63628824D01*
X153918529Y-63626999D01*
X154623000Y-63627000D01*
X154623000Y-69023000D01*
X144877000Y-69023000D01*
X144877000Y-63627000D01*
X145581471Y-63626999D01*
G36*
X147861318Y-56427000D02*
G01*
X151638681Y-56426999D01*
X153523000Y-58401048D01*
X153523000Y-61123000D01*
X145977000Y-61123000D01*
X145977000Y-58401048D01*
X147861318Y-56427000D01*
G37*
X147861318Y-56427000D02*
X151638681Y-56426999D01*
X153523000Y-58401048D01*
X153523000Y-61123000D01*
X145977000Y-61123000D01*
X145977000Y-58401048D01*
X147861318Y-56427000D01*
G36*
X168123000Y-69477000D02*
G01*
X168123000Y-77523000D01*
X158377000Y-77523000D01*
X158377000Y-69477000D01*
X168123000Y-69477000D01*
G37*
X168123000Y-69477000D02*
X168123000Y-77523000D01*
X158377000Y-77523000D01*
X158377000Y-69477000D01*
X168123000Y-69477000D01*
G36*
X168123000Y-77977000D02*
G01*
X168123000Y-82373000D01*
X167418519Y-82373000D01*
X167400000Y-82371176D01*
X167326095Y-82378455D01*
X167255030Y-82400012D01*
X167189537Y-82435019D01*
X167132131Y-82482131D01*
X167085019Y-82539537D01*
X167050012Y-82605030D01*
X167028455Y-82676095D01*
X167023000Y-82731481D01*
X167021176Y-82750000D01*
X167023000Y-82768519D01*
X167023000Y-87598952D01*
X165138683Y-89573000D01*
X161361317Y-89573000D01*
X159477000Y-87598952D01*
X159477000Y-82768519D01*
X159478824Y-82750000D01*
X159477000Y-82731481D01*
X159471545Y-82676095D01*
X159449988Y-82605030D01*
X159414981Y-82539537D01*
X159367869Y-82482131D01*
X159310463Y-82435019D01*
X159244970Y-82400012D01*
X159173905Y-82378455D01*
X159100000Y-82371176D01*
X159081481Y-82373000D01*
X158377000Y-82373000D01*
X158377000Y-77977000D01*
X168123000Y-77977000D01*
G37*
X168123000Y-77977000D02*
X168123000Y-82373000D01*
X167418519Y-82373000D01*
X167400000Y-82371176D01*
X167326095Y-82378455D01*
X167255030Y-82400012D01*
X167189537Y-82435019D01*
X167132131Y-82482131D01*
X167085019Y-82539537D01*
X167050012Y-82605030D01*
X167028455Y-82676095D01*
X167023000Y-82731481D01*
X167021176Y-82750000D01*
X167023000Y-82768519D01*
X167023000Y-87598952D01*
X165138683Y-89573000D01*
X161361317Y-89573000D01*
X159477000Y-87598952D01*
X159477000Y-82768519D01*
X159478824Y-82750000D01*
X159477000Y-82731481D01*
X159471545Y-82676095D01*
X159449988Y-82605030D01*
X159414981Y-82539537D01*
X159367869Y-82482131D01*
X159310463Y-82435019D01*
X159244970Y-82400012D01*
X159173905Y-82378455D01*
X159100000Y-82371176D01*
X159081481Y-82373000D01*
X158377000Y-82373000D01*
X158377000Y-77977000D01*
X168123000Y-77977000D01*
G36*
X159081471Y-63626999D02*
G01*
X159100000Y-63628824D01*
X159173905Y-63621545D01*
X159244970Y-63599988D01*
X159310463Y-63564981D01*
X159367869Y-63517869D01*
X159414981Y-63460463D01*
X159449988Y-63394970D01*
X159471545Y-63323905D01*
X159477000Y-63268519D01*
X159478824Y-63250000D01*
X159477000Y-63231481D01*
X159477000Y-61577000D01*
X167023000Y-61577000D01*
X167023000Y-63231481D01*
X167021176Y-63250000D01*
X167023000Y-63268519D01*
X167028455Y-63323905D01*
X167050012Y-63394970D01*
X167085019Y-63460463D01*
X167132131Y-63517869D01*
X167189537Y-63564981D01*
X167255030Y-63599988D01*
X167326095Y-63621545D01*
X167400000Y-63628824D01*
X167418529Y-63626999D01*
X168123000Y-63627000D01*
X168123000Y-69023000D01*
X158377000Y-69023000D01*
X158377000Y-63627000D01*
X159081471Y-63626999D01*
G37*
X159081471Y-63626999D02*
X159100000Y-63628824D01*
X159173905Y-63621545D01*
X159244970Y-63599988D01*
X159310463Y-63564981D01*
X159367869Y-63517869D01*
X159414981Y-63460463D01*
X159449988Y-63394970D01*
X159471545Y-63323905D01*
X159477000Y-63268519D01*
X159478824Y-63250000D01*
X159477000Y-63231481D01*
X159477000Y-61577000D01*
X167023000Y-61577000D01*
X167023000Y-63231481D01*
X167021176Y-63250000D01*
X167023000Y-63268519D01*
X167028455Y-63323905D01*
X167050012Y-63394970D01*
X167085019Y-63460463D01*
X167132131Y-63517869D01*
X167189537Y-63564981D01*
X167255030Y-63599988D01*
X167326095Y-63621545D01*
X167400000Y-63628824D01*
X167418529Y-63626999D01*
X168123000Y-63627000D01*
X168123000Y-69023000D01*
X158377000Y-69023000D01*
X158377000Y-63627000D01*
X159081471Y-63626999D01*
G36*
X161361318Y-56427000D02*
G01*
X165138681Y-56426999D01*
X167023000Y-58401048D01*
X167023000Y-61123000D01*
X159477000Y-61123000D01*
X159477000Y-58401048D01*
X161361318Y-56427000D01*
G37*
X161361318Y-56427000D02*
X165138681Y-56426999D01*
X167023000Y-58401048D01*
X167023000Y-61123000D01*
X159477000Y-61123000D01*
X159477000Y-58401048D01*
X161361318Y-56427000D01*
G36*
X181623000Y-69477000D02*
G01*
X181623000Y-77523000D01*
X171877000Y-77523000D01*
X171877000Y-69477000D01*
X181623000Y-69477000D01*
G37*
X181623000Y-69477000D02*
X181623000Y-77523000D01*
X171877000Y-77523000D01*
X171877000Y-69477000D01*
X181623000Y-69477000D01*
G36*
X181623000Y-77977000D02*
G01*
X181623000Y-82373000D01*
X180918519Y-82373000D01*
X180900000Y-82371176D01*
X180826095Y-82378455D01*
X180755030Y-82400012D01*
X180689537Y-82435019D01*
X180632131Y-82482131D01*
X180585019Y-82539537D01*
X180550012Y-82605030D01*
X180528455Y-82676095D01*
X180523000Y-82731481D01*
X180521176Y-82750000D01*
X180523000Y-82768519D01*
X180523000Y-87598952D01*
X178638683Y-89573000D01*
X174861317Y-89573000D01*
X172977000Y-87598952D01*
X172977000Y-82768519D01*
X172978824Y-82750000D01*
X172977000Y-82731481D01*
X172971545Y-82676095D01*
X172949988Y-82605030D01*
X172914981Y-82539537D01*
X172867869Y-82482131D01*
X172810463Y-82435019D01*
X172744970Y-82400012D01*
X172673905Y-82378455D01*
X172600000Y-82371176D01*
X172581481Y-82373000D01*
X171877000Y-82373000D01*
X171877000Y-77977000D01*
X181623000Y-77977000D01*
G37*
X181623000Y-77977000D02*
X181623000Y-82373000D01*
X180918519Y-82373000D01*
X180900000Y-82371176D01*
X180826095Y-82378455D01*
X180755030Y-82400012D01*
X180689537Y-82435019D01*
X180632131Y-82482131D01*
X180585019Y-82539537D01*
X180550012Y-82605030D01*
X180528455Y-82676095D01*
X180523000Y-82731481D01*
X180521176Y-82750000D01*
X180523000Y-82768519D01*
X180523000Y-87598952D01*
X178638683Y-89573000D01*
X174861317Y-89573000D01*
X172977000Y-87598952D01*
X172977000Y-82768519D01*
X172978824Y-82750000D01*
X172977000Y-82731481D01*
X172971545Y-82676095D01*
X172949988Y-82605030D01*
X172914981Y-82539537D01*
X172867869Y-82482131D01*
X172810463Y-82435019D01*
X172744970Y-82400012D01*
X172673905Y-82378455D01*
X172600000Y-82371176D01*
X172581481Y-82373000D01*
X171877000Y-82373000D01*
X171877000Y-77977000D01*
X181623000Y-77977000D01*
G36*
X172581471Y-63626999D02*
G01*
X172600000Y-63628824D01*
X172673905Y-63621545D01*
X172744970Y-63599988D01*
X172810463Y-63564981D01*
X172867869Y-63517869D01*
X172914981Y-63460463D01*
X172949988Y-63394970D01*
X172971545Y-63323905D01*
X172977000Y-63268519D01*
X172978824Y-63250000D01*
X172977000Y-63231481D01*
X172977000Y-61577000D01*
X180523000Y-61577000D01*
X180523000Y-63231481D01*
X180521176Y-63250000D01*
X180523000Y-63268519D01*
X180528455Y-63323905D01*
X180550012Y-63394970D01*
X180585019Y-63460463D01*
X180632131Y-63517869D01*
X180689537Y-63564981D01*
X180755030Y-63599988D01*
X180826095Y-63621545D01*
X180900000Y-63628824D01*
X180918529Y-63626999D01*
X181623000Y-63627000D01*
X181623000Y-69023000D01*
X171877000Y-69023000D01*
X171877000Y-63627000D01*
X172581471Y-63626999D01*
G37*
X172581471Y-63626999D02*
X172600000Y-63628824D01*
X172673905Y-63621545D01*
X172744970Y-63599988D01*
X172810463Y-63564981D01*
X172867869Y-63517869D01*
X172914981Y-63460463D01*
X172949988Y-63394970D01*
X172971545Y-63323905D01*
X172977000Y-63268519D01*
X172978824Y-63250000D01*
X172977000Y-63231481D01*
X172977000Y-61577000D01*
X180523000Y-61577000D01*
X180523000Y-63231481D01*
X180521176Y-63250000D01*
X180523000Y-63268519D01*
X180528455Y-63323905D01*
X180550012Y-63394970D01*
X180585019Y-63460463D01*
X180632131Y-63517869D01*
X180689537Y-63564981D01*
X180755030Y-63599988D01*
X180826095Y-63621545D01*
X180900000Y-63628824D01*
X180918529Y-63626999D01*
X181623000Y-63627000D01*
X181623000Y-69023000D01*
X171877000Y-69023000D01*
X171877000Y-63627000D01*
X172581471Y-63626999D01*
G36*
X174861318Y-56427000D02*
G01*
X178638681Y-56426999D01*
X180523000Y-58401048D01*
X180523000Y-61123000D01*
X172977000Y-61123000D01*
X172977000Y-58401048D01*
X174861318Y-56427000D01*
G37*
X174861318Y-56427000D02*
X178638681Y-56426999D01*
X180523000Y-58401048D01*
X180523000Y-61123000D01*
X172977000Y-61123000D01*
X172977000Y-58401048D01*
X174861318Y-56427000D01*
G36*
X195123000Y-69477000D02*
G01*
X195123000Y-77523000D01*
X185377000Y-77523000D01*
X185377000Y-69477000D01*
X195123000Y-69477000D01*
G37*
X195123000Y-69477000D02*
X195123000Y-77523000D01*
X185377000Y-77523000D01*
X185377000Y-69477000D01*
X195123000Y-69477000D01*
G36*
X186081471Y-63626999D02*
G01*
X186100000Y-63628824D01*
X186173905Y-63621545D01*
X186244970Y-63599988D01*
X186310463Y-63564981D01*
X186367869Y-63517869D01*
X186414981Y-63460463D01*
X186449988Y-63394970D01*
X186471545Y-63323905D01*
X186477000Y-63268519D01*
X186478824Y-63250000D01*
X186477000Y-63231481D01*
X186477000Y-61577000D01*
X194023000Y-61577000D01*
X194023000Y-63231481D01*
X194021176Y-63250000D01*
X194023000Y-63268519D01*
X194028455Y-63323905D01*
X194050012Y-63394970D01*
X194085019Y-63460463D01*
X194132131Y-63517869D01*
X194189537Y-63564981D01*
X194255030Y-63599988D01*
X194326095Y-63621545D01*
X194400000Y-63628824D01*
X194418529Y-63626999D01*
X195123000Y-63627000D01*
X195123000Y-69023000D01*
X185377000Y-69023000D01*
X185377000Y-63627000D01*
X186081471Y-63626999D01*
G37*
X186081471Y-63626999D02*
X186100000Y-63628824D01*
X186173905Y-63621545D01*
X186244970Y-63599988D01*
X186310463Y-63564981D01*
X186367869Y-63517869D01*
X186414981Y-63460463D01*
X186449988Y-63394970D01*
X186471545Y-63323905D01*
X186477000Y-63268519D01*
X186478824Y-63250000D01*
X186477000Y-63231481D01*
X186477000Y-61577000D01*
X194023000Y-61577000D01*
X194023000Y-63231481D01*
X194021176Y-63250000D01*
X194023000Y-63268519D01*
X194028455Y-63323905D01*
X194050012Y-63394970D01*
X194085019Y-63460463D01*
X194132131Y-63517869D01*
X194189537Y-63564981D01*
X194255030Y-63599988D01*
X194326095Y-63621545D01*
X194400000Y-63628824D01*
X194418529Y-63626999D01*
X195123000Y-63627000D01*
X195123000Y-69023000D01*
X185377000Y-69023000D01*
X185377000Y-63627000D01*
X186081471Y-63626999D01*
G36*
X188361318Y-56427000D02*
G01*
X192138681Y-56426999D01*
X194023000Y-58401048D01*
X194023000Y-61123000D01*
X186477000Y-61123000D01*
X186477000Y-58401048D01*
X188361318Y-56427000D01*
G37*
X188361318Y-56427000D02*
X192138681Y-56426999D01*
X194023000Y-58401048D01*
X194023000Y-61123000D01*
X186477000Y-61123000D01*
X186477000Y-58401048D01*
X188361318Y-56427000D01*
G36*
X195123000Y-77977000D02*
G01*
X195123000Y-82373000D01*
X194418519Y-82373000D01*
X194400000Y-82371176D01*
X194326095Y-82378455D01*
X194255030Y-82400012D01*
X194189537Y-82435019D01*
X194132131Y-82482131D01*
X194085019Y-82539537D01*
X194050012Y-82605030D01*
X194028455Y-82676095D01*
X194023000Y-82731481D01*
X194021176Y-82750000D01*
X194023000Y-82768519D01*
X194023000Y-87598952D01*
X192138683Y-89573000D01*
X188361317Y-89573000D01*
X186477000Y-87598952D01*
X186477000Y-82768519D01*
X186478824Y-82750000D01*
X186477000Y-82731481D01*
X186471545Y-82676095D01*
X186449988Y-82605030D01*
X186414981Y-82539537D01*
X186367869Y-82482131D01*
X186310463Y-82435019D01*
X186244970Y-82400012D01*
X186173905Y-82378455D01*
X186100000Y-82371176D01*
X186081481Y-82373000D01*
X185377000Y-82373000D01*
X185377000Y-77977000D01*
X195123000Y-77977000D01*
G37*
X195123000Y-77977000D02*
X195123000Y-82373000D01*
X194418519Y-82373000D01*
X194400000Y-82371176D01*
X194326095Y-82378455D01*
X194255030Y-82400012D01*
X194189537Y-82435019D01*
X194132131Y-82482131D01*
X194085019Y-82539537D01*
X194050012Y-82605030D01*
X194028455Y-82676095D01*
X194023000Y-82731481D01*
X194021176Y-82750000D01*
X194023000Y-82768519D01*
X194023000Y-87598952D01*
X192138683Y-89573000D01*
X188361317Y-89573000D01*
X186477000Y-87598952D01*
X186477000Y-82768519D01*
X186478824Y-82750000D01*
X186477000Y-82731481D01*
X186471545Y-82676095D01*
X186449988Y-82605030D01*
X186414981Y-82539537D01*
X186367869Y-82482131D01*
X186310463Y-82435019D01*
X186244970Y-82400012D01*
X186173905Y-82378455D01*
X186100000Y-82371176D01*
X186081481Y-82373000D01*
X185377000Y-82373000D01*
X185377000Y-77977000D01*
X195123000Y-77977000D01*
G36*
X199581471Y-63626999D02*
G01*
X199600000Y-63628824D01*
X199673905Y-63621545D01*
X199744970Y-63599988D01*
X199810463Y-63564981D01*
X199867869Y-63517869D01*
X199914981Y-63460463D01*
X199949988Y-63394970D01*
X199971545Y-63323905D01*
X199977000Y-63268519D01*
X199978824Y-63250000D01*
X199977000Y-63231481D01*
X199977000Y-61577000D01*
X207523000Y-61577000D01*
X207523000Y-63231481D01*
X207521176Y-63250000D01*
X207523000Y-63268519D01*
X207528455Y-63323905D01*
X207550012Y-63394970D01*
X207585019Y-63460463D01*
X207632131Y-63517869D01*
X207689537Y-63564981D01*
X207755030Y-63599988D01*
X207826095Y-63621545D01*
X207900000Y-63628824D01*
X207918529Y-63626999D01*
X208623000Y-63627000D01*
X208623000Y-69023000D01*
X198877000Y-69023000D01*
X198877000Y-63627000D01*
X199581471Y-63626999D01*
G37*
X199581471Y-63626999D02*
X199600000Y-63628824D01*
X199673905Y-63621545D01*
X199744970Y-63599988D01*
X199810463Y-63564981D01*
X199867869Y-63517869D01*
X199914981Y-63460463D01*
X199949988Y-63394970D01*
X199971545Y-63323905D01*
X199977000Y-63268519D01*
X199978824Y-63250000D01*
X199977000Y-63231481D01*
X199977000Y-61577000D01*
X207523000Y-61577000D01*
X207523000Y-63231481D01*
X207521176Y-63250000D01*
X207523000Y-63268519D01*
X207528455Y-63323905D01*
X207550012Y-63394970D01*
X207585019Y-63460463D01*
X207632131Y-63517869D01*
X207689537Y-63564981D01*
X207755030Y-63599988D01*
X207826095Y-63621545D01*
X207900000Y-63628824D01*
X207918529Y-63626999D01*
X208623000Y-63627000D01*
X208623000Y-69023000D01*
X198877000Y-69023000D01*
X198877000Y-63627000D01*
X199581471Y-63626999D01*
G36*
X208623000Y-77977000D02*
G01*
X208623000Y-82373000D01*
X207918519Y-82373000D01*
X207900000Y-82371176D01*
X207826095Y-82378455D01*
X207755030Y-82400012D01*
X207689537Y-82435019D01*
X207632131Y-82482131D01*
X207585019Y-82539537D01*
X207550012Y-82605030D01*
X207528455Y-82676095D01*
X207523000Y-82731481D01*
X207521176Y-82750000D01*
X207523000Y-82768519D01*
X207523000Y-87598952D01*
X205638683Y-89573000D01*
X201861317Y-89573000D01*
X199977000Y-87598952D01*
X199977000Y-82768519D01*
X199978824Y-82750000D01*
X199977000Y-82731481D01*
X199971545Y-82676095D01*
X199949988Y-82605030D01*
X199914981Y-82539537D01*
X199867869Y-82482131D01*
X199810463Y-82435019D01*
X199744970Y-82400012D01*
X199673905Y-82378455D01*
X199600000Y-82371176D01*
X199581481Y-82373000D01*
X198877000Y-82373000D01*
X198877000Y-77977000D01*
X208623000Y-77977000D01*
G37*
X208623000Y-77977000D02*
X208623000Y-82373000D01*
X207918519Y-82373000D01*
X207900000Y-82371176D01*
X207826095Y-82378455D01*
X207755030Y-82400012D01*
X207689537Y-82435019D01*
X207632131Y-82482131D01*
X207585019Y-82539537D01*
X207550012Y-82605030D01*
X207528455Y-82676095D01*
X207523000Y-82731481D01*
X207521176Y-82750000D01*
X207523000Y-82768519D01*
X207523000Y-87598952D01*
X205638683Y-89573000D01*
X201861317Y-89573000D01*
X199977000Y-87598952D01*
X199977000Y-82768519D01*
X199978824Y-82750000D01*
X199977000Y-82731481D01*
X199971545Y-82676095D01*
X199949988Y-82605030D01*
X199914981Y-82539537D01*
X199867869Y-82482131D01*
X199810463Y-82435019D01*
X199744970Y-82400012D01*
X199673905Y-82378455D01*
X199600000Y-82371176D01*
X199581481Y-82373000D01*
X198877000Y-82373000D01*
X198877000Y-77977000D01*
X208623000Y-77977000D01*
G36*
X201861318Y-56427000D02*
G01*
X205638681Y-56426999D01*
X207523000Y-58401048D01*
X207523000Y-61123000D01*
X199977000Y-61123000D01*
X199977000Y-58401048D01*
X201861318Y-56427000D01*
G37*
X201861318Y-56427000D02*
X205638681Y-56426999D01*
X207523000Y-58401048D01*
X207523000Y-61123000D01*
X199977000Y-61123000D01*
X199977000Y-58401048D01*
X201861318Y-56427000D01*
G36*
X208623000Y-69477000D02*
G01*
X208623000Y-77523000D01*
X198877000Y-77523000D01*
X198877000Y-69477000D01*
X208623000Y-69477000D01*
G37*
X208623000Y-69477000D02*
X208623000Y-77523000D01*
X198877000Y-77523000D01*
X198877000Y-69477000D01*
X208623000Y-69477000D01*
G36*
X181623000Y-106377000D02*
G01*
X181623000Y-114423000D01*
X171877000Y-114423000D01*
X171877000Y-106377000D01*
X181623000Y-106377000D01*
G37*
X181623000Y-106377000D02*
X181623000Y-114423000D01*
X171877000Y-114423000D01*
X171877000Y-106377000D01*
X181623000Y-106377000D01*
G36*
X141123000Y-106377000D02*
G01*
X141123000Y-114423000D01*
X131377000Y-114423000D01*
X131377000Y-106377000D01*
X141123000Y-106377000D01*
G37*
X141123000Y-106377000D02*
X141123000Y-114423000D01*
X131377000Y-114423000D01*
X131377000Y-106377000D01*
X141123000Y-106377000D01*
G36*
X141123000Y-114877000D02*
G01*
X141123000Y-119273000D01*
X140418519Y-119273000D01*
X140400000Y-119271176D01*
X140326095Y-119278455D01*
X140255030Y-119300012D01*
X140189537Y-119335019D01*
X140132131Y-119382131D01*
X140085019Y-119439537D01*
X140050012Y-119505030D01*
X140028455Y-119576095D01*
X140023000Y-119631481D01*
X140021176Y-119650000D01*
X140023000Y-119668519D01*
X140023000Y-124498952D01*
X138138683Y-126473000D01*
X134361317Y-126473000D01*
X132477000Y-124498952D01*
X132477000Y-119668519D01*
X132478824Y-119650000D01*
X132477000Y-119631481D01*
X132471545Y-119576095D01*
X132449988Y-119505030D01*
X132414981Y-119439537D01*
X132367869Y-119382131D01*
X132310463Y-119335019D01*
X132244970Y-119300012D01*
X132173905Y-119278455D01*
X132100000Y-119271176D01*
X132081481Y-119273000D01*
X131377000Y-119273000D01*
X131377000Y-114877000D01*
X141123000Y-114877000D01*
G37*
X141123000Y-114877000D02*
X141123000Y-119273000D01*
X140418519Y-119273000D01*
X140400000Y-119271176D01*
X140326095Y-119278455D01*
X140255030Y-119300012D01*
X140189537Y-119335019D01*
X140132131Y-119382131D01*
X140085019Y-119439537D01*
X140050012Y-119505030D01*
X140028455Y-119576095D01*
X140023000Y-119631481D01*
X140021176Y-119650000D01*
X140023000Y-119668519D01*
X140023000Y-124498952D01*
X138138683Y-126473000D01*
X134361317Y-126473000D01*
X132477000Y-124498952D01*
X132477000Y-119668519D01*
X132478824Y-119650000D01*
X132477000Y-119631481D01*
X132471545Y-119576095D01*
X132449988Y-119505030D01*
X132414981Y-119439537D01*
X132367869Y-119382131D01*
X132310463Y-119335019D01*
X132244970Y-119300012D01*
X132173905Y-119278455D01*
X132100000Y-119271176D01*
X132081481Y-119273000D01*
X131377000Y-119273000D01*
X131377000Y-114877000D01*
X141123000Y-114877000D01*
G36*
X132081471Y-100526999D02*
G01*
X132100000Y-100528824D01*
X132173905Y-100521545D01*
X132244970Y-100499988D01*
X132310463Y-100464981D01*
X132367869Y-100417869D01*
X132414981Y-100360463D01*
X132449988Y-100294970D01*
X132471545Y-100223905D01*
X132477000Y-100168519D01*
X132478824Y-100150000D01*
X132477000Y-100131481D01*
X132477000Y-98477000D01*
X140023000Y-98477000D01*
X140023000Y-100131481D01*
X140021176Y-100150000D01*
X140023000Y-100168519D01*
X140028455Y-100223905D01*
X140050012Y-100294970D01*
X140085019Y-100360463D01*
X140132131Y-100417869D01*
X140189537Y-100464981D01*
X140255030Y-100499988D01*
X140326095Y-100521545D01*
X140400000Y-100528824D01*
X140418529Y-100526999D01*
X141123000Y-100527000D01*
X141123000Y-105923000D01*
X131377000Y-105923000D01*
X131377000Y-100527000D01*
X132081471Y-100526999D01*
G37*
X132081471Y-100526999D02*
X132100000Y-100528824D01*
X132173905Y-100521545D01*
X132244970Y-100499988D01*
X132310463Y-100464981D01*
X132367869Y-100417869D01*
X132414981Y-100360463D01*
X132449988Y-100294970D01*
X132471545Y-100223905D01*
X132477000Y-100168519D01*
X132478824Y-100150000D01*
X132477000Y-100131481D01*
X132477000Y-98477000D01*
X140023000Y-98477000D01*
X140023000Y-100131481D01*
X140021176Y-100150000D01*
X140023000Y-100168519D01*
X140028455Y-100223905D01*
X140050012Y-100294970D01*
X140085019Y-100360463D01*
X140132131Y-100417869D01*
X140189537Y-100464981D01*
X140255030Y-100499988D01*
X140326095Y-100521545D01*
X140400000Y-100528824D01*
X140418529Y-100526999D01*
X141123000Y-100527000D01*
X141123000Y-105923000D01*
X131377000Y-105923000D01*
X131377000Y-100527000D01*
X132081471Y-100526999D01*
G36*
X134361318Y-93327000D02*
G01*
X138138681Y-93326999D01*
X140023000Y-95301048D01*
X140023000Y-98023000D01*
X132477000Y-98023000D01*
X132477000Y-95301048D01*
X134361318Y-93327000D01*
G37*
X134361318Y-93327000D02*
X138138681Y-93326999D01*
X140023000Y-95301048D01*
X140023000Y-98023000D01*
X132477000Y-98023000D01*
X132477000Y-95301048D01*
X134361318Y-93327000D01*
G36*
X154623000Y-106377000D02*
G01*
X154623000Y-114423000D01*
X144877000Y-114423000D01*
X144877000Y-106377000D01*
X154623000Y-106377000D01*
G37*
X154623000Y-106377000D02*
X154623000Y-114423000D01*
X144877000Y-114423000D01*
X144877000Y-106377000D01*
X154623000Y-106377000D01*
G36*
X154623000Y-114877000D02*
G01*
X154623000Y-119273000D01*
X153918519Y-119273000D01*
X153900000Y-119271176D01*
X153826095Y-119278455D01*
X153755030Y-119300012D01*
X153689537Y-119335019D01*
X153632131Y-119382131D01*
X153585019Y-119439537D01*
X153550012Y-119505030D01*
X153528455Y-119576095D01*
X153523000Y-119631481D01*
X153521176Y-119650000D01*
X153523000Y-119668519D01*
X153523000Y-124498952D01*
X151638683Y-126473000D01*
X147861317Y-126473000D01*
X145977000Y-124498952D01*
X145977000Y-119668519D01*
X145978824Y-119650000D01*
X145977000Y-119631481D01*
X145971545Y-119576095D01*
X145949988Y-119505030D01*
X145914981Y-119439537D01*
X145867869Y-119382131D01*
X145810463Y-119335019D01*
X145744970Y-119300012D01*
X145673905Y-119278455D01*
X145600000Y-119271176D01*
X145581481Y-119273000D01*
X144877000Y-119273000D01*
X144877000Y-114877000D01*
X154623000Y-114877000D01*
G37*
X154623000Y-114877000D02*
X154623000Y-119273000D01*
X153918519Y-119273000D01*
X153900000Y-119271176D01*
X153826095Y-119278455D01*
X153755030Y-119300012D01*
X153689537Y-119335019D01*
X153632131Y-119382131D01*
X153585019Y-119439537D01*
X153550012Y-119505030D01*
X153528455Y-119576095D01*
X153523000Y-119631481D01*
X153521176Y-119650000D01*
X153523000Y-119668519D01*
X153523000Y-124498952D01*
X151638683Y-126473000D01*
X147861317Y-126473000D01*
X145977000Y-124498952D01*
X145977000Y-119668519D01*
X145978824Y-119650000D01*
X145977000Y-119631481D01*
X145971545Y-119576095D01*
X145949988Y-119505030D01*
X145914981Y-119439537D01*
X145867869Y-119382131D01*
X145810463Y-119335019D01*
X145744970Y-119300012D01*
X145673905Y-119278455D01*
X145600000Y-119271176D01*
X145581481Y-119273000D01*
X144877000Y-119273000D01*
X144877000Y-114877000D01*
X154623000Y-114877000D01*
G36*
X145581471Y-100526999D02*
G01*
X145600000Y-100528824D01*
X145673905Y-100521545D01*
X145744970Y-100499988D01*
X145810463Y-100464981D01*
X145867869Y-100417869D01*
X145914981Y-100360463D01*
X145949988Y-100294970D01*
X145971545Y-100223905D01*
X145977000Y-100168519D01*
X145978824Y-100150000D01*
X145977000Y-100131481D01*
X145977000Y-98477000D01*
X153523000Y-98477000D01*
X153523000Y-100131481D01*
X153521176Y-100150000D01*
X153523000Y-100168519D01*
X153528455Y-100223905D01*
X153550012Y-100294970D01*
X153585019Y-100360463D01*
X153632131Y-100417869D01*
X153689537Y-100464981D01*
X153755030Y-100499988D01*
X153826095Y-100521545D01*
X153900000Y-100528824D01*
X153918529Y-100526999D01*
X154623000Y-100527000D01*
X154623000Y-105923000D01*
X144877000Y-105923000D01*
X144877000Y-100527000D01*
X145581471Y-100526999D01*
G37*
X145581471Y-100526999D02*
X145600000Y-100528824D01*
X145673905Y-100521545D01*
X145744970Y-100499988D01*
X145810463Y-100464981D01*
X145867869Y-100417869D01*
X145914981Y-100360463D01*
X145949988Y-100294970D01*
X145971545Y-100223905D01*
X145977000Y-100168519D01*
X145978824Y-100150000D01*
X145977000Y-100131481D01*
X145977000Y-98477000D01*
X153523000Y-98477000D01*
X153523000Y-100131481D01*
X153521176Y-100150000D01*
X153523000Y-100168519D01*
X153528455Y-100223905D01*
X153550012Y-100294970D01*
X153585019Y-100360463D01*
X153632131Y-100417869D01*
X153689537Y-100464981D01*
X153755030Y-100499988D01*
X153826095Y-100521545D01*
X153900000Y-100528824D01*
X153918529Y-100526999D01*
X154623000Y-100527000D01*
X154623000Y-105923000D01*
X144877000Y-105923000D01*
X144877000Y-100527000D01*
X145581471Y-100526999D01*
G36*
X147861318Y-93327000D02*
G01*
X151638681Y-93326999D01*
X153523000Y-95301048D01*
X153523000Y-98023000D01*
X145977000Y-98023000D01*
X145977000Y-95301048D01*
X147861318Y-93327000D01*
G37*
X147861318Y-93327000D02*
X151638681Y-93326999D01*
X153523000Y-95301048D01*
X153523000Y-98023000D01*
X145977000Y-98023000D01*
X145977000Y-95301048D01*
X147861318Y-93327000D01*
G36*
X168123000Y-106377000D02*
G01*
X168123000Y-114423000D01*
X158377000Y-114423000D01*
X158377000Y-106377000D01*
X168123000Y-106377000D01*
G37*
X168123000Y-106377000D02*
X168123000Y-114423000D01*
X158377000Y-114423000D01*
X158377000Y-106377000D01*
X168123000Y-106377000D01*
G36*
X168123000Y-114877000D02*
G01*
X168123000Y-119273000D01*
X167418519Y-119273000D01*
X167400000Y-119271176D01*
X167326095Y-119278455D01*
X167255030Y-119300012D01*
X167189537Y-119335019D01*
X167132131Y-119382131D01*
X167085019Y-119439537D01*
X167050012Y-119505030D01*
X167028455Y-119576095D01*
X167023000Y-119631481D01*
X167021176Y-119650000D01*
X167023000Y-119668519D01*
X167023000Y-124498952D01*
X165138683Y-126473000D01*
X161361317Y-126473000D01*
X159477000Y-124498952D01*
X159477000Y-119668519D01*
X159478824Y-119650000D01*
X159477000Y-119631481D01*
X159471545Y-119576095D01*
X159449988Y-119505030D01*
X159414981Y-119439537D01*
X159367869Y-119382131D01*
X159310463Y-119335019D01*
X159244970Y-119300012D01*
X159173905Y-119278455D01*
X159100000Y-119271176D01*
X159081481Y-119273000D01*
X158377000Y-119273000D01*
X158377000Y-114877000D01*
X168123000Y-114877000D01*
G37*
X168123000Y-114877000D02*
X168123000Y-119273000D01*
X167418519Y-119273000D01*
X167400000Y-119271176D01*
X167326095Y-119278455D01*
X167255030Y-119300012D01*
X167189537Y-119335019D01*
X167132131Y-119382131D01*
X167085019Y-119439537D01*
X167050012Y-119505030D01*
X167028455Y-119576095D01*
X167023000Y-119631481D01*
X167021176Y-119650000D01*
X167023000Y-119668519D01*
X167023000Y-124498952D01*
X165138683Y-126473000D01*
X161361317Y-126473000D01*
X159477000Y-124498952D01*
X159477000Y-119668519D01*
X159478824Y-119650000D01*
X159477000Y-119631481D01*
X159471545Y-119576095D01*
X159449988Y-119505030D01*
X159414981Y-119439537D01*
X159367869Y-119382131D01*
X159310463Y-119335019D01*
X159244970Y-119300012D01*
X159173905Y-119278455D01*
X159100000Y-119271176D01*
X159081481Y-119273000D01*
X158377000Y-119273000D01*
X158377000Y-114877000D01*
X168123000Y-114877000D01*
G36*
X159081471Y-100526999D02*
G01*
X159100000Y-100528824D01*
X159173905Y-100521545D01*
X159244970Y-100499988D01*
X159310463Y-100464981D01*
X159367869Y-100417869D01*
X159414981Y-100360463D01*
X159449988Y-100294970D01*
X159471545Y-100223905D01*
X159477000Y-100168519D01*
X159478824Y-100150000D01*
X159477000Y-100131481D01*
X159477000Y-98477000D01*
X167023000Y-98477000D01*
X167023000Y-100131481D01*
X167021176Y-100150000D01*
X167023000Y-100168519D01*
X167028455Y-100223905D01*
X167050012Y-100294970D01*
X167085019Y-100360463D01*
X167132131Y-100417869D01*
X167189537Y-100464981D01*
X167255030Y-100499988D01*
X167326095Y-100521545D01*
X167400000Y-100528824D01*
X167418529Y-100526999D01*
X168123000Y-100527000D01*
X168123000Y-105923000D01*
X158377000Y-105923000D01*
X158377000Y-100527000D01*
X159081471Y-100526999D01*
G37*
X159081471Y-100526999D02*
X159100000Y-100528824D01*
X159173905Y-100521545D01*
X159244970Y-100499988D01*
X159310463Y-100464981D01*
X159367869Y-100417869D01*
X159414981Y-100360463D01*
X159449988Y-100294970D01*
X159471545Y-100223905D01*
X159477000Y-100168519D01*
X159478824Y-100150000D01*
X159477000Y-100131481D01*
X159477000Y-98477000D01*
X167023000Y-98477000D01*
X167023000Y-100131481D01*
X167021176Y-100150000D01*
X167023000Y-100168519D01*
X167028455Y-100223905D01*
X167050012Y-100294970D01*
X167085019Y-100360463D01*
X167132131Y-100417869D01*
X167189537Y-100464981D01*
X167255030Y-100499988D01*
X167326095Y-100521545D01*
X167400000Y-100528824D01*
X167418529Y-100526999D01*
X168123000Y-100527000D01*
X168123000Y-105923000D01*
X158377000Y-105923000D01*
X158377000Y-100527000D01*
X159081471Y-100526999D01*
G36*
X161361318Y-93327000D02*
G01*
X165138681Y-93326999D01*
X167023000Y-95301048D01*
X167023000Y-98023000D01*
X159477000Y-98023000D01*
X159477000Y-95301048D01*
X161361318Y-93327000D01*
G37*
X161361318Y-93327000D02*
X165138681Y-93326999D01*
X167023000Y-95301048D01*
X167023000Y-98023000D01*
X159477000Y-98023000D01*
X159477000Y-95301048D01*
X161361318Y-93327000D01*
G36*
X186081471Y-100526999D02*
G01*
X186100000Y-100528824D01*
X186173905Y-100521545D01*
X186244970Y-100499988D01*
X186310463Y-100464981D01*
X186367869Y-100417869D01*
X186414981Y-100360463D01*
X186449988Y-100294970D01*
X186471545Y-100223905D01*
X186477000Y-100168519D01*
X186478824Y-100150000D01*
X186477000Y-100131481D01*
X186477000Y-98477000D01*
X194023000Y-98477000D01*
X194023000Y-100131481D01*
X194021176Y-100150000D01*
X194023000Y-100168519D01*
X194028455Y-100223905D01*
X194050012Y-100294970D01*
X194085019Y-100360463D01*
X194132131Y-100417869D01*
X194189537Y-100464981D01*
X194255030Y-100499988D01*
X194326095Y-100521545D01*
X194400000Y-100528824D01*
X194418529Y-100526999D01*
X195123000Y-100527000D01*
X195123000Y-105923000D01*
X185377000Y-105923000D01*
X185377000Y-100527000D01*
X186081471Y-100526999D01*
G37*
X186081471Y-100526999D02*
X186100000Y-100528824D01*
X186173905Y-100521545D01*
X186244970Y-100499988D01*
X186310463Y-100464981D01*
X186367869Y-100417869D01*
X186414981Y-100360463D01*
X186449988Y-100294970D01*
X186471545Y-100223905D01*
X186477000Y-100168519D01*
X186478824Y-100150000D01*
X186477000Y-100131481D01*
X186477000Y-98477000D01*
X194023000Y-98477000D01*
X194023000Y-100131481D01*
X194021176Y-100150000D01*
X194023000Y-100168519D01*
X194028455Y-100223905D01*
X194050012Y-100294970D01*
X194085019Y-100360463D01*
X194132131Y-100417869D01*
X194189537Y-100464981D01*
X194255030Y-100499988D01*
X194326095Y-100521545D01*
X194400000Y-100528824D01*
X194418529Y-100526999D01*
X195123000Y-100527000D01*
X195123000Y-105923000D01*
X185377000Y-105923000D01*
X185377000Y-100527000D01*
X186081471Y-100526999D01*
G36*
X195123000Y-114877000D02*
G01*
X195123000Y-119273000D01*
X194418519Y-119273000D01*
X194400000Y-119271176D01*
X194326095Y-119278455D01*
X194255030Y-119300012D01*
X194189537Y-119335019D01*
X194132131Y-119382131D01*
X194085019Y-119439537D01*
X194050012Y-119505030D01*
X194028455Y-119576095D01*
X194023000Y-119631481D01*
X194021176Y-119650000D01*
X194023000Y-119668519D01*
X194023000Y-124498952D01*
X192138683Y-126473000D01*
X188361317Y-126473000D01*
X186477000Y-124498952D01*
X186477000Y-119668519D01*
X186478824Y-119650000D01*
X186477000Y-119631481D01*
X186471545Y-119576095D01*
X186449988Y-119505030D01*
X186414981Y-119439537D01*
X186367869Y-119382131D01*
X186310463Y-119335019D01*
X186244970Y-119300012D01*
X186173905Y-119278455D01*
X186100000Y-119271176D01*
X186081481Y-119273000D01*
X185377000Y-119273000D01*
X185377000Y-114877000D01*
X195123000Y-114877000D01*
G37*
X195123000Y-114877000D02*
X195123000Y-119273000D01*
X194418519Y-119273000D01*
X194400000Y-119271176D01*
X194326095Y-119278455D01*
X194255030Y-119300012D01*
X194189537Y-119335019D01*
X194132131Y-119382131D01*
X194085019Y-119439537D01*
X194050012Y-119505030D01*
X194028455Y-119576095D01*
X194023000Y-119631481D01*
X194021176Y-119650000D01*
X194023000Y-119668519D01*
X194023000Y-124498952D01*
X192138683Y-126473000D01*
X188361317Y-126473000D01*
X186477000Y-124498952D01*
X186477000Y-119668519D01*
X186478824Y-119650000D01*
X186477000Y-119631481D01*
X186471545Y-119576095D01*
X186449988Y-119505030D01*
X186414981Y-119439537D01*
X186367869Y-119382131D01*
X186310463Y-119335019D01*
X186244970Y-119300012D01*
X186173905Y-119278455D01*
X186100000Y-119271176D01*
X186081481Y-119273000D01*
X185377000Y-119273000D01*
X185377000Y-114877000D01*
X195123000Y-114877000D01*
G36*
X172581471Y-100526999D02*
G01*
X172600000Y-100528824D01*
X172673905Y-100521545D01*
X172744970Y-100499988D01*
X172810463Y-100464981D01*
X172867869Y-100417869D01*
X172914981Y-100360463D01*
X172949988Y-100294970D01*
X172971545Y-100223905D01*
X172977000Y-100168519D01*
X172978824Y-100150000D01*
X172977000Y-100131481D01*
X172977000Y-98477000D01*
X180523000Y-98477000D01*
X180523000Y-100131481D01*
X180521176Y-100150000D01*
X180523000Y-100168519D01*
X180528455Y-100223905D01*
X180550012Y-100294970D01*
X180585019Y-100360463D01*
X180632131Y-100417869D01*
X180689537Y-100464981D01*
X180755030Y-100499988D01*
X180826095Y-100521545D01*
X180900000Y-100528824D01*
X180918529Y-100526999D01*
X181623000Y-100527000D01*
X181623000Y-105923000D01*
X171877000Y-105923000D01*
X171877000Y-100527000D01*
X172581471Y-100526999D01*
G37*
X172581471Y-100526999D02*
X172600000Y-100528824D01*
X172673905Y-100521545D01*
X172744970Y-100499988D01*
X172810463Y-100464981D01*
X172867869Y-100417869D01*
X172914981Y-100360463D01*
X172949988Y-100294970D01*
X172971545Y-100223905D01*
X172977000Y-100168519D01*
X172978824Y-100150000D01*
X172977000Y-100131481D01*
X172977000Y-98477000D01*
X180523000Y-98477000D01*
X180523000Y-100131481D01*
X180521176Y-100150000D01*
X180523000Y-100168519D01*
X180528455Y-100223905D01*
X180550012Y-100294970D01*
X180585019Y-100360463D01*
X180632131Y-100417869D01*
X180689537Y-100464981D01*
X180755030Y-100499988D01*
X180826095Y-100521545D01*
X180900000Y-100528824D01*
X180918529Y-100526999D01*
X181623000Y-100527000D01*
X181623000Y-105923000D01*
X171877000Y-105923000D01*
X171877000Y-100527000D01*
X172581471Y-100526999D01*
G36*
X208623000Y-114877000D02*
G01*
X208623000Y-119273000D01*
X207918519Y-119273000D01*
X207900000Y-119271176D01*
X207826095Y-119278455D01*
X207755030Y-119300012D01*
X207689537Y-119335019D01*
X207632131Y-119382131D01*
X207585019Y-119439537D01*
X207550012Y-119505030D01*
X207528455Y-119576095D01*
X207523000Y-119631481D01*
X207521176Y-119650000D01*
X207523000Y-119668519D01*
X207523000Y-124498952D01*
X205638683Y-126473000D01*
X201861317Y-126473000D01*
X199977000Y-124498952D01*
X199977000Y-119668519D01*
X199978824Y-119650000D01*
X199977000Y-119631481D01*
X199971545Y-119576095D01*
X199949988Y-119505030D01*
X199914981Y-119439537D01*
X199867869Y-119382131D01*
X199810463Y-119335019D01*
X199744970Y-119300012D01*
X199673905Y-119278455D01*
X199600000Y-119271176D01*
X199581481Y-119273000D01*
X198877000Y-119273000D01*
X198877000Y-114877000D01*
X208623000Y-114877000D01*
G37*
X208623000Y-114877000D02*
X208623000Y-119273000D01*
X207918519Y-119273000D01*
X207900000Y-119271176D01*
X207826095Y-119278455D01*
X207755030Y-119300012D01*
X207689537Y-119335019D01*
X207632131Y-119382131D01*
X207585019Y-119439537D01*
X207550012Y-119505030D01*
X207528455Y-119576095D01*
X207523000Y-119631481D01*
X207521176Y-119650000D01*
X207523000Y-119668519D01*
X207523000Y-124498952D01*
X205638683Y-126473000D01*
X201861317Y-126473000D01*
X199977000Y-124498952D01*
X199977000Y-119668519D01*
X199978824Y-119650000D01*
X199977000Y-119631481D01*
X199971545Y-119576095D01*
X199949988Y-119505030D01*
X199914981Y-119439537D01*
X199867869Y-119382131D01*
X199810463Y-119335019D01*
X199744970Y-119300012D01*
X199673905Y-119278455D01*
X199600000Y-119271176D01*
X199581481Y-119273000D01*
X198877000Y-119273000D01*
X198877000Y-114877000D01*
X208623000Y-114877000D01*
G36*
X174861318Y-93327000D02*
G01*
X178638681Y-93326999D01*
X180523000Y-95301048D01*
X180523000Y-98023000D01*
X172977000Y-98023000D01*
X172977000Y-95301048D01*
X174861318Y-93327000D01*
G37*
X174861318Y-93327000D02*
X178638681Y-93326999D01*
X180523000Y-95301048D01*
X180523000Y-98023000D01*
X172977000Y-98023000D01*
X172977000Y-95301048D01*
X174861318Y-93327000D01*
G36*
X188361318Y-93327000D02*
G01*
X192138681Y-93326999D01*
X194023000Y-95301048D01*
X194023000Y-98023000D01*
X186477000Y-98023000D01*
X186477000Y-95301048D01*
X188361318Y-93327000D01*
G37*
X188361318Y-93327000D02*
X192138681Y-93326999D01*
X194023000Y-95301048D01*
X194023000Y-98023000D01*
X186477000Y-98023000D01*
X186477000Y-95301048D01*
X188361318Y-93327000D01*
G36*
X201861318Y-93327000D02*
G01*
X205638681Y-93326999D01*
X207523000Y-95301048D01*
X207523000Y-98023000D01*
X199977000Y-98023000D01*
X199977000Y-95301048D01*
X201861318Y-93327000D01*
G37*
X201861318Y-93327000D02*
X205638681Y-93326999D01*
X207523000Y-95301048D01*
X207523000Y-98023000D01*
X199977000Y-98023000D01*
X199977000Y-95301048D01*
X201861318Y-93327000D01*
G36*
X208623000Y-106377000D02*
G01*
X208623000Y-114423000D01*
X198877000Y-114423000D01*
X198877000Y-106377000D01*
X208623000Y-106377000D01*
G37*
X208623000Y-106377000D02*
X208623000Y-114423000D01*
X198877000Y-114423000D01*
X198877000Y-106377000D01*
X208623000Y-106377000D01*
G36*
X199581471Y-100526999D02*
G01*
X199600000Y-100528824D01*
X199673905Y-100521545D01*
X199744970Y-100499988D01*
X199810463Y-100464981D01*
X199867869Y-100417869D01*
X199914981Y-100360463D01*
X199949988Y-100294970D01*
X199971545Y-100223905D01*
X199977000Y-100168519D01*
X199978824Y-100150000D01*
X199977000Y-100131481D01*
X199977000Y-98477000D01*
X207523000Y-98477000D01*
X207523000Y-100131481D01*
X207521176Y-100150000D01*
X207523000Y-100168519D01*
X207528455Y-100223905D01*
X207550012Y-100294970D01*
X207585019Y-100360463D01*
X207632131Y-100417869D01*
X207689537Y-100464981D01*
X207755030Y-100499988D01*
X207826095Y-100521545D01*
X207900000Y-100528824D01*
X207918529Y-100526999D01*
X208623000Y-100527000D01*
X208623000Y-105923000D01*
X198877000Y-105923000D01*
X198877000Y-100527000D01*
X199581471Y-100526999D01*
G37*
X199581471Y-100526999D02*
X199600000Y-100528824D01*
X199673905Y-100521545D01*
X199744970Y-100499988D01*
X199810463Y-100464981D01*
X199867869Y-100417869D01*
X199914981Y-100360463D01*
X199949988Y-100294970D01*
X199971545Y-100223905D01*
X199977000Y-100168519D01*
X199978824Y-100150000D01*
X199977000Y-100131481D01*
X199977000Y-98477000D01*
X207523000Y-98477000D01*
X207523000Y-100131481D01*
X207521176Y-100150000D01*
X207523000Y-100168519D01*
X207528455Y-100223905D01*
X207550012Y-100294970D01*
X207585019Y-100360463D01*
X207632131Y-100417869D01*
X207689537Y-100464981D01*
X207755030Y-100499988D01*
X207826095Y-100521545D01*
X207900000Y-100528824D01*
X207918529Y-100526999D01*
X208623000Y-100527000D01*
X208623000Y-105923000D01*
X198877000Y-105923000D01*
X198877000Y-100527000D01*
X199581471Y-100526999D01*
G36*
X195123000Y-106377000D02*
G01*
X195123000Y-114423000D01*
X185377000Y-114423000D01*
X185377000Y-106377000D01*
X195123000Y-106377000D01*
G37*
X195123000Y-106377000D02*
X195123000Y-114423000D01*
X185377000Y-114423000D01*
X185377000Y-106377000D01*
X195123000Y-106377000D01*
G36*
X181623000Y-114877000D02*
G01*
X181623000Y-119273000D01*
X180918519Y-119273000D01*
X180900000Y-119271176D01*
X180826095Y-119278455D01*
X180755030Y-119300012D01*
X180689537Y-119335019D01*
X180632131Y-119382131D01*
X180585019Y-119439537D01*
X180550012Y-119505030D01*
X180528455Y-119576095D01*
X180523000Y-119631481D01*
X180521176Y-119650000D01*
X180523000Y-119668519D01*
X180523000Y-124498952D01*
X178638683Y-126473000D01*
X174861317Y-126473000D01*
X172977000Y-124498952D01*
X172977000Y-119668519D01*
X172978824Y-119650000D01*
X172977000Y-119631481D01*
X172971545Y-119576095D01*
X172949988Y-119505030D01*
X172914981Y-119439537D01*
X172867869Y-119382131D01*
X172810463Y-119335019D01*
X172744970Y-119300012D01*
X172673905Y-119278455D01*
X172600000Y-119271176D01*
X172581481Y-119273000D01*
X171877000Y-119273000D01*
X171877000Y-114877000D01*
X181623000Y-114877000D01*
G37*
X181623000Y-114877000D02*
X181623000Y-119273000D01*
X180918519Y-119273000D01*
X180900000Y-119271176D01*
X180826095Y-119278455D01*
X180755030Y-119300012D01*
X180689537Y-119335019D01*
X180632131Y-119382131D01*
X180585019Y-119439537D01*
X180550012Y-119505030D01*
X180528455Y-119576095D01*
X180523000Y-119631481D01*
X180521176Y-119650000D01*
X180523000Y-119668519D01*
X180523000Y-124498952D01*
X178638683Y-126473000D01*
X174861317Y-126473000D01*
X172977000Y-124498952D01*
X172977000Y-119668519D01*
X172978824Y-119650000D01*
X172977000Y-119631481D01*
X172971545Y-119576095D01*
X172949988Y-119505030D01*
X172914981Y-119439537D01*
X172867869Y-119382131D01*
X172810463Y-119335019D01*
X172744970Y-119300012D01*
X172673905Y-119278455D01*
X172600000Y-119271176D01*
X172581481Y-119273000D01*
X171877000Y-119273000D01*
X171877000Y-114877000D01*
X181623000Y-114877000D01*
M02*
