G04 #@! TF.GenerationSoftware,KiCad,Pcbnew,(5.1.5)-3*
G04 #@! TF.CreationDate,2020-08-22T08:16:36+03:00*
G04 #@! TF.ProjectId,C5W LED series,43355720-4c45-4442-9073-65726965732e,rev?*
G04 #@! TF.SameCoordinates,Original*
G04 #@! TF.FileFunction,Profile,NP*
%FSLAX46Y46*%
G04 Gerber Fmt 4.6, Leading zero omitted, Abs format (unit mm)*
G04 Created by KiCad (PCBNEW (5.1.5)-3) date 2020-08-22 08:16:36*
%MOMM*%
%LPD*%
G04 APERTURE LIST*
%ADD10C,0.100000*%
G04 APERTURE END LIST*
D10*
X217000000Y-132800000D02*
X217000000Y-50000000D01*
X123000000Y-132800000D02*
X217000000Y-132800000D01*
X128000000Y-111800000D02*
X128000000Y-129800000D01*
X212000000Y-129800000D02*
X128000000Y-129800000D01*
X212000000Y-111800000D02*
X212000000Y-129800000D01*
X211500000Y-111300000D02*
G75*
G02X212000000Y-111800000I0J-500000D01*
G01*
X212000000Y-108600000D02*
G75*
G02X211500000Y-109100000I-500000J0D01*
G01*
X212000000Y-74900000D02*
X212000000Y-108600000D01*
X128000000Y-108600000D02*
X128000000Y-74900000D01*
X168500000Y-100150000D02*
X168500000Y-108600000D01*
X194400000Y-124650000D02*
X192300000Y-126850000D01*
X182000000Y-100150000D02*
X182000000Y-108600000D01*
X180900000Y-95150000D02*
X180900000Y-100150000D01*
X165300000Y-92950000D02*
X167400000Y-95150000D01*
X184500000Y-111300000D02*
G75*
G02X185000000Y-111800000I0J-500000D01*
G01*
X182500000Y-109100000D02*
G75*
G02X182000000Y-108600000I0J500000D01*
G01*
X178800000Y-126850000D02*
X174700000Y-126850000D01*
X174700000Y-126850000D02*
X172600000Y-124650000D01*
X171500000Y-108600000D02*
G75*
G02X171000000Y-109100000I-500000J0D01*
G01*
X169000000Y-111300000D02*
X171000000Y-111300000D01*
X180900000Y-119650000D02*
X180900000Y-124650000D01*
X178800000Y-92950000D02*
X180900000Y-95150000D01*
X171500000Y-119650000D02*
X172600000Y-119650000D01*
X182000000Y-119650000D02*
X180900000Y-119650000D01*
X158000000Y-108600000D02*
G75*
G02X157500000Y-109100000I-500000J0D01*
G01*
X182000000Y-111800000D02*
X182000000Y-119650000D01*
X195500000Y-100150000D02*
X194400000Y-100150000D01*
X157500000Y-111300000D02*
G75*
G02X158000000Y-111800000I0J-500000D01*
G01*
X172600000Y-95150000D02*
X174700000Y-92950000D01*
X167400000Y-124650000D02*
X165300000Y-126850000D01*
X185000000Y-111800000D02*
X185000000Y-119650000D01*
X184500000Y-109100000D02*
X182500000Y-109100000D01*
X168500000Y-100150000D02*
X167400000Y-100150000D01*
X195500000Y-111800000D02*
G75*
G02X196000000Y-111300000I500000J0D01*
G01*
X185000000Y-100150000D02*
X185000000Y-108600000D01*
X171500000Y-111800000D02*
X171500000Y-119650000D01*
X185000000Y-100150000D02*
X186100000Y-100150000D01*
X172600000Y-95150000D02*
X172600000Y-100150000D01*
X188200000Y-92950000D02*
X192300000Y-92950000D01*
X171500000Y-100150000D02*
X171500000Y-108600000D01*
X182000000Y-111800000D02*
G75*
G02X182500000Y-111300000I500000J0D01*
G01*
X172600000Y-119650000D02*
X172600000Y-124650000D01*
X171500000Y-100150000D02*
X172600000Y-100150000D01*
X171000000Y-109100000D02*
X169000000Y-109100000D01*
X171000000Y-111300000D02*
G75*
G02X171500000Y-111800000I0J-500000D01*
G01*
X186100000Y-119650000D02*
X186100000Y-124650000D01*
X182000000Y-100150000D02*
X180900000Y-100150000D01*
X186100000Y-95150000D02*
X186100000Y-100150000D01*
X180900000Y-124650000D02*
X178800000Y-126850000D01*
X174700000Y-92950000D02*
X178800000Y-92950000D01*
X151800000Y-92950000D02*
X153900000Y-95150000D01*
X144500000Y-108600000D02*
G75*
G02X144000000Y-109100000I-500000J0D01*
G01*
X153900000Y-124650000D02*
X151800000Y-126850000D01*
X141500000Y-111800000D02*
G75*
G02X142000000Y-111300000I500000J0D01*
G01*
X165300000Y-126850000D02*
X161200000Y-126850000D01*
X167400000Y-95150000D02*
X167400000Y-100150000D01*
X144000000Y-111300000D02*
G75*
G02X144500000Y-111800000I0J-500000D01*
G01*
X159100000Y-95150000D02*
X161200000Y-92950000D01*
X155500000Y-111300000D02*
X157500000Y-111300000D01*
X158000000Y-100150000D02*
X159100000Y-100150000D01*
X157500000Y-109100000D02*
X155500000Y-109100000D01*
X155000000Y-100150000D02*
X153900000Y-100150000D01*
X155000000Y-100150000D02*
X155000000Y-108600000D01*
X144500000Y-119650000D02*
X145600000Y-119650000D01*
X155000000Y-111800000D02*
X155000000Y-119650000D01*
X167400000Y-119650000D02*
X167400000Y-124650000D01*
X151800000Y-126850000D02*
X147700000Y-126850000D01*
X158000000Y-119650000D02*
X159100000Y-119650000D01*
X168500000Y-111800000D02*
X168500000Y-119650000D01*
X159100000Y-119650000D02*
X159100000Y-124650000D01*
X144500000Y-111800000D02*
X144500000Y-119650000D01*
X168500000Y-111800000D02*
G75*
G02X169000000Y-111300000I500000J0D01*
G01*
X161200000Y-92950000D02*
X165300000Y-92950000D01*
X144500000Y-100150000D02*
X144500000Y-108600000D01*
X145600000Y-95150000D02*
X147700000Y-92950000D01*
X145600000Y-119650000D02*
X145600000Y-124650000D01*
X145600000Y-95150000D02*
X145600000Y-100150000D01*
X142000000Y-111300000D02*
X144000000Y-111300000D01*
X158000000Y-100150000D02*
X158000000Y-108600000D01*
X155500000Y-109100000D02*
G75*
G02X155000000Y-108600000I0J500000D01*
G01*
X153900000Y-95150000D02*
X153900000Y-100150000D01*
X155000000Y-111800000D02*
G75*
G02X155500000Y-111300000I500000J0D01*
G01*
X147700000Y-126850000D02*
X145600000Y-124650000D01*
X144500000Y-100150000D02*
X145600000Y-100150000D01*
X155000000Y-119650000D02*
X153900000Y-119650000D01*
X141500000Y-111800000D02*
X141500000Y-119650000D01*
X147700000Y-92950000D02*
X151800000Y-92950000D01*
X144000000Y-109100000D02*
X142000000Y-109100000D01*
X158000000Y-111800000D02*
X158000000Y-119650000D01*
X168500000Y-119650000D02*
X167400000Y-119650000D01*
X159100000Y-95150000D02*
X159100000Y-100150000D01*
X142000000Y-109100000D02*
G75*
G02X141500000Y-108600000I0J500000D01*
G01*
X161200000Y-126850000D02*
X159100000Y-124650000D01*
X169000000Y-109100000D02*
G75*
G02X168500000Y-108600000I0J500000D01*
G01*
X153900000Y-119650000D02*
X153900000Y-124650000D01*
X194400000Y-119650000D02*
X194400000Y-124650000D01*
X182500000Y-111300000D02*
X184500000Y-111300000D01*
X198500000Y-111800000D02*
X198500000Y-119650000D01*
X209000000Y-100150000D02*
X207900000Y-100150000D01*
X207900000Y-95150000D02*
X207900000Y-100150000D01*
X209000000Y-100150000D02*
X209000000Y-108600000D01*
X199600000Y-95150000D02*
X199600000Y-100150000D01*
X192300000Y-126850000D02*
X188200000Y-126850000D01*
X195500000Y-111800000D02*
X195500000Y-119650000D01*
X199600000Y-95150000D02*
X201700000Y-92950000D01*
X198000000Y-109100000D02*
X196000000Y-109100000D01*
X209000000Y-111800000D02*
X209000000Y-119650000D01*
X195500000Y-119650000D02*
X194400000Y-119650000D01*
X198500000Y-119650000D02*
X199600000Y-119650000D01*
X198500000Y-100150000D02*
X198500000Y-108600000D01*
X185000000Y-108600000D02*
G75*
G02X184500000Y-109100000I-500000J0D01*
G01*
X194400000Y-95150000D02*
X194400000Y-100150000D01*
X198500000Y-108600000D02*
G75*
G02X198000000Y-109100000I-500000J0D01*
G01*
X185000000Y-119650000D02*
X186100000Y-119650000D01*
X207900000Y-119650000D02*
X207900000Y-124650000D01*
X205800000Y-126850000D02*
X201700000Y-126850000D01*
X209500000Y-109100000D02*
G75*
G02X209000000Y-108600000I0J500000D01*
G01*
X205800000Y-92950000D02*
X207900000Y-95150000D01*
X211500000Y-109100000D02*
X209500000Y-109100000D01*
X195500000Y-100150000D02*
X195500000Y-108600000D01*
X209500000Y-111300000D02*
X211500000Y-111300000D01*
X207900000Y-124650000D02*
X205800000Y-126850000D01*
X201700000Y-126850000D02*
X199600000Y-124650000D01*
X196000000Y-111300000D02*
X198000000Y-111300000D01*
X186100000Y-95150000D02*
X188200000Y-92950000D01*
X209000000Y-111800000D02*
G75*
G02X209500000Y-111300000I500000J0D01*
G01*
X201700000Y-92950000D02*
X205800000Y-92950000D01*
X196000000Y-109100000D02*
G75*
G02X195500000Y-108600000I0J500000D01*
G01*
X192300000Y-92950000D02*
X194400000Y-95150000D01*
X198500000Y-100150000D02*
X199600000Y-100150000D01*
X198000000Y-111300000D02*
G75*
G02X198500000Y-111800000I0J-500000D01*
G01*
X188200000Y-126850000D02*
X186100000Y-124650000D01*
X209000000Y-119650000D02*
X207900000Y-119650000D01*
X199600000Y-119650000D02*
X199600000Y-124650000D01*
X131000000Y-108600000D02*
G75*
G02X130500000Y-109100000I-500000J0D01*
G01*
X131000000Y-100150000D02*
X131000000Y-108600000D01*
X141500000Y-100150000D02*
X141500000Y-108600000D01*
X128500000Y-109100000D02*
G75*
G02X128000000Y-108600000I0J500000D01*
G01*
X130500000Y-111300000D02*
G75*
G02X131000000Y-111800000I0J-500000D01*
G01*
X128000000Y-111800000D02*
G75*
G02X128500000Y-111300000I500000J0D01*
G01*
X128500000Y-111300000D02*
X130500000Y-111300000D01*
X130500000Y-109100000D02*
X128500000Y-109100000D01*
X131000000Y-111800000D02*
X131000000Y-119650000D01*
X132100000Y-95150000D02*
X134200000Y-92950000D01*
X131000000Y-100150000D02*
X132100000Y-100150000D01*
X131000000Y-119650000D02*
X132100000Y-119650000D01*
X141500000Y-119650000D02*
X140400000Y-119650000D01*
X140400000Y-119650000D02*
X140400000Y-124650000D01*
X140400000Y-124650000D02*
X138300000Y-126850000D01*
X138300000Y-126850000D02*
X134200000Y-126850000D01*
X134200000Y-92950000D02*
X138300000Y-92950000D01*
X140400000Y-95150000D02*
X140400000Y-100150000D01*
X141500000Y-100150000D02*
X140400000Y-100150000D01*
X134200000Y-126850000D02*
X132100000Y-124650000D01*
X132100000Y-119650000D02*
X132100000Y-124650000D01*
X132100000Y-95150000D02*
X132100000Y-100150000D01*
X138300000Y-92950000D02*
X140400000Y-95150000D01*
X212000000Y-71700000D02*
X212000000Y-53000000D01*
X211500000Y-72200000D02*
X209500000Y-72200000D01*
X212000000Y-71700000D02*
G75*
G02X211500000Y-72200000I-500000J0D01*
G01*
X209500000Y-74400000D02*
X211500000Y-74400000D01*
X211500000Y-74400000D02*
G75*
G02X212000000Y-74900000I0J-500000D01*
G01*
X207900000Y-87750000D02*
X205800000Y-89950000D01*
X198000000Y-74400000D02*
G75*
G02X198500000Y-74900000I0J-500000D01*
G01*
X209000000Y-63250000D02*
X207900000Y-63250000D01*
X198500000Y-74900000D02*
X198500000Y-82750000D01*
X198000000Y-72200000D02*
X196000000Y-72200000D01*
X209000000Y-74900000D02*
G75*
G02X209500000Y-74400000I500000J0D01*
G01*
X198500000Y-63250000D02*
X198500000Y-71700000D01*
X198500000Y-63250000D02*
X199600000Y-63250000D01*
X201700000Y-56050000D02*
X205800000Y-56050000D01*
X199600000Y-82750000D02*
X199600000Y-87750000D01*
X199600000Y-58250000D02*
X199600000Y-63250000D01*
X207900000Y-82750000D02*
X207900000Y-87750000D01*
X196000000Y-74400000D02*
X198000000Y-74400000D01*
X205800000Y-89950000D02*
X201700000Y-89950000D01*
X209000000Y-74900000D02*
X209000000Y-82750000D01*
X209000000Y-82750000D02*
X207900000Y-82750000D01*
X198500000Y-71700000D02*
G75*
G02X198000000Y-72200000I-500000J0D01*
G01*
X207900000Y-58250000D02*
X207900000Y-63250000D01*
X198500000Y-82750000D02*
X199600000Y-82750000D01*
X209000000Y-63250000D02*
X209000000Y-71700000D01*
X199600000Y-58250000D02*
X201700000Y-56050000D01*
X209500000Y-72200000D02*
G75*
G02X209000000Y-71700000I0J500000D01*
G01*
X205800000Y-56050000D02*
X207900000Y-58250000D01*
X201700000Y-89950000D02*
X199600000Y-87750000D01*
X195500000Y-63250000D02*
X195500000Y-71700000D01*
X194400000Y-58250000D02*
X194400000Y-63250000D01*
X196000000Y-72200000D02*
G75*
G02X195500000Y-71700000I0J500000D01*
G01*
X192300000Y-89950000D02*
X188200000Y-89950000D01*
X188200000Y-89950000D02*
X186100000Y-87750000D01*
X185000000Y-71700000D02*
G75*
G02X184500000Y-72200000I-500000J0D01*
G01*
X182500000Y-74400000D02*
X184500000Y-74400000D01*
X194400000Y-82750000D02*
X194400000Y-87750000D01*
X192300000Y-56050000D02*
X194400000Y-58250000D01*
X185000000Y-82750000D02*
X186100000Y-82750000D01*
X195500000Y-82750000D02*
X194400000Y-82750000D01*
X195500000Y-74900000D02*
X195500000Y-82750000D01*
X186100000Y-58250000D02*
X188200000Y-56050000D01*
X185000000Y-74900000D02*
X185000000Y-82750000D01*
X186100000Y-58250000D02*
X186100000Y-63250000D01*
X185000000Y-63250000D02*
X185000000Y-71700000D01*
X195500000Y-74900000D02*
G75*
G02X196000000Y-74400000I500000J0D01*
G01*
X186100000Y-82750000D02*
X186100000Y-87750000D01*
X185000000Y-63250000D02*
X186100000Y-63250000D01*
X184500000Y-72200000D02*
X182500000Y-72200000D01*
X184500000Y-74400000D02*
G75*
G02X185000000Y-74900000I0J-500000D01*
G01*
X195500000Y-63250000D02*
X194400000Y-63250000D01*
X194400000Y-87750000D02*
X192300000Y-89950000D01*
X188200000Y-56050000D02*
X192300000Y-56050000D01*
X182000000Y-63250000D02*
X182000000Y-71700000D01*
X178800000Y-56050000D02*
X180900000Y-58250000D01*
X171500000Y-71700000D02*
G75*
G02X171000000Y-72200000I-500000J0D01*
G01*
X171000000Y-74400000D02*
G75*
G02X171500000Y-74900000I0J-500000D01*
G01*
X180900000Y-87750000D02*
X178800000Y-89950000D01*
X182000000Y-63250000D02*
X180900000Y-63250000D01*
X178800000Y-89950000D02*
X174700000Y-89950000D01*
X180900000Y-58250000D02*
X180900000Y-63250000D01*
X172600000Y-58250000D02*
X174700000Y-56050000D01*
X169000000Y-74400000D02*
X171000000Y-74400000D01*
X171500000Y-63250000D02*
X172600000Y-63250000D01*
X171000000Y-72200000D02*
X169000000Y-72200000D01*
X180900000Y-82750000D02*
X180900000Y-87750000D01*
X171500000Y-82750000D02*
X172600000Y-82750000D01*
X182000000Y-74900000D02*
X182000000Y-82750000D01*
X172600000Y-82750000D02*
X172600000Y-87750000D01*
X182000000Y-74900000D02*
G75*
G02X182500000Y-74400000I500000J0D01*
G01*
X174700000Y-56050000D02*
X178800000Y-56050000D01*
X171500000Y-63250000D02*
X171500000Y-71700000D01*
X171500000Y-74900000D02*
X171500000Y-82750000D01*
X182000000Y-82750000D02*
X180900000Y-82750000D01*
X172600000Y-58250000D02*
X172600000Y-63250000D01*
X174700000Y-89950000D02*
X172600000Y-87750000D01*
X182500000Y-72200000D02*
G75*
G02X182000000Y-71700000I0J500000D01*
G01*
X165300000Y-56050000D02*
X167400000Y-58250000D01*
X158000000Y-71700000D02*
G75*
G02X157500000Y-72200000I-500000J0D01*
G01*
X167400000Y-87750000D02*
X165300000Y-89950000D01*
X157500000Y-74400000D02*
G75*
G02X158000000Y-74900000I0J-500000D01*
G01*
X168500000Y-63250000D02*
X167400000Y-63250000D01*
X168500000Y-63250000D02*
X168500000Y-71700000D01*
X158000000Y-82750000D02*
X159100000Y-82750000D01*
X168500000Y-74900000D02*
X168500000Y-82750000D01*
X165300000Y-89950000D02*
X161200000Y-89950000D01*
X158000000Y-74900000D02*
X158000000Y-82750000D01*
X158000000Y-63250000D02*
X158000000Y-71700000D01*
X159100000Y-58250000D02*
X161200000Y-56050000D01*
X159100000Y-82750000D02*
X159100000Y-87750000D01*
X159100000Y-58250000D02*
X159100000Y-63250000D01*
X155500000Y-74400000D02*
X157500000Y-74400000D01*
X169000000Y-72200000D02*
G75*
G02X168500000Y-71700000I0J500000D01*
G01*
X167400000Y-58250000D02*
X167400000Y-63250000D01*
X168500000Y-74900000D02*
G75*
G02X169000000Y-74400000I500000J0D01*
G01*
X161200000Y-89950000D02*
X159100000Y-87750000D01*
X158000000Y-63250000D02*
X159100000Y-63250000D01*
X168500000Y-82750000D02*
X167400000Y-82750000D01*
X161200000Y-56050000D02*
X165300000Y-56050000D01*
X157500000Y-72200000D02*
X155500000Y-72200000D01*
X167400000Y-82750000D02*
X167400000Y-87750000D01*
X155000000Y-74900000D02*
G75*
G02X155500000Y-74400000I500000J0D01*
G01*
X155000000Y-74900000D02*
X155000000Y-82750000D01*
X155500000Y-72200000D02*
G75*
G02X155000000Y-71700000I0J500000D01*
G01*
X144500000Y-71700000D02*
G75*
G02X144000000Y-72200000I-500000J0D01*
G01*
X144500000Y-63250000D02*
X144500000Y-71700000D01*
X155000000Y-63250000D02*
X155000000Y-71700000D01*
X144000000Y-74400000D02*
G75*
G02X144500000Y-74900000I0J-500000D01*
G01*
X142000000Y-74400000D02*
X144000000Y-74400000D01*
X144000000Y-72200000D02*
X142000000Y-72200000D01*
X144500000Y-74900000D02*
X144500000Y-82750000D01*
X145600000Y-58250000D02*
X147700000Y-56050000D01*
X144500000Y-63250000D02*
X145600000Y-63250000D01*
X144500000Y-82750000D02*
X145600000Y-82750000D01*
X155000000Y-82750000D02*
X153900000Y-82750000D01*
X153900000Y-82750000D02*
X153900000Y-87750000D01*
X153900000Y-87750000D02*
X151800000Y-89950000D01*
X151800000Y-89950000D02*
X147700000Y-89950000D01*
X147700000Y-56050000D02*
X151800000Y-56050000D01*
X153900000Y-58250000D02*
X153900000Y-63250000D01*
X155000000Y-63250000D02*
X153900000Y-63250000D01*
X147700000Y-89950000D02*
X145600000Y-87750000D01*
X145600000Y-82750000D02*
X145600000Y-87750000D01*
X145600000Y-58250000D02*
X145600000Y-63250000D01*
X151800000Y-56050000D02*
X153900000Y-58250000D01*
X142000000Y-72200000D02*
G75*
G02X141500000Y-71700000I0J500000D01*
G01*
X141500000Y-74900000D02*
G75*
G02X142000000Y-74400000I500000J0D01*
G01*
X141500000Y-74900000D02*
X141500000Y-82750000D01*
X141500000Y-63250000D02*
X141500000Y-71700000D01*
X131000000Y-74900000D02*
X131000000Y-82750000D01*
X128000000Y-74900000D02*
G75*
G02X128500000Y-74400000I500000J0D01*
G01*
X130500000Y-74400000D02*
G75*
G02X131000000Y-74900000I0J-500000D01*
G01*
X128500000Y-74400000D02*
X130500000Y-74400000D01*
X128000000Y-71700000D02*
X128000000Y-53000000D01*
X128500000Y-72200000D02*
G75*
G02X128000000Y-71700000I0J500000D01*
G01*
X130500000Y-72200000D02*
X128500000Y-72200000D01*
X131000000Y-71700000D02*
G75*
G02X130500000Y-72200000I-500000J0D01*
G01*
X131000000Y-63250000D02*
X131000000Y-71700000D01*
X128000000Y-53000000D02*
X212000000Y-53000000D01*
X123000000Y-132800000D02*
X123000000Y-50000000D01*
X123000000Y-50000000D02*
X217000000Y-50000000D01*
X138300000Y-56050000D02*
X140400000Y-58250000D01*
X134200000Y-56050000D02*
X138300000Y-56050000D01*
X132100000Y-58250000D02*
X134200000Y-56050000D01*
X134200000Y-89950000D02*
X132100000Y-87750000D01*
X140400000Y-87750000D02*
X138300000Y-89950000D01*
X138300000Y-89950000D02*
X134200000Y-89950000D01*
X140400000Y-58250000D02*
X140400000Y-63250000D01*
X132100000Y-58250000D02*
X132100000Y-63250000D01*
X132100000Y-82750000D02*
X132100000Y-87750000D01*
X140400000Y-82750000D02*
X140400000Y-87750000D01*
X141500000Y-63250000D02*
X140400000Y-63250000D01*
X131000000Y-63250000D02*
X132100000Y-63250000D01*
X131000000Y-82750000D02*
X132100000Y-82750000D01*
X141500000Y-82750000D02*
X140400000Y-82750000D01*
M02*
